<svg width="514" height="564" viewBox="0 0 514 564" fill="none" xmlns="http://www.w3.org/2000/svg">
<path d="M203 564C315.114 564 406 473.114 406 361C406 248.886 315.114 158 203 158C90.8862 158 0 248.886 0 361C0 473.114 90.8862 564 203 564Z" fill="url(#paint0_radial)"/>
<g style="mix-blend-mode:screen" opacity="0.5">
<path d="M15.7767 398.35C15.8069 353.214 30.7872 309.368 58.3611 273.711C85.9349 238.054 124.537 212.609 168.096 201.379C211.654 190.148 257.697 193.77 298.98 211.675C340.263 229.579 374.444 260.75 396.146 300.284C387.629 273.187 373.553 248.18 354.824 226.873C336.094 205.567 313.128 188.433 287.401 176.573C261.675 164.714 233.759 158.394 205.452 158.018C177.144 157.642 149.072 163.219 123.042 174.391C97.0118 185.563 73.6013 202.082 54.3172 222.884C35.0332 243.686 20.303 268.31 11.0749 295.171C1.84678 322.033 -1.67466 350.536 0.737241 378.846C3.14914 407.156 11.4409 434.645 25.0788 459.544C18.8944 439.74 15.7576 419.104 15.7767 398.35Z" fill="#289AD9"/>
</g>
<path style="mix-blend-mode:multiply" opacity="0.5" d="M261.303 486.7C227.731 486.693 194.688 478.326 165.147 462.354C135.606 446.381 110.495 423.305 92.074 395.2C73.6529 367.096 62.4999 334.846 59.6187 301.353C56.7374 267.86 62.2184 234.175 75.5684 203.33C51.6251 222.612 32.3793 247.098 19.2895 274.934C6.1997 302.769 -0.390652 333.222 0.0178988 363.987C0.426449 394.751 7.82318 425.018 21.6475 452.495C35.4719 479.972 55.3612 503.937 79.808 522.575C104.255 541.212 132.618 554.033 162.747 560.065C192.877 566.098 223.982 565.184 253.707 557.392C283.431 549.6 310.994 535.136 334.307 515.094C357.62 495.053 376.071 469.96 388.262 441.719C352.341 470.837 307.52 486.717 261.303 486.7Z" fill="url(#paint1_radial)"/>
<path style="mix-blend-mode:multiply" opacity="0.5" d="M332.401 205.301C350.276 248.858 350.734 297.602 333.682 341.487C316.629 385.372 283.365 421.052 240.746 441.175C198.126 461.297 149.399 464.328 104.608 449.642C59.817 434.956 22.3752 403.673 0 362.241C0.156638 396.331 8.92233 429.831 25.486 459.641C42.0497 489.451 65.8763 514.608 94.7611 532.785C123.646 550.962 156.656 561.571 190.736 563.63C224.817 565.689 258.867 559.132 289.737 544.566C320.606 530 347.297 507.895 367.34 480.297C387.383 452.699 400.131 420.499 404.404 386.676C408.677 352.854 404.337 318.502 391.785 286.798C379.233 255.095 358.876 227.065 332.596 205.301H332.401Z" fill="url(#paint2_radial)"/>
<g style="mix-blend-mode:multiply" opacity="0.4">
<g style="mix-blend-mode:multiply" opacity="0.4">
<path d="M111.771 200.841C122.765 215.578 117.151 236.202 117.268 254.604C117.845 273.084 124.581 290.84 136.406 305.052C148.231 319.264 164.466 329.118 182.532 333.046C191.346 335.216 200.627 334.45 208.965 330.863C213.067 328.976 216.482 325.862 218.738 321.951C220.994 318.04 221.979 313.525 221.558 309.03C220.155 301.233 213.488 295.229 209.862 288.016C207.126 282.281 206.294 275.821 207.486 269.58C208.678 263.338 211.833 257.641 216.49 253.318C224.287 246.456 235.36 243.922 242.182 236.124C253.411 223.219 247.641 203.336 240.818 187.663C236.762 179.164 233.876 170.154 232.241 160.879C184.873 153.917 136.574 164.033 95.9809 189.418C102.179 191.731 107.635 195.678 111.771 200.841Z" fill="#6C63FF"/>
</g>
<g style="mix-blend-mode:multiply" opacity="0.4">
<path d="M73.9143 516.714C77.2146 514.815 79.9394 512.059 81.7995 508.736C83.6597 505.414 84.5859 501.65 84.4798 497.844C83.1153 483.341 64.3625 475.31 62.842 460.807C61.7893 451.021 69.4308 442.21 78.1249 437.414C86.819 432.619 96.7607 431.176 105.962 427.629C110.523 425.835 115.475 422.872 116.254 417.999C116.428 414.474 115.427 410.991 113.408 408.096C104.831 392.501 93.4468 374.684 75.5908 373.242C70.2105 372.774 64.6744 373.944 59.4501 372.618C47.1692 369.577 41.9449 354.567 43.0756 341.974C44.2062 329.381 49.6644 317.412 50.1712 304.819C50.717 290.901 44.2842 276.281 32.1982 269.497C29.6533 268.099 26.9032 267.112 24.0499 266.573C2.41327 307.63 -4.44041 354.88 4.63931 400.393C13.719 445.905 38.1794 486.908 73.9143 516.519V516.714Z" fill="#6C63FF"/>
</g>
<g style="mix-blend-mode:multiply" opacity="0.4">
<path d="M347.993 220.062C336.882 218.931 326.044 217.8 320.274 208.989L321.521 210.666C323.53 219.4 323.796 228.445 322.304 237.282C320.812 246.12 317.592 254.576 312.827 262.168C309.039 267.29 305.613 272.67 302.573 278.269C301.094 281.097 300.322 284.24 300.322 287.431C300.322 290.622 301.094 293.766 302.573 296.593C307.018 303.728 316.882 305.17 325.264 304.39C333.646 303.611 342.223 301.077 350.333 303.299C365.382 307.432 375.869 326.691 391.152 323.533C394.887 322.704 398.228 320.628 400.626 317.646C392.545 280.839 374.311 247.033 347.993 220.062Z" fill="#6C63FF"/>
</g>
<g style="mix-blend-mode:multiply" opacity="0.4">
<path d="M356.57 492.542C355.452 489.694 353.857 487.057 351.853 484.745C343.276 474.764 328.968 472.581 316.414 468.643C303.86 464.705 290.214 455.622 290.604 442.444C290.916 432.151 298.753 419.052 289.941 413.554C287.327 412.284 284.414 411.758 281.52 412.034C263.469 412.385 240.935 413.282 232.553 397.297C227.289 387.277 230.564 374.645 226.237 364.197C218.439 345.21 189.004 344.703 174.189 358.973C159.374 373.242 155.865 395.348 154.695 415.855C153.214 440.923 154.5 467.863 169.043 488.371C172.474 493.244 176.84 498.429 175.904 504.277C173.955 517.026 154.072 513.985 143.467 521.315C132.863 528.644 134.539 544.707 142.648 554.142C180.427 565.94 220.835 566.4 258.872 555.465C296.909 544.53 330.904 522.68 356.648 492.62L356.57 492.542Z" fill="#6C63FF"/>
</g>
</g>
<g style="mix-blend-mode:screen" opacity="0.5">
<path d="M271.84 220.385C287.344 213.758 305.601 215.474 321.649 209.782C325.036 208.528 328.223 206.781 331.107 204.598C303.83 181.831 271.052 166.723 236.097 160.805C201.141 154.887 165.252 158.37 132.066 170.901C98.8814 183.433 69.5813 204.566 47.1369 232.158C24.6925 259.751 9.90217 292.821 4.2655 328.016L6.59121 346.26C2.71501 365.751 2.5212 386.607 9.88598 405.085C17.2508 423.563 33.1432 439.351 52.5242 442.781C56.8051 443.745 61.2418 443.775 65.5349 442.867C69.8279 441.959 73.8773 440.135 77.4094 437.518C87.41 429.176 88.1077 414.363 89.7745 401.421C91.4413 388.478 97.2943 373.275 110.125 371.17C122.955 369.065 134.002 382.865 135.94 396.041C137.878 409.217 134.351 422.705 135.397 435.998C137.491 462.155 160.011 485.584 186.059 487.065C212.107 488.546 237.69 466.56 238.892 440.286C239.473 427.422 235.016 414.947 229.473 403.253C221.515 385.977 211.729 369.614 200.285 354.447C193.463 345.403 185.827 336.359 183.268 325.249C178.113 302.561 201.487 278.47 224.124 283.264C237.69 286.071 248.466 296.713 261.762 300.417C275.057 304.12 293.818 293.868 288.895 280.926C284.437 268.607 265.638 270.166 256.49 261.005C244.551 248.999 256.18 227.013 271.84 220.385Z" fill="#289AD9"/>
</g>
<g style="mix-blend-mode:screen" opacity="0.5">
<path d="M185.992 402.182C218.361 369.813 218.361 317.332 185.992 284.963C153.623 252.594 101.142 252.594 68.7729 284.963C36.4037 317.332 36.4036 369.813 68.7728 402.182C101.142 434.551 153.623 434.551 185.992 402.182Z" fill="#289AD9"/>
</g>
<g style="mix-blend-mode:screen" opacity="0.5">
<path d="M236.505 276.252C257.186 276.252 273.951 259.487 273.951 238.806C273.951 218.124 257.186 201.359 236.505 201.359C215.824 201.359 199.058 218.124 199.058 238.806C199.058 259.487 215.824 276.252 236.505 276.252Z" fill="#289AD9"/>
</g>
<g style="mix-blend-mode:screen" opacity="0.5">
<path d="M269.024 353.117C278.276 353.117 285.777 345.616 285.777 336.364C285.777 327.112 278.276 319.612 269.024 319.612C259.772 319.612 252.272 327.112 252.272 336.364C252.272 345.616 259.772 353.117 269.024 353.117Z" fill="#289AD9"/>
</g>
<g opacity="0.5">
<path opacity="0.5" d="M329.318 403.418L326.004 404.197C323.976 404.761 322.188 405.973 320.914 407.648C319.64 409.324 318.95 411.371 318.95 413.476C318.95 415.581 319.64 417.628 320.914 419.304C322.188 420.98 323.976 422.192 326.004 422.755L329.318 423.535C330.86 423.946 332.475 423.997 334.04 423.684C335.604 423.371 337.076 422.702 338.341 421.73C339.606 420.758 340.63 419.508 341.336 418.077C342.041 416.646 342.407 415.072 342.407 413.476C342.407 411.881 342.041 410.307 341.336 408.875C340.63 407.444 339.606 406.194 338.341 405.222C337.076 404.25 335.604 403.582 334.04 403.269C332.475 402.956 330.86 403.007 329.318 403.418Z" fill="url(#paint3_radial)"/>
</g>
<path d="M316.543 328.993C293.325 356.527 249.299 401.619 220.548 381.075C216.779 378.376 212.928 375.179 209.092 371.58C183.593 347.749 158.443 307.083 160.156 289.083C161.136 278.794 170.196 266.775 182.779 256.158C207.753 235.056 246.631 219.435 263.583 233.995C279.907 247.97 339.778 301.443 316.543 328.993Z" fill="white"/>
<g opacity="0.35">
<g opacity="0.35">
<path opacity="0.35" d="M316.543 328.993C293.325 356.527 249.299 401.619 220.548 381.075C216.779 378.375 212.928 375.179 209.092 371.58C221.476 369.325 225.625 354.449 219.735 346.916C183.302 300.417 181.357 269.154 182.779 256.158C207.754 235.056 246.631 219.435 263.583 233.995C279.907 247.97 339.778 301.443 316.543 328.993Z" fill="#090B3D"/>
</g>
</g>
<path d="M301.152 351.409C307.528 344.901 313.646 338.077 319.315 331.324C342.469 303.856 295.829 256.809 265.969 231.205C255.688 222.381 238.106 222.46 216.453 231.401C189.198 242.642 158.547 267.796 156.539 288.775C154.282 312.459 190.635 364.168 218.404 384.038C242.017 400.893 273.948 379.172 301.152 351.409ZM177.874 265.518C188.224 254.955 203.203 244.698 219.142 238.106C237.857 230.389 253.172 229.883 261.181 236.737C278.665 251.721 334.124 302.505 313.772 326.662C290.889 353.82 248.609 396.616 222.692 378.081C194.988 358.274 161.968 308.517 163.773 289.358C164.474 282.321 169.735 273.824 177.874 265.518Z" fill="#090B3D"/>
<path d="M206.427 325.768L191.07 333.475C187.604 335.207 186.38 339.584 188.495 342.778C195.762 353.808 212.012 375.308 224.754 369.237C240.192 361.865 230.564 345.733 214.033 327.196C212.13 325.043 208.994 324.47 206.427 325.768Z" fill="white"/>
<g opacity="0.35">
<g opacity="0.35">
<path opacity="0.35" d="M213.969 327.164C230.532 345.669 240.208 361.784 224.77 369.188C218.431 372.239 211.22 368.442 204.66 362.495C207.41 363.203 210.158 363.107 212.726 361.873C226.543 355.253 220.217 341.619 206.844 325.567C209.332 324.544 212.195 325.17 213.969 327.164Z" fill="#090B3D"/>
</g>
</g>
<path d="M232.113 368.467C234.067 366.472 235.33 364.119 235.884 361.457C237.705 352.73 231.966 341.754 216.709 324.722C213.742 321.398 208.821 320.486 204.761 322.534L189.421 330.257C186.821 331.556 184.9 333.903 184.137 336.713C183.374 339.491 183.833 342.473 185.416 344.857C196.251 361.21 212.121 379.26 226.307 372.457C228.666 371.339 230.591 370.02 232.113 368.467ZM191.869 337.303C192.062 337.107 192.318 336.91 192.623 336.76L207.964 329.036C209.087 328.47 210.438 328.704 211.26 329.638C216.05 334.973 230.597 351.213 228.744 360.102C228.237 362.49 226.459 364.401 223.249 365.935C214.792 369.987 201.312 355.625 191.495 340.814C190.897 339.908 191.007 339.022 191.134 338.57C191.245 338.23 191.437 337.745 191.869 337.303Z" fill="#090B3D"/>
<path d="M161.853 297.283C163.811 296.671 165.657 295.755 167.438 294.776C169.219 293.797 170.951 292.642 172.651 291.487C174.367 290.348 176.051 289.146 177.734 287.911C179.402 286.661 181.085 285.394 182.704 283.968C182.913 283.787 182.944 283.465 182.75 283.244C182.637 283.101 182.46 283.056 182.316 283.074C180.179 283.32 178.107 283.758 176.068 284.227C174.028 284.728 172.005 285.31 170.03 285.971C168.055 286.632 166.08 287.293 164.187 288.161C162.309 289.013 160.48 289.977 158.764 291.245C157.225 292.396 156.894 294.572 158.024 296.096C158.911 297.286 160.44 297.725 161.804 297.3L161.853 297.283Z" fill="#090B3D"/>
<path d="M291.853 332.811L298.292 320.564C305.562 306.76 317.453 295.688 331.932 290.037C336.956 288.07 342.352 286.723 347.832 286.612C367.904 286.185 388.295 305.62 389.643 320.561C390.159 326.452 390.854 332.901 390.854 332.901C395.517 333.657 431.03 342.109 429.322 361.62C427.816 378.7 409.432 394.915 388.177 392.132C374.124 390.285 363.605 382.381 356.816 375.057C348.883 366.482 341.828 351.172 332.053 355.279C317.463 361.431 310.605 373.267 284.453 377.223C253.851 381.85 222.481 356.529 205.942 324.94C194.027 302.241 194.673 235.571 194.673 235.571L282.047 342.4L291.853 332.811Z" fill="white"/>
<path d="M301.137 237.461L365.973 233.303L365.761 232.391L356.756 194.564C332.295 204.856 299.846 194.341 299.846 194.341L299.935 197.153L301.137 237.461Z" fill="white"/>
<g opacity="0.35">
<g opacity="0.35">
<path opacity="0.35" d="M301.136 237.461L365.973 233.304L365.761 232.391C340.899 227.58 310.745 205.533 299.935 197.153L301.136 237.461Z" fill="#090B3D"/>
</g>
</g>
<path d="M370.547 236.664L359.344 189.568L355.412 191.228C332.475 200.866 301.33 190.988 301.025 190.881L296.086 189.279L297.629 241.331L370.547 236.664ZM354.168 199.398L361.43 229.942L304.644 233.591L303.654 199.194C313.272 201.6 335.126 205.707 354.168 199.398Z" fill="#090B3D"/>
<path d="M343.086 201.969C343.086 201.969 345.007 163.278 353.004 145.282L365.136 149.959L364.885 203.907L343.086 201.969Z" fill="white"/>
<path d="M367.481 206.418C368.153 205.731 368.536 204.824 368.533 203.86L368.784 149.911C368.796 148.416 367.892 147.082 366.492 146.543L354.359 141.866C352.541 141.175 350.487 142.046 349.689 143.828C341.501 162.245 339.545 200.23 339.453 201.839C339.363 203.769 340.782 205.416 342.728 205.592L364.543 207.513C365.556 207.609 366.583 207.269 367.336 206.565C367.384 206.516 367.432 206.467 367.481 206.418ZM361.512 152.464L361.289 199.935L346.949 198.671C347.58 189.579 349.737 164.771 355.043 149.972L361.512 152.464Z" fill="#090B3D"/>
<path d="M273.247 173.277C303.939 223.734 353.402 248.067 353.402 248.067C407.096 221.775 424.721 282.085 424.721 282.085C424.721 282.085 467.754 269.833 470.752 298.441C473.368 323.343 420.033 346.108 398.12 328.259C398.12 328.259 384.168 301.673 367.175 305.052" fill="white"/>
<path d="M228.826 355.503C244.945 370.849 264.855 380.165 284.437 377.207C310.573 373.267 317.447 361.415 332.037 355.263C337.045 353.152 341.329 356.132 345.377 360.675C350.662 365.02 355.429 373.184 360.524 378.657C360.621 378.752 360.734 378.863 360.814 378.974C367.471 384.983 376.649 390.579 388.177 392.1C408.676 394.783 426.55 379.767 429.086 363.344C429.181 362.764 429.26 362.168 429.306 361.572C429.71 357.032 428.09 353.106 425.332 349.73C416.615 342.663 403.472 338.566 397.344 337.049C396.025 336.718 395.028 336.51 394.465 336.407C394.465 336.407 394.333 335.285 394.151 333.568C393.986 332.253 393.82 330.584 393.622 328.755C393.456 327.182 393.274 325.53 393.109 323.893C392.943 322.257 392.552 320.592 391.968 318.866C395.825 323.83 398.12 328.195 398.12 328.195C420.033 346.044 473.368 323.278 470.768 298.361C470.304 293.836 468.831 290.341 466.669 287.646C455.23 273.329 424.737 282.005 424.737 282.005C424.737 282.005 415.965 251.937 391.912 243.528C381.888 240.02 369.209 240.256 353.418 247.987C353.418 247.987 341.732 242.241 326.171 230.519C322.192 227.517 317.955 224.135 313.587 220.336C305.417 213.228 296.825 204.745 288.678 194.839L194.673 235.571C194.673 235.571 194.673 235.635 194.673 235.764C194.674 235.828 194.674 235.892 194.674 236.021L194.675 236.342C194.675 236.471 194.676 236.6 194.676 236.728C194.695 237.419 194.697 238.383 194.717 239.621C194.816 245.39 195.124 256.749 196.096 269.655C197.605 289.979 200.717 314.084 207.151 326.157C208.978 329.613 210.998 333.002 213.161 336.276C217.747 343.237 223.039 349.736 228.826 355.503Z" fill="white"/>
<path d="M375.464 303.688C376.281 302.854 376.502 301.564 375.936 300.497C360.82 271.809 393.495 246.137 393.815 245.875C395.034 244.953 395.254 243.246 394.35 242.04C393.43 240.85 391.742 240.638 390.524 241.559C390.155 241.839 353.857 270.403 371.09 303.088C371.786 304.411 373.442 304.912 374.774 304.198C375.063 304.065 375.271 303.884 375.464 303.688Z" fill="#090B3D"/>
<path d="M288.678 194.936L273.247 173.278C278.012 181.12 283.258 188.343 288.678 194.936Z" fill="white"/>
<path d="M465.401 319.446C471.905 312.807 475.145 305.309 474.383 297.993C473.604 290.5 470.324 284.786 464.687 280.993C453.108 273.204 434.651 276.111 427.118 277.768C424.152 269.799 414.977 249.527 396.003 241.288C383.45 235.814 369.166 236.752 353.518 243.982C345.034 239.419 303.142 215.357 276.359 171.327C275.309 169.625 273.073 169.101 271.373 170.159C269.657 171.234 269.101 173.478 270.135 175.164C301.005 225.922 349.68 250.285 351.757 251.294L353.35 252.087L354.971 251.303C369.253 244.305 382.043 243.184 393.002 247.93C413.264 256.726 421.171 282.87 421.236 283.126L422.227 286.533L425.664 285.573C425.888 285.505 448.819 279.162 460.56 287.044C464.425 289.646 466.574 293.514 467.137 298.841C467.998 306.96 460.875 316.197 448.601 322.951C433.648 331.182 412.653 334.711 400.958 325.815C398.453 321.342 384.462 297.89 366.505 301.447C364.529 301.851 363.234 303.754 363.577 305.725C363.953 307.696 365.837 308.965 367.813 308.594C379.554 306.285 391.339 323.249 394.879 329.987L395.219 330.64L395.783 331.096C410.477 343.059 435.246 338.58 452.028 329.353C457.371 326.416 461.86 323.059 465.401 319.446Z" fill="#090B3D"/>
<path d="M281.548 326.592L295.751 325.189L339.898 205.223C339.898 205.223 331.082 207.674 311.573 218.651C298.546 225.981 280.773 237.122 257.666 253.868L261.835 266.543L281.548 326.592Z" fill="white"/>
<path d="M298.365 328.584L345.731 199.85L338.955 201.735C337.927 202.01 313.135 209.221 255.551 250.963L253.37 252.544L278.972 330.51L298.365 328.584ZM333.746 211.501L293.169 321.794L284.123 322.674L261.961 255.257C299.87 227.951 323.024 216.187 333.746 211.501Z" fill="#090B3D"/>
<path d="M364.455 283.03L293.73 326.445L270.936 257.416L339.662 212.042L364.455 283.03Z" fill="#73BEFD"/>
<path d="M364.455 283.03L293.73 326.445L270.936 257.416L339.662 212.042L364.455 283.03Z" fill="#73BEFD"/>
<g opacity="0.35">
<g opacity="0.35">
<path opacity="0.35" d="M302.741 330.148L357.008 296.822C367.564 306.139 385.597 322.014 393.606 328.803C393.44 327.231 393.258 325.579 393.093 323.942C392.927 322.305 392.536 320.64 391.952 318.914C395.809 323.879 398.104 328.243 398.104 328.243C420.017 346.093 473.352 323.327 470.752 298.409C470.288 293.884 468.815 290.39 466.653 287.694C470.674 309.582 432.789 323.738 424.192 324.289C414.824 324.885 411.782 323.217 397.947 303.541C390.473 292.916 381.299 288.478 372.921 287.031L373.466 286.7L381.99 278.002L393.724 252.804L391.896 243.577C381.872 240.069 369.193 240.304 353.402 248.035C353.402 248.035 341.716 242.29 326.155 230.567L279.931 261.103L302.741 330.148Z" fill="#090B3D"/>
</g>
</g>
<path d="M293.73 326.446L364.439 283.014L362.801 278.301L339.662 212.042L270.936 257.416L276.16 273.271L293.73 326.446Z" fill="#1F9FFF"/>
<g opacity="0.7">
<g opacity="0.7">
<path opacity="0.7" d="M339.326 228.09L362.675 284.106L364.455 282.998L362.817 278.285L339.662 212.01L270.936 257.416L271.861 260.245L330.639 225.282C333.815 223.395 337.901 224.707 339.326 228.09Z" fill="white"/>
</g>
</g>
<g opacity="0.35">
<g opacity="0.35">
<path opacity="0.35" d="M293.73 326.446L364.439 283.014L362.801 278.301C348.879 266.582 315.594 287.266 315.594 287.266C303.814 266.557 283.096 271.062 276.16 273.272L293.73 326.446Z" fill="#090B3D"/>
</g>
</g>
<path d="M366.873 285.399C367.771 284.484 368.104 283.112 367.682 281.865L342.889 210.877C342.548 209.902 341.759 209.128 340.777 208.808C339.796 208.487 338.703 208.635 337.821 209.213L269.095 254.587C267.796 255.461 267.222 257.079 267.709 258.549L290.503 327.578C290.828 328.569 291.569 329.328 292.551 329.681C293.532 330.034 294.608 329.903 295.491 329.357L366.216 285.941C366.457 285.76 366.681 285.596 366.873 285.399ZM337.862 217.297L360.32 281.607L295.627 321.318L274.99 258.793L337.862 217.297Z" fill="#090B3D"/>
<path d="M339.662 212.042L350.493 201.15L372.978 274.332L364.455 283.03L339.662 212.042Z" fill="#1F9FFF"/>
<g opacity="0.7">
<g opacity="0.7">
<path opacity="0.7" d="M342.046 218.897L352.652 208.233L350.493 201.15L339.662 212.042L342.046 218.897Z" fill="white"/>
</g>
</g>
<path d="M366.873 285.399L375.396 276.701C376.278 275.802 376.611 274.494 376.238 273.295L353.752 200.113C353.411 198.977 352.492 198.109 351.334 197.84C350.176 197.571 348.956 197.913 348.107 198.78L337.276 209.672C336.379 210.588 336.014 211.992 336.451 213.223L361.244 284.211C361.618 285.313 362.552 286.133 363.71 286.37C364.836 286.608 366.04 286.25 366.873 285.399ZM369.118 273.434L365.882 276.737L343.586 212.906L348.89 207.591L369.118 273.434Z" fill="#090B3D"/>
<path d="M372.962 274.316L384.697 249.118L381.056 230.712L378.835 219.434L373.137 190.455L365.152 149.942L350.493 201.15L372.816 273.852L372.962 274.316Z" fill="#1F9FFF"/>
<g opacity="0.7">
<g opacity="0.7">
<path opacity="0.7" d="M372.962 274.316L375.134 269.681L356.456 201.481L367.177 160.259L365.152 149.942L350.493 201.15L372.816 273.852L372.962 274.316Z" fill="white"/>
</g>
</g>
<path d="M375.397 276.7C375.67 276.422 375.894 276.097 376.069 275.724L387.788 250.511C388.091 249.846 388.185 249.105 388.054 248.4L368.494 149.241C368.2 147.703 366.862 146.584 365.303 146.531C363.728 146.494 362.317 147.515 361.888 149.049L347.228 200.257C347.053 200.887 347.055 201.562 347.25 202.201L369.72 275.368C370.142 276.71 371.334 277.654 372.749 277.726C373.745 277.773 374.708 277.403 375.397 276.7ZM381.129 248.729L373.625 264.836L354.029 201.056L364.523 164.451L381.129 248.729Z" fill="#090B3D"/>
<path d="M350.493 201.15C350.493 201.15 344.304 195.47 338.772 199.729C334.187 203.248 338.299 212.917 338.299 212.917L350.493 201.15Z" fill="#090B3D"/>
<path d="M228.359 355.045C228.52 355.203 228.665 355.345 228.826 355.503C244.945 370.849 264.854 380.165 284.437 377.207C310.573 373.267 317.447 361.415 332.037 355.263C337.045 353.152 341.329 356.132 345.377 360.675C349.264 365.028 352.93 370.832 356.816 375.024C358.026 376.337 359.38 377.664 360.83 378.989C367.487 384.999 376.665 390.595 388.193 392.115C409.448 394.899 427.832 378.684 429.322 361.588C429.726 357.048 428.106 353.122 425.348 349.746C425.267 349.635 425.154 349.524 425.057 349.397C417.395 340.351 401.469 335.354 394.167 333.551C392.639 333.176 391.481 332.939 390.87 332.853C390.87 332.853 390.191 326.419 389.659 320.513C388.327 305.555 367.92 286.137 347.848 286.564C342.352 286.691 336.956 288.038 331.932 290.005C324.195 293.032 317.201 297.589 311.256 303.302C306.065 308.278 301.679 314.108 298.292 320.532L291.853 332.779L282.047 342.368L243.006 294.627C238.442 294.738 233.004 293.032 227.683 287.209L222.968 280.153L200.541 246.545L198.926 244.129C198.926 244.129 197.168 257.726 197.495 275.257C197.822 292.402 200.169 313.322 208.14 328.953C208.156 328.969 208.172 328.984 208.189 329.032C209.788 331.818 211.5 334.553 213.309 337.19C217.764 343.703 222.846 349.74 228.359 355.045Z" fill="white"/>
<g opacity="0.35">
<g opacity="0.35">
<path opacity="0.35" d="M228.359 355.045C228.52 355.203 228.665 355.345 228.826 355.503C244.945 370.849 264.855 380.165 284.437 377.207C310.573 373.267 317.447 361.415 332.037 355.264C337.045 353.152 341.329 356.132 345.377 360.675C349.264 365.028 352.93 370.832 356.816 375.024C358.026 376.338 359.38 377.665 360.831 378.99C367.487 384.999 376.665 390.595 388.193 392.116C409.448 394.899 427.832 378.684 429.322 361.588C429.726 357.048 428.107 353.122 425.348 349.746C425.267 349.635 425.154 349.524 425.058 349.397C423.506 367.427 409.666 387.26 383.06 379.715C352.642 371.062 356.533 350.87 347.262 341.306C338.007 331.725 322.914 351.901 286.171 366.183C264.388 374.708 242.548 364.654 228.359 355.045Z" fill="#090B3D"/>
</g>
</g>
<path d="M292.932 333.355C294.82 330.879 296.58 328.309 298.292 325.724C299.14 324.439 300.004 323.139 300.803 321.839C301.635 320.603 302.435 319.367 303.283 318.179C306.691 313.379 310.535 308.972 314.878 305.12C319.238 301.315 324.049 298.018 329.217 295.485C334.384 292.953 339.907 291.057 345.417 290.496C346.799 290.343 348.181 290.319 349.515 290.377C350.191 290.429 350.865 290.385 351.541 290.47L353.567 290.757L354.58 290.916L355.577 291.188L357.571 291.7C358.891 292.127 360.194 292.603 361.497 293.111C366.631 295.353 371.398 298.614 375.476 302.514C379.571 306.397 382.896 311.13 384.872 316.079C385.229 317.326 385.715 318.572 385.832 319.807L385.995 320.737C386.045 321.041 386.078 321.491 386.111 321.844L386.327 324.139L387.224 333.318L387.489 336.013L390.223 336.481C391.091 336.626 392.169 336.881 393.166 337.121C394.179 337.377 395.208 337.648 396.222 337.936C398.249 338.512 400.276 339.152 402.255 339.873C406.229 341.3 410.091 342.969 413.633 345.029C417.143 347.091 420.445 349.493 422.721 352.427C423.85 353.886 424.707 355.431 425.194 357.03C425.681 358.661 425.814 360.234 425.563 362.071C424.654 369.673 419.903 376.876 413.554 381.744C407.205 386.708 399.08 389.163 391.172 388.721C390.191 388.625 389.195 388.61 388.198 388.466C387.185 388.307 386.188 388.164 385.191 387.924C383.213 387.524 381.266 386.898 379.352 386.24C375.554 384.827 371.916 382.897 368.566 380.544C365.2 378.207 362.105 375.431 359.3 372.393C356.59 369.418 354.12 365.844 351.377 362.291C350.005 360.499 348.554 358.723 346.877 356.984C345.184 355.261 343.298 353.51 340.675 352.253C339.387 351.632 337.875 351.144 336.251 351.028C334.643 350.895 332.989 351.132 331.528 351.623C331.191 351.742 330.757 351.894 330.484 352.011L329.666 352.395L328.045 353.146C326.986 353.679 325.927 354.244 324.9 354.808C320.809 357.145 317.137 359.796 313.512 362.174C309.887 364.583 306.278 366.719 302.442 368.409C298.638 370.13 294.624 371.389 290.513 372.36C288.474 372.894 286.369 373.203 284.281 373.593C283.237 373.756 282.257 373.853 281.213 373.983C280.184 374.033 279.172 374.131 278.143 374.149C269.963 374.306 261.761 372.326 254.196 368.824C246.616 365.339 239.642 360.46 233.356 354.814C227.087 349.152 221.474 342.691 216.631 335.702C214.209 332.207 211.98 328.581 209.944 324.855L209.184 323.437C208.942 322.976 208.747 322.529 208.537 322.098C208.084 321.238 207.744 320.264 207.339 319.322C206.967 318.38 206.658 317.373 206.302 316.415L205.408 313.392C203.181 305.217 201.869 296.624 200.894 287.977C199.008 270.618 199.581 253.103 195.814 235.632C195.667 234.975 195.007 234.553 194.333 234.693C193.851 234.798 193.498 235.189 193.387 235.625C192.34 240.08 191.856 244.508 191.548 248.982C191.224 253.44 191.27 257.876 191.364 262.327C191.569 271.212 192.641 280.05 193.632 288.906C194.688 297.761 195.969 306.611 198.391 315.426L199.366 318.721C199.755 319.807 200.096 320.91 200.533 322.012C200.986 323.097 201.392 324.199 201.941 325.282C202.2 325.825 202.459 326.399 202.734 326.892L203.542 328.389C205.692 332.355 208.082 336.203 210.649 339.904C215.799 347.322 221.735 354.195 228.471 360.251C235.208 366.307 242.746 371.578 251.115 375.452C259.452 379.326 268.749 381.641 278.23 381.445C279.42 381.424 280.592 381.324 281.765 381.255C282.922 381.107 284.143 380.989 285.3 380.809C287.565 380.4 289.83 380.055 292.078 379.47C296.575 378.428 301.054 377.016 305.323 375.078C309.593 373.172 313.667 370.787 317.436 368.262C321.221 365.754 324.782 363.217 328.391 361.145C329.306 360.663 330.204 360.166 331.135 359.699L332.531 359.048L333.221 358.731C333.446 358.631 333.558 358.613 333.735 358.529C334.987 358.122 336.048 358.2 337.416 358.835C338.768 359.455 340.202 360.7 341.573 362.107C342.927 363.53 344.25 365.147 345.557 366.812C348.187 370.19 350.674 373.844 353.867 377.358C357.011 380.759 360.476 383.866 364.309 386.532C371.928 391.882 381.003 395.454 390.632 396.011C400.309 396.551 410.199 393.519 417.879 387.52C421.727 384.56 425.107 380.917 427.698 376.757C430.288 372.598 432.122 367.856 432.717 362.863L432.843 361.929L432.872 360.9C432.902 360.224 432.916 359.533 432.833 358.843C432.767 358.169 432.733 357.462 432.57 356.822C432.423 356.166 432.309 355.476 432.082 354.837C431.286 352.231 429.961 349.907 428.396 347.925C425.25 343.913 421.287 341.12 417.278 338.762C413.221 336.421 409.021 334.613 404.725 333.064C402.569 332.297 400.413 331.595 398.225 330.99C397.132 330.687 396.038 330.385 394.912 330.115C393.786 329.845 392.709 329.59 391.406 329.372L394.405 332.535L393.509 323.452L393.293 321.19C393.244 320.789 393.243 320.467 393.177 320.018L392.964 318.688C392.75 316.875 392.15 315.262 391.647 313.583C390.951 312.036 390.367 310.406 389.511 308.99C389.107 308.274 388.719 307.509 388.267 306.81L386.894 304.76C386.442 304.061 385.942 303.41 385.426 302.776L383.893 300.858C382.78 299.671 381.716 298.436 380.523 297.331C375.832 292.863 370.421 289.131 364.402 286.503C362.889 285.886 361.328 285.286 359.768 284.783L357.339 284.133L356.133 283.817L354.878 283.613L352.386 283.222C351.566 283.092 350.682 283.123 349.83 283.057C348.978 283.024 348.126 282.958 347.275 282.989C346.439 283.004 345.587 283.066 344.768 283.129C338.068 283.711 331.726 285.701 325.82 288.536C322.867 289.937 320.012 291.593 317.317 293.44C314.639 295.335 312.09 297.388 309.719 299.615C305.024 304.149 300.909 309.283 297.873 314.994C297.074 316.39 296.419 317.864 295.765 319.338C295.143 320.747 294.552 322.188 293.978 323.612C292.814 326.477 291.698 329.358 290.743 332.332C290.52 332.979 290.876 333.68 291.535 333.878C292.066 333.949 292.595 333.763 292.932 333.355Z" fill="#090B3D"/>
<g opacity="0.35">
<g opacity="0.35">
<path opacity="0.35" d="M218.984 343.232C221.369 345.281 223.994 347.02 226.908 348.4C250.245 359.345 281.438 348.053 297.619 331.538C307.36 321.597 311.963 313.609 311.241 303.318C311.122 301.504 310.827 299.612 310.355 297.611C306.967 283.043 292.154 274.201 274.624 280.869C273.212 281.408 270.839 283.313 270.839 283.313L267.627 273.531L266.54 270.255C266.54 270.255 265.324 272.205 263.565 274.968C259.63 281.176 253.024 291.368 251.452 292.264C249.415 293.44 246.429 294.585 242.942 294.661C238.378 294.772 232.94 293.066 227.619 287.242L218.256 284.511L198.909 249.113L198.862 244.163C198.862 244.163 197.104 257.759 197.431 275.29C197.757 292.436 200.104 313.356 208.076 328.986C208.092 329.002 208.108 329.018 208.124 329.066C209.628 331.981 211.324 334.733 213.244 337.223C215.003 339.427 216.906 341.452 218.984 343.232Z" fill="#090B3D"/>
</g>
</g>
<path d="M213.177 336.26C215.562 338.308 218.187 340.047 221.101 341.427C244.438 352.372 275.63 341.08 291.812 324.566C303.283 312.859 307.626 303.847 304.564 290.655C301.176 276.086 286.363 267.244 268.833 273.912C267.421 274.451 265.048 276.357 265.048 276.357L261.835 266.575L260.748 263.298C260.748 263.298 259.533 265.248 257.774 268.011C253.839 274.219 247.233 284.412 245.661 285.307C240.944 287.993 231.245 290.571 221.827 280.286L217.113 273.23L194.685 239.621L193.071 237.206C193.071 237.206 191.313 250.803 191.64 268.334C192.13 291.568 196.273 321.748 213.177 336.26Z" fill="white"/>
<g opacity="0.35">
<g opacity="0.35">
<path opacity="0.35" d="M213.177 336.26C215.562 338.308 218.187 340.047 221.1 341.428C244.438 352.373 275.63 341.08 291.811 324.566C303.283 312.859 307.626 303.847 304.564 290.655C303.7 286.892 302.051 283.513 299.808 280.675C300.966 291.489 296.395 299.733 286.286 310.05C270.105 326.565 238.913 337.857 215.575 326.912C212.678 325.547 210.037 323.793 207.652 321.744C203.188 317.915 199.621 312.978 196.775 307.401C200.009 318.935 205.152 329.358 213.177 336.26Z" fill="#090B3D"/>
</g>
</g>
<path d="M191.897 237.049C190.749 239.898 190.002 242.788 189.417 245.708C188.815 248.611 188.438 251.543 188.174 254.49C187.71 260.381 187.584 266.282 187.875 272.176C188.183 278.086 188.748 283.959 189.537 289.829C190.359 295.697 191.406 301.562 192.966 307.354C194.543 313.13 196.57 318.833 199.415 324.249C202.244 329.649 205.925 334.793 210.727 338.922C211.871 340.011 213.192 340.889 214.496 341.814C215.753 342.789 217.234 343.439 218.602 344.235C218.956 344.422 219.294 344.625 219.649 344.779L220.727 345.227L222.899 346.106C224.331 346.74 225.859 347.083 227.355 347.524C233.387 349.139 239.624 349.61 245.762 349.215C251.917 348.835 257.94 347.558 263.752 345.625C269.547 343.709 275.132 341.137 280.378 337.976C285.624 334.815 290.546 331.017 294.871 326.57C296.986 324.412 299.004 322.127 300.925 319.683C302.83 317.223 304.622 314.588 306.043 311.654C307.464 308.72 308.483 305.487 308.907 302.185C309.331 298.882 309.16 295.574 308.652 292.449C308.144 289.387 307.17 286.125 305.714 283.193C304.274 280.212 302.209 277.547 299.759 275.307C297.31 273.099 294.475 271.219 291.37 270.035C288.28 268.834 285 268.184 281.72 268.015C280.901 267.981 280.081 268.044 279.262 268.042C278.844 268.049 278.442 268.04 278.024 268.079L276.803 268.229C276 268.339 275.181 268.402 274.393 268.56L272.033 269.099C271.246 269.257 270.475 269.528 269.72 269.782L268.581 270.171L268.019 270.358L267.73 270.459L267.585 270.51L267.361 270.61C266.189 271.129 265.531 271.574 264.794 272.069C264.088 272.563 263.463 273.008 262.773 273.551L268.5 275.188L264.216 262.145L261.799 254.809L257.673 261.439C255.338 265.176 252.955 268.93 250.54 272.621C249.324 274.474 248.108 276.295 246.86 278.085C246.236 278.98 245.596 279.827 244.956 280.674C244.652 281.049 244.299 281.473 244.011 281.799L243.611 282.24L243.562 282.289C243.546 282.305 243.579 282.273 243.595 282.256C243.627 282.224 243.643 282.207 243.675 282.175C243.723 282.125 243.819 282.092 243.851 282.091C242.295 282.873 240.577 283.434 238.874 283.656C237.171 283.91 235.483 283.891 233.747 283.632C232.042 283.34 230.289 282.808 228.487 282.099C226.636 281.408 224.849 280.394 222.741 279.482L222.628 279.436C221.985 279.158 221.246 279.46 220.959 280.108C220.816 280.448 220.817 280.833 220.962 281.136C221.464 282.237 221.982 283.353 222.74 284.32C223.111 284.812 223.466 285.32 223.87 285.78C224.289 286.222 224.74 286.665 225.192 287.107C227.061 288.779 229.363 290.137 231.937 290.864C234.511 291.656 237.292 291.784 239.974 291.368C242.657 290.952 245.177 289.96 247.503 288.586C247.76 288.421 248.065 288.175 248.321 287.977L248.722 287.633L248.898 287.453L248.994 287.355L249.699 286.539C250.131 286.001 250.451 285.546 250.835 285.057C251.524 284.096 252.196 283.153 252.852 282.225C254.148 280.354 255.412 278.484 256.643 276.582C259.107 272.81 261.506 269.04 263.872 265.237L257.329 264.531L261.612 277.573L263.219 282.48L267.339 279.21C267.788 278.849 268.365 278.421 268.846 278.091C269.327 277.761 269.905 277.43 270.065 277.363L271.847 276.769C272.458 276.566 273.1 276.33 273.742 276.222L275.637 275.804C276.264 275.68 276.906 275.637 277.533 275.546L278.481 275.417C278.786 275.396 279.124 275.406 279.429 275.385C280.056 275.39 280.698 275.347 281.325 275.352C283.833 275.469 286.293 275.989 288.594 276.866C290.911 277.726 292.957 279.121 294.778 280.745C296.567 282.402 298.116 284.369 299.199 286.584C300.299 288.815 301.03 291.134 301.488 293.794C302.388 298.97 301.825 303.963 299.525 308.6C289.024 327.572 267.239 340.389 245.435 342.003C239.988 342.339 234.522 341.919 229.391 340.544C228.12 340.165 226.801 339.898 225.594 339.324L223.76 338.584L222.826 338.215C222.521 338.075 222.263 337.919 221.973 337.763C220.862 337.123 219.655 336.614 218.64 335.812C217.577 335.058 216.498 334.354 215.563 333.438C211.615 330.018 208.436 325.652 205.914 320.842C203.392 316.031 201.511 310.791 200.048 305.415C197.138 294.616 195.897 283.241 195.717 271.848C195.587 266.144 195.521 260.439 195.471 254.717C195.446 251.84 195.373 248.98 195.188 246.106C195.034 243.232 194.8 240.31 194.341 237.393L194.341 237.361C194.242 236.687 193.598 236.216 192.907 236.341C192.409 236.333 192.057 236.661 191.897 237.049Z" fill="#090B3D"/>
<path d="M321.307 149.189C317.558 288.035 124.712 292.428 113.934 159.313C114.395 17.1471 313.733 12.8036 321.307 149.189Z" fill="white"/>
<path d="M321.307 149.189C317.558 288.035 124.712 292.428 113.934 159.313C114.395 17.1471 313.733 12.8036 321.307 149.189Z" fill="white"/>
<g opacity="0.35">
<g opacity="0.35">
<path opacity="0.35" d="M191.672 268.301C193.136 268.774 194.616 269.231 196.096 269.623C202.948 271.53 210.024 272.726 217.145 273.198C230.841 274.118 244.721 272.368 257.806 267.978C259.17 267.521 260.519 267.048 261.835 266.543L257.666 253.868C280.773 237.122 298.562 225.997 311.573 218.651C304.015 211.918 296.147 204.017 288.646 194.904L194.673 235.571C194.673 235.571 194.673 235.635 194.673 235.764C194.674 235.828 194.674 235.893 194.674 236.021L194.675 236.343C194.676 236.471 194.676 236.6 194.676 236.728C194.695 237.419 194.698 238.384 194.718 239.621L193.103 237.206C193.103 237.173 191.329 250.786 191.672 268.301Z" fill="#090B3D"/>
</g>
</g>
<path d="M321.307 149.189C317.558 288.035 124.712 292.428 113.934 159.313C114.395 17.1471 313.733 12.8036 321.307 149.189Z" fill="white"/>
<path d="M293.167 227.44C312.456 207.754 323.06 180.808 323.911 149.24L323.91 149.015C322.106 116.48 309.422 89.5344 287.267 71.0624C267.48 54.5909 241.594 46.117 214.389 47.2139C187.215 48.3101 162.031 58.8556 143.476 76.9217C122.566 97.2628 111.452 125.793 111.331 159.357L111.332 159.582C113.921 191.348 126.908 217.662 148.917 235.606C168.59 251.677 194.137 259.916 220.877 258.811C247.537 257.724 272.383 247.393 290.843 229.747C291.612 228.994 292.398 228.225 293.167 227.44ZM318.72 149.281C316.797 218.673 268.138 251.694 220.717 253.654C174.404 255.547 122.05 226.811 116.522 159.22C116.817 88.5536 167.498 54.3409 214.517 52.4357C261.987 50.4905 314.825 79.9896 318.72 149.281Z" fill="#090B3D"/>
<g opacity="0.35">
<g opacity="0.35">
<path opacity="0.35" d="M321.307 149.189C320.151 269.136 161.61 296.757 120.056 189.828C144.091 218.378 155.952 213.27 182.153 219.81C264.48 243.335 324.272 157.03 298.179 86.4337C312.907 104.359 320.787 126.565 321.307 149.189Z" fill="#090B3D"/>
</g>
</g>
<path d="M293.893 228.15C313.358 208.284 324.09 181.078 324.956 149.237L324.955 148.948C323.134 116.14 310.337 88.9229 287.94 70.2783C267.96 53.6494 241.833 45.0993 214.354 46.1848C186.923 47.2855 161.499 57.9476 142.752 76.1778C121.633 96.7636 110.408 125.505 110.287 159.358L110.304 159.664C112.911 191.734 126.027 218.271 148.246 236.42C168.112 252.649 193.901 260.964 220.897 259.855C247.814 258.763 272.902 248.315 291.538 230.489C292.339 229.736 293.124 228.935 293.893 228.15ZM317.66 149.299C315.735 217.983 267.573 250.658 220.682 252.593C174.852 254.478 123.062 226.037 117.551 159.136C117.865 89.1935 168.032 55.3112 214.537 53.447C261.509 51.5587 313.8 80.7458 317.66 149.299Z" fill="#293856"/>
<path d="M293.893 228.15C313.358 208.284 324.09 181.078 324.956 149.237L324.955 148.948C323.134 116.14 310.337 88.9229 287.94 70.2783C267.96 53.6494 241.833 45.0993 214.354 46.1848C186.923 47.2855 161.499 57.9476 142.752 76.1778C121.633 96.7636 110.408 125.505 110.287 159.358L110.304 159.664C112.911 191.734 126.027 218.271 148.246 236.42C168.112 252.649 193.901 260.964 220.897 259.855C247.814 258.763 272.902 248.315 291.538 230.489C292.339 229.736 293.124 228.935 293.893 228.15ZM317.66 149.299C315.735 217.983 267.573 250.658 220.682 252.593C174.852 254.478 123.062 226.037 117.551 159.136C117.865 89.1935 168.032 55.3112 214.537 53.447C261.509 51.5587 313.8 80.7458 317.66 149.299Z" fill="#090B3D"/>
<path d="M318.512 175.678C263.195 285.085 122.274 231.55 151.318 128.448C190.808 14.8464 341.905 53.5784 318.512 175.678Z" fill="#371A46"/>
<g opacity="0.35">
<g opacity="0.35">
<path opacity="0.35" d="M147.414 154.941C168.957 219.636 269.669 237.715 314.396 149.244C316.294 139.374 317.021 130.054 316.801 121.314C321.429 136.842 322.45 155.084 318.496 175.695C268.146 275.258 146.873 239.853 147.414 154.941Z" fill="#111A28"/>
</g>
</g>
<path d="M296.912 222.489C297.601 221.786 298.257 221.083 298.93 220.365C315.38 202.383 324.111 177.768 324.151 149.155L324.151 149.123C323.86 101.791 285.127 49.5122 227.92 47.141L227.438 47.1493C199.533 50.7658 173.258 66.8757 155.333 91.3605C137.457 115.764 130.123 145.435 135.174 172.753C140.736 199.067 154.8 220.25 175.832 234.064C194.899 246.594 218.188 251.978 241.387 249.231C262.867 246.69 282.477 237.221 296.912 222.489ZM318.478 149.237C318.383 212.12 276.585 239.364 240.791 243.583C199.678 248.424 152.099 225.264 140.731 171.564C135.975 145.848 142.944 117.807 159.892 94.6733C176.84 71.5395 201.591 56.2757 227.842 52.8325C281.721 55.213 318.179 104.557 318.478 149.237Z" fill="#090B3D"/>
<path d="M298.801 209.854C307.661 200.812 315.39 189.893 321.764 177.294L322.003 176.823L322.098 176.307C327.728 146.763 323.755 119.795 310.591 98.3387C298.783 79.1093 280.21 65.4298 258.319 59.8445C236.895 54.3958 214.468 57.2265 195.118 67.848C173.635 79.6477 157.289 100.199 147.859 127.302L147.779 127.512C140.943 151.806 142.831 175.032 153.21 194.72C162.619 212.56 178.621 226.445 198.268 233.869C219.539 241.893 242.987 241.632 264.287 233.147C277.049 228.056 288.676 220.188 298.801 209.854ZM315.037 174.549C286.794 229.913 237.424 240.86 200.947 227.072C167.849 214.576 140.74 179.553 154.793 129.513C174.355 73.3343 219.917 57.5985 256.429 66.9015C293.905 76.4771 326.516 113.462 315.037 174.549Z" fill="#090B3D"/>
<path d="M129.743 235.342C161.373 272.264 201.478 243.137 174.874 204.794C143.186 164.867 100.306 195.988 129.743 235.342Z" fill="white"/>
<g opacity="0.35">
<g opacity="0.35">
<path opacity="0.35" d="M174.67 248.117C186.745 239.47 186.343 218.564 173.389 202.859C176.771 225.786 139.206 208.304 132.545 200.687C105.472 229.188 152.799 264.472 174.67 248.117Z" fill="#090B3D"/>
</g>
</g>
<path d="M179.733 248.27C188.753 239.065 191.433 222.205 177.889 202.684L177.759 202.494C160.237 180.422 138.631 178.544 126.334 188.096C115.223 196.727 110.638 215.886 126.84 237.53L126.986 237.705C145.309 259.088 165.881 259.311 177.217 250.484C178.115 249.825 178.948 249.072 179.733 248.27ZM171.955 206.998C183.902 224.28 181.005 238.427 172.812 244.789C164.122 251.562 147.839 250.766 132.596 233.043C119.411 215.348 122.37 200.332 130.723 193.839C140.183 186.506 157.354 188.685 171.955 206.998Z" fill="#090B3D"/>
<path d="M129.56 238.657C155.223 268.545 185.629 247.22 164.125 216.215C138.293 183.372 105.273 206.559 129.56 238.657Z" fill="white"/>
<path d="M169.407 250.876C176.425 243.714 178.263 230.164 167.124 214.09L166.995 213.931C152.328 195.298 134.772 193.222 125.024 200.817C116.318 207.574 113.119 222.996 126.658 240.877L126.803 241.051C142.094 258.854 158.666 259.484 167.58 252.547C168.222 252.022 168.831 251.465 169.407 250.876ZM161.175 218.388C170.458 231.842 168.867 242.334 163.143 246.789C156.682 251.835 144.043 249.835 132.398 236.309C121.908 222.41 123.496 211.115 129.429 206.511C136.339 201.168 149.445 203.529 161.175 218.388Z" fill="#090B3D"/>
<g opacity="0.7">
<g opacity="0.7">
<path opacity="0.7" d="M171.781 181.926C186.995 195.615 203.062 178.348 191.929 164.266C176.882 147.311 157.626 167.383 171.781 181.926Z" fill="white"/>
</g>
</g>
<g opacity="0.7">
<g opacity="0.7">
<path opacity="0.7" d="M198.409 201.671C204.531 206.581 211.709 199.159 205.567 193.205C199.429 188.312 192.267 195.717 198.409 201.671Z" fill="white"/>
</g>
</g>
<g opacity="0.7">
<g opacity="0.7">
<path opacity="0.7" d="M298.387 112.341C269.169 39.6132 195.234 73.9544 182.958 100.897C228.863 76.4275 264.925 91.2195 298.387 112.341Z" fill="white"/>
</g>
</g>
<g opacity="0.35">
<g opacity="0.35">
<path opacity="0.35" d="M170.429 222.681C168.147 217.625 164.469 213.188 160.071 209.775C167.915 235.953 139.047 240.261 123.868 227.471C139.265 263.773 182.833 258.038 170.429 222.681Z" fill="#090B3D"/>
</g>
</g>
<path d="M158.89 181.345C159.227 181.002 159.499 180.627 159.723 180.302C162.426 175.996 159.112 169.929 158.03 168.163C156.98 166.461 154.744 165.938 153.028 167.012C151.312 168.086 150.772 170.314 151.806 172.032C152.614 173.368 153.31 175.173 153.458 176.183C153.233 176.187 152.944 176.192 152.574 176.15C150.581 175.959 148.785 177.437 148.566 179.434C148.348 181.431 149.799 183.206 151.793 183.397C155.458 183.719 157.625 182.637 158.89 181.345Z" fill="#090B3D"/>
<g opacity="0.35">
<g opacity="0.35">
<path opacity="0.35" d="M372.962 274.316L384.697 249.118L381.056 230.712L378.835 219.435L373.137 190.455C372.314 189.457 371.427 188.46 370.508 187.431C370.508 187.431 362.271 200.609 365.586 217.542C367.138 225.407 371.816 231.209 375.87 232.49C376.627 243.455 380.857 254.65 372.8 273.836L372.962 274.316Z" fill="#090B3D"/>
</g>
</g>
<path d="M369.298 175.766C369.298 175.766 361.078 188.96 364.393 205.893C366.565 216.898 374.879 223.859 378.966 220.075C383.052 216.292 389.827 198.156 369.298 175.766Z" fill="white"/>
<g opacity="0.35">
<g opacity="0.35">
<path opacity="0.35" d="M378.966 220.075C382.876 216.471 389.221 199.806 371.927 178.79C379.577 194.33 374.792 205.922 371.602 208.854C369.904 210.427 367.444 210.132 365.012 208.454C367.854 217.936 375.2 223.532 378.966 220.075Z" fill="#090B3D"/>
</g>
</g>
<path d="M381.785 222.357C387.745 216.275 393.164 196.362 371.991 173.276L368.765 169.763L366.207 173.858C365.839 174.459 357.252 188.479 360.795 206.63C362.477 215.2 367.691 222.456 373.498 224.301C376.41 225.231 379.285 224.651 381.369 222.718C381.529 222.619 381.657 222.488 381.785 222.357ZM370.138 182.422C384.999 201.373 378.726 215.161 376.595 217.335C376.563 217.368 376.531 217.401 376.515 217.417C376.386 217.548 376.017 217.442 375.807 217.365C373.443 216.618 369.331 212.205 367.943 205.14C366.097 195.64 368.257 187.341 370.138 182.422Z" fill="#090B3D"/>
<path d="M239.537 347.507C239.809 347.229 240.033 346.871 240.177 346.467C240.67 345.028 239.926 343.498 238.495 343.024C225.801 338.791 224.507 325.825 224.886 318.473C225.582 304.38 232.872 291.749 238.685 290.266C240.146 289.903 241.042 288.409 240.7 286.952C240.358 285.495 238.877 284.621 237.415 284.984C227.523 287.501 220.133 304.233 219.421 318.278C218.664 333.369 224.966 344.286 236.678 348.199C237.724 348.551 238.816 348.243 239.537 347.507Z" fill="#090B3D"/>
<path d="M343.749 359.176C343.861 359.062 343.941 358.948 344.037 358.818C344.902 357.581 344.623 355.866 343.399 355.019C321.736 339.914 321.908 322.841 323.938 313.997C326.745 301.781 336.355 291.199 346.314 289.387C347.808 289.12 348.8 287.689 348.554 286.23C348.308 284.739 346.891 283.767 345.413 284.05C333.206 286.254 321.945 298.392 318.615 312.883C314.634 330.2 322.514 347.214 340.247 359.558C341.342 360.279 342.836 360.108 343.749 359.176Z" fill="#090B3D"/>
<path d="M387.74 328.856C387.486 329.89 387.217 331.196 386.915 332.343C386.629 333.537 386.296 334.716 385.93 335.896C385.181 338.24 384.353 340.536 383.202 342.678C382.084 344.851 380.563 346.79 378.785 348.541L377.39 349.803L375.835 350.907C375.562 351.088 375.322 351.301 375.033 351.467L374.167 351.932L372.418 352.911L372.37 352.927C372.177 353.027 372.097 353.27 372.21 353.445C372.291 353.588 372.436 353.666 372.613 353.647C373.304 353.554 373.978 353.446 374.669 353.354L375.729 353.175C376.067 353.089 376.404 352.97 376.741 352.852C377.431 352.631 378.106 352.394 378.764 352.142L380.689 351.144C383.176 349.671 385.516 347.734 387.293 345.372C389.102 343.042 390.556 340.461 391.544 337.712C391.799 337.032 392.038 336.337 392.213 335.643C392.42 334.948 392.594 334.254 392.721 333.544C393.021 332.109 393.178 330.756 393.189 329.132C393.184 327.621 391.959 326.421 390.449 326.447C389.163 326.469 388.089 327.372 387.803 328.566L387.74 328.856Z" fill="#090B3D"/>
<path d="M421.114 280.058C421.082 280.027 421.099 280.203 421.115 280.283L421.132 280.653C421.149 280.893 421.15 281.183 421.167 281.423C421.184 281.954 421.17 282.484 421.123 283.048C421.063 284.142 420.857 285.254 420.619 286.368C420.096 288.579 419.219 290.828 418.02 292.987C416.886 295.176 415.301 297.213 413.684 299.25L411.042 302.205C410.096 303.138 409.151 304.102 408.206 305.099L408.19 305.116C408.03 305.279 408.046 305.52 408.208 305.678C408.321 305.788 408.497 305.801 408.642 305.751C409.878 305.167 411.113 304.551 412.349 303.902C413.552 303.191 414.69 302.415 415.877 301.623C418.106 299.897 420.302 298.043 422.095 295.697C423.904 293.4 425.503 290.768 426.329 287.796C426.726 286.294 427.043 284.778 427.038 283.171C427.084 282.382 427.001 281.596 426.902 280.794C426.837 280.377 426.787 280.008 426.674 279.576C426.625 279.368 426.576 279.192 426.511 278.968C426.43 278.729 426.381 278.585 426.252 278.233C425.781 276.811 424.236 276.066 422.807 276.557C421.41 277.079 420.644 278.636 421.114 280.058Z" fill="#090B3D"/>
<defs>
<radialGradient id="paint0_radial" cx="0" cy="0" r="1" gradientUnits="userSpaceOnUse" gradientTransform="translate(144.503 216.654) scale(382.171)">
<stop offset="0.14" stop-color="#289AD9"/>
<stop offset="0.94" stop-color="#EC5EBB"/>
</radialGradient>
<radialGradient id="paint1_radial" cx="0" cy="0" r="1" gradientUnits="userSpaceOnUse" gradientTransform="translate(30373.7 187954) scale(34702.9 32236.7)">
<stop offset="0.14" stop-color="#289AD9"/>
<stop offset="0.94" stop-color="#57C8F1"/>
</radialGradient>
<radialGradient id="paint2_radial" cx="0" cy="0" r="1" gradientUnits="userSpaceOnUse" gradientTransform="translate(35943.2 197049) scale(26418.4 23340.5)">
<stop offset="0.14" stop-color="#6C63FF"/>
<stop offset="0.94" stop-color="#ECEBEB"/>
</radialGradient>
<radialGradient id="paint3_radial" cx="0" cy="0" r="1" gradientUnits="userSpaceOnUse" gradientTransform="translate(3304.13 12084.4) scale(12.1978 10.8259)">
<stop stop-color="#8EE1EE"/>
<stop offset="0.94" stop-color="#5E8DEC"/>
</radialGradient>
</defs>
</svg>
