<svg width="330" height="475" viewBox="0 0 330 475" fill="none" xmlns="http://www.w3.org/2000/svg">
<path d="M256.152 331.354L108.515 349.323C94.0258 351.086 80.8509 340.77 79.0873 326.28L63.78 200.508C62.0164 186.019 72.333 172.844 86.8227 171.08L234.457 153.112C248.947 151.348 262.123 161.665 263.887 176.154L279.194 301.924C280.958 316.414 270.641 329.591 256.152 331.354Z" fill="white"/>
<path d="M88.9184 340.122C84.999 336.363 82.5128 331.409 81.8487 325.944L79.5461 307.028C83.3054 313.057 89.3939 317.38 96.4035 318.893C96.4919 319.18 96.5803 319.465 96.6721 319.754C95.122 322.489 91.3111 329.879 88.9184 340.122ZM268.697 322.776C266.573 317.47 264.227 312.483 261.671 308.261C261.831 306.599 262.153 302.974 262.399 298.227C267.85 295.215 272.056 290.359 274.284 284.596L276.435 302.261C277.197 308.532 275.472 314.723 271.577 319.697C270.7 320.817 269.737 321.846 268.697 322.776Z" fill="#B9AFBE"/>
<path d="M256.152 331.354H256.16H256.152ZM237.699 155.696C236.735 155.696 235.765 155.753 234.794 155.872L87.158 173.84C80.8876 174.604 75.2897 177.763 71.3953 182.737C67.5009 187.711 65.7773 193.903 66.5398 200.173L81.8487 325.945C82.6112 332.215 85.7715 337.813 90.7437 341.706C95.7193 345.6 101.908 347.327 108.18 346.563L255.816 328.594C262.087 327.83 267.685 324.67 271.577 319.698C275.472 314.724 277.197 308.532 276.434 302.261L261.126 176.49C260.363 170.219 257.203 164.621 252.229 160.727C248.028 157.437 242.953 155.696 237.699 155.696ZM105.263 352.303C98.7728 352.303 92.5074 350.15 87.3149 346.086C81.1713 341.275 77.2685 334.363 76.3275 326.615L61.0203 200.846C60.0759 193.1 62.2066 185.451 67.0153 179.308C71.8258 173.164 78.7402 169.262 86.4856 168.319L234.122 150.35C241.857 149.409 249.514 151.537 255.659 156.349C261.801 161.157 265.704 168.072 266.647 175.817L281.954 301.589C282.898 309.334 280.768 316.983 275.957 323.127C271.147 329.268 264.232 333.171 256.487 334.114L108.852 352.082C107.653 352.229 106.455 352.301 105.263 352.303Z" fill="#371A45"/>
<path d="M317.803 261.008C316.401 262.393 315.025 263.603 313.656 264.654C305.839 270.627 297.914 271.178 282.405 266.014C280.235 265.288 278.233 264.654 276.389 264.095C262.699 259.89 257.56 259.757 257.56 259.757C262.023 279.062 258.811 308.921 258.811 308.921C272.035 330.011 279.902 373.635 279.902 373.635C279.902 373.635 289.062 386.124 292.95 399.589C296.27 411.086 295.745 423.291 282.405 429.056C253.447 441.57 228.419 400.273 228.419 400.273C204.817 374.795 188.908 343.601 188.908 343.601C184.436 344.669 178.004 345.028 178.004 345.028C171.388 356.291 169.002 378.641 169.002 378.641C169.002 378.641 193.738 396.519 198.385 413.68C203.032 430.841 168.71 481.256 133.312 470.528C121.065 466.815 116.009 459.332 114.641 451.131C112.038 435.647 122.583 417.61 122.583 417.61C65.7355 373.994 99.6988 320.091 99.6988 320.091C90.8555 293.003 92.3739 266.373 92.3739 266.373C76.1055 270.477 59.0363 279.062 59.0363 279.062C45.8798 292.527 30.1538 288.005 25.0063 285.986C23.5797 285.427 22.1031 285.002 20.618 284.635C3.47374 280.48 1.40475 272.721 3.40684 266.206C4.25796 263.444 5.82639 260.9 7.29487 258.956C9.06337 256.603 10.6735 255.11 10.6735 255.11C6.31027 252.782 4.78338 250.088 5.82639 246.851C6.68569 244.123 9.37205 241.011 13.7103 237.407C23.1876 229.539 37.9876 232.401 37.9876 232.401C56.717 212.737 102.919 189.494 102.919 189.494C162.586 180.559 206.461 180.334 238.538 185.098C251.503 187.025 262.54 189.761 271.918 193.073C287.127 198.429 297.955 205.279 305.539 212.587C309.101 216.016 311.954 219.545 314.199 223.066C325.136 240.193 321.824 257.054 317.803 261.008Z" fill="white"/>
<path d="M92.3738 265.874C92.489 265.874 92.6008 265.912 92.6925 265.987C92.8143 266.089 92.8811 266.242 92.8727 266.401C92.8577 266.666 91.4628 293.253 100.173 319.936C100.219 320.078 100.201 320.232 100.121 320.357C100.036 320.492 91.668 333.977 90.3182 352.573C89.0751 369.707 93.7153 394.832 122.887 417.212C123.087 417.368 123.142 417.645 123.013 417.862C122.91 418.04 112.59 435.925 115.133 451.047C116.701 460.446 122.867 466.84 133.457 470.049C152.582 475.847 169.269 463.283 177.515 455.279C191.085 442.106 200.422 423.116 197.903 413.81C193.354 397.015 168.955 379.223 168.71 379.046C168.563 378.941 168.486 378.766 168.505 378.587C168.53 378.364 170.979 356 177.573 344.774C177.657 344.631 177.808 344.539 177.975 344.529C178.039 344.526 184.416 344.16 188.792 343.116C189.016 343.059 189.248 343.169 189.353 343.374C189.512 343.686 205.503 374.8 228.786 399.933C228.807 399.96 228.828 399.986 228.846 400.015C229.094 400.424 253.981 440.794 282.206 428.597C293.178 423.855 296.632 414.142 292.469 399.728C288.652 386.506 279.59 374.056 279.5 373.93C279.453 373.869 279.423 373.799 279.409 373.724C279.331 373.29 271.407 329.953 258.387 309.186C258.329 309.091 258.304 308.979 258.314 308.867C258.347 308.57 261.466 278.87 257.074 259.87C257.039 259.718 257.076 259.562 257.173 259.441C257.271 259.321 257.43 259.261 257.573 259.258C257.785 259.263 262.936 259.44 276.536 263.618C278.567 264.234 280.539 264.863 282.563 265.54C297.722 270.589 305.494 270.264 313.353 264.257C314.694 263.226 316.074 262.013 317.452 260.653C321.654 256.52 324.167 239.602 313.778 223.334C311.452 219.687 308.564 216.191 305.194 212.947C296.919 204.973 285.667 198.446 271.753 193.546C262.007 190.102 250.807 187.427 238.465 185.592C203.129 180.344 157.576 181.821 103.073 189.977C101.007 191.024 56.4651 213.725 38.3497 232.746C38.2312 232.87 38.0543 232.925 37.8925 232.892C37.7457 232.865 23.211 230.169 14.0299 237.792C9.632 241.445 7.10465 244.456 6.30308 247.001C5.32548 250.036 6.78862 252.47 10.9086 254.669C11.0513 254.745 11.1482 254.885 11.1686 255.045C11.1899 255.207 11.1312 255.367 11.0129 255.475C10.9975 255.49 9.41208 256.97 7.69381 259.256C6.44323 260.913 4.76801 263.488 3.88418 266.353C2.89991 269.556 3.12483 272.453 4.55227 274.961C6.85953 279.015 12.3043 282.107 20.7348 284.149C22.4968 284.585 23.9117 285.02 25.1898 285.521C29.7416 287.306 45.6095 292.09 58.6792 278.713C58.7176 278.673 58.7627 278.641 58.811 278.615C58.9829 278.53 76.1172 269.958 92.252 265.887C92.2921 265.879 92.3338 265.874 92.3738 265.874ZM143.385 472.53C140.083 472.53 136.667 472.066 133.166 471.006C122.182 467.676 115.784 461.017 114.147 451.212C111.754 436.978 120.437 420.454 121.935 417.741C92.7025 395.143 88.0573 369.782 89.3254 352.458C90.6119 334.873 98.0953 321.795 99.1531 320.028C91.2342 295.617 91.6897 271.35 91.8466 267.023C76.5527 270.989 60.558 278.863 59.335 279.472C45.8448 293.214 29.513 288.291 24.8244 286.452C23.5897 285.968 22.2148 285.544 20.4979 285.119C11.7909 283.01 6.13272 279.758 3.68363 275.454C2.1147 272.698 1.86041 269.536 2.92928 266.059C3.85566 263.054 5.59745 260.374 6.89625 258.656C8.10361 257.049 9.22804 255.846 9.84473 255.222C5.73594 252.859 4.26545 250.066 5.35068 246.697C6.21098 243.967 8.84161 240.802 13.3911 237.023C22.3466 229.588 35.685 231.498 37.8107 231.862C56.5051 212.4 102.233 189.281 102.694 189.049C102.742 189.024 102.792 189.009 102.846 189C157.484 180.818 203.162 179.34 238.612 184.604C251.016 186.448 262.279 189.139 272.085 192.603C286.135 197.55 297.508 204.154 305.886 212.227C309.313 215.527 312.251 219.083 314.619 222.797C325.446 239.751 322.675 256.917 318.153 261.365C316.747 262.754 315.335 263.993 313.96 265.049C305.886 271.22 297.587 271.595 282.246 266.488C280.23 265.814 278.268 265.188 276.244 264.572C265.449 261.257 259.961 260.484 258.197 260.307C262.237 278.72 259.574 306.351 259.327 308.802C272.066 329.26 279.913 370.952 280.372 373.435C281.223 374.618 289.739 386.668 293.43 399.451C297.693 414.214 293.949 424.611 282.601 429.515C254.018 441.87 228.993 402.152 228.018 400.577C205.99 376.784 190.473 347.678 188.642 344.175C184.735 345.055 179.534 345.43 178.301 345.51C172.314 355.933 169.836 375.792 169.531 378.409C172.234 380.396 194.417 397.115 198.867 413.55C201.515 423.329 192.248 442.371 178.211 455.996C171.306 462.697 158.58 472.53 143.385 472.53Z" fill="#371A45"/>
<path d="M279.636 257.072C260.865 255.464 258.451 243.666 247.055 239.643C243.849 238.511 241.63 237.273 240.097 236.08C237.706 234.218 234.788 233.295 231.831 233.295C230.132 233.295 228.419 233.601 226.787 234.208C205.226 242.226 186.812 245.419 171.143 245.419C131.938 245.419 109.957 225.415 99.1665 210.89C119.528 227.923 144.833 237.607 171.78 238.451C173.061 238.491 174.334 238.511 175.609 238.511C198.301 238.511 220.103 232.173 238.964 220.271C242.369 221.138 245.685 221.669 248.146 221.981C250.342 222.305 251.894 222.445 252.236 222.475C259.235 237.372 269.12 247.829 276.63 254.242C278.483 256.043 279.636 257.072 279.636 257.072Z" fill="#B9AFBE"/>
<path d="M143.356 469.241C140.363 469.241 137.271 468.821 134.118 467.866C126.192 465.464 120.964 461.17 118.58 455.1C118.55 455.024 118.52 454.947 118.49 454.868C122.66 458.262 130.155 462.737 140.685 462.737C145.474 462.737 150.886 461.813 156.905 459.44C166.16 455.794 172.818 449.743 177.573 443.33C188.43 428.697 185.984 408.121 172.179 396.227C168.173 392.777 163.234 389.013 157.155 385.031C157.155 385.031 157.622 369.339 163.521 352.72C163.521 352.72 147.094 347.901 143.305 335.028C142.857 333.507 144.009 332.068 145.479 332.068C145.674 332.068 145.876 332.095 146.079 332.148C150.685 333.373 159.666 335.222 171.937 335.222C183.039 335.222 196.833 333.709 212.519 328.853C214.116 328.68 215.701 328.491 217.278 328.287C218.136 328.91 218.554 330.11 217.967 331.212C215.546 335.763 210.922 342.627 203.032 348.248C203.032 348.248 212.593 372.509 234.851 395.91C234.851 395.91 256.807 420.199 274.239 420.199C281.282 420.199 287.584 416.235 291.403 405.101C292.055 408.857 292.111 412.539 291.21 415.853C289.89 420.708 286.649 424.189 281.303 426.5C277.915 427.965 274.572 428.602 271.31 428.602C249.177 428.602 231.002 399.169 230.795 398.827C230.698 398.668 230.585 398.518 230.458 398.38C207.41 373.498 191.544 342.644 191.387 342.335C190.905 341.391 189.939 340.817 188.913 340.817C188.696 340.817 188.477 340.843 188.26 340.895C184.092 341.894 177.91 342.25 177.848 342.253C176.919 342.305 176.077 342.817 175.606 343.62C168.767 355.266 166.336 377.406 166.235 378.342C166.129 379.335 166.562 380.308 167.37 380.892C167.61 381.065 191.365 398.401 195.699 414.404C197.733 421.911 190.111 439.87 175.926 453.639C169.421 459.952 157.454 469.241 143.356 469.241Z" fill="#B9AFBE"/>
<path d="M175.165 330.677C146.822 330.677 123.434 328.045 123.434 328.045C112.081 325.99 110.244 315.631 110.281 308.954C110.297 305.727 108.205 302.867 105.13 301.889C102.232 300.97 99.3851 299.774 97.4179 298.888C97.2594 297.945 97.1109 297.014 96.9724 296.093C100.64 297.459 106.54 299.318 115.103 301.075C115.19 305.298 115.378 309.87 115.692 314.811C116.062 320.632 120.524 325.504 126.299 326.397C134.042 327.595 148.814 329.022 175.269 329.038H175.297C175.441 329.038 175.586 329.038 175.729 329.038H175.758C202.214 329.022 216.984 327.595 224.728 326.397C230.503 325.504 234.963 320.632 235.335 314.811C235.649 309.903 235.835 305.362 235.924 301.164C247.03 298.913 253.739 296.477 256.954 295.115C256.918 296.033 256.878 296.922 256.834 297.773C254.22 298.858 251.713 299.759 249.524 300.481C244.927 301.999 241.826 306.289 241.826 311.13V312.081C241.826 318.949 236.965 324.844 230.229 326.188C226.048 327.023 221.71 327.715 217.278 328.287C216.909 328.02 216.46 327.86 215.975 327.86C215.739 327.86 215.496 327.899 215.249 327.98C214.333 328.282 213.422 328.573 212.519 328.853C200.115 330.203 187.192 330.677 175.165 330.677Z" fill="#B9AFBE"/>
<path d="M212.519 328.853C213.422 328.573 214.333 328.282 215.249 327.98C215.496 327.899 215.739 327.86 215.975 327.86C216.46 327.86 216.909 328.02 217.278 328.287C215.701 328.491 214.116 328.679 212.519 328.853Z" fill="#8C7B94"/>
<path d="M37.5055 285.614C32.605 285.614 28.4553 284.351 26.0192 283.395C24.6193 282.846 23.1093 282.382 21.2689 281.937C14.9968 280.415 7.22137 277.467 5.80294 272.054C5.57134 271.17 5.51828 270.254 5.60271 269.328C10.2459 274.725 16.5135 275.808 20.6048 275.852C23.3796 275.882 26.121 276.362 28.754 277.241C31.1199 278.031 33.3908 278.363 35.5366 278.363C42.5378 278.363 48.1975 274.834 51.4495 272.196C54.1292 270.023 57.1042 268.255 60.2811 266.91L71.3252 262.238C75.8487 260.322 79.5261 256.768 81.4199 252.237C85.8766 241.573 93.5419 236.514 93.5419 236.514C92.9579 247.827 92.6009 258.657 92.454 263.589C92.4257 263.589 92.399 263.589 92.3706 263.589C92.1437 263.589 91.9151 263.616 91.6898 263.673C75.3147 267.811 58.4975 276.222 57.79 276.577C57.5147 276.716 57.2661 276.898 57.0508 277.118C50.5835 283.734 43.4855 285.614 37.5055 285.614Z" fill="#B9AFBE"/>
<path d="M15.3388 260.504C13.079 260.504 11.324 260.239 10.0429 259.927C10.9956 258.724 11.91 257.755 12.5627 257.147C13.2226 256.535 13.5462 255.642 13.4304 254.75C13.3147 253.859 12.7753 253.076 11.9817 252.652C10.3866 251.803 8.45392 250.471 8.30008 248.96C8.26855 248.651 8.2974 248.234 8.4721 247.69C9.83831 247.962 11.3155 248.055 12.8537 248.055C14.5847 248.055 16.3917 247.937 18.2071 247.818C20.0225 247.7 21.8445 247.58 23.6032 247.58C25.0081 247.58 26.3713 247.657 27.6594 247.868C37.9376 249.562 37.1284 259.373 37.1284 259.373C35.1528 258.067 33.1406 257.708 31.5271 257.708C29.5649 257.708 28.1933 258.238 28.1933 258.238C22.8189 259.962 18.5641 260.504 15.3388 260.504Z" fill="#B9AFBE"/>
<path d="M89.5925 266.459C89.5424 263.861 89.6108 261.358 89.7777 258.817C89.9195 256.286 90.1531 253.76 90.4601 251.24C90.7805 248.723 91.1626 246.21 91.6865 243.72C92.2138 241.231 92.9279 238.766 93.8639 236.384C94.0008 236.035 94.3929 235.865 94.7416 236.002C95.0069 236.105 95.1704 236.36 95.1704 236.631V236.644C95.1671 239.17 95.102 241.645 95.0436 244.119C95.0002 246.595 94.9101 249.056 94.9235 251.529C94.9168 253.997 94.9335 256.465 94.9669 258.929L95.1521 266.279V266.337C95.1904 267.873 93.9774 269.147 92.4423 269.186C90.9073 269.224 89.6308 268.011 89.5925 266.476V266.459Z" fill="#371A45"/>
<path d="M11.2628 252.388C11.5979 252.444 12.1585 252.504 12.6282 252.555C13.1219 252.609 13.6238 252.637 14.1269 252.675C15.1352 252.737 16.1547 252.751 17.1758 252.744C19.2165 252.709 21.2654 252.544 23.2944 252.208L24.9062 251.913C25.5586 251.794 26.2227 251.729 26.8901 251.708C28.2233 251.666 29.5798 251.808 30.8829 252.19C31.532 252.387 32.1677 252.644 32.7584 252.976C33.334 253.301 33.8746 253.652 34.3735 254.082C35.3747 254.913 36.2189 255.964 36.6995 257.157C36.9247 257.716 36.6544 258.354 36.0955 258.579C35.7684 258.711 35.4147 258.674 35.1344 258.509L35.0593 258.464C34.1616 257.93 33.319 257.508 32.4447 257.177C32.0059 257.022 31.5654 256.86 31.1265 256.748C30.7061 256.643 30.2889 256.552 29.8634 256.491C29.0158 256.366 28.1432 256.371 27.2772 256.508C26.8434 256.573 26.4146 256.677 25.9908 256.797L24.3739 257.244C22.0864 257.85 19.732 258.193 17.3627 258.32C16.1764 258.38 14.9867 258.387 13.7907 258.313C13.192 258.282 12.594 258.222 11.9902 258.15C11.6868 258.112 11.3861 258.072 11.0776 258.016C10.7583 257.963 10.4905 257.913 10.0818 257.823C8.58232 257.496 7.63191 256.016 7.95894 254.516C8.27496 253.068 9.66921 252.13 11.1157 252.365L11.2628 252.388Z" fill="#371A45"/>
<path d="M257.814 262.523C257.098 262.67 256.193 262.75 255.361 262.815C254.507 262.874 253.646 262.927 252.77 262.962L250.117 263.114L247.338 263.309L247.308 263.311C246.95 263.336 246.638 263.066 246.613 262.707C246.599 262.528 246.661 262.36 246.771 262.233C247.434 261.469 248.189 260.771 249.005 260.191C249.818 259.598 250.682 259.083 251.573 258.642C252.463 258.192 253.385 257.823 254.328 257.529C255.292 257.246 256.197 257.034 257.301 256.985C258.836 256.919 260.135 258.108 260.201 259.643C260.263 261.028 259.299 262.221 257.98 262.49L257.814 262.523Z" fill="#371A45"/>
<path d="M76.4076 274.305C75.5734 274.305 74.7458 273.929 74.1985 273.215C50.939 242.853 56.0831 215.884 56.3133 214.751C56.6203 213.244 58.0937 212.276 59.5937 212.58C61.0971 212.886 62.0681 214.35 61.7661 215.852C61.7161 216.107 56.9758 241.588 78.6151 269.831C79.5478 271.051 79.3159 272.796 78.0979 273.731C77.594 274.118 76.9983 274.305 76.4076 274.305Z" fill="#371A45"/>
<path d="M188.434 340.858L189.452 340.606C189.85 340.503 190.259 340.391 190.671 340.266L193.167 339.51C194.848 338.991 196.545 338.451 198.243 337.897C201.649 336.805 205.044 335.617 208.678 334.905L208.685 334.903C209.139 334.813 209.578 335.11 209.668 335.564C209.729 335.883 209.601 336.195 209.362 336.383C207.901 337.531 206.374 338.556 204.801 339.488C203.229 340.428 201.609 341.269 199.978 342.108C198.34 342.929 196.678 343.717 194.971 344.441C194.112 344.794 193.253 345.153 192.355 345.46C191.909 345.62 191.454 345.771 190.987 345.919C190.755 345.994 190.518 346.069 190.266 346.133L189.88 346.231L189.668 346.281L189.383 346.34C187.881 346.648 186.415 345.682 186.106 344.18C185.804 342.719 186.715 341.287 188.15 340.93L188.434 340.858Z" fill="#371A45"/>
<path d="M178.362 347.786C177.623 347.868 177.031 347.919 176.38 347.938C175.744 347.961 175.112 347.969 174.483 347.964C173.223 347.969 171.97 347.886 170.72 347.773C168.223 347.529 165.748 347.06 163.33 346.384C160.913 345.717 158.553 344.778 156.344 343.593C154.128 342.413 152.146 340.783 150.519 338.916C150.328 338.697 150.351 338.364 150.569 338.172C150.723 338.04 150.93 338.01 151.107 338.077L151.142 338.092C153.401 338.964 155.478 339.87 157.679 340.494C159.853 341.147 162.032 341.726 164.282 342.011C166.516 342.333 168.77 342.507 171.026 342.543C172.152 342.557 173.278 342.543 174.4 342.505C174.96 342.485 175.518 342.455 176.07 342.41C176.607 342.365 177.201 342.325 177.645 342.271L177.728 342.261C179.253 342.079 180.638 343.167 180.82 344.692C181.002 346.217 179.914 347.601 178.387 347.784L178.362 347.786Z" fill="#371A45"/>
<path d="M128.536 394.198C114.848 394.198 102.17 389.678 91.246 380.796C90.0547 379.827 89.8728 378.075 90.8422 376.884C91.81 375.692 93.5636 375.512 94.7533 376.482C108.676 387.799 125.056 391.263 143.433 386.775C157.37 383.373 167.295 376.438 167.393 376.368C168.648 375.484 170.383 375.779 171.269 377.032C172.155 378.285 171.86 380.019 170.609 380.908C170.177 381.214 159.857 388.45 144.941 392.133C139.35 393.512 133.866 394.198 128.536 394.198Z" fill="#371A45"/>
<path d="M216.684 375.997C210.138 375.997 205.882 374.975 205.606 374.907C204.115 374.54 203.205 373.033 203.572 371.542C203.94 370.052 205.446 369.141 206.935 369.508C207.051 369.534 216.727 371.812 229.171 369.082C245.772 365.438 259.238 355.051 269.193 338.206C269.974 336.883 271.682 336.447 273.002 337.226C274.325 338.009 274.763 339.714 273.982 341.037C260.493 363.86 242.67 371.87 230.094 374.573C225.072 375.651 220.49 375.997 216.684 375.997Z" fill="#371A45"/>
<path d="M124.48 415.576L125.009 415.98C125.208 416.132 125.431 416.28 125.65 416.43C126.085 416.727 126.549 417.014 127.011 417.298C127.947 417.857 128.915 418.382 129.918 418.853C131.917 419.806 134.009 420.593 136.155 421.237C140.465 422.47 144.98 423.094 149.547 423.179C154.022 423.27 158.43 422.487 162.423 420.655C166.362 418.788 170.021 416.073 173.048 412.507L173.095 412.452C173.305 412.205 173.674 412.175 173.921 412.384C174.096 412.532 174.161 412.763 174.111 412.971C173.48 415.514 172.154 417.735 170.487 419.711C168.817 421.678 166.778 423.366 164.51 424.663C159.93 427.157 154.716 428.48 149.6 428.571C144.578 428.737 139.475 428.19 134.546 426.829C132.085 426.131 129.678 425.215 127.363 424.067C126.779 423.79 126.207 423.488 125.646 423.158C125.077 422.847 124.525 422.495 123.973 422.148C123.421 421.793 122.88 421.422 122.346 421.015C122.079 420.813 121.812 420.613 121.545 420.388C121.266 420.161 121.043 419.973 120.689 419.645C119.565 418.606 119.496 416.851 120.536 415.726C121.513 414.67 123.12 414.545 124.243 415.396L124.48 415.576Z" fill="#371A45"/>
<path d="M282.685 373.62C282.683 374.092 282.667 374.374 282.64 374.723C282.616 375.058 282.578 375.382 282.541 375.706C282.465 376.351 282.348 376.984 282.213 377.609C281.939 378.861 281.559 380.082 281.1 381.275C280.194 383.665 278.871 385.904 277.229 387.871C275.599 389.848 273.631 391.523 271.512 392.877C269.385 394.23 267.094 395.228 264.771 396C260.091 397.418 255.297 397.967 250.612 397.782C245.923 397.6 241.325 396.799 236.925 395.383C236.67 395.301 236.528 395.026 236.611 394.769C236.676 394.565 236.863 394.433 237.065 394.43H237.072C241.652 394.347 246.134 394.347 250.529 393.983C251.628 393.924 252.711 393.753 253.799 393.646C254.875 393.489 255.953 393.34 257.011 393.132C259.132 392.718 261.177 392.107 263.146 391.382C267.039 389.841 270.501 387.527 272.931 384.392C274.159 382.839 275.131 381.097 275.851 379.246C276.206 378.32 276.503 377.367 276.715 376.4C276.815 375.916 276.907 375.432 276.982 374.951C277.017 374.713 277.052 374.473 277.074 374.242C277.1 374.027 277.115 373.74 277.124 373.647L277.144 373.385C277.265 371.856 278.6 370.715 280.129 370.837C281.585 370.952 282.69 372.182 282.685 373.62Z" fill="#371A45"/>
<path d="M92.3705 263.589C93.0113 263.589 93.637 263.808 94.1409 264.225C94.8233 264.788 95.1987 265.643 95.1487 266.526C95.1337 266.788 93.7721 292.989 102.345 319.227C102.602 320.013 102.495 320.874 102.053 321.573C101.973 321.702 93.8455 334.853 92.5808 352.922C90.9006 376.955 101.566 397.978 124.276 415.404C125.389 416.258 125.691 417.805 124.986 419.015C124.862 419.223 112.757 440.277 118.58 455.1C120.964 461.17 126.192 465.464 134.118 467.866C152.121 473.321 168.039 461.294 175.926 453.639C190.111 439.87 197.733 421.911 195.699 414.404C191.365 398.401 167.61 381.065 167.37 380.892C166.562 380.308 166.129 379.335 166.235 378.342C166.335 377.406 168.767 355.266 175.606 343.62C176.076 342.817 176.919 342.305 177.848 342.253C177.91 342.25 184.092 341.894 188.26 340.895C189.512 340.593 190.803 341.192 191.387 342.335C191.544 342.644 207.41 373.498 230.458 398.38C230.585 398.518 230.698 398.668 230.795 398.827C231.033 399.221 254.917 437.901 281.303 426.5C286.649 424.189 289.89 420.708 291.209 415.853C295.534 399.941 277.839 375.521 277.661 375.277C277.412 374.935 277.242 374.543 277.167 374.127C277.089 373.695 269.241 330.787 256.454 310.394C256.122 309.865 255.976 309.241 256.043 308.62C256.077 308.327 259.158 279 254.849 260.383C254.653 259.543 254.86 258.661 255.404 257.995C255.95 257.329 256.772 256.959 257.633 256.975C257.92 256.982 264.871 257.234 283.286 263.374C301.383 269.404 307.706 267.03 315.854 259.023C318.347 256.573 321.657 243.612 314.339 228.942C308.526 217.286 294.358 201.461 259.891 192.271C222.569 182.318 170.043 182.288 103.777 192.181C99.26 194.487 57.2794 216.179 39.9999 234.32C39.3458 235.006 38.3914 235.314 37.4587 235.132C37.3269 235.109 23.81 232.638 15.4873 239.547C8.9526 244.974 8.17856 247.773 8.30003 248.96C8.45387 250.471 10.3866 251.803 11.9817 252.652C12.7752 253.076 13.3147 253.859 13.4303 254.75C13.5461 255.642 13.2226 256.535 12.5627 257.147C10.1811 259.368 4.31687 266.381 5.80288 272.054C7.22131 277.467 14.9967 280.415 21.2688 281.937C23.1092 282.382 24.6192 282.846 26.0192 283.395C31.4286 285.518 45.2842 289.153 57.0508 277.118C57.266 276.898 57.5146 276.716 57.7899 276.577C58.4974 276.222 75.3147 267.811 91.6898 263.673C91.915 263.616 92.1436 263.589 92.3705 263.589ZM143.403 474.817C139.889 474.817 136.245 474.322 132.504 473.189C122.862 470.267 116.433 464.861 113.398 457.119C107.726 442.658 115.844 424.531 119.021 418.352C90.3449 395.435 85.7631 369.866 87.0496 352.289C88.2542 335.841 94.5613 323.48 96.6721 319.754C89.9995 298.644 89.4072 278.289 89.489 270.033C76.2057 273.876 63.1176 280.158 60.6882 281.349C46.2686 295.741 28.9758 290.528 23.9885 288.573C22.8289 288.117 21.5474 287.727 19.959 287.341C8.68213 284.608 2.10739 279.931 0.41765 273.444C-1.43744 266.321 3.30808 259.273 6.39288 255.62C4.2151 253.848 2.99856 251.806 2.76647 249.524C2.33548 245.287 5.16266 240.891 11.9353 235.268C20.543 228.121 32.725 228.897 36.9898 229.438C56.3867 209.906 99.7989 187.953 101.669 187.012C101.933 186.88 102.215 186.79 102.507 186.746C261.997 162.849 306.802 201.371 319.316 226.459C327.283 242.427 324.63 258.195 319.753 262.99C309.168 273.391 299.879 274.767 281.527 268.65C271.187 265.203 264.66 263.695 261.052 263.036C264.087 280.527 262.155 303.271 261.671 308.261C274.02 328.661 281.487 366.954 282.526 372.517C285.305 376.442 301.267 400.03 296.579 417.304C294.812 423.81 290.415 428.622 283.509 431.605C279.256 433.444 275.095 434.238 271.092 434.24C246.911 434.243 228.239 405.259 226.191 401.959C206.019 380.117 191.285 353.908 187.428 346.745C184.568 347.264 181.499 347.557 179.706 347.698C174.924 356.881 172.599 372.427 171.957 377.376C177.306 381.457 196.803 397.205 201.068 412.951C203.91 423.445 194.37 443.487 179.801 457.63C172.616 464.603 159.364 474.817 143.403 474.817Z" fill="#371A45"/>
<path d="M175.729 303.495C235.926 303.495 257.915 291.608 257.915 291.608C270.329 280.913 260.34 270.928 260.34 270.928C230.575 286.661 175.729 285.349 175.729 285.349C175.729 285.349 120.886 286.661 91.1208 270.928C91.1208 270.928 81.1296 280.913 93.5435 291.608C93.5435 291.608 115.533 303.495 175.729 303.495Z" fill="white"/>
<path d="M235.984 295.42C235.982 293.218 235.952 291.122 235.899 289.132C251.441 285.931 257.915 282.431 257.915 282.431C259.297 281.241 260.4 280.06 261.271 278.9C261.344 279.421 261.376 279.963 261.351 280.524C261.222 283.515 259.542 286.46 256.354 289.28C255.07 289.899 248.78 292.731 235.984 295.42ZM115.044 295.329C102.524 292.664 96.36 289.886 95.1069 289.28C91.9184 286.46 90.2365 283.515 90.1096 280.525C90.0846 279.965 90.1163 279.421 90.1897 278.9C91.0607 280.06 92.1636 281.241 93.5435 282.431C93.5435 282.431 99.9007 285.866 115.131 289.043C115.076 291.032 115.046 293.126 115.044 295.329Z" fill="#B9AFBE"/>
<path d="M95.107 289.28C97.6515 290.51 120.481 300.715 175.729 300.715C230.94 300.715 253.776 290.525 256.354 289.28C259.542 286.46 261.222 283.515 261.351 280.524C261.461 277.989 260.431 275.818 259.552 274.445C229.418 289.102 178.739 288.196 175.729 288.131C172.716 288.199 122.041 289.1 91.9084 274.445C91.0307 275.815 89.9996 277.988 90.1097 280.525C90.2365 283.515 91.9184 286.46 95.107 289.28ZM175.729 306.274C115.523 306.274 93.1448 294.553 92.2221 294.054C92.0452 293.959 91.88 293.845 91.7282 293.715C87.138 289.761 84.722 285.374 84.5484 280.679C84.2981 273.896 88.9551 269.159 89.1553 268.961C90.0179 268.098 91.3394 267.9 92.419 268.468C121.193 283.677 175.117 282.581 175.664 282.569C175.708 282.568 175.751 282.568 175.796 282.569C176.342 282.581 230.268 283.677 259.04 268.468C260.119 267.9 261.443 268.098 262.305 268.961C262.505 269.159 267.162 273.896 266.912 280.679C266.737 285.374 264.321 289.761 259.731 293.715C259.579 293.845 259.414 293.959 259.238 294.054C258.314 294.553 235.937 306.274 175.729 306.274Z" fill="#371A45"/>
<path d="M175.297 326.258C201.779 326.258 216.53 324.852 224.304 323.649C228.828 322.95 232.268 319.202 232.56 314.634C234.122 290.104 232.552 274.829 230.937 266.282C229.989 261.272 225.375 257.826 220.303 258.357C200.557 260.419 175.514 260.826 175.514 260.826C175.514 260.826 150.469 260.419 130.725 258.357C125.653 257.826 121.038 261.272 120.092 266.282C118.477 274.829 116.905 290.104 118.468 314.634C118.759 319.202 122.199 322.95 126.724 323.649C134.496 324.852 149.248 326.258 175.729 326.258H175.297Z" fill="white"/>
<path d="M175.514 323.477C149.26 323.469 134.725 322.072 127.15 320.901C123.933 320.404 121.448 317.694 121.243 314.457C119.696 290.168 121.248 275.134 122.823 266.798C123.128 265.186 123.948 263.808 125.084 262.81C123.672 270.701 122.386 284.37 123.757 305.887C124.021 310.032 127.143 313.431 131.248 314.066C138.28 315.154 151.612 316.426 175.514 316.432C175.447 316.432 175.384 316.434 175.317 316.434H175.709C175.644 316.434 175.579 316.432 175.514 316.432C199.416 316.426 212.748 315.154 219.781 314.066C223.885 313.431 227.007 310.032 227.271 305.887C228.642 284.37 227.354 270.701 225.943 262.81C227.08 263.81 227.9 265.188 228.203 266.798C229.779 275.134 231.33 290.171 229.785 314.457C229.578 317.694 227.094 320.404 223.879 320.901C216.303 322.072 201.767 323.469 175.514 323.477Z" fill="#B9AFBE"/>
<path d="M124.629 262.385V262.386V262.385ZM124.629 262.388V262.391V262.388ZM226.83 262.39V262.391V262.39ZM124.629 262.393V262.396V262.393ZM226.83 262.393L226.832 262.396L226.83 262.393ZM175.729 273.709C144.771 273.709 125.69 270.856 120.547 265.46C119.192 264.04 119.042 262.763 119.074 262.129C119.146 260.594 120.464 259.403 121.984 259.486C123.247 259.546 124.271 260.439 124.553 261.609C125.311 262.48 131.932 268.146 175.729 268.146C219.529 268.146 226.148 262.481 226.905 261.609C227.187 260.439 228.212 259.546 229.475 259.486C231.003 259.401 232.311 260.594 232.387 262.129C232.417 262.763 232.266 264.04 230.913 265.46C225.771 270.856 206.688 273.709 175.729 273.709Z" fill="#371A45"/>
<path d="M153.511 328.649C151.976 328.649 150.731 327.405 150.731 325.87V306.299L140.603 295.966C140.094 295.445 139.809 294.746 139.809 294.019V269.368C139.809 267.833 141.054 266.588 142.59 266.588C144.125 266.588 145.37 267.833 145.37 269.368V292.884L155.498 303.217C156.007 303.736 156.292 304.435 156.292 305.163V325.87C156.292 327.405 155.048 328.649 153.511 328.649Z" fill="#371A45"/>
<path d="M129.684 261.083C126.34 261.083 123.461 263.431 122.823 266.798C121.248 275.134 119.696 290.168 121.243 314.457C121.448 317.694 123.933 320.403 127.15 320.901C134.725 322.072 149.26 323.468 175.514 323.477C201.767 323.468 216.303 322.072 223.879 320.901C227.094 320.403 229.578 317.694 229.785 314.457C231.33 290.171 229.779 275.134 228.204 266.798C227.519 263.181 224.239 260.734 220.592 261.123C200.951 263.174 175.811 263.603 175.559 263.608C175.529 263.608 175.499 263.608 175.467 263.608C175.217 263.603 150.076 263.174 130.435 261.123C130.183 261.097 129.931 261.083 129.684 261.083ZM175.729 329.038C175.586 329.038 175.441 329.038 175.297 329.038H175.269C148.814 329.021 134.042 327.595 126.299 326.397C120.524 325.504 116.062 320.632 115.692 314.81C114.108 289.944 115.724 274.415 117.359 265.765C118.583 259.28 124.443 254.906 131.014 255.59C150.014 257.576 174.303 258.025 175.514 258.045C176.724 258.025 201.015 257.576 220.014 255.59C226.578 254.908 232.443 259.28 233.668 265.765C235.303 274.417 236.92 289.947 235.335 314.81C234.963 320.632 230.503 325.504 224.728 326.397C216.984 327.595 202.214 329.021 175.758 329.038H175.729Z" fill="#371A45"/>
<path d="M196.239 288.13C191.908 288.13 188.382 291.654 188.382 295.986C188.382 300.317 191.908 303.843 196.239 303.843C200.571 303.843 204.095 300.317 204.095 295.986C204.095 291.654 200.571 288.13 196.239 288.13ZM196.239 309.404C188.841 309.404 182.821 303.384 182.821 295.986C182.821 288.588 188.841 282.569 196.239 282.569C203.638 282.569 209.656 288.588 209.656 295.986C209.656 303.384 203.638 309.404 196.239 309.404Z" fill="#371A45"/>
<path d="M206.876 300.157C206.876 306.032 202.113 310.794 196.239 310.794C190.364 310.794 185.602 306.032 185.602 300.157C185.602 294.283 190.364 289.52 196.239 289.52C202.113 289.52 206.876 294.283 206.876 300.157Z" fill="#42CFF4"/>
<path d="M196.237 310.794C192.55 310.794 189.301 308.917 187.392 306.067C189.301 308.917 192.55 310.794 196.239 310.794C196.237 310.794 196.237 310.794 196.237 310.794Z" fill="#B9AFBE"/>
<path d="M187.393 306.067C186.261 304.377 185.602 302.343 185.602 300.157C185.602 299.86 185.614 299.566 185.637 299.278C185.614 299.566 185.602 299.86 185.602 300.157C185.602 302.343 186.261 304.377 187.393 306.067ZM185.639 299.268C185.639 299.264 185.639 299.259 185.639 299.254C185.639 299.259 185.639 299.264 185.639 299.268Z" fill="#371A45"/>
<path d="M196.239 310.794C192.55 310.794 189.301 308.917 187.393 306.067C186.261 304.377 185.602 302.343 185.602 300.157C185.602 299.86 185.614 299.567 185.637 299.278C185.637 299.275 185.637 299.271 185.639 299.268C185.639 299.265 185.639 299.26 185.639 299.255C185.736 298.103 186.018 297.004 186.453 295.986C188.075 299.787 191.844 302.452 196.238 302.452C200.633 302.452 204.402 299.787 206.025 295.986C206.571 297.268 206.876 298.676 206.876 300.157C206.876 306.032 202.113 310.794 196.238 310.794" fill="#3E90B7"/>
<path d="M196.239 292.302C191.908 292.302 188.382 295.826 188.382 300.157C188.382 304.489 191.908 308.014 196.239 308.014C200.571 308.014 204.095 304.489 204.095 300.157C204.095 295.826 200.571 292.302 196.239 292.302ZM196.239 313.576C188.841 313.576 182.821 307.556 182.821 300.157C182.821 292.759 188.841 286.74 196.239 286.74C203.638 286.74 209.656 292.759 209.656 300.157C209.656 307.556 203.638 313.576 196.239 313.576Z" fill="#371A45"/>
<path d="M289.664 151.301C288.355 151.353 287.25 150.334 287.198 149.024L284.487 80.7285C284.435 79.4187 285.455 78.3158 286.764 78.2624C300.503 77.7185 312.081 88.4122 312.627 102.149L313.551 125.439C314.095 139.178 303.401 150.756 289.664 151.301Z" fill="white"/>
<path d="M287.776 78.7428C287.447 78.7428 287.116 78.7495 286.784 78.7628C286.284 78.7812 285.822 78.9948 285.483 79.3635C285.143 79.7306 284.966 80.2078 284.987 80.7083L287.699 149.004C287.717 149.504 287.931 149.966 288.298 150.307C288.665 150.645 289.14 150.814 289.644 150.802C303.084 150.268 313.585 138.899 313.052 125.459L312.126 102.169C311.868 95.6585 309.091 89.6384 304.304 85.2168C299.761 81.022 293.924 78.7428 287.776 78.7428ZM289.663 151.301H289.671H289.663ZM289.568 151.802C288.843 151.802 288.156 151.535 287.62 151.039C287.056 150.519 286.729 149.81 286.699 149.044L283.988 80.7484C283.958 79.9809 284.228 79.2484 284.749 78.6844C285.269 78.1221 285.979 77.7934 286.744 77.7634C293.527 77.4981 299.999 79.8808 304.982 84.4826C309.964 89.0861 312.857 95.3532 313.126 102.129L314.05 125.419C314.606 139.409 303.673 151.244 289.683 151.8C289.644 151.802 289.606 151.802 289.568 151.802Z" fill="#371A45"/>
<path d="M291.495 148.36C292.454 144.232 293.168 140.04 293.629 135.804C293.819 134.433 293.984 133.058 294.128 131.676C301.107 130.31 307.004 126.04 310.56 120.215L310.772 125.549C311.23 137.077 302.733 146.925 291.495 148.36Z" fill="#B9AFBE"/>
<path d="M287.283 81.0288L289.961 148.503C301.95 147.807 311.25 137.598 310.772 125.549L309.847 102.261C309.614 96.3578 307.096 90.9 302.756 86.8938C298.518 82.9777 293.012 80.9104 287.283 81.0288ZM289.663 151.301H289.671H289.663ZM289.564 154.084C288.265 154.084 287.033 153.602 286.072 152.716C285.061 151.782 284.474 150.509 284.42 149.132L281.709 80.8386C281.654 79.4637 282.139 78.1489 283.074 77.1361C284.006 76.1266 285.279 75.5393 286.654 75.4843C294.036 75.1939 301.099 77.7919 306.53 82.8075C311.96 87.8232 315.111 94.6525 315.405 102.039L316.329 125.329C316.935 140.578 305.022 153.474 289.773 154.079C289.703 154.083 289.634 154.084 289.564 154.084Z" fill="#371A45"/>
<path d="M61.3357 87.2107C62.6455 87.159 63.7484 88.1785 63.8002 89.4883L66.5115 157.784C66.5633 159.093 65.5438 160.196 64.2356 160.25C50.4968 160.794 38.9188 150.1 38.3732 136.363L37.4488 113.073C36.9032 99.3344 47.5986 87.7564 61.3357 87.2107Z" fill="white"/>
<path d="M62.4837 157.475C57.1994 157.299 52.1771 155.252 48.2426 151.618C43.9044 147.612 41.3866 142.154 41.1513 136.251L40.9478 131.122C45.0974 136.201 51.2126 139.596 58.072 140.19C59.1082 146.073 60.5832 151.85 62.4837 157.475Z" fill="#B9AFBE"/>
<path d="M61.0369 90.0092C49.05 90.705 39.7496 100.915 40.2268 112.963L41.1511 136.251C41.3864 142.155 43.9042 147.612 48.2425 151.619C52.4822 155.535 57.9834 157.607 63.7166 157.484L61.0369 90.0092ZM63.2193 163.05C56.2431 163.05 49.624 160.465 44.4699 155.705C39.0388 150.689 35.8869 143.858 35.5932 136.473L34.6688 113.184C34.0648 97.9348 45.9783 85.0386 61.2254 84.433V84.4313C62.6103 84.3829 63.9151 84.8618 64.9263 85.7961C65.9374 86.7305 66.5247 88.0036 66.5798 89.3802L69.2912 157.674C69.3446 159.049 68.8607 160.365 67.9263 161.376C66.9919 162.387 65.7205 162.973 64.3439 163.028C63.9685 163.043 63.5931 163.05 63.2193 163.05Z" fill="#371A45"/>
<path d="M291.93 122.903C289.916 187.197 236.163 237.685 171.867 235.671C107.571 233.657 57.0825 179.903 59.0981 115.608C61.112 51.3137 114.866 0.825134 179.162 2.83907C243.456 4.853 293.944 58.6069 291.93 122.903Z" fill="white"/>
<path d="M175.422 3.27925C145.826 3.27925 117.789 14.3651 96.1164 34.7213C73.536 55.9302 60.5664 84.6609 59.597 115.624C58.6275 146.586 69.7718 176.074 90.9806 198.653C112.188 221.233 140.92 234.203 171.883 235.172C202.842 236.147 232.332 224.997 254.912 203.788C277.492 182.581 290.46 153.849 291.43 122.887C292.401 91.9241 281.255 62.4376 260.048 39.8571C238.839 17.2767 210.108 4.30708 179.145 3.33766C177.902 3.29929 176.66 3.27925 175.422 3.27925ZM175.608 236.23C174.356 236.23 173.108 236.21 171.852 236.17C140.622 235.192 111.644 222.111 90.2515 199.337C68.8607 176.563 57.6197 146.821 58.5975 115.592C59.5769 84.3639 72.6583 55.3846 95.4323 33.9939C118.206 12.6031 147.925 1.36212 179.177 2.33989C210.405 3.31766 239.384 16.399 260.775 39.173C282.166 61.947 293.409 91.6889 292.429 122.917C291.451 154.148 278.37 183.127 255.596 204.518C233.738 225.047 205.458 236.23 175.608 236.23Z" fill="#371A45"/>
<path d="M175.629 232.95C174.408 232.95 173.18 232.93 171.955 232.891C145.117 232.05 119.987 222.014 100.156 204.399C118.43 214.971 144.733 224.542 173.183 224.747C173.579 224.75 173.964 224.752 174.358 224.752C194.494 224.752 212.724 221.01 227.962 215.707C229.168 216.556 230.553 217.3 232.035 217.953C214.994 227.754 195.67 232.95 175.629 232.95Z" fill="#B9AFBE"/>
<path d="M175.424 5.56056C146.408 5.56056 118.924 16.4295 97.6782 36.3853C75.5416 57.1754 62.8289 85.3421 61.8778 115.696C60.9251 146.049 71.8524 174.956 92.6425 197.091C113.434 219.228 141.601 231.941 171.955 232.892C202.283 233.851 231.214 222.919 253.35 202.127C275.485 181.335 288.199 153.168 289.15 122.816C290.102 92.4618 279.176 63.5559 258.384 41.4193C237.594 19.2843 209.427 6.57004 179.073 5.61897C177.855 5.58058 176.637 5.56056 175.424 5.56056ZM175.609 238.511C174.335 238.511 173.061 238.491 171.78 238.451C139.942 237.453 110.397 224.118 88.5896 200.899C66.7817 177.681 55.3205 147.36 56.3182 115.521C57.3144 83.6835 70.6511 54.1386 93.8706 32.3307C117.088 10.5228 147.397 -0.930099 179.248 0.0593567C211.086 1.05714 240.631 14.3939 262.439 37.6117C284.247 60.8295 295.708 91.1519 294.71 122.989C293.712 154.829 280.376 184.372 257.158 206.18C234.873 227.112 206.042 238.511 175.609 238.511Z" fill="#371A45"/>
<path d="M291.465 125.881C291.094 148.67 283.354 169.707 270.419 187.008C260.72 199.978 221.357 222.314 173.203 221.966C128.553 221.644 88.3209 197.183 79.0488 183.904C66.6816 166.195 59.627 144.917 59.9957 122.128C60.9735 61.822 113.192 37.6615 177.113 38.6976C241.035 39.7338 292.443 65.5746 291.465 125.881Z" fill="#371A46"/>
<path d="M173.203 41.446C141.811 41.446 115.336 47.7514 96.4418 59.7566C74.5488 73.6673 63.221 94.6676 62.7755 122.174C62.4285 143.639 68.844 164.435 81.3297 182.313C90.1981 195.014 129.576 218.871 173.223 219.186C173.592 219.188 173.966 219.19 174.333 219.19C222.17 219.191 259.584 196.854 268.192 185.343C281.25 167.878 288.336 147.3 288.683 125.836C289.891 51.3505 211.029 42.0283 177.068 41.4777C175.774 41.456 174.481 41.446 173.203 41.446ZM174.358 224.752C173.964 224.752 173.579 224.751 173.183 224.747C127.005 224.414 86.4806 199.404 76.768 185.498C63.6098 166.654 56.8488 144.726 57.2143 122.083C57.6931 92.5886 69.8869 70.0382 93.4601 55.0613C114.043 41.9833 142.964 35.3591 177.158 35.9164C211.329 36.4704 240.042 44.0256 260.191 57.7644C283.265 73.4988 294.723 96.4313 294.245 125.926C293.877 148.568 286.409 170.266 272.647 188.673C263.178 201.334 224.726 224.752 174.358 224.752Z" fill="#371A45"/>
<path d="M252.119 137.508C251.408 137.508 250.692 137.439 249.98 137.299C241.887 135.696 237.12 125.346 239.331 114.178C241.348 103.995 248.47 96.6501 255.846 96.6501C256.559 96.6501 257.273 96.7185 257.987 96.8587C264.526 98.1535 268.894 105.163 269.163 113.699C268.204 118.725 266.959 123.657 265.446 128.476C262.192 134.002 257.216 137.508 252.119 137.508Z" fill="#C3BAC7"/>
<path d="M222.619 148.002C221.84 148.002 221.059 147.877 220.296 147.612C216.061 146.142 214.016 140.948 215.729 136.012C217.134 131.964 220.63 129.346 224.179 129.346C224.958 129.346 225.739 129.472 226.502 129.737C230.738 131.207 232.782 136.401 231.068 141.337C229.663 145.384 226.168 148.002 222.619 148.002Z" fill="#C3BAC7"/>
<path d="M174.333 219.189C173.966 219.189 173.592 219.188 173.223 219.186C159.246 219.084 145.702 216.568 133.462 212.779C178.945 210.319 216.867 192.636 235.423 177.873C236.418 180.454 237.494 182.9 238.538 185.098C241.375 191.079 243.97 195.217 243.97 195.217C243.97 195.217 243.915 195.216 243.809 195.216C241.927 195.216 224.092 195.538 223.413 207.732C223.345 208.96 223.552 210.089 223.982 211.124C209.686 215.867 192.785 219.189 174.333 219.189Z" fill="#2A1A3B"/>
<path d="M174.298 221.974C173.931 221.974 173.569 221.972 173.2 221.969C156.197 221.852 139.841 218.228 125.583 213.047C128.231 213.009 130.86 212.919 133.462 212.779C145.702 216.568 159.246 219.084 173.223 219.186C173.592 219.188 173.966 219.189 174.333 219.189C192.785 219.189 209.686 215.867 223.982 211.124C224.341 211.986 224.856 212.785 225.495 213.525C210.657 218.509 193.166 221.974 174.298 221.974Z" fill="#2A1A3B"/>
<path d="M271.326 172.066C271.326 172.066 264.995 158.566 256.5 150.055C260.091 143.167 263.093 135.956 265.446 128.476C266.901 126.003 268.012 123.126 268.634 119.979C269.058 117.837 269.226 115.725 269.163 113.699C270.561 106.362 271.347 98.8206 271.471 91.1219C271.572 85.0701 271.249 79.2902 270.541 73.7757C281.781 86.0128 289.057 102.808 288.683 125.836C288.433 141.302 284.686 156.305 277.724 170.017C273.85 170.913 271.326 172.066 271.326 172.066Z" fill="#2A1A3B"/>
<path d="M277.724 170.018C284.686 156.305 288.433 141.302 288.683 125.836C289.057 102.809 281.781 86.013 270.541 73.7759C270.346 72.2491 270.121 70.7425 269.867 69.2558C283.796 82.9863 291.852 101.656 291.463 125.878C291.211 141.4 287.54 156.109 281.14 169.377C279.919 169.552 278.772 169.776 277.724 170.018Z" fill="#2A1A3B"/>
<path d="M265.446 128.476C266.959 123.657 268.204 118.725 269.163 113.699C269.226 115.725 269.058 117.837 268.634 119.979C268.012 123.126 266.901 126.003 265.446 128.476Z" fill="#858290"/>
<path d="M69.418 70.7278L69.5482 70.8462L69.418 70.7278ZM282.356 75.6133C281.724 75.6133 281.088 75.3964 280.567 74.9542C280.381 74.7957 280.202 74.6005 280.064 74.4002C260.857 46.5238 223.151 30.1037 176.615 29.3478C175.534 29.3311 174.458 29.3228 173.388 29.3228C128.066 29.3228 91.1709 44.9421 71.8374 72.4297C71.7907 72.4948 71.7406 72.5598 71.6889 72.6216C71.6706 72.6449 71.6355 72.6833 71.6155 72.7067C70.5877 73.8479 68.829 73.9397 67.6877 72.9119C66.5999 71.9341 66.4647 70.2939 67.3424 69.1527C88.2242 39.5343 128.087 23.0023 176.704 23.7866C225.032 24.5708 264.356 41.8486 284.607 71.1916C285.351 72.2178 285.324 73.6594 284.46 74.6522C283.908 75.2862 283.135 75.6133 282.356 75.6133Z" fill="#371A45"/>
<path d="M85.4062 158.426C85.4062 158.426 67.6929 98.6306 100.139 75.4428C123.409 58.8124 153.716 54.5426 168.582 54.5426C174.445 54.5426 177.905 55.2067 177.587 56.0393C177.587 56.0393 126.319 67.5739 105.682 107.622C89.7694 138.505 85.4062 158.426 85.4062 158.426Z" fill="#C3BAC7"/>
<path d="M313.656 264.654C312.947 264.929 312.196 265.179 311.421 265.405C304.513 267.399 297.113 266.456 290.772 263.11C290.497 262.969 290.23 262.818 289.963 262.668L280.094 257.062C272.41 251.114 260.338 239.767 252.196 222.389C252.196 222.389 222.696 220.604 223.413 207.731C224.131 194.858 243.97 195.217 243.97 195.217C243.97 195.217 241.375 191.079 238.539 185.097C232.907 173.242 226.308 154.163 236.995 145.787C253.088 133.181 271.325 172.066 271.325 172.066C271.325 172.066 304.538 156.899 314.883 193.857C315.35 195.551 315.784 197.361 316.151 199.288L316.376 200.49L316.385 200.507C316.626 200.999 322.458 212.854 325.503 226.402C328.907 241.528 328.84 258.755 313.656 264.654Z" fill="white"/>
<path d="M299.659 266.76C295.423 266.76 290.222 265.684 283.301 263.379C283.741 263.388 284.195 263.391 284.659 263.391C286.546 263.391 288.617 263.316 290.772 263.111C294.713 265.19 299.063 266.341 303.452 266.436C302.269 266.65 301.014 266.76 299.659 266.76Z" fill="#B9AFBE"/>
<path d="M299.634 269.541C295.001 269.541 289.496 268.375 282.405 266.014C280.236 265.288 278.233 264.654 276.39 264.095L275.363 262.768C275.363 262.768 278.615 263.289 283.301 263.379C290.222 265.683 295.423 266.76 299.659 266.76C301.014 266.76 302.269 266.649 303.452 266.436C303.647 266.439 303.844 266.443 304.039 266.443C306.515 266.443 308.998 266.104 311.421 265.405C312.197 265.179 312.947 264.929 313.657 264.654C317.671 263.095 320.628 260.743 322.743 257.849C320.628 260.743 317.671 263.095 313.657 264.654C309.413 267.896 305.137 269.541 299.634 269.541Z" fill="#371A45"/>
<path d="M316.151 199.289C315.784 197.361 315.35 195.551 314.883 193.857C314.958 193.841 315.041 193.816 315.125 193.791L316.151 199.289Z" fill="#3978BE"/>
<path d="M304.039 266.442C303.844 266.442 303.647 266.439 303.452 266.436C299.063 266.341 294.713 265.189 290.772 263.11C305.606 261.692 324.41 254.134 314.199 223.065C313.531 221.036 312.74 218.911 311.818 216.68C310.788 214.189 308.344 212.587 305.651 212.587C305.641 212.587 305.631 212.587 305.619 212.587C305.592 212.587 305.566 212.587 305.539 212.587C305.486 212.587 305.432 212.587 305.379 212.587C296.556 212.587 277.491 210.503 271.918 193.073C270.191 187.675 269.757 180.801 271.325 172.066C271.325 172.066 282.765 195.417 304.808 195.417C307.952 195.417 311.31 194.942 314.883 193.857C315.35 195.551 315.784 197.361 316.151 199.288L316.376 200.49L316.385 200.506L325.503 226.402C326.589 231.233 327.323 236.277 327.323 241.099C327.323 247.384 326.077 253.291 322.743 257.849C320.628 260.743 317.671 263.095 313.656 264.654C312.947 264.929 312.196 265.179 311.421 265.405C308.998 266.104 306.515 266.442 304.039 266.442Z" fill="#B9AFBE"/>
<path d="M298.389 206.958C292.137 206.958 286.728 205.38 282.206 202.223C268.677 192.783 268.542 172.905 268.542 172.063C268.544 170.527 269.789 169.284 271.324 169.284H271.325C272.86 169.286 274.104 170.531 274.104 172.066C274.105 172.263 274.269 189.924 285.41 197.678C292.432 202.564 302.526 202.632 315.412 197.882C316.852 197.349 318.452 198.087 318.984 199.528C319.515 200.97 318.777 202.569 317.336 203.099C310.359 205.672 304.032 206.958 298.389 206.958Z" fill="#371A45"/>
<path d="M267.888 240.104C263.336 240.104 260.545 239.642 260.176 239.576C258.663 239.309 257.653 237.865 257.92 236.354C258.187 234.842 259.634 233.834 261.139 234.098C261.508 234.158 290.687 238.813 320.669 214.1C321.856 213.124 323.608 213.293 324.584 214.477C325.562 215.664 325.391 217.416 324.207 218.393C301.329 237.251 279.186 240.104 267.888 240.104Z" fill="#371A45"/>
<path d="M243.928 192.436C245.039 192.483 245.97 192.613 246.97 192.788C247.949 192.97 248.92 193.205 249.878 193.484C251.785 194.046 253.686 194.799 255.311 196.07C255.765 196.427 255.845 197.085 255.489 197.539C255.284 197.801 254.982 197.937 254.673 197.941H254.62C252.733 197.947 250.987 197.839 249.207 197.839C248.321 197.837 247.438 197.852 246.559 197.884C245.7 197.912 244.767 197.951 244.011 197.999H243.991C242.456 198.098 241.131 196.933 241.035 195.396C240.936 193.863 242.102 192.538 243.638 192.439C243.734 192.434 243.833 192.433 243.928 192.436Z" fill="#371A45"/>
<path d="M279.693 257.578C277.933 256.77 276.283 255.784 274.704 254.698C273.116 253.625 271.622 252.424 270.182 251.164C267.338 248.606 264.625 245.883 262.127 242.963C257.096 237.155 252.855 230.606 249.678 223.573L249.676 223.571L252.025 225.166C249.286 224.968 246.724 224.634 244.091 224.189C241.478 223.736 238.872 223.181 236.279 222.417C233.69 221.659 231.105 220.713 228.589 219.355C227.336 218.651 226.094 217.868 224.926 216.862C223.769 215.846 222.672 214.618 221.861 213.106C221.676 212.716 221.464 212.342 221.319 211.931C221.177 211.516 221.042 211.097 220.917 210.678C220.835 210.248 220.762 209.814 220.695 209.382C220.628 208.948 220.653 208.518 220.638 208.084C220.618 207.637 220.665 207.251 220.707 206.859C220.747 206.465 220.784 206.073 220.877 205.679C221.015 204.888 221.256 204.108 221.538 203.342C222.12 201.81 223.031 200.4 224.114 199.229C225.197 198.051 226.438 197.101 227.725 196.33C230.308 194.795 233.039 193.916 235.75 193.324C237.109 193.032 238.468 192.82 239.833 192.67C241.22 192.528 242.511 192.433 244.021 192.436L241.614 196.694C239.289 192.865 237.304 189.052 235.457 185.066C233.626 181.092 231.999 177.004 230.735 172.742C230.104 170.611 229.552 168.442 229.171 166.208C228.788 163.979 228.504 161.703 228.527 159.355C228.539 157.015 228.793 154.61 229.495 152.232C230.172 149.855 231.436 147.529 233.156 145.623C234.889 143.736 236.958 142.184 239.511 141.257C242.057 140.322 244.964 140.316 247.454 141.013C249.966 141.697 252.13 142.92 254.051 144.292C255.978 145.67 257.665 147.235 259.222 148.875C262.34 152.154 264.962 155.728 267.356 159.409C269.75 163.115 271.881 166.856 273.842 170.885L270.169 169.537C270.938 169.197 271.547 168.973 272.233 168.726C272.902 168.487 273.571 168.271 274.245 168.069C275.59 167.657 276.957 167.331 278.333 167.044C281.091 166.497 283.915 166.188 286.771 166.212C289.626 166.235 292.516 166.597 295.322 167.398C298.127 168.192 300.834 169.439 303.261 171.084C305.687 172.729 307.847 174.738 309.674 176.972C310.126 177.534 310.533 178.123 310.962 178.701C311.17 178.991 311.392 179.276 311.589 179.573L312.148 180.483C312.513 181.093 312.902 181.694 313.246 182.311L314.202 184.198C316.697 189.264 318.14 194.64 319.113 200.005L318.884 199.294C320.549 202.896 321.954 206.429 323.277 210.074C324.589 213.707 325.763 217.393 326.775 221.137C328.762 228.622 330.203 236.371 329.976 244.401C329.828 248.404 329.232 252.502 327.712 256.438C326.222 260.361 323.636 264.077 320.17 266.691C316.725 269.356 312.629 270.809 308.616 271.589C304.575 272.329 300.54 272.416 296.592 272.178C295.059 272.086 293.891 270.768 293.983 269.234C294.076 267.701 295.394 266.533 296.926 266.626H296.928L296.949 266.628C300.56 266.847 304.161 266.751 307.583 266.124C310.982 265.46 314.219 264.275 316.795 262.271C319.39 260.301 321.32 257.574 322.528 254.426C323.746 251.277 324.29 247.772 324.419 244.213C324.629 237.055 323.307 229.718 321.404 222.582C320.439 219.006 319.309 215.464 318.046 211.965C316.787 208.484 315.38 204.969 313.863 201.688L313.852 201.665C313.752 201.445 313.678 201.204 313.636 200.977C312.732 195.972 311.387 191.055 309.205 186.641L308.375 184.998C308.078 184.464 307.745 183.957 307.434 183.434L306.961 182.657C306.794 182.405 306.607 182.17 306.432 181.926C306.07 181.445 305.731 180.945 305.357 180.479C303.84 178.629 302.095 177.017 300.158 175.701C296.287 173.049 291.56 171.795 286.719 171.773C284.298 171.754 281.851 172.018 279.435 172.497C278.228 172.749 277.025 173.033 275.847 173.395C275.258 173.571 274.673 173.762 274.099 173.967C273.543 174.162 272.916 174.402 272.478 174.596C271.09 175.212 269.472 174.613 268.811 173.259L268.804 173.248C267.029 169.597 264.933 165.898 262.689 162.436C260.431 158.962 257.97 155.625 255.197 152.715C253.817 151.258 252.352 149.912 250.802 148.807C249.259 147.699 247.627 146.82 246.014 146.386C244.397 145.949 242.842 145.97 241.367 146.499C239.898 147.022 238.44 148.084 237.3 149.333C234.973 151.82 234.092 155.519 234.09 159.362C234.065 161.289 234.309 163.27 234.649 165.244C234.983 167.221 235.487 169.198 236.067 171.16C237.23 175.088 238.765 178.958 240.507 182.737C242.246 186.499 244.22 190.269 246.327 193.741C247.132 195.064 246.709 196.788 245.386 197.592C244.932 197.867 244.417 197.999 243.921 197.999C242.865 197.994 241.594 198.076 240.431 198.199C239.244 198.329 238.068 198.515 236.918 198.762C234.626 199.257 232.418 200.005 230.586 201.099C228.752 202.195 227.373 203.625 226.72 205.357C226.567 205.798 226.42 206.243 226.341 206.719C226.28 206.947 226.263 207.194 226.238 207.44C226.211 207.685 226.176 207.937 226.2 208.132C226.171 208.983 226.361 209.749 226.775 210.5C227.179 211.249 227.798 211.978 228.564 212.654C229.34 213.326 230.274 213.922 231.257 214.474C233.258 215.555 235.51 216.401 237.841 217.079C240.17 217.766 242.59 218.284 245.029 218.706C247.454 219.119 249.986 219.441 252.362 219.615C253.389 219.69 254.246 220.301 254.683 221.153L254.712 221.21L254.713 221.212C256.345 224.452 258.081 227.634 259.959 230.741C261.84 233.846 263.892 236.851 266.086 239.764C268.295 242.663 270.621 245.489 273.111 248.182C275.565 250.917 278.096 253.578 280.491 256.547C280.724 256.832 280.681 257.254 280.394 257.488C280.19 257.653 279.917 257.678 279.693 257.578Z" fill="#371A45"/>
<path d="M172.661 399.818C172.661 400.854 171.82 401.695 170.784 401.695C169.746 401.695 168.907 400.854 168.907 399.818C168.907 398.78 169.746 397.941 170.784 397.941C171.82 397.941 172.661 398.78 172.661 399.818Z" fill="white"/>
</svg>
