<svg width="1438" height="1384" viewBox="0 0 1438 1384" fill="none" xmlns="http://www.w3.org/2000/svg">
<g clip-path="url(#clip0)">
<rect width="1438" height="1384" fill="#ECEBEB"/>
<path fill-rule="evenodd" clip-rule="evenodd" d="M1474.14 1148.41C1535.16 1221.53 1483.27 1359.41 1474.13 1452.81C1465.78 1538.16 1433.06 1570.29 1388.37 1641.91C1340.4 1718.81 1328.18 1733.24 1238.37 1745.91C1150.32 1758.33 1058.54 1789.77 973.64 1758.55C886.141 1726.38 788.928 1737.11 712.591 1681.47C282.373 1367.91 48.8735 1383.91 547.373 1383.91C701.373 1383.91 802.835 1291.06 840.133 1230.72C883.095 1161.2 892.967 1054.7 970.761 1030.58C1048.33 1006.53 1130.01 1076.53 1209.37 1099.91C1300.52 1126.77 1412.33 1074.35 1474.14 1148.41Z" fill="#090B3E"/>
<path opacity="0.5" d="M1232.1 1387.76C1256.79 1377.69 1268.51 1349.79 1258.28 1325.46C1248.06 1301.13 1219.76 1289.58 1195.07 1299.66C1170.39 1309.74 1158.66 1337.63 1168.89 1361.96C1179.11 1386.29 1207.41 1397.84 1232.1 1387.76Z" fill="url(#paint0_radial)"/>
<path d="M1252.88 1350.03C1256.4 1328.69 1241.7 1308.59 1220.05 1305.12C1198.4 1301.66 1178 1316.15 1174.49 1337.49C1170.97 1358.82 1185.67 1378.93 1207.32 1382.39C1228.97 1385.85 1249.37 1371.36 1252.88 1350.03Z" fill="url(#paint1_radial)"/>
<g style="mix-blend-mode:screen" opacity="0.5">
<path d="M1176.95 1350.84C1176.95 1342.15 1179.89 1333.71 1185.29 1326.85C1190.69 1319.99 1198.26 1315.09 1206.8 1312.93C1215.33 1310.77 1224.36 1311.47 1232.44 1314.92C1240.53 1318.37 1247.23 1324.38 1251.47 1331.99C1249.79 1326.79 1247.03 1322 1243.36 1317.92C1239.69 1313.83 1235.19 1310.55 1230.16 1308.28C1225.13 1306.01 1219.67 1304.81 1214.13 1304.74C1208.6 1304.67 1203.11 1305.74 1198.02 1307.88C1192.93 1310.03 1188.36 1313.2 1184.58 1317.19C1180.81 1321.18 1177.92 1325.9 1176.11 1331.05C1174.3 1336.21 1173.6 1341.68 1174.06 1347.11C1174.51 1352.55 1176.12 1357.83 1178.77 1362.62C1177.56 1358.8 1176.95 1354.83 1176.95 1350.84Z" fill="#289AD9"/>
</g>
<path style="mix-blend-mode:multiply" opacity="0.5" d="M1225.11 1367.93C1218.53 1367.93 1212.04 1366.31 1206.25 1363.23C1200.45 1360.14 1195.52 1355.69 1191.91 1350.26C1188.3 1344.83 1186.11 1338.6 1185.55 1332.13C1184.98 1325.67 1186.06 1319.16 1188.68 1313.21C1184 1316.93 1180.24 1321.66 1177.68 1327.03C1175.12 1332.4 1173.83 1338.28 1173.92 1344.21C1174 1350.14 1175.45 1355.98 1178.16 1361.28C1180.87 1366.57 1184.77 1371.2 1189.56 1374.79C1194.34 1378.39 1199.9 1380.86 1205.8 1382.03C1211.7 1383.2 1217.8 1383.03 1223.62 1381.54C1229.45 1380.05 1234.85 1377.27 1239.43 1373.41C1244.01 1369.56 1247.63 1364.73 1250.04 1359.29C1242.98 1364.89 1234.18 1367.94 1225.11 1367.93V1367.93Z" fill="url(#paint2_radial)"/>
<path style="mix-blend-mode:multiply" opacity="0.5" d="M1238.91 1313.55C1242.49 1321.98 1242.63 1331.44 1239.31 1339.96C1235.98 1348.49 1229.46 1355.43 1221.08 1359.33C1212.7 1363.23 1203.12 1363.8 1194.33 1360.92C1185.53 1358.04 1178.2 1351.93 1173.86 1343.86C1173.88 1350.46 1175.59 1356.94 1178.83 1362.71C1182.07 1368.48 1186.73 1373.36 1192.39 1376.88C1198.05 1380.4 1204.51 1382.45 1211.19 1382.85C1217.87 1383.25 1224.55 1381.99 1230.6 1379.17C1236.64 1376.35 1241.87 1372.07 1245.8 1366.73C1249.72 1361.39 1252.22 1355.16 1253.04 1348.61C1253.87 1342.07 1253.01 1335.42 1250.54 1329.3C1248.07 1323.17 1244.07 1317.75 1238.91 1313.55V1313.55Z" fill="url(#paint3_radial)"/>
<g style="mix-blend-mode:multiply" opacity="0.4">
<g style="mix-blend-mode:multiply" opacity="0.4">
<path d="M1195.66 1312.7C1197.83 1315.56 1196.71 1319.55 1196.75 1323.1C1196.86 1326.67 1198.17 1330.1 1200.48 1332.86C1202.79 1335.61 1205.96 1337.53 1209.5 1338.3C1211.23 1338.72 1213.05 1338.56 1214.69 1337.86C1215.5 1337.5 1216.17 1336.9 1216.61 1336.15C1217.06 1335.4 1217.26 1334.52 1217.18 1333.66C1216.89 1332.12 1215.58 1330.99 1214.85 1329.57C1214.32 1328.46 1214.16 1327.21 1214.39 1326C1214.63 1324.79 1215.24 1323.69 1216.16 1322.85C1217.69 1321.53 1219.89 1321.03 1221.19 1319.52C1223.42 1317.04 1222.28 1313.24 1220.94 1310.1C1220.15 1308.45 1219.58 1306.71 1219.25 1304.91C1217.35 1304.62 1215.43 1304.48 1213.51 1304.47C1206.07 1304.47 1198.78 1306.54 1192.48 1310.44C1193.74 1310.88 1194.85 1311.66 1195.66 1312.7V1312.7Z" fill="#B02BAE"/>
</g>
<g style="mix-blend-mode:multiply" opacity="0.4">
<path d="M1188.24 1373.83C1188.88 1373.46 1189.42 1372.93 1189.78 1372.29C1190.15 1371.65 1190.33 1370.92 1190.31 1370.19C1190.02 1367.39 1186.36 1365.82 1186.07 1363.03C1186.07 1362.07 1186.35 1361.13 1186.88 1360.34C1187.41 1359.54 1188.17 1358.91 1189.07 1358.53C1190.85 1357.81 1192.67 1357.18 1194.52 1356.65C1195.41 1356.3 1196.4 1355.71 1196.56 1354.76C1196.58 1354.08 1196.38 1353.41 1195.98 1352.85C1194.29 1349.71 1192.06 1346.38 1188.56 1346.09C1187.5 1346.19 1186.43 1346.19 1185.37 1346.09C1184.23 1345.61 1183.3 1344.76 1182.72 1343.68C1182.14 1342.6 1181.95 1341.36 1182.18 1340.16C1182.4 1337.71 1183.46 1335.41 1183.55 1332.96C1183.65 1331.62 1183.37 1330.27 1182.75 1329.07C1182.14 1327.86 1181.2 1326.84 1180.05 1326.12C1179.54 1325.85 1178.99 1325.66 1178.42 1325.55C1174.18 1333.5 1172.84 1342.65 1174.63 1351.45C1176.42 1360.26 1181.22 1368.19 1188.24 1373.93V1373.83Z" fill="#EC5EBB"/>
</g>
<g style="mix-blend-mode:multiply" opacity="0.4">
<path d="M1242.07 1316.41C1239.87 1316.19 1237.73 1315.97 1236.62 1314.27L1236.87 1314.59C1237.66 1318.01 1237.05 1321.6 1235.15 1324.58C1234.4 1325.57 1233.73 1326.62 1233.14 1327.72C1232.85 1328.27 1232.7 1328.88 1232.7 1329.49C1232.7 1330.11 1232.85 1330.72 1233.14 1331.27C1233.68 1331.89 1234.38 1332.36 1235.17 1332.62C1235.95 1332.88 1236.8 1332.93 1237.61 1332.74C1239.23 1332.39 1240.9 1332.32 1242.55 1332.56C1245.48 1333.34 1247.55 1337.05 1250.55 1336.45C1251.28 1336.3 1251.93 1335.9 1252.39 1335.32C1250.82 1328.19 1247.24 1321.63 1242.07 1316.41V1316.41Z" fill="#EC5EBB"/>
</g>
<g style="mix-blend-mode:multiply" opacity="0.4">
<path d="M1243.76 1369.15C1243.54 1368.6 1243.22 1368.09 1242.83 1367.64C1240.85 1365.97 1238.43 1364.88 1235.85 1364.5C1233.4 1363.72 1230.72 1361.99 1230.79 1359.41C1230.79 1357.43 1232.38 1354.86 1230.79 1353.82C1230.27 1353.58 1229.7 1353.49 1229.13 1353.54C1225.59 1353.54 1221.16 1353.79 1219.57 1350.68C1218.55 1348.73 1219.18 1346.28 1218.32 1344.4C1216.79 1340.72 1211.03 1340.63 1208.13 1343.39C1205.51 1346.47 1204.14 1350.38 1204.27 1354.39C1203.59 1359.24 1204.58 1364.19 1207.07 1368.43C1207.92 1369.26 1208.41 1370.39 1208.44 1371.57C1208.06 1374.05 1204.14 1373.45 1202.07 1374.87C1201.23 1375.7 1200.76 1376.83 1200.76 1378.01C1200.76 1379.19 1201.23 1380.31 1202.07 1381.15C1205.91 1382.31 1209.91 1382.91 1213.93 1382.91C1219.61 1382.86 1225.21 1381.6 1230.36 1379.23C1235.51 1376.85 1240.08 1373.42 1243.76 1369.15V1369.15Z" fill="#B02BAE"/>
</g>
</g>
<g style="mix-blend-mode:screen" opacity="0.5">
<path d="M1227.22 1316.63C1230.4 1315.34 1233.91 1315.69 1237.06 1314.56C1237.74 1314.33 1238.38 1313.99 1238.95 1313.55C1233.56 1309.14 1227.08 1306.22 1220.17 1305.07C1213.27 1303.93 1206.17 1304.6 1199.62 1307.03C1193.06 1309.46 1187.27 1313.55 1182.84 1318.89C1178.41 1324.24 1175.48 1330.64 1174.37 1337.46L1174.82 1341.01C1173.94 1344.78 1174.17 1348.73 1175.49 1352.38C1176.16 1354.19 1177.29 1355.81 1178.77 1357.08C1180.24 1358.36 1182.02 1359.25 1183.93 1359.66C1184.78 1359.86 1185.65 1359.87 1186.5 1359.7C1187.35 1359.52 1188.15 1359.17 1188.84 1358.66C1190.5 1356.71 1191.36 1354.23 1191.26 1351.69C1191.62 1349.17 1192.76 1346.22 1195.28 1345.81C1197.8 1345.4 1200 1348.07 1200.38 1350.62C1200.76 1353.16 1200.09 1355.8 1200.38 1358.38C1200.64 1360.91 1201.77 1363.28 1203.6 1365.08C1205.42 1366.88 1207.82 1368.01 1210.39 1368.27C1212.97 1368.35 1215.48 1367.46 1217.42 1365.78C1219.36 1364.1 1220.58 1361.76 1220.84 1359.22C1220.81 1356.71 1220.16 1354.25 1218.96 1352.03C1217.39 1348.69 1215.46 1345.53 1213.19 1342.61C1211.75 1340.95 1210.67 1339.03 1210.01 1336.95C1209.83 1335.86 1209.92 1334.75 1210.26 1333.7C1210.6 1332.64 1211.19 1331.68 1211.97 1330.9C1212.75 1330.11 1213.71 1329.51 1214.77 1329.15C1215.83 1328.79 1216.96 1328.67 1218.07 1328.82C1220.75 1329.35 1222.88 1331.43 1225.5 1332.15C1228.11 1332.87 1231.87 1330.86 1230.91 1328.35C1229.96 1325.83 1226.32 1326.24 1224.54 1324.48C1221.83 1322.16 1224.12 1317.92 1227.22 1316.63Z" fill="#289AD9"/>
</g>
<g style="mix-blend-mode:screen" opacity="0.5">
<path d="M1215.01 1340.35C1215.01 1343.52 1214.05 1346.62 1212.26 1349.26C1210.48 1351.9 1207.93 1353.96 1204.96 1355.18C1201.98 1356.39 1198.7 1356.71 1195.55 1356.09C1192.39 1355.47 1189.48 1353.94 1187.21 1351.7C1184.93 1349.45 1183.38 1346.59 1182.75 1343.48C1182.12 1340.36 1182.44 1337.14 1183.68 1334.2C1184.91 1331.27 1187 1328.76 1189.67 1327C1192.35 1325.24 1195.5 1324.3 1198.72 1324.3C1200.86 1324.29 1202.98 1324.7 1204.96 1325.51C1206.94 1326.31 1208.74 1327.5 1210.25 1328.99C1211.76 1330.48 1212.96 1332.25 1213.78 1334.2C1214.6 1336.15 1215.01 1338.24 1215.01 1340.35V1340.35Z" fill="#289AD9"/>
</g>
<g style="mix-blend-mode:screen" opacity="0.5">
<path d="M1227.6 1320.05C1227.6 1321.49 1227.17 1322.89 1226.36 1324.09C1225.55 1325.28 1224.4 1326.21 1223.05 1326.76C1221.71 1327.31 1220.23 1327.45 1218.8 1327.17C1217.37 1326.89 1216.06 1326.2 1215.03 1325.19C1214 1324.17 1213.3 1322.88 1213.02 1321.47C1212.73 1320.06 1212.88 1318.6 1213.43 1317.28C1213.99 1315.95 1214.94 1314.82 1216.15 1314.02C1217.36 1313.22 1218.78 1312.8 1220.24 1312.8C1221.2 1312.79 1222.16 1312.98 1223.06 1313.34C1223.95 1313.71 1224.77 1314.24 1225.45 1314.91C1226.14 1315.59 1226.68 1316.39 1227.05 1317.27C1227.42 1318.16 1227.6 1319.1 1227.6 1320.05V1320.05Z" fill="#289AD9"/>
</g>
<g style="mix-blend-mode:screen" opacity="0.5">
<path d="M1229.96 1339.09C1229.96 1339.71 1229.77 1340.32 1229.42 1340.84C1229.07 1341.35 1228.57 1341.75 1227.99 1341.99C1227.41 1342.23 1226.77 1342.29 1226.15 1342.17C1225.53 1342.05 1224.96 1341.75 1224.52 1341.31C1224.07 1340.87 1223.77 1340.31 1223.64 1339.7C1223.52 1339.09 1223.58 1338.46 1223.83 1337.89C1224.07 1337.31 1224.48 1336.82 1225 1336.48C1225.52 1336.13 1226.14 1335.95 1226.77 1335.95C1227.62 1335.95 1228.43 1336.28 1229.02 1336.87C1229.62 1337.46 1229.96 1338.26 1229.96 1339.09Z" fill="#289AD9"/>
</g>
<path style="mix-blend-mode:screen" opacity="0.2" d="M988.693 1339.01C988.264 1339.73 987.976 1340.54 987.615 1341.34C987.009 1342.55 986.477 1343.8 986.02 1345.07C985.438 1347.35 985.455 1349.74 986.071 1352.01C986.463 1348.99 986.899 1345.95 987.319 1342.93L986.808 1343.8C985.805 1345.51 985.276 1347.44 985.274 1349.41C985.272 1351.38 985.796 1353.31 986.795 1355.01C987.814 1356.75 989.277 1358.19 991.038 1359.2C992.8 1360.2 994.8 1360.74 996.84 1360.74L997.951 1360.78L989.254 1357.23C992.525 1360.15 996.759 1361.8 1001.18 1361.88C1005.6 1361.96 1009.91 1360.47 1013.33 1357.67C1015.48 1355.5 1016.95 1352.76 1017.56 1349.79C1018.16 1346.81 1017.87 1343.73 1016.72 1340.92C1015.71 1338.4 1014.02 1336.2 1011.85 1334.55C1009.67 1332.9 1007.08 1331.86 1004.35 1331.54C1001.68 1331.18 998.967 1331.54 996.486 1332.58C993.26 1333.8 990.567 1336.1 988.879 1339.08L988.693 1339.01Z" fill="url(#paint4_radial)"/>
<path opacity="0.5" d="M1006.68 1183.99C1001.16 1185.5 1003.6 1194.02 1009.12 1192.5C1014.65 1190.99 1012.21 1182.47 1006.68 1183.99Z" fill="url(#paint5_radial)"/>
<path opacity="0.5" d="M933.229 1178.47C928.088 1179.88 930.367 1187.84 935.508 1186.43C940.65 1185.02 938.37 1177.06 933.229 1178.47Z" fill="url(#paint6_radial)"/>
<path d="M1057.2 1236.15C1049.92 1238.16 1053.06 1249.28 1060.36 1247.27C1067.66 1245.25 1064.52 1234.13 1057.2 1236.15Z" fill="url(#paint7_radial)"/>
<path d="M1011.14 1316.48C1001.19 1319.23 1005.51 1334.49 1015.47 1331.73C1025.44 1328.98 1021.12 1313.72 1011.14 1316.48Z" fill="url(#paint8_radial)"/>
</g>
<defs>
<radialGradient id="paint0_radial" cx="0" cy="0" r="1" gradientUnits="userSpaceOnUse" gradientTransform="translate(72398.9 22753.2) scale(1433.05 1412.36)">
<stop offset="0.06" stop-color="#EC5EBB"/>
<stop offset="0.24" stop-color="#EC5FBC" stop-opacity="0.99"/>
<stop offset="0.37" stop-color="#EB60BE" stop-opacity="0.95"/>
<stop offset="0.48" stop-color="#EA64C1" stop-opacity="0.88"/>
<stop offset="0.59" stop-color="#E968C6" stop-opacity="0.79"/>
<stop offset="0.68" stop-color="#E86ECC" stop-opacity="0.66"/>
<stop offset="0.78" stop-color="#E675D4" stop-opacity="0.51"/>
<stop offset="0.87" stop-color="#E37EDD" stop-opacity="0.34"/>
<stop offset="0.95" stop-color="#E187E7" stop-opacity="0.14"/>
<stop offset="1" stop-color="#DF8EEE" stop-opacity="0"/>
</radialGradient>
<radialGradient id="paint1_radial" cx="0" cy="0" r="1" gradientUnits="userSpaceOnUse" gradientTransform="translate(59358.8 18235.1) scale(1864.09 1837.17)">
<stop offset="0.14" stop-color="#289AD9"/>
<stop offset="0.94" stop-color="#EC5EBB"/>
</radialGradient>
<radialGradient id="paint2_radial" cx="0" cy="0" r="1" gradientUnits="userSpaceOnUse" gradientTransform="translate(56912.4 16529.2) scale(1634.35 1494.18)">
<stop offset="0.14" stop-color="#289AD9"/>
<stop offset="0.94" stop-color="#EC5EBB"/>
</radialGradient>
<radialGradient id="paint3_radial" cx="0" cy="0" r="1" gradientUnits="userSpaceOnUse" gradientTransform="translate(59572.9 16951.7) scale(1242.4 1084.31)">
<stop offset="0.14" stop-color="#289AD9"/>
<stop offset="0.94" stop-color="#EC5EBB"/>
</radialGradient>
<radialGradient id="paint4_radial" cx="0" cy="0" r="1" gradientUnits="userSpaceOnUse" gradientTransform="translate(6752.98 9241.31) rotate(29.7322) scale(41.4839 42.3556)">
<stop stop-color="#8EE1EE"/>
<stop offset="0.94" stop-color="#5E8DEC"/>
</radialGradient>
<radialGradient id="paint5_radial" cx="0" cy="0" r="1" gradientUnits="userSpaceOnUse" gradientTransform="translate(-5601.1 1415.86) rotate(164.663) scale(22.6082 23.2997)">
<stop stop-color="#8EE1EE"/>
<stop offset="0.94" stop-color="#5E8DEC"/>
</radialGradient>
<radialGradient id="paint6_radial" cx="0" cy="0" r="1" gradientUnits="userSpaceOnUse" gradientTransform="translate(-5569.54 1353.92) rotate(164.663) scale(19.5114 20.2022)">
<stop stop-color="#8EE1EE"/>
<stop offset="0.94" stop-color="#5E8DEC"/>
</radialGradient>
<radialGradient id="paint7_radial" cx="0" cy="0" r="1" gradientUnits="userSpaceOnUse" gradientTransform="translate(-7309.51 1957.55) rotate(164.559) scale(39.297 39.9814)">
<stop offset="0.06" stop-color="#E47E99"/>
<stop offset="0.53" stop-color="#E43D99"/>
<stop offset="0.99" stop-color="#B30058"/>
</radialGradient>
<radialGradient id="paint8_radial" cx="0" cy="0" r="1" gradientUnits="userSpaceOnUse" gradientTransform="translate(-7195.32 1218.96) rotate(164.559) scale(63.5866 65.0212)">
<stop offset="0.06" stop-color="#E47E99"/>
<stop offset="0.53" stop-color="#E43D99"/>
<stop offset="0.99" stop-color="#B30058"/>
</radialGradient>
<clipPath id="clip0">
<rect width="1438" height="1384" fill="white"/>
</clipPath>
</defs>
</svg>
