<svg width="754" height="464" viewBox="0 0 754 464" fill="none" xmlns="http://www.w3.org/2000/svg">
<g clip-path="url(#clip0)">
<rect width="754" height="464" fill="url(#paint0_radial)"/>
<path d="M965.805 396.498C956.632 391.337 946.675 387.335 935.793 384.806C930.492 383.568 925.297 382.464 920.195 381.462C933.543 385.495 947.15 389.794 960.98 394.665C962.511 395.203 964.121 395.813 965.805 396.498ZM989.39 413.327C1018.3 439.272 1038.4 477.169 1056.88 512.017C1060.98 519.746 1064.86 527.049 1068.81 534.203C1077.44 521.095 1078.69 506.241 1072.55 490.057C1063.39 465.939 1040.15 444.329 1022.27 430.452C1005.03 417.067 984.811 404.865 968.525 397.846C975.981 402.295 982.907 407.509 989.39 413.327ZM119.641 -221.243C143.592 -197.271 165.051 -177.135 185.9 -159.03C219.842 -129.555 251.991 -105.65 284.185 -85.9512C290.037 -82.3705 296.079 -79.0904 302.256 -76.0425C249.537 -112.775 199.37 -154.686 150.691 -195.352C143.006 -201.773 135.058 -208.412 127.245 -214.91C124.717 -217.013 122.181 -219.125 119.641 -221.243ZM461.171 21.7824C462.047 22.5687 462.913 23.3602 463.774 24.1626C493.49 51.8095 514.838 87.5361 535.483 122.086C547.975 142.994 560.892 164.612 575.462 184.046C596.473 212.071 621.206 239.111 648.975 264.415C676.45 289.449 705.661 311.667 735.808 330.46C758.378 344.532 780.487 354.279 805.389 361.136C827.572 367.245 849.117 370.286 871.924 373.501C886.253 375.525 900.924 377.594 916.374 380.518C909.546 378.468 902.794 376.49 896.104 374.523C846.549 359.978 799.737 346.235 751.075 315.281C684.192 272.734 621.618 215.146 565.091 144.116C550.812 126.173 538.184 104.921 525.973 84.3699C507.715 53.6411 488.846 21.8845 463.554 -0.812901C463.096 -1.22332 462.637 -1.63014 462.175 -2.0355C449.508 -13.1342 434.136 -22.7786 415.18 -31.5187C398.259 -39.3217 380.05 -45.7259 362.441 -51.9181C343.058 -58.7358 323.193 -65.7228 304.468 -74.7455C309.554 -71.2188 314.667 -67.7406 319.802 -64.3174C337.74 -52.3611 357.44 -42.0041 376.491 -31.9882C405.902 -16.5241 436.285 -0.550336 461.171 21.7824ZM-223.565 -539.317C-225.686 -512.522 -215.963 -488.245 -193.854 -465.114C-174.349 -444.705 -148.599 -428.315 -123.697 -412.464C-112.256 -405.181 -101.449 -398.302 -91.7864 -391.352C-30.1011 -346.984 29.4698 -297.044 87.0785 -248.749C96.7276 -240.66 106.617 -232.37 116.484 -224.133C110.226 -230.426 103.792 -236.985 97.1556 -243.834C78.3701 -263.222 59.9826 -284.915 42.1998 -305.894C7.18348 -347.204 -29.0246 -389.92 -72.2064 -420.419C-88.9295 -432.231 -108.194 -441.091 -126.823 -449.659C-147.419 -459.132 -168.716 -468.927 -185.995 -482.582C-195.29 -489.927 -202.755 -497.796 -208.814 -506.638C-215.499 -516.392 -220.327 -527.088 -223.565 -539.317ZM-183.865 -455.191C-187.39 -458.354 -190.779 -461.612 -193.997 -464.98C-216.312 -488.326 -226.035 -512.844 -223.721 -539.935L-223.671 -540.518L-223.52 -539.937C-220.29 -527.489 -215.424 -516.631 -208.647 -506.744C-202.601 -497.92 -195.153 -490.067 -185.875 -482.737C-168.618 -469.099 -147.333 -459.309 -126.749 -449.843C-108.11 -441.27 -88.8362 -432.405 -72.0958 -420.582C-28.8914 -390.067 7.32697 -347.339 42.3522 -306.018C60.1325 -285.042 78.5185 -263.35 97.2984 -243.968C104.464 -236.572 111.392 -229.517 118.121 -222.766C121.21 -220.189 124.295 -217.618 127.37 -215.062C135.183 -208.564 143.13 -201.924 150.816 -195.504C199.812 -154.571 250.325 -112.373 303.42 -75.4722C322.464 -66.1883 342.73 -59.0615 362.496 -52.1094C380.11 -45.9144 398.323 -39.5088 415.255 -31.7017C434.23 -22.9519 449.621 -13.2963 462.304 -2.18281C488.33 20.61 507.55 52.9771 526.148 84.2764C538.355 104.822 550.978 126.067 565.248 143.998C621.759 215.008 684.314 272.579 751.173 315.109C799.815 346.053 846.608 359.787 896.15 374.329C903.446 376.475 910.816 378.634 918.276 380.88C924.008 381.987 929.855 383.218 935.828 384.609C947.26 387.268 957.677 391.547 967.233 397.088C1000.13 410.872 1057.42 449.667 1072.74 490C1078.92 506.299 1077.63 521.258 1068.89 534.46L1068.8 534.595L1068.72 534.447C1064.73 527.236 1060.83 519.884 1056.71 512.103C1033.85 469.011 1008.52 421.246 967.128 397.252C964.981 396.356 962.907 395.553 960.924 394.854C946.436 389.751 932.202 385.282 918.241 381.078C902.098 377.962 886.821 375.809 871.912 373.704C849.095 370.485 827.547 367.447 805.353 361.335C780.428 354.471 758.299 344.715 735.71 330.632C705.55 311.829 676.322 289.608 648.843 264.559C621.063 239.247 596.321 212.197 575.301 184.159C560.724 164.715 547.804 143.092 535.309 122.18C514.672 87.6438 493.333 51.93 463.641 24.3049C438.312 0.741097 406.839 -15.8092 376.406 -31.8101C357.35 -41.8295 337.645 -52.1892 319.697 -64.1511C314.211 -67.8076 308.758 -71.5237 303.326 -75.2982C296.745 -78.5067 290.307 -81.9742 284.087 -85.7808C251.883 -105.487 219.724 -129.398 185.771 -158.882C164.479 -177.37 142.554 -197.977 117.988 -222.622C107.58 -231.307 97.1334 -240.064 86.9531 -248.598C29.3476 -296.891 -30.2198 -346.828 -91.8985 -391.191C-101.555 -398.137 -112.359 -405.015 -123.799 -412.295C-144.604 -425.54 -166.002 -439.16 -183.865 -455.191Z" fill="#D7D7D7"/>
<path d="M-237.317 -525.23C-235.035 -502.417 -224.663 -481.478 -205.628 -461.245C-188.652 -443.2 -167.274 -428.1 -146.6 -413.498C-138.572 -407.828 -130.99 -402.473 -123.714 -396.992C-76.6663 -361.552 -31.789 -322.055 11.6107 -283.86C32.6875 -265.311 54.4821 -246.13 76.27 -227.636L81.9781 -222.792C145.174 -169.14 210.521 -113.663 279.787 -67.175C299.974 -53.6271 323.409 -42.2279 346.072 -31.2037C379.523 -14.9324 414.115 1.89451 439.772 26.1972C482.202 66.3895 510.675 113.882 538.21 159.811C557.704 192.327 577.862 225.951 602.522 255.882C615.781 271.976 629.295 285.815 643.835 298.193C660.131 312.065 677.308 323.775 696.349 333.991C732.822 353.564 774.938 367.973 815.673 381.912C862.856 398.056 911.654 414.756 952.462 439.648C974.439 453.053 992.388 467.689 1007.33 484.385C1024.07 503.1 1036.62 523.893 1045.71 547.963C1056.94 539.649 1061.23 528.802 1058.44 515.715C1055.16 500.243 1041.67 481.524 1020.47 463.02C1003.36 448.092 983.095 435.06 970.044 430.601C954.627 425.332 940.059 420.634 925.965 416.088C868.625 397.603 819.099 381.634 759.753 341.483C680.424 287.812 610.248 227.002 551.174 160.742C534.037 141.519 518.508 118.838 503.49 96.9029C477.929 59.5689 451.496 20.9628 415.48 -3.68096C395.541 -17.3221 373.201 -27.6477 351.597 -37.6336C332.622 -46.4043 313.001 -55.4738 294.954 -66.7932C239.742 -101.424 183.557 -143.98 123.186 -196.892C88.3956 -227.38 55.7855 -261.398 24.2477 -294.293C-7.27085 -327.169 -39.8596 -361.16 -74.5013 -391.483C-91.9315 -406.741 -113.476 -419.107 -136.285 -432.199C-159.868 -445.735 -183.906 -459.533 -203.231 -476.874C-218.238 -490.341 -230.402 -505.944 -237.317 -525.23ZM-193.355 -449.036C-197.687 -452.924 -201.846 -456.938 -205.773 -461.112C-225.068 -481.621 -235.477 -502.857 -237.598 -526.034L-237.671 -526.841L-237.4 -526.062C-221.843 -481.533 -178.301 -456.542 -136.193 -432.373C-113.373 -419.275 -91.8197 -406.904 -74.3722 -391.631C-39.7246 -361.307 -7.13137 -327.306 24.3905 -294.427C55.9252 -261.535 88.5328 -227.52 123.315 -197.039C183.677 -144.136 239.853 -101.587 295.054 -66.9623C313.088 -55.6505 332.703 -46.5838 351.672 -37.8166C373.284 -27.8273 395.633 -17.4975 415.588 -3.84447C451.638 20.8217 478.083 59.4455 503.657 96.7974C518.671 118.726 534.196 141.402 551.324 160.614C610.384 226.86 680.545 287.657 759.859 341.317C787.038 359.706 813.594 374.11 843.423 386.638C870.301 397.933 897.36 406.655 926.02 415.9C940.106 420.439 954.675 425.136 970.092 430.405C983.174 434.878 1003.47 447.925 1020.6 462.874C1041.84 481.415 1055.35 500.164 1058.65 515.692C1061.45 528.898 1057.1 539.834 1045.73 548.21L1045.61 548.288L1045.56 548.154C1036.49 524.058 1023.93 503.239 1007.17 484.509C992.256 467.837 974.324 453.213 952.365 439.82C911.575 414.939 862.797 398.248 815.616 382.101C774.879 368.165 732.746 353.745 696.261 334.168C677.208 323.944 660.016 312.225 643.708 298.343C629.158 285.956 615.635 272.108 602.366 256.003C577.697 226.059 557.535 192.428 538.036 159.904C510.508 113.989 482.045 66.51 439.636 26.3389C414.003 2.05878 379.43 -14.7591 345.993 -31.0228C323.323 -42.0505 299.881 -53.4524 279.68 -67.0101C210.404 -113.505 145.053 -168.987 81.8512 -222.641L76.1438 -227.486C54.3535 -245.982 32.5589 -265.163 11.4814 -283.713C-31.915 -321.905 -76.7889 -361.398 -123.83 -396.834C-131.103 -402.312 -138.684 -407.667 -146.71 -413.336C-162.614 -424.569 -178.937 -436.097 -193.355 -449.036Z" fill="#D7D7D7"/>
<path d="M421.508 30.435C392.92 4.78067 353.325 -14.4551 314.982 -33.0826C287.764 -46.3057 262.057 -58.7945 239.952 -73.4049C225.542 -82.9307 211.141 -92.9153 196.625 -103.459C223.672 -80.1268 251.61 -57.9331 280.997 -39.413C300.728 -26.9789 321.141 -17.0124 340.883 -7.37384C358.623 1.28755 376.966 10.242 394.163 20.7444C413.394 32.4887 429.366 45.1101 442.993 59.33C449.953 66.5941 456.496 74.2079 462.719 82.0576C451.911 64.235 439.704 47.5401 424.816 33.48C423.732 32.4558 422.626 31.4385 421.508 30.435ZM-251.293 -513.012C-242.488 -467.039 -201.595 -441.28 -162.043 -416.361C-146.321 -406.456 -131.469 -397.1 -118.634 -386.58C-82.1827 -356.702 -47.9892 -322.179 -14.9219 -288.792C9.20024 -264.435 34.1446 -239.249 59.7172 -216.127C107.396 -173.016 150.719 -137.296 192.947 -106.383C176.871 -120.348 161.109 -134.67 145.536 -148.822C137.256 -156.346 128.699 -164.128 120.352 -171.603C119.963 -171.952 119.571 -172.303 119.181 -172.653C82.9228 -205.192 47.0493 -239.274 12.3426 -272.249C-19.1326 -302.154 -51.6798 -333.078 -84.3945 -362.734C-101.888 -378.588 -121.775 -393.207 -142.834 -408.686C-184.424 -439.252 -227.426 -470.858 -251.293 -513.012ZM464.507 84.6498C474.264 101.043 482.907 118.317 491.413 135.318C501.908 156.297 512.761 177.99 525.319 197.064C542.499 223.156 562.446 247.252 584.606 268.685C606.412 289.774 631.122 309.018 658.049 325.882C726.191 368.558 797.839 404.566 865.24 430.005C905.395 445.16 932.166 459.719 954.748 478.679C977.104 497.447 996.313 521.382 1018.98 558.7C1032.49 550.916 1038.69 541.535 1037.42 530.822C1036.64 524.263 1033.06 517.158 1026.76 509.694C1021.38 503.314 1014.04 496.683 1004.93 489.969C988.477 477.849 969.778 468.048 958.758 463.333C955.64 462.002 952.534 460.673 949.458 459.358C881.493 430.311 822.805 405.234 757.754 362.965C738.799 350.651 718.516 339.042 698.906 327.821C661.896 306.641 623.627 284.742 591.416 256.591C590.607 255.885 589.8 255.169 589.003 254.454C555.526 224.415 531.77 186.62 508.772 150.038C494.96 128.067 480.815 105.567 464.507 84.6498ZM595.919 279.491C592.018 275.99 588.204 272.436 584.469 268.825C562.297 247.382 542.339 223.271 525.151 197.165C512.585 178.08 501.729 156.382 491.23 135.398C482.494 117.936 473.616 100.19 463.533 83.4053C457.024 75.1251 450.168 67.1013 442.849 59.4646C429.238 45.2582 413.28 32.6494 394.066 20.9149C376.877 10.4188 358.539 1.46567 340.804 -7.19294C321.058 -16.8336 300.638 -26.8028 280.896 -39.2437C250.858 -58.1746 222.329 -80.947 194.725 -104.841C151.893 -136.075 107.98 -172.232 59.5863 -215.981C34.0082 -239.108 9.06226 -264.295 -15.063 -288.655C-48.1256 -322.039 -82.3145 -356.56 -118.758 -386.427C-131.582 -396.938 -146.427 -406.291 -162.143 -416.193C-201.903 -441.241 -243.018 -467.144 -251.605 -513.576L-251.713 -514.162L-251.416 -513.631C-227.635 -471.253 -184.467 -439.526 -142.72 -408.846C-121.657 -393.364 -101.755 -378.74 -84.263 -362.879C-51.5458 -333.221 -18.998 -302.297 12.4782 -272.39C47.1817 -239.418 83.0584 -205.333 119.312 -172.799C120.086 -172.105 120.854 -171.416 121.629 -170.721C129.608 -163.56 137.766 -156.148 145.668 -148.967C161.809 -134.299 178.162 -119.439 194.847 -104.996C210.001 -93.945 225.023 -83.5088 240.057 -73.5712C262.149 -58.9683 287.85 -46.4831 315.06 -33.2636C354.919 -13.8993 396.139 6.12602 424.951 33.3377C440.229 47.7662 452.683 64.9606 463.699 83.2991C480.423 104.573 494.857 127.532 508.943 149.94C532.48 187.38 556.82 226.097 591.544 256.444C623.739 284.579 661.998 306.474 698.994 327.644C718.612 338.871 738.897 350.479 757.859 362.8C822.894 405.056 881.571 430.13 949.525 459.173C952.602 460.487 955.708 461.816 958.834 463.154C969.856 467.866 988.575 477.677 1005.04 489.809C1014.16 496.529 1021.53 503.182 1026.92 509.571C1033.24 517.067 1036.84 524.213 1037.63 530.815C1038.91 541.637 1032.64 551.091 1019 558.926L1018.91 558.977L1018.86 558.89C996.186 521.54 976.979 497.601 954.625 478.832C932.059 459.885 905.315 445.343 865.181 430.197C797.762 404.747 726.111 368.741 657.949 326.051C635.619 312.066 614.809 296.443 595.919 279.491Z" fill="#D7D7D7"/>
<path d="M304.06 -19.6524C225.103 -70.4545 154.164 -126.781 79.8945 -185.752C72.2773 -191.8 64.5755 -197.916 56.8093 -204.068C65.2616 -196.713 73.8883 -189.229 82.7059 -181.6L83.9196 -180.549C114.569 -154.03 146.262 -126.605 178.453 -101.49C214.442 -73.4105 247.711 -50.8916 280.163 -32.6451C287.976 -28.2524 296.07 -23.9035 304.06 -19.6524ZM392.296 37.4243C401.897 46.0399 410.616 55.7595 418.805 66.8988C433.294 86.6137 444.264 108.237 455.876 131.131C463.683 146.52 471.755 162.432 481.288 178.478C518.934 241.849 563.164 287.875 616.505 319.183C627.986 325.923 639.571 332.697 650.775 339.247C771.308 409.721 885.162 476.29 993.017 570.743C997.881 566.113 999.724 560.439 998.486 553.867C989.605 506.756 827.539 422.186 749.652 381.541C733.613 373.172 720.945 366.562 714.224 362.669C703.394 356.399 692.431 350.197 681.835 344.204C651.722 327.171 623.28 311.082 595.6 292.424C564.266 271.301 539.444 250.582 517.485 227.219C492.695 200.845 479.778 170.838 467.288 141.817C456.936 117.766 446.231 92.8966 428.821 70.2401C398.374 30.6165 353.793 6.96151 310.679 -15.9142C309.86 -16.349 309.04 -16.7833 308.217 -17.22C325.375 -6.26059 342.925 4.44197 360.969 14.8506C372.487 21.4936 382.821 28.9215 392.296 37.4243ZM-261.689 -498.756C-263.773 -491.255 -263.442 -482.839 -260.705 -473.736C-258.117 -465.123 -253.306 -455.664 -246.406 -445.616C-234.185 -427.821 -214.886 -407.442 -189.046 -385.044C-141.84 -344.126 -82.6881 -304.587 -39.4973 -275.717C-19.5161 -262.36 -3.73347 -251.81 5.16751 -244.897C20.3915 -233.072 35.489 -221.189 50.356 -209.428C-6.5369 -259.003 -55.5477 -302.717 -101.877 -345.186C-117.051 -359.097 -134.596 -372.582 -153.169 -386.857C-174.509 -403.259 -196.574 -420.22 -215.825 -438.595C-237.497 -459.285 -252.501 -478.965 -261.689 -498.756ZM-196.939 -391.742C-218.925 -411.472 -235.598 -429.531 -246.572 -445.511C-253.485 -455.577 -258.307 -465.058 -260.901 -473.69C-263.681 -482.937 -263.988 -491.48 -261.814 -499.082L-261.741 -499.339L-261.623 -499.084C-252.458 -479.234 -237.433 -459.494 -215.689 -438.737C-196.446 -420.368 -174.386 -403.412 -153.052 -387.014C-134.474 -372.736 -116.929 -359.251 -101.744 -345.33C-54.5691 -302.085 -4.60569 -257.543 53.6211 -206.844C62.5112 -199.805 71.3154 -192.814 80.0147 -185.907C154.911 -126.438 226.414 -69.6647 306.17 -18.5304C307.708 -17.7144 309.241 -16.9009 310.764 -16.0917C353.9 6.7952 398.504 30.4614 428.981 70.1253C446.407 92.8032 457.117 117.687 467.475 141.75C479.958 170.752 492.866 200.742 517.63 227.087C539.577 250.436 564.387 271.146 595.706 292.258C623.378 310.913 651.817 326.999 681.923 344.027C692.528 350.027 703.482 356.222 714.32 362.498C721.032 366.386 733.7 372.995 749.739 381.365C827.655 422.025 989.789 506.63 998.682 553.839C999.942 560.512 998.064 566.272 993.096 570.955L993.028 571.014L992.957 570.952C885.094 476.476 771.231 409.902 650.681 339.42C639.478 332.87 627.892 326.096 616.411 319.357C588.671 303.074 562.871 282.311 539.726 257.644C518.38 234.895 499.208 209.03 481.114 178.571C471.578 162.519 463.503 146.603 455.695 131.211C444.086 108.326 433.121 86.71 418.642 67.0101C402.394 44.9029 384.038 28.3831 360.876 15.0239C342.108 4.19776 323.891 -6.9363 306.077 -18.3572C297.406 -22.9639 288.575 -27.6908 280.072 -32.4712C247.611 -50.7226 214.332 -73.2472 178.334 -101.334C146.139 -126.453 114.444 -153.879 83.791 -180.401L82.5781 -181.451C72.6503 -190.041 62.9613 -198.45 53.4949 -206.694C37.5764 -219.296 21.3867 -232.05 5.04838 -244.74C-3.84552 -251.649 -19.6258 -262.197 -39.6026 -275.55C-82.7979 -304.425 -141.956 -343.969 -189.173 -384.896C-191.831 -387.199 -194.42 -389.482 -196.939 -391.742Z" fill="#D7D7D7"/>
<path d="M366.97 37.6148C339.91 13.3307 306.39 -6.43227 273.715 -25.699C251.535 -38.7773 230.584 -51.1297 211.632 -64.7436C185.272 -83.6773 159.193 -103.833 133.973 -123.326C119.318 -134.653 104.425 -146.164 89.3221 -157.555C95.0869 -152.777 100.822 -148.004 106.443 -143.326C154.189 -103.59 203.561 -62.4987 258.362 -29.7064C266.954 -24.5639 275.506 -19.6066 283.777 -14.8117C309.231 -0.0554899 333.275 13.8833 354.949 31.0047C379.221 50.1796 397.259 70.7752 411.715 95.8206C414.06 99.8847 416.359 103.953 418.619 108.015C410.727 91.6732 401.674 75.9655 390.309 61.9333C383.317 53.3005 375.461 45.234 366.97 37.6148ZM-271.867 -485.547C-269.14 -473.176 -264.636 -460.518 -258.479 -447.917C-252.613 -435.914 -245.074 -423.609 -236.071 -411.343C-219.711 -389.055 -198.614 -366.72 -171.578 -343.065C-122.206 -299.866 -62.0287 -260.734 -13.6755 -229.29C5.2674 -216.972 23.1593 -205.338 38.3954 -194.794C53.3508 -184.445 68.1388 -173.673 82.7329 -162.751C81.045 -164.144 79.3579 -165.535 77.673 -166.92C57.7515 -183.305 36.9964 -200.069 16.9257 -216.283C-85.5152 -299.034 -191.438 -384.596 -271.867 -485.547ZM421.482 113.6C427.496 126.568 432.875 139.858 438.177 152.96C448.718 179.007 459.618 205.94 475.156 229.597C513.519 288.004 563.97 333.438 621.053 360.983C644.486 372.291 667.376 380.33 689.503 388.098C724.693 400.454 757.938 412.131 792.272 435.685C800.727 441.487 809.475 447.374 817.923 453.058C873.383 490.38 930.735 528.976 969.015 584.289C972.515 577.542 974.56 570.964 975.114 564.75C975.624 558.918 974.833 553.222 972.761 547.817C963.191 522.894 927.978 506.991 899.681 494.211C891.282 490.417 883.349 486.832 876.919 483.388C848.143 467.965 820.901 449.154 794.561 430.968C764.314 410.085 733.034 388.487 699.329 371.963C690.845 367.806 682.325 363.704 674.09 359.743C622.802 335.062 573.979 311.565 530.56 272.604C524.058 266.769 517.683 260.592 511.432 254.007C477.647 218.415 456.897 179.605 434.927 138.518C430.555 130.339 426.095 121.998 421.482 113.6ZM541.429 307.437C516.681 285.229 494.304 259.109 474.987 229.698C459.436 206.024 448.532 179.081 437.988 153.023C432.315 139.005 426.557 124.779 420.024 110.956C417.258 105.949 414.434 100.926 411.539 95.912C397.098 70.8916 379.077 50.3163 354.828 31.1598C333.168 14.0487 309.131 0.114555 283.684 -14.6382C275.412 -19.4335 266.859 -24.3918 258.266 -29.5345C203.45 -62.3368 154.072 -103.432 106.319 -143.174C99.6391 -148.734 92.7972 -154.428 85.9369 -160.104C70.2689 -171.875 54.3746 -183.497 38.287 -194.63C23.0533 -205.172 5.16262 -216.807 -13.7784 -229.124C-62.1372 -260.571 -122.321 -299.708 -171.707 -342.917C-198.757 -366.582 -219.864 -388.929 -236.234 -411.232C-245.244 -423.507 -252.79 -435.824 -258.661 -447.84C-264.894 -460.596 -269.435 -473.412 -272.157 -485.928L-272.246 -486.337L-271.979 -486.001C-231.392 -435.007 -184.281 -387.927 -134.401 -343.165C-85.4154 -299.205 -33.7618 -257.479 17.0477 -216.436C37.1197 -200.222 57.8737 -183.457 77.796 -167.073C80.5463 -164.812 83.3027 -162.537 86.0553 -160.259C102.319 -148.039 118.342 -135.656 134.091 -123.483C159.31 -103.991 185.387 -83.8367 211.743 -64.9051C230.688 -51.2974 251.633 -38.9469 273.811 -25.8716C316.754 -0.550177 361.162 25.6345 390.464 61.8137C402.523 76.7029 411.979 93.4676 420.207 110.876C425.339 120.163 430.277 129.399 435.107 138.433C457.069 179.508 477.812 218.303 511.576 253.874C559.533 304.398 615.217 331.193 674.168 359.561C682.403 363.522 690.923 367.623 699.407 371.781C733.123 388.309 764.412 409.913 794.676 430.809C821.007 448.99 848.24 467.793 876.999 483.205C883.427 486.65 891.36 490.235 899.749 494.024C928.087 506.823 963.35 522.749 972.946 547.753C975.033 553.189 975.833 558.921 975.314 564.78C974.762 571.07 972.674 577.713 969.128 584.542L969.045 584.681L968.947 584.538C930.692 529.183 873.312 490.57 817.817 453.223C809.369 447.54 800.622 441.652 792.165 435.851C757.85 412.308 724.624 400.641 689.455 388.294C667.31 380.515 644.42 372.477 620.975 361.164C592.6 347.472 565.859 329.36 541.429 307.437Z" fill="#D7D7D7"/>
<path d="M321.646 36.1576C327.767 41.6512 333.233 47.2643 338.202 53.1524C346.153 62.5737 352.656 72.4684 358.081 83.4012C368.332 104.065 375.194 124.729 381.83 144.713C391.011 172.36 400.504 200.949 419.018 228.901C437.437 256.712 459.743 282.731 485.313 306.235C511.313 330.136 539.248 350.091 568.334 365.543C598.39 381.511 630.085 390.226 660.736 398.653C696.99 408.622 734.483 418.934 769.251 441.308C817.932 472.635 859.977 513.839 900.635 553.681C915.648 568.395 931.168 583.604 946.782 598.076C955.699 571.414 939.751 544.145 910.565 517.954C851.807 465.225 739.366 416.765 667.977 386C645.631 376.37 627.98 368.763 616.62 363.065C579.879 344.64 548.287 325.654 520.033 305.022C487.949 281.595 460.166 255.778 437.452 228.29C408.178 192.861 402.245 164.347 395.965 134.158C391.871 114.478 387.636 94.1272 376.821 70.3614C368.49 52.0552 353.117 35.2497 329.823 18.9861C309.241 4.61623 285.233 -7.55199 262.016 -19.3191C242.011 -29.4576 223.116 -39.0335 207.305 -49.4902C155.63 -83.6665 102.991 -123.56 41.6458 -175.039C-3.62698 -213.03 -47.9916 -251.527 -91.2323 -290.331C-158.226 -350.45 -222.553 -411.339 -283.55 -472.385C-271.279 -443.509 -255.818 -416.802 -236.294 -390.756C-218.808 -367.429 -198.439 -345.172 -174.023 -322.713C-128.668 -280.986 -75.8688 -244.932 -24.8116 -210.061C-2.20053 -194.618 21.1798 -178.65 43.5949 -162.407C68.0335 -144.698 92.3315 -125.653 115.83 -107.235C147.111 -82.7159 179.457 -57.3619 212.579 -34.8098C226.417 -25.3874 240.991 -16.9277 255.086 -8.74594C275.903 3.3386 295.568 14.7528 313.402 29.1501C316.279 31.4717 319.023 33.8043 321.646 36.1576ZM489.092 309.933C487.782 308.757 486.481 307.575 485.18 306.38C459.596 282.863 437.28 256.829 418.849 229.004C400.319 201.027 390.821 172.424 381.637 144.763C375.003 124.787 368.143 104.129 357.898 83.4798C352.482 72.5633 345.989 62.6834 338.049 53.2757C330.96 44.8758 322.857 37.0338 313.28 29.3037C295.46 14.9178 275.803 3.50757 254.993 -8.57276C240.894 -16.7565 226.316 -25.2182 212.472 -34.6456C179.344 -57.2018 146.995 -82.5581 115.711 -107.079C92.2146 -125.496 67.9181 -144.54 43.4829 -162.246C21.0699 -178.488 -2.30875 -194.455 -24.9189 -209.897C-75.9833 -244.773 -128.785 -280.835 -174.156 -322.569C-198.582 -345.037 -218.96 -367.305 -236.455 -390.644C-256.094 -416.843 -271.625 -443.71 -283.933 -472.78L-284.129 -473.242L-283.769 -472.882C-183.308 -372.315 -73.7808 -272.157 41.7712 -175.19C103.11 -123.717 155.743 -83.8281 207.409 -49.6573C223.209 -39.2076 242.099 -29.6334 262.098 -19.4978C285.322 -7.72799 309.337 4.44302 329.932 18.8233C353.26 35.1107 368.658 51.9453 377.006 70.2891C387.832 94.0772 392.068 114.44 396.165 134.132C402.44 164.293 408.367 192.781 437.606 228.167C460.307 255.641 488.078 281.445 520.146 304.862C548.389 325.486 579.972 344.465 616.7 362.885C628.056 368.581 645.704 376.185 668.045 385.814C739.433 416.579 851.876 465.038 910.68 517.809C940.008 544.128 955.985 571.49 946.928 598.293L946.875 598.43L946.76 598.322C931.113 583.824 915.547 568.571 900.496 553.82C859.847 513.985 817.809 472.789 769.146 441.473C734.404 419.116 696.933 408.813 660.7 398.852C630.032 390.418 598.326 381.699 568.248 365.721C540.6 351.032 513.99 332.276 489.092 309.933Z" fill="#D7D7D7"/>
<path d="M300.27 34.512C305.39 39.1072 309.764 43.8448 313.044 48.7274C321.934 61.9636 322.01 74.7057 322.092 88.1962C322.14 96.0375 322.188 104.146 324.014 112.657C329.708 139.22 340.25 166.245 355.344 192.983C369.562 218.169 387.597 242.741 408.948 266.02C449.916 310.681 500.958 348.14 552.672 371.494C577.326 382.627 603.45 390.988 628.715 399.073C668.542 411.819 709.729 425.001 745.932 449.333C783.126 474.332 816.3 507.368 848.379 539.315C873.17 564.003 898.807 589.533 926.093 611.139L926.127 611.022C926.265 608.054 896.287 576.848 849.763 531.529C813.118 495.832 768.712 454.002 758.589 446.786C721.417 420.293 682.685 407.773 641.669 394.511C618.887 387.145 595.33 379.528 571.954 369.281C507.18 340.888 454.425 304.591 415.156 261.399C371.616 213.511 345.2 157.552 336.641 95.0782C333.107 69.2885 322.898 49.0937 304.512 31.5219C288.054 15.7871 266.882 3.92823 244.469 -8.62904C229.991 -16.7403 215.019 -25.1285 200.335 -35.087C141.232 -75.166 85.6731 -118.73 20.4359 -171.811C-29.016 -212.048 -87.1457 -259.953 -143.346 -310.187C-201.59 -362.254 -251.62 -411.293 -296.292 -460.118C-294.825 -430.314 -282.545 -402.633 -258.758 -375.506C-237.791 -351.595 -211.205 -331.521 -185.494 -312.107C-181.085 -308.778 -176.526 -305.334 -172.156 -301.99C-107.869 -252.781 -42.6349 -204.152 21.735 -157.454C86.4402 -110.512 153.123 -63.4509 219.93 -17.577C227.544 -12.3499 237.183 -6.7372 247.389 -0.794042C265.761 9.90254 285.938 21.6511 300.27 34.512ZM440.736 297.712C429.575 287.696 418.884 277.142 408.801 266.151C387.439 242.859 369.393 218.273 355.167 193.072C340.062 166.315 329.513 139.269 323.814 112.685C321.985 104.153 321.935 96.0338 321.888 88.1823C321.806 74.7243 321.73 62.0124 312.876 48.8308C300.447 30.3287 272.209 13.8857 247.296 -0.62086C237.086 -6.56595 227.443 -12.1809 219.822 -17.4138C153.013 -63.2881 86.3297 -110.349 21.6221 -157.293C-42.7493 -203.993 -107.984 -252.623 -172.274 -301.833C-176.642 -305.177 -181.201 -308.62 -185.61 -311.949C-211.33 -331.369 -237.925 -351.451 -258.907 -375.379C-282.801 -402.628 -295.1 -430.436 -296.51 -460.392L-296.522 -460.66L-296.334 -460.454C-252.685 -412.73 -203.908 -364.791 -147.357 -314.042C-145.978 -312.805 -144.603 -311.574 -143.215 -310.333C-87.0185 -260.102 -28.8913 -212.199 20.5589 -171.964C85.7914 -118.887 141.345 -75.3259 200.441 -35.2517C215.118 -25.2981 230.085 -16.9128 244.559 -8.80372C266.984 3.75984 288.167 15.6278 304.649 31.3809C323.073 48.9894 333.302 69.2256 336.843 95.0658C345.397 157.495 371.795 213.414 415.303 261.269C454.55 304.436 507.279 340.715 572.024 369.097C595.391 379.339 618.942 386.953 641.716 394.316C682.745 407.58 721.505 420.115 758.704 446.627C763.289 449.895 775.2 460.464 793.131 477.175C809.749 492.662 829.91 511.916 849.902 531.39C886.963 567.492 926.504 607.377 926.332 611.046C926.328 611.241 926.226 611.323 926.139 611.357L926.086 611.384L926.036 611.345C898.714 589.716 873.053 564.164 848.241 539.453C816.168 507.515 783.003 474.486 745.827 449.498C709.65 425.184 668.483 412.011 628.666 399.266C603.394 391.179 577.264 382.816 552.599 371.678C513.585 354.06 474.952 328.418 440.736 297.712Z" fill="#D7D7D7"/>
</g>
<defs>
<radialGradient id="paint0_radial" cx="0" cy="0" r="1" gradientUnits="userSpaceOnUse" gradientTransform="translate(321.593 262.835) rotate(-37.3523) scale(959.268 23183.9)">
<stop stop-color="white"/>
<stop offset="0.363868" stop-color="#F6FCFF"/>
<stop offset="0.971122" stop-color="#CDF0FF"/>
</radialGradient>
<clipPath id="clip0">
<rect width="754" height="464" fill="white"/>
</clipPath>
</defs>
</svg>
