<svg width="1440" height="949" viewBox="0 0 1440 949" fill="none" xmlns="http://www.w3.org/2000/svg">
<g clip-path="url(#clip0)">
<rect width="1440" height="949" fill="#090B3D"/>
<g opacity="0.39">
<path style="mix-blend-mode:screen" opacity="0.51" d="M1446.92 345.368C1382.08 315.803 1312.17 300.585 1241.52 300.657C955.378 300.657 723.417 545.247 723.417 846.967C723.384 892.635 728.777 938.127 739.472 982.381H1446.92V345.368Z" fill="url(#paint0_radial)"/>
<path d="M896.863 -13.3781C896.863 279.013 1121.65 516.023 1398.93 516.023C1415.08 516.023 1431.05 515.216 1446.82 513.604V-33.7217H897.267C897.036 -26.954 896.863 -20.1864 896.863 -13.3781Z" fill="url(#paint1_radial)"/>
<path style="mix-blend-mode:multiply" d="M955.648 732.852C783.301 630.341 575.22 615.831 378.549 639.121C284.685 650.197 191.592 669.281 97.1498 672.532C61.9749 673.752 25.9712 672.532 -7.85449 663.184V982.442H561.092C559.165 981.243 557.064 980.064 555.021 978.967C518.882 959.578 477.732 954.132 438.336 943.97C371.286 926.692 308.179 895.483 252.709 852.17C273.911 830.383 307.505 831.847 337.11 833.35C431.089 838.005 525.146 827.944 619.222 827.863C713.298 827.782 809.648 838.391 894.357 881.557C940.615 905.132 983.017 939.844 1014.66 982.422H1212.51C1142.08 882.269 1058.11 793.781 955.648 732.852Z" fill="url(#paint2_radial)"/>
<path style="mix-blend-mode:screen" opacity="0.5" d="M375.908 249.666C351.026 259.299 324.158 262.144 299.179 271.493C274.2 280.842 249.722 299.194 243.284 326.366C241.82 332.463 241.261 339.251 237.714 344.372C232.568 351.81 222.931 353.64 214.258 354.534C142.944 361.505 72.6333 341.547 2.37988 322.606V494.134C56.3468 496.309 112.241 480.416 167.018 480.497C215.588 480.497 263.233 493.281 311.225 501.227C418.01 518.81 527.087 512.971 631.634 484.074C645.319 480.294 661.104 473.791 664.4 459.28C668.351 441.538 650.908 427.413 636.279 417.861C597.828 392.863 559.839 360.631 546.386 315.168C537.385 284.683 540.45 251.617 532.779 220.766C523.142 182.152 497.681 150.244 470.813 122.117C414.919 63.6672 350.64 15.684 283.856 -28.4175H2.45698V8.59118C5.19387 10.0748 7.95005 11.5584 10.7255 12.981C72.8646 44.8479 140.767 61.7569 206.992 82.5069C273.217 103.257 339.712 129.25 392.869 175.811C401.504 183.371 410.216 192.334 412.143 203.999C415.555 225.278 395.124 242.227 375.908 249.666Z" fill="url(#paint3_radial)"/>
<path style="mix-blend-mode:screen" opacity="0.5" d="M1448 694.278C1352.39 670.311 1257.99 641.265 1165.16 607.254C1176.84 590.121 1198.31 584.227 1218.2 581.789C1286.74 573.416 1355.29 591.747 1423.6 602.112C1431.66 603.311 1439.81 604.388 1448 605.303V548.702C1327.9 558.015 1207.16 550.202 1089.04 525.473C1009.77 508.828 923.673 485.416 851.434 523.644C831.447 534.212 811.402 556.364 819.362 578.415C821.705 584.092 825.054 589.245 829.231 593.597C887.38 659.891 981.61 668.63 1065.97 684.238C1193.93 707.935 1318.46 757.016 1448 762.544V694.278Z" fill="url(#paint4_radial)"/>
<path style="mix-blend-mode:screen" d="M58.698 640.401C100.715 639.445 142.559 639.527 184.229 632.922C222.485 626.814 259.873 615.721 295.536 599.896C313.754 591.913 331.499 582.778 348.674 572.541C363.765 563.477 379.3 553.519 390.325 539.089C417.501 503.462 400.155 460.235 373.769 430.441C348.712 402.212 315.002 383.697 282.179 367.662C244.418 349.407 205.585 333.726 165.919 320.716C143.253 313.128 120.413 306.178 97.4 299.864C75.9675 293.97 54.1301 289.479 32.871 282.874C21.9828 279.559 11.4333 275.113 1.37743 269.603V298.401C29.3439 313.724 61.859 320.756 91.5793 329.963C132.055 342.563 171.99 357.277 211.367 373.495C247.582 388.433 284.087 405.24 316.776 427.677C331.154 437.554 345.012 449.138 355.535 463.588C364.382 475.782 374.694 493.768 367.447 509.194C360.547 523.928 343.778 532.606 330.826 540.227C314.348 550.018 297.28 558.66 279.731 566.099C244.281 581.119 207.217 591.494 169.369 596.99C127.737 602.803 85.6237 601.177 43.7607 602.742C30.269 603.25 15.8329 603.778 1.35815 605.18V642.961C20.6513 640.807 40.5806 640.827 58.698 640.401Z" fill="url(#paint5_radial)"/>
<path style="mix-blend-mode:screen" d="M173.436 543.459C194.406 542.91 218.421 541.427 234.206 524.863C248.855 509.478 250.088 486.086 242.282 466.779C233.358 444.607 213.853 431.01 193.712 421.499C170.562 410.766 146.893 401.322 122.803 393.209C94.5284 383.454 65.791 375.304 36.9765 367.541C24.8767 364.502 12.9837 360.612 1.37756 355.896V363.822C24.6219 375.284 51.8752 380.568 75.0039 389.327C100.06 398.839 124.731 409.346 149.151 420.564C169.851 430.075 193.481 439.038 210.442 455.215C223.625 467.734 235.132 493.464 219.173 508.909C203.503 524.07 173.84 520.616 154.49 520.494C103.471 520.128 52.2221 514.397 1.37756 521.002V544.455C2.93875 544.252 4.48066 544.008 6.04185 543.825C61.6085 537.098 117.657 544.942 173.436 543.459Z" fill="url(#paint6_radial)"/>
<path style="mix-blend-mode:screen" d="M55.4602 464.219C38.846 470.437 19.6878 471.535 1.37756 472.165V476.86C13.1817 478.105 25.079 477.996 36.8608 476.534C48.1746 474.99 62.9384 473.1 70.8986 463.385C79.1863 453.224 68.9712 447.797 61.1074 442.859C48.0204 434.729 33.6999 427.251 18.4735 425.137C15.6017 424.751 14.6187 429.527 17.0087 430.827C27.1082 436.111 37.8631 439.953 47.9626 445.237C53.1056 447.788 58.0771 450.708 62.8421 453.976C66.1957 456.435 66.427 455.134 63.96 458.752C62.0133 461.556 58.3898 463.101 55.4602 464.219Z" fill="url(#paint7_radial)"/>
<path style="mix-blend-mode:screen" d="M409.734 944.416C385.853 918.789 351.584 903.465 320.284 890.763C284.415 876.212 248.604 872.614 210.634 878.325C172.087 884.117 134.792 897.185 96.3401 903.994C73.7956 907.961 51.0167 910.27 28.1683 910.903C19.2059 911.147 10.2435 911.086 1.18481 910.903V926.939C22.5304 928.836 43.9917 928.782 65.3284 926.776C101.197 923.91 135.948 914.745 170.892 906.31C206.471 897.734 243.593 890.052 279.943 898.181C296.654 901.88 312.574 908.343 328.321 915.151C343.644 921.817 359.159 928.3 373.557 936.856C388.976 945.981 403.161 957.545 412.548 973.621C414.202 976.434 415.702 979.345 417.039 982.34H431.937C427.143 968.195 419.578 955.274 409.734 944.416Z" fill="url(#paint8_radial)"/>
<path style="mix-blend-mode:screen" d="M1391.43 272.286C1341.88 303.401 1285.29 317.119 1232.4 340.206C1186.01 360.529 1116.01 396.075 1131.18 462.146C1137.13 487.916 1157.81 505.983 1178.47 519.214C1202.65 534.342 1227.56 548.127 1253.1 560.51C1309 588.231 1381.08 616.359 1442.2 590.772C1444.02 590.027 1445.62 588.777 1446.82 587.154V574.594C1445.94 573.492 1444.84 572.597 1443.61 571.967C1442.37 571.337 1441.03 570.986 1439.65 570.936C1412.67 568.904 1385.69 566.872 1359.3 560.023C1333.81 553.164 1308.96 543.928 1285.02 532.424C1259.25 520.23 1234.25 506.349 1209.56 491.96C1194.45 483.16 1174.41 472.633 1168.51 454.138C1161.03 430.726 1183.79 410.789 1200.23 400.201C1222.78 385.669 1247.36 375.061 1271.97 365.123C1322.08 344.799 1375.32 327.992 1419.46 294.723C1429.2 287.376 1438.37 279.221 1446.88 270.335V223.591C1431.12 242.99 1412.38 259.452 1391.43 272.286Z" fill="url(#paint9_radial)"/>
<path style="mix-blend-mode:screen" d="M517.051 962.545C505.93 944.477 504.138 922.061 496.023 902.53C480.604 865.42 448.918 838.126 414.186 822.416C372.131 803.414 325.295 800.609 280.078 802.54C256.526 803.556 232.838 804.572 209.459 807.844C186.08 811.116 164.3 817.294 142 824.591C116.967 832.716 91.1185 837.729 64.9815 839.528C51.7404 840.504 38.3257 841.256 25.0653 841.418C17.1051 841.418 9.20284 842.577 1.30054 843.349V863.164C6.21538 864.566 11.1495 865.928 16.18 866.822C28.7436 868.908 41.4063 870.265 54.1111 870.887C77.2243 872.352 100.421 870.961 123.227 866.741C145.585 862.493 166.883 853.693 189.144 848.958C212.465 844.02 236.423 843.43 260.13 842.658C304.595 841.215 350.486 839.752 392.811 856.498C423.65 868.692 453.332 893.283 464.125 927.081C470.293 946.571 474.205 966 484.902 982.421H535.612C528.305 977.072 522.01 970.331 517.051 962.545Z" fill="url(#paint10_radial)"/>
<path style="mix-blend-mode:screen" d="M1323.01 437.92C1354.69 431.859 1385.67 422.274 1415.43 409.325C1426.18 404.857 1436.7 399.769 1446.92 394.083V378.109C1442.22 380.69 1437.28 382.986 1432.77 385.222C1415.15 393.774 1396.98 401.02 1378.4 406.907C1361.49 412.28 1344.28 416.576 1326.88 419.772C1311.46 422.637 1294.87 424.913 1283.94 438.063C1274.3 449.687 1273.44 465.641 1282.48 477.876C1291.51 490.11 1305.95 493.667 1319.91 496.004C1339.76 499.337 1359.65 502.365 1379.54 505.353C1398.49 508.178 1418.57 511.917 1437.73 510.21C1438.81 510.161 1439.85 509.71 1440.66 508.936C1441.46 508.162 1441.98 507.115 1442.13 505.978C1442.28 504.84 1442.04 503.684 1441.46 502.712C1440.88 501.74 1440 501.013 1438.96 500.658C1422.92 493.911 1404.85 491.228 1387.87 488.363C1370.51 485.463 1353.16 482.686 1335.83 480.03C1323.45 478.16 1300.38 478.343 1294.12 464.117C1286.16 446.497 1312.29 439.953 1323.01 437.92Z" fill="url(#paint11_radial)"/>
<path style="mix-blend-mode:screen" d="M631.962 9.95289C689.784 39.7265 754.371 50.7214 817.589 59.4807C946.814 77.1595 1077.79 74.9894 1206.42 53.0382C1242.39 47.2793 1278.05 39.594 1313.28 30.012C1346.39 20.6836 1380.91 8.9977 1407.72 -14.2115C1413.1 -18.8452 1413.06 -27.9297 1409.65 -33.7218H1378.42C1355.26 -23.1715 1331.31 -14.6939 1306.8 -8.37869C1276.87 -0.818436 1246.74 6.01019 1216.42 11.5991C1154.18 23.0149 1091.23 29.6509 1028.08 31.4549C965.099 33.352 902.07 30.6357 839.446 23.3256C778.81 16.2125 716.324 7.2499 659.177 -16.2235C646.63 -21.3856 634.371 -27.381 622.306 -33.8438H563.135C585.377 -17.8087 607.831 -2.48495 631.962 9.95289Z" fill="url(#paint12_radial)"/>
<path d="M1.37756 512.243C57.0475 533.905 115.927 544.957 175.267 544.882C452.387 544.882 677.236 307.851 677.236 15.5013C677.236 -1.09607 676.51 -17.5037 675.058 -33.7217H1.37756V512.243Z" fill="url(#paint13_radial)"/>
</g>
<path style="mix-blend-mode:multiply" d="M164.847 72.1913C164.312 70.7269 164.563 69.2625 165.383 68.945C166.202 68.6274 167.307 69.5272 167.825 71.0092C168.344 72.4912 168.127 73.938 167.29 74.2732C166.453 74.6084 165.366 73.6733 164.847 72.1913Z" fill="url(#paint14_radial)"/>
<path style="mix-blend-mode:multiply" d="M164.847 72.1913C164.312 70.7269 164.563 69.2625 165.383 68.945C166.202 68.6274 167.307 69.5272 167.825 71.0092C168.344 72.4912 168.127 73.938 167.29 74.2732C166.453 74.6084 165.366 73.6733 164.847 72.1913Z" fill="url(#paint15_radial)"/>
<path style="mix-blend-mode:multiply" d="M166.972 74.3263C167.256 73.8907 167.424 73.3828 167.46 72.8554C167.495 72.328 167.396 71.8004 167.173 71.327C166.704 70.0391 165.801 69.1745 165.031 69.1922C164.754 69.6315 164.592 70.1397 164.559 70.6659C164.527 71.1922 164.626 71.7182 164.847 72.1915C165.315 73.4794 166.202 74.3616 166.972 74.3263Z" fill="url(#paint16_radial)"/>
<path style="mix-blend-mode:multiply" d="M163.207 68.063C162.772 67.569 162.638 66.9515 162.906 66.6692C163.174 66.3869 163.759 66.6692 164.194 67.075C164.629 67.4808 164.78 68.1689 164.496 68.4511C164.211 68.7334 163.642 68.557 163.207 68.063Z" fill="url(#paint17_radial)"/>
<path style="mix-blend-mode:multiply" d="M164.379 68.5394C164.419 68.3161 164.405 68.0855 164.338 67.8695C164.27 67.6534 164.152 67.459 163.994 67.3044C163.86 67.1144 163.676 66.9697 163.465 66.8882C163.254 66.8067 163.025 66.792 162.806 66.8457C162.765 67.0679 162.781 67.2974 162.852 67.5111C162.922 67.7249 163.045 67.9152 163.207 68.0631C163.341 68.2499 163.521 68.3935 163.728 68.4777C163.935 68.5619 164.161 68.5833 164.379 68.5394Z" fill="url(#paint18_radial)"/>
<path style="mix-blend-mode:multiply" opacity="0.5" d="M167.859 77.9254C167.778 77.9991 167.675 78.0403 167.568 78.0415C167.461 78.0426 167.357 78.0038 167.275 77.9318C167.193 77.8599 167.137 77.7594 167.119 77.6484C167.1 77.5374 167.119 77.423 167.173 77.3256C167.254 77.2518 167.357 77.2107 167.464 77.2095C167.571 77.2083 167.674 77.2472 167.757 77.3191C167.839 77.3911 167.895 77.4915 167.913 77.6025C167.932 77.7135 167.913 77.8279 167.859 77.9254Z" fill="url(#paint19_radial)"/>
<path style="mix-blend-mode:multiply" opacity="0.5" d="M163.843 72.315C163.733 72.4517 163.599 72.5642 163.448 72.6461C163.297 72.7281 163.132 72.7779 162.962 72.7926C162.793 72.8073 162.623 72.7868 162.461 72.7321C162.299 72.6774 162.149 72.5896 162.019 72.4737C161.89 72.3579 161.783 72.2162 161.705 72.0569C161.627 71.8976 161.58 71.7237 161.566 71.5451C161.552 71.3665 161.572 71.1868 161.624 71.0161C161.676 70.8455 161.759 70.6874 161.869 70.5507C161.979 70.414 162.113 70.3014 162.264 70.2194C162.415 70.1375 162.58 70.0877 162.749 70.073C162.919 70.0582 163.089 70.0788 163.251 70.1335C163.413 70.1882 163.563 70.2761 163.692 70.3919C163.822 70.5077 163.929 70.6493 164.007 70.8087C164.084 70.968 164.132 71.1419 164.146 71.3205C164.159 71.4991 164.14 71.6788 164.088 71.8494C164.036 72.0201 163.953 72.1783 163.843 72.315Z" fill="url(#paint20_radial)"/>
<path style="mix-blend-mode:multiply" opacity="0.5" d="M169.047 75.0497C168.985 75.1433 168.89 75.207 168.783 75.2268C168.676 75.2467 168.567 75.221 168.478 75.1555C168.389 75.09 168.329 74.99 168.31 74.8775C168.291 74.765 168.315 74.6492 168.377 74.5556C168.411 74.5128 168.453 74.4774 168.5 74.4515C168.547 74.4256 168.599 74.4099 168.651 74.405C168.704 74.4001 168.758 74.4061 168.808 74.4229C168.859 74.4396 168.906 74.4667 168.946 74.5026C168.987 74.5386 169.021 74.5826 169.045 74.6322C169.07 74.6818 169.085 74.736 169.089 74.7917C169.094 74.8474 169.088 74.9035 169.072 74.9569C169.056 75.0102 169.031 75.0597 168.996 75.1026L169.047 75.0497Z" fill="url(#paint21_radial)"/>
<path style="mix-blend-mode:multiply" opacity="0.5" d="M164.546 79.0015C164.451 79.1208 164.316 79.1967 164.17 79.2132C164.023 79.2296 163.876 79.1854 163.759 79.0896C163.701 79.0398 163.653 78.9784 163.617 78.9088C163.581 78.8393 163.559 78.7631 163.551 78.6844C163.544 78.6058 163.551 78.5263 163.572 78.4505C163.593 78.3748 163.629 78.3042 163.676 78.2428C163.723 78.1814 163.781 78.1304 163.847 78.0927C163.913 78.055 163.985 78.0314 164.06 78.0233C164.135 78.0151 164.21 78.0225 164.282 78.045C164.354 78.0675 164.421 78.1047 164.479 78.1545C164.591 78.2598 164.66 78.4064 164.673 78.5639C164.685 78.7215 164.64 78.8781 164.546 79.0015Z" fill="url(#paint22_radial)"/>
<path d="M820.077 695.744C819.978 695.063 819.75 694.409 819.408 693.821C819.066 693.23 818.585 692.741 818.013 692.402C817.44 692.063 816.794 691.885 816.137 691.885C815.48 691.885 814.834 692.063 814.261 692.402C813.688 692.741 813.208 693.23 812.866 693.821C812.536 694.413 812.314 695.066 812.213 695.744C812.033 696.476 812.034 697.245 812.215 697.977C812.397 698.709 812.753 699.38 813.251 699.925C813.887 700.598 814.717 701.03 815.611 701.153C816.505 701.277 817.412 701.085 818.191 700.607C818.971 700.13 819.578 699.394 819.919 698.514C820.261 697.635 820.316 696.661 820.077 695.744Z" fill="url(#paint23_radial)"/>
<path d="M441.293 66.8103C446.029 66.8103 446.045 59.0474 441.293 59.0474C436.542 59.0474 436.542 66.8103 441.293 66.8103Z" fill="url(#paint24_radial)"/>
<path d="M475.013 840.734C477.092 840.705 479.081 839.833 480.568 838.299C481.662 837.141 482.406 835.667 482.707 834.063C483.007 832.46 482.851 830.798 482.256 829.288C481.662 827.778 480.657 826.487 479.368 825.579C478.079 824.671 476.563 824.186 475.013 824.185C472.941 824.212 470.959 825.078 469.475 826.602C468.389 827.762 467.653 829.234 467.356 830.834C467.06 832.433 467.217 834.089 467.807 835.595C468.398 837.101 469.397 838.39 470.678 839.3C471.96 840.211 473.467 840.704 475.013 840.717V840.734Z" fill="url(#paint25_radial)"/>
<path d="M57.1474 678.807C59.0262 678.774 60.822 677.985 62.167 676.601C63.1589 675.549 63.8341 674.211 64.1077 672.756C64.3814 671.3 64.2414 669.792 63.7052 668.42C63.1691 667.049 62.2608 665.874 61.0941 665.045C59.9275 664.215 58.5545 663.767 57.1474 663.757C55.2703 663.799 53.4774 664.587 52.1278 665.963C51.1277 667.012 50.4454 668.35 50.1671 669.808C49.8889 671.267 50.0273 672.779 50.5647 674.154C51.1022 675.53 52.0146 676.706 53.1864 677.534C54.3582 678.362 55.7367 678.805 57.1474 678.807Z" fill="url(#paint26_radial)"/>
<g opacity="0.5">
<path opacity="0.5" d="M860.485 709.347C866.14 709.347 866.157 700.084 860.485 700.084C854.813 700.084 854.829 709.347 860.485 709.347Z" fill="url(#paint27_radial)"/>
</g>
<g opacity="0.5">
<path opacity="0.5" d="M885.416 770.532C889.766 770.532 889.766 763.475 885.416 763.475C881.065 763.475 881.082 770.532 885.416 770.532Z" fill="url(#paint28_radial)"/>
</g>
<g style="mix-blend-mode:screen" opacity="0.2">
<path style="mix-blend-mode:screen" opacity="0.2" d="M574.435 325.276C580.793 325.276 580.793 314.849 574.435 314.849C568.076 314.849 568.06 325.276 574.435 325.276Z" fill="url(#paint29_radial)"/>
</g>
<g style="mix-blend-mode:screen" opacity="0.2">
<path style="mix-blend-mode:screen" opacity="0.2" d="M13.092 650.225C23.6834 650.225 23.7001 632.847 13.092 632.847C2.48389 632.847 2.46716 650.225 13.092 650.225Z" fill="url(#paint30_radial)"/>
</g>
<path d="M859.347 821.768C859.973 821.768 860.573 821.506 861.016 821.04C861.458 820.573 861.707 819.94 861.707 819.281C861.707 818.621 861.458 817.988 861.016 817.522C860.573 817.055 859.973 816.793 859.347 816.793C858.722 816.793 858.121 817.055 857.679 817.522C857.237 817.988 856.988 818.621 856.988 819.281C856.988 819.94 857.237 820.573 857.679 821.04C858.121 821.506 858.722 821.768 859.347 821.768Z" fill="url(#paint31_radial)"/>
<path d="M868.115 267.566L867.194 268.642C866.658 269.247 866.348 270.037 866.324 270.865C866.327 271.698 866.639 272.496 867.194 273.088C867.471 273.38 867.8 273.612 868.161 273.77C868.523 273.927 868.911 274.007 869.303 274.006L870.089 273.9C870.591 273.761 871.048 273.48 871.411 273.088L872.432 272.136C872.724 271.851 872.943 271.493 873.067 271.095C873.264 270.711 873.356 270.277 873.335 269.842C873.331 268.987 873.007 268.169 872.433 267.564C871.86 266.96 871.084 266.618 870.273 266.613C869.464 266.625 868.69 266.966 868.115 267.566Z" fill="url(#paint32_radial)"/>
<path d="M834.233 854.937C835.078 857.09 836.138 859.142 837.395 861.059C839.208 862.391 841.155 863.51 843.201 864.393C841.156 865.285 839.209 866.409 837.395 867.745C836.138 869.662 835.078 871.714 834.233 873.867C833.758 871.544 832.658 869.414 831.064 867.734C829.471 866.053 827.451 864.893 825.247 864.393C827.449 863.894 829.467 862.737 831.06 861.06C832.654 859.383 833.755 857.257 834.233 854.937Z" fill="white"/>
<path d="M1233.47 258.832C1231.14 259.091 1228.93 260.034 1227.09 261.554C1226.37 262.332 1225.97 263.376 1225.97 264.461C1225.97 265.547 1226.37 266.59 1227.09 267.368C1228.95 268.86 1231.15 269.8 1233.47 270.091C1234.29 270.335 1235.16 270.375 1236 270.207C1236.84 270.039 1237.63 269.668 1238.32 269.123C1239 268.577 1239.55 267.873 1239.93 267.064C1240.32 266.255 1240.51 265.365 1240.51 264.461C1240.51 263.558 1240.32 262.668 1239.93 261.859C1239.55 261.05 1239 260.345 1238.32 259.8C1237.63 259.255 1236.84 258.884 1236 258.716C1235.16 258.548 1234.29 258.588 1233.47 258.832Z" fill="url(#paint33_radial)"/>
<path d="M1341.55 480.751C1351.9 480.751 1351.92 463.802 1341.55 463.802C1331.18 463.802 1331.18 480.751 1341.55 480.751Z" fill="url(#paint34_radial)"/>
<path d="M841.295 89.7529C844.091 89.7195 846.767 88.5555 848.773 86.5011C849.757 85.4666 850.537 84.2375 851.07 82.8844C851.602 81.5313 851.876 80.0807 851.876 78.6157C851.876 77.1507 851.602 75.7001 851.07 74.347C850.537 72.9939 849.757 71.7648 848.773 70.7303C846.79 68.6466 844.104 67.4766 841.304 67.4766C838.505 67.4766 835.819 68.6466 833.836 70.7303C832.852 71.7648 832.072 72.9939 831.539 74.347C831.007 75.7001 830.732 77.1507 830.732 78.6157C830.732 80.0807 831.007 81.5313 831.539 82.8844C832.072 84.2375 832.852 85.4666 833.836 86.5011C835.841 88.5437 838.507 89.7062 841.295 89.7529Z" fill="url(#paint35_radial)"/>
<g opacity="0.5">
<path opacity="0.5" d="M1165.46 271.98C1175.46 271.98 1175.46 255.58 1165.46 255.58C1155.45 255.58 1155.45 271.98 1165.46 271.98Z" fill="url(#paint36_radial)"/>
</g>
<g opacity="0.5">
<path opacity="0.5" d="M1225.82 216.209L1226.77 217.184C1227.96 218.395 1229.55 219.072 1231.2 219.072C1232.86 219.072 1234.44 218.395 1235.63 217.184L1236.59 216.209C1237.63 215.074 1238.32 213.645 1238.6 212.098C1238.88 210.55 1238.72 208.951 1238.15 207.496C1237.58 206.041 1236.62 204.793 1235.38 203.905C1234.15 203.018 1232.7 202.528 1231.2 202.498C1229.88 202.534 1228.59 202.918 1227.44 203.617C1226.29 204.315 1225.33 205.305 1224.64 206.497C1223.8 208.028 1223.46 209.808 1223.67 211.563C1223.88 213.318 1224.64 214.951 1225.82 216.209Z" fill="url(#paint37_radial)"/>
</g>
<g style="mix-blend-mode:screen" opacity="0.2">
<path style="mix-blend-mode:screen" opacity="0.2" d="M980.028 859.09C989.916 859.09 989.935 842.831 980.028 842.831C970.122 842.831 970.141 859.09 980.028 859.09Z" fill="url(#paint38_radial)"/>
</g>
<g style="mix-blend-mode:screen" opacity="0.2">
<path style="mix-blend-mode:screen" opacity="0.2" d="M834.934 212.79C841.892 212.79 841.911 201.368 834.934 201.368C827.957 201.368 827.938 212.79 834.934 212.79Z" fill="url(#paint39_radial)"/>
</g>
</g>
<defs>
<radialGradient id="paint0_radial" cx="0" cy="0" r="1" gradientUnits="userSpaceOnUse" gradientTransform="translate(1074.99 642.637) scale(305.742 322.388)">
<stop offset="0.04" stop-color="#28003E"/>
<stop offset="1" stop-color="#340A93" stop-opacity="0"/>
</radialGradient>
<radialGradient id="paint1_radial" cx="0" cy="0" r="1" gradientUnits="userSpaceOnUse" gradientTransform="translate(377995 109552) scale(72693.9 72665.2)">
<stop stop-color="#340A93"/>
<stop offset="0.95" stop-color="#28003E" stop-opacity="0"/>
</radialGradient>
<radialGradient id="paint2_radial" cx="0" cy="0" r="1" gradientUnits="userSpaceOnUse" gradientTransform="translate(539601 18788.3) scale(849460 245671)">
<stop stop-color="#340A93"/>
<stop offset="0.95" stop-color="#28003E" stop-opacity="0"/>
</radialGradient>
<radialGradient id="paint3_radial" cx="0" cy="0" r="1" gradientUnits="userSpaceOnUse" gradientTransform="translate(296537 29140.4) scale(461214 375580)">
<stop offset="0.06" stop-color="#300056"/>
<stop offset="0.96" stop-color="#18002B"/>
</radialGradient>
<radialGradient id="paint4_radial" cx="0" cy="0" r="1" gradientUnits="userSpaceOnUse" gradientTransform="translate(282958 15760.2) scale(438820 180675)">
<stop offset="0.06" stop-color="#300056"/>
<stop offset="0.96" stop-color="#18002B"/>
</radialGradient>
<radialGradient id="paint5_radial" cx="0" cy="0" r="1" gradientUnits="userSpaceOnUse" gradientTransform="translate(67886.5 102025) scale(61853.2 57351.6)">
<stop offset="0.06" stop-color="#300056"/>
<stop offset="0.96" stop-color="#18002B"/>
</radialGradient>
<radialGradient id="paint6_radial" cx="0" cy="0" r="1" gradientUnits="userSpaceOnUse" gradientTransform="translate(31683.4 54025.5) scale(20875.7 16023.8)">
<stop offset="0.06" stop-color="#300056"/>
<stop offset="0.96" stop-color="#18002B"/>
</radialGradient>
<radialGradient id="paint7_radial" cx="0" cy="0" r="1" gradientUnits="userSpaceOnUse" gradientTransform="translate(6194.15 16013.7) scale(1776.52 1287.21)">
<stop offset="0.06" stop-color="#300056"/>
<stop offset="0.96" stop-color="#18002B"/>
</radialGradient>
<radialGradient id="paint8_radial" cx="0" cy="0" r="1" gradientUnits="userSpaceOnUse" gradientTransform="translate(75667.2 57049) scale(48782.7 12072.1)">
<stop offset="0.06" stop-color="#300056"/>
<stop offset="0.96" stop-color="#18002B"/>
</radialGradient>
<radialGradient id="paint9_radial" cx="0" cy="0" r="1" gradientUnits="userSpaceOnUse" gradientTransform="translate(233860 94723.3) scale(44942.5 53344)">
<stop offset="0.06" stop-color="#300056"/>
<stop offset="0.96" stop-color="#18002B"/>
</radialGradient>
<radialGradient id="paint10_radial" cx="0" cy="0" r="1" gradientUnits="userSpaceOnUse" gradientTransform="translate(107809 91508.4) scale(77737 26246.2)">
<stop offset="0.06" stop-color="#300056"/>
<stop offset="0.96" stop-color="#18002B"/>
</radialGradient>
<radialGradient id="paint11_radial" cx="0" cy="0" r="1" gradientUnits="userSpaceOnUse" gradientTransform="translate(132996 38328.4) scale(10137.1 7868.38)">
<stop offset="0.06" stop-color="#300056"/>
<stop offset="0.96" stop-color="#18002B"/>
</radialGradient>
<radialGradient id="paint12_radial" cx="0" cy="0" r="1" gradientUnits="userSpaceOnUse" gradientTransform="translate(486717 8292.18) scale(183324 22706)">
<stop offset="0.06" stop-color="#300056"/>
<stop offset="0.96" stop-color="#18002B"/>
</radialGradient>
<radialGradient id="paint13_radial" cx="0" cy="0" r="1" gradientUnits="userSpaceOnUse" gradientTransform="translate(173231 119483) scale(102116 87421.2)">
<stop stop-color="#340A93"/>
<stop offset="0.95" stop-color="#28003E" stop-opacity="0"/>
</radialGradient>
<radialGradient id="paint14_radial" cx="0" cy="0" r="1" gradientUnits="userSpaceOnUse" gradientTransform="translate(-232.098 88.7904) rotate(158.286) scale(12.8697 19.5742)">
<stop offset="0.08" stop-color="#795FFF"/>
<stop offset="1" stop-color="#32AFE3"/>
</radialGradient>
<radialGradient id="paint15_radial" cx="0" cy="0" r="1" gradientUnits="userSpaceOnUse" gradientTransform="translate(-232.098 88.7904) rotate(158.286) scale(12.8697 19.5742)">
<stop offset="0.08" stop-color="#795FFF"/>
<stop offset="1" stop-color="#32AFE3"/>
</radialGradient>
<radialGradient id="paint16_radial" cx="0" cy="0" r="1" gradientUnits="userSpaceOnUse" gradientTransform="translate(-233.478 17.0844) rotate(158.286) scale(10.2378 17.7988)">
<stop offset="0.08" stop-color="#795FFF"/>
<stop offset="1" stop-color="#32AFE3"/>
</radialGradient>
<radialGradient id="paint17_radial" cx="0" cy="0" r="1" gradientUnits="userSpaceOnUse" gradientTransform="translate(-656.426 -303.638) rotate(135.062) scale(2.97827 3.06755)">
<stop offset="0.08" stop-color="#795FFF"/>
<stop offset="1" stop-color="#32AFE3"/>
</radialGradient>
<radialGradient id="paint18_radial" cx="0" cy="0" r="1" gradientUnits="userSpaceOnUse" gradientTransform="translate(-635.589 -370.921) rotate(135.062) scale(2.48905 2.55486)">
<stop offset="0.08" stop-color="#795FFF"/>
<stop offset="1" stop-color="#32AFE3"/>
</radialGradient>
<radialGradient id="paint19_radial" cx="0" cy="0" r="1" gradientUnits="userSpaceOnUse" gradientTransform="translate(49.6952 337.473) rotate(41.1793) scale(0.496095 0.488198)">
<stop offset="0.08" stop-color="#795FFF"/>
<stop offset="1" stop-color="#32AFE3"/>
</radialGradient>
<radialGradient id="paint20_radial" cx="0" cy="0" r="1" gradientUnits="userSpaceOnUse" gradientTransform="translate(-341.087 1640.49) rotate(41.1788) scale(4.6311 4.67026)">
<stop offset="0.08" stop-color="#795FFF"/>
<stop offset="1" stop-color="#32AFE3"/>
</radialGradient>
<radialGradient id="paint21_radial" cx="0" cy="0" r="1" gradientUnits="userSpaceOnUse" gradientTransform="translate(48.9954 329.692) rotate(41.1794) scale(0.450772 0.454585)">
<stop offset="0.08" stop-color="#795FFF"/>
<stop offset="1" stop-color="#32AFE3"/>
</radialGradient>
<radialGradient id="paint22_radial" cx="0" cy="0" r="1" gradientUnits="userSpaceOnUse" gradientTransform="translate(-35.0359 585.886) rotate(41.1788) scale(0.886831 0.901006)">
<stop offset="0.08" stop-color="#795FFF"/>
<stop offset="1" stop-color="#32AFE3"/>
</radialGradient>
<radialGradient id="paint23_radial" cx="0" cy="0" r="1" gradientUnits="userSpaceOnUse" gradientTransform="translate(5566.69 4701.75) scale(20.5242 23.4484)">
<stop offset="0.08" stop-color="#FFE245"/>
<stop offset="1" stop-color="#E38427" stop-opacity="0"/>
</radialGradient>
<radialGradient id="paint24_radial" cx="0" cy="0" r="1" gradientUnits="userSpaceOnUse" gradientTransform="translate(2931.06 3990.26) scale(15.4538 16.8455)">
<stop offset="0.08" stop-color="#FFE245"/>
<stop offset="1" stop-color="#E38427" stop-opacity="0"/>
</radialGradient>
<radialGradient id="paint25_radial" cx="0" cy="0" r="1" gradientUnits="userSpaceOnUse" gradientTransform="translate(6411.05 9230.81) scale(73.3789 77.6154)">
<stop offset="0.08" stop-color="#FFE245"/>
<stop offset="1" stop-color="#E38427" stop-opacity="0"/>
</radialGradient>
<radialGradient id="paint26_radial" cx="0" cy="0" r="1" gradientUnits="userSpaceOnUse" gradientTransform="translate(1900.52 6933.8) scale(60.7068 64.2611)">
<stop offset="0.08" stop-color="#FFE245"/>
<stop offset="1" stop-color="#E38427" stop-opacity="0"/>
</radialGradient>
<radialGradient id="paint27_radial" cx="0" cy="0" r="1" gradientUnits="userSpaceOnUse" gradientTransform="translate(6040.97 4734.64) scale(21.9188 23.8978)">
<stop stop-color="#8EE1EE"/>
<stop offset="0.94" stop-color="#5E8DEC"/>
</radialGradient>
<radialGradient id="paint28_radial" cx="0" cy="0" r="1" gradientUnits="userSpaceOnUse" gradientTransform="translate(4957.85 4086.47) scale(12.9081 13.9731)">
<stop stop-color="#8EE1EE"/>
<stop offset="0.94" stop-color="#5E8DEC"/>
</radialGradient>
<radialGradient id="paint29_radial" cx="0" cy="0" r="1" gradientUnits="userSpaceOnUse" gradientTransform="translate(4762.34 2583.24) scale(27.6764 30.2382)">
<stop stop-color="#8EE1EE"/>
<stop offset="0.94" stop-color="#5E8DEC"/>
</radialGradient>
<radialGradient id="paint30_radial" cx="0" cy="0" r="1" gradientUnits="userSpaceOnUse" gradientTransform="translate(1657.29 7579.99) scale(77.0148 84.111)">
<stop stop-color="#8EE1EE"/>
<stop offset="0.94" stop-color="#5E8DEC"/>
</radialGradient>
<radialGradient id="paint31_radial" cx="0" cy="0" r="1" gradientUnits="userSpaceOnUse" gradientTransform="translate(3733.39 3306.97) scale(6.51154 6.86589)">
<stop offset="0.06" stop-color="#E47E99"/>
<stop offset="0.53" stop-color="#E43D99"/>
<stop offset="0.99" stop-color="#B30058"/>
</radialGradient>
<radialGradient id="paint32_radial" cx="0" cy="0" r="1" gradientUnits="userSpaceOnUse" gradientTransform="translate(5185.38 1666.88) scale(4.76926 5.02683)">
<stop offset="0.06" stop-color="#E47E99"/>
<stop offset="0.53" stop-color="#E43D99"/>
<stop offset="0.99" stop-color="#B30058"/>
</radialGradient>
<radialGradient id="paint33_radial" cx="0" cy="0" r="1" gradientUnits="userSpaceOnUse" gradientTransform="translate(1233.28 264.445) scale(6.4062 6.755)">
<stop offset="0.08" stop-color="#FFE245"/>
<stop offset="1" stop-color="#E38427" stop-opacity="0"/>
</radialGradient>
<radialGradient id="paint34_radial" cx="0" cy="0" r="1" gradientUnits="userSpaceOnUse" gradientTransform="translate(13250.3 5698.01) scale(63.7432 69.4934)">
<stop offset="0.08" stop-color="#FFE245"/>
<stop offset="1" stop-color="#E38427" stop-opacity="0"/>
</radialGradient>
<radialGradient id="paint35_radial" cx="0" cy="0" r="1" gradientUnits="userSpaceOnUse" gradientTransform="translate(11549.2 2632.15) scale(116.079 122.297)">
<stop offset="0.08" stop-color="#FFE245"/>
<stop offset="1" stop-color="#E38427" stop-opacity="0"/>
</radialGradient>
<radialGradient id="paint36_radial" cx="0" cy="0" r="1" gradientUnits="userSpaceOnUse" gradientTransform="translate(12108.8 4878.13) scale(36.0281 39.3604)">
<stop stop-color="#8EE1EE"/>
<stop offset="0.94" stop-color="#5E8DEC"/>
</radialGradient>
<radialGradient id="paint37_radial" cx="0" cy="0" r="1" gradientUnits="userSpaceOnUse" gradientTransform="translate(12898.6 4763.92) scale(6.8068 7.45872)">
<stop stop-color="#8EE1EE"/>
<stop offset="0.94" stop-color="#5E8DEC"/>
</radialGradient>
<radialGradient id="paint38_radial" cx="0" cy="0" r="1" gradientUnits="userSpaceOnUse" gradientTransform="translate(9566.9 8893.74) scale(58.1949 63.7335)">
<stop stop-color="#8EE1EE"/>
<stop offset="0.94" stop-color="#5E8DEC"/>
</radialGradient>
<radialGradient id="paint39_radial" cx="0" cy="0" r="1" gradientUnits="userSpaceOnUse" gradientTransform="translate(6100.56 2238.31) scale(28.9902 31.638)">
<stop stop-color="#8EE1EE"/>
<stop offset="0.94" stop-color="#5E8DEC"/>
</radialGradient>
<clipPath id="clip0">
<rect width="1440" height="949" fill="white"/>
</clipPath>
</defs>
</svg>
