<svg width="1280" height="720" viewBox="0 0 1280 720" fill="none" xmlns="http://www.w3.org/2000/svg">
<g clip-path="url(#clip0)">
<rect width="1280" height="720" fill="white"/>
<path d="M1485.08 345.769C1465.94 351.563 1447.15 360.877 1428.92 374.537C1420.03 381.182 1411.45 387.898 1403.13 394.65C1426.66 379.65 1450.87 364.716 1476.11 350.482C1478.9 348.903 1481.89 347.327 1485.08 345.769ZM1538.71 337.583C1611.08 337.583 1686.1 375.072 1755.08 409.545C1770.38 417.189 1784.84 424.413 1799.22 431.226C1794.87 391.863 1778.13 361.695 1749.47 341.555C1706.77 311.539 1647.66 310.114 1605.61 314.203C1565.05 318.146 1521.84 329.365 1490.52 343.705C1506.4 339.472 1522.49 337.583 1538.71 337.583V337.583ZM-456.685 613.09C-393.652 617.768 -338.847 619.426 -287.415 618.285C-203.683 616.426 -129.367 607.089 -60.2226 589.738C-47.6537 586.583 -35.1949 582.539 -22.8385 577.828C-141.635 597.797 -263.335 603.666 -381.422 609.363C-400.066 610.263 -419.347 611.193 -438.263 612.162C-444.384 612.476 -450.529 612.784 -456.685 613.09V613.09ZM319.202 493.285C321.395 493.285 323.581 493.312 325.774 493.367C401.372 495.217 475.42 526.496 547.032 556.743C590.364 575.049 635.171 593.976 679.552 605.98C743.551 623.292 811.486 632.437 881.468 633.16C950.709 633.874 1018.85 626.332 1084.03 610.738C1132.83 599.065 1175.61 580.011 1218.67 550.77C1257.03 524.723 1290.68 493.964 1326.3 461.397C1348.69 440.944 1371.6 419.995 1396.66 399.341C1384.64 407.039 1372.82 414.743 1361.1 422.362C1274.3 478.855 1192.29 532.216 1086.31 556.219C940.646 589.206 782.239 586.499 615.492 548.172C573.369 538.49 529.419 519.764 486.919 501.655C423.373 474.577 357.7 446.594 294.393 446.594C293.248 446.594 292.105 446.604 290.961 446.621C259.59 447.128 226.277 454.964 189.121 470.577C155.952 484.513 122.738 503.271 90.6198 521.412C55.2636 541.378 19.0282 561.842 -18.1592 576.531C-6.71932 574.572 4.69698 572.476 16.0759 570.239C55.8222 562.421 96.0211 548.6 134.896 535.234C194.914 514.601 256.913 493.285 319.202 493.285V493.285ZM-1328.27 594.061C-1297.87 648.237 -1254.19 677.594 -1194.76 683.807C-1142.32 689.29 -1086.23 676.608 -1031.98 664.344C-1007.06 658.71 -983.514 653.387 -961.47 650.138C-820.742 629.397 -676.015 622.752 -536.054 616.329C-512.612 615.252 -488.587 614.149 -464.657 612.983C-481.164 611.705 -498.245 610.224 -515.968 608.536C-566.135 603.76 -618.619 593.959 -669.377 584.48C-769.324 565.817 -872.672 546.519 -970.488 562.098C-1008.37 568.131 -1046.1 584.04 -1082.59 599.425C-1122.93 616.433 -1164.65 634.02 -1205.59 637.515C-1227.62 639.397 -1247.76 637.187 -1267.16 630.761C-1288.57 623.672 -1308.57 611.66 -1328.27 594.061V594.061ZM-1168.56 685.616C-1177.38 685.616 -1186.14 685.206 -1194.79 684.301C-1254.77 678.032 -1298.76 648.219 -1329.26 593.158L-1329.91 591.973L-1328.98 592.813C-1309.02 610.84 -1288.76 623.095 -1267.06 630.279C-1247.7 636.693 -1227.6 638.9 -1205.62 637.021C-1164.72 633.531 -1123.04 615.953 -1082.72 598.953C-1046.21 583.561 -1008.46 567.644 -970.537 561.603C-872.669 546.017 -769.292 565.32 -669.32 583.988C-618.57 593.464 -566.09 603.266 -515.936 608.041C-496.8 609.863 -478.416 611.444 -460.688 612.789C-453.198 612.421 -445.722 612.048 -438.279 611.665C-419.362 610.696 -400.082 609.766 -381.437 608.866C-262.578 603.134 -140.042 597.22 -20.5156 576.933C17.4389 562.197 54.4041 541.319 90.4585 520.957C122.587 502.813 155.809 484.05 188.997 470.105C226.193 454.476 259.544 446.631 290.957 446.124C355.398 445.063 422.318 473.602 487.045 501.183C529.533 519.287 573.467 538.008 615.562 547.683C782.262 585.999 940.623 588.706 1086.23 555.729C1192.18 531.738 1274.14 478.395 1360.92 421.919C1373.71 413.609 1386.61 405.2 1399.75 396.803C1409.07 389.181 1418.71 381.602 1428.72 374.107C1447.88 359.759 1467.65 350.191 1487.79 344.461C1550.56 314.745 1678.25 290.934 1749.67 341.12C1778.53 361.412 1795.34 391.843 1799.65 431.572L1799.69 431.985L1799.4 431.84C1784.9 424.98 1770.34 417.706 1754.94 410.007C1669.64 367.383 1575.08 320.132 1487.85 344.951C1483.76 346.895 1479.88 348.893 1476.26 350.934C1449.83 365.844 1424.53 381.52 1399.95 397.235C1373.69 418.7 1349.83 440.516 1326.54 461.8C1290.9 494.376 1257.24 525.146 1218.87 551.207C1175.77 580.473 1132.95 599.544 1084.11 611.228C1018.9 626.826 950.729 634.391 881.464 633.657C811.456 632.934 743.496 623.786 679.469 606.467C635.067 594.456 590.25 575.524 546.908 557.216C475.324 526.981 401.303 495.711 325.766 493.862C261.33 492.288 197.103 514.362 135 535.713C96.1135 549.082 55.9049 562.906 16.1368 570.731C3.98102 573.123 -8.20232 575.345 -20.429 577.421C-33.5466 582.514 -46.7863 586.874 -60.1459 590.225C-129.314 607.581 -203.651 616.923 -287.409 618.782C-339.932 619.951 -395.969 618.193 -460.692 613.286C-485.928 614.524 -511.308 615.69 -536.04 616.826C-675.994 623.249 -820.713 629.891 -961.425 650.633C-983.456 653.88 -1006.99 659.199 -1031.91 664.835C-1077.23 675.079 -1123.85 685.616 -1168.56 685.616" fill="black" fill-opacity="0.4"/>
<path d="M-1329.81 643.951C-1298.26 683.15 -1257.83 705.107 -1206.27 711.056C-1160.28 716.361 -1111.85 708.65 -1065.02 701.193C-1046.84 698.297 -1029.66 695.559 -1012.75 693.581C-903.428 680.781 -792.067 679.315 -684.373 677.895C-632.071 677.207 -577.99 676.493 -524.772 674.495L-510.83 673.97C-356.459 668.193 -196.832 662.217 -42.9584 632.633C1.88634 624.01 48.5603 605.829 93.6982 588.246C160.321 562.294 229.218 535.457 295.026 537.871C403.862 541.863 502.429 583.282 597.75 623.339C665.234 651.697 735.016 681.023 806.446 695.749C844.855 703.668 880.809 706.9 916.368 705.634C956.223 704.215 994.608 697.22 1033.72 684.249C1108.64 659.411 1184.96 615.262 1258.78 572.568C1344.28 523.113 1432.71 471.972 1520.26 449.828C1567.41 437.903 1610.51 435.127 1651.99 441.339C1698.49 448.304 1741.76 466.292 1784.31 496.338C1789.54 461.611 1781.99 433.871 1761.85 413.883C1738.05 390.233 1696.05 377.751 1643.63 378.741C1601.34 379.539 1557.03 389.273 1533.38 402.965C1505.45 419.135 1479.41 434.948 1454.21 450.241C1351.72 512.483 1263.18 566.239 1130.94 590.981C954.181 624.052 781.226 628.141 616.882 603.134C569.205 595.878 519.455 579.369 471.341 563.403C389.45 536.228 304.769 508.128 224.173 522.621C179.556 530.647 135.736 549 93.3579 566.749C56.1371 582.338 17.6495 598.456 -21.4556 607.661C-141.092 635.818 -271.938 650.666 -421.473 653.054C-507.641 654.437 -595.179 645.463 -679.833 636.792C-764.435 628.127 -851.91 619.168 -937.668 620.609C-980.817 621.335 -1026.07 634.49 -1073.99 648.416C-1123.52 662.814 -1174.02 677.487 -1222.39 677.49C-1259.95 677.492 -1296.23 668.643 -1329.81 643.951V643.951ZM-1174.06 713.311C-1184.9 713.311 -1195.66 712.779 -1206.3 711.551C-1258.57 705.523 -1299.42 683.069 -1331.2 642.91L-1332.31 641.51L-1330.96 642.519C-1253.99 700.226 -1162.53 673.639 -1074.08 647.931C-1026.14 633.998 -980.865 620.838 -937.673 620.112C-851.906 618.661 -764.412 627.632 -679.802 636.297C-595.155 644.968 -507.626 653.939 -421.477 652.557C-271.966 650.168 -141.141 635.323 -21.5264 607.171C17.5512 597.973 56.0269 581.86 93.234 566.277C135.628 548.52 179.466 530.16 224.12 522.128C304.791 507.621 389.511 535.733 471.441 562.921C519.541 578.882 569.28 595.388 616.929 602.639C781.238 627.642 954.157 623.555 1130.88 590.489C1191.45 579.158 1246.19 561.362 1303.13 534.48C1354.45 510.268 1402.82 480.893 1454.06 449.793C1479.23 434.498 1505.28 418.686 1533.21 402.515C1556.91 388.796 1601.28 379.042 1643.63 378.244C1696.15 377.259 1738.2 389.773 1762.1 413.493C1782.42 433.67 1789.99 461.688 1784.64 496.77L1784.58 497.108L1784.35 496.939C1741.78 466.829 1698.47 448.801 1651.93 441.834C1610.51 435.629 1567.45 438.401 1520.34 450.318C1432.83 472.449 1344.44 523.575 1258.93 573.021C1185.11 615.725 1108.76 659.881 1033.82 684.731C994.679 697.71 956.262 704.71 916.38 706.132C880.795 707.397 844.816 704.163 806.382 696.241C734.922 681.504 665.124 652.174 597.624 623.811C502.331 583.767 403.794 542.358 295.015 538.368C229.267 535.957 160.408 562.779 93.8142 588.721C48.6626 606.308 1.97486 624.497 -42.9014 633.126C-196.798 662.712 -356.435 668.688 -510.818 674.47L-524.76 674.992C-577.984 676.99 -632.065 677.704 -684.369 678.392C-792.054 679.812 -903.408 681.278 -1012.72 694.075C-1029.62 696.054 -1046.79 698.789 -1064.97 701.684C-1101 707.422 -1137.97 713.311 -1174.06 713.311" fill="black" fill-opacity="0.4"/>
<path d="M274.977 576.812C203.423 576.812 124.593 607.576 48.2552 637.369C-5.93263 658.515 -57.1131 678.489 -105.939 688.356C-137.77 694.786 -170.158 700.333 -203.404 705.021C-136.873 703.246 -70.5257 697.814 -6.73915 682.991C36.0875 673.038 76.7899 657.27 116.153 642.022C151.525 628.32 188.098 614.149 225.008 604.842C266.283 594.434 304.131 591.202 340.717 594.961C359.405 596.882 377.949 600.171 396.344 604.447C359.185 589.111 321.488 578.276 283.352 576.956C280.575 576.859 277.776 576.812 274.977 576.812V576.812ZM-1333.99 690.692C-1264.58 762.56 -1175.83 741.913 -1089.99 721.949C-1055.87 714.012 -1023.64 706.514 -992.756 704.63C-905.043 699.281 -814.682 706.525 -727.294 713.535C-663.545 718.65 -597.624 723.937 -533.401 724.264C-413.658 724.875 -309.15 718.914 -212.141 705.732C-251.805 706.603 -291.477 706.269 -330.676 705.936C-351.518 705.759 -373.064 705.565 -393.937 705.595C-394.911 705.595 -395.891 705.595 -396.866 705.595C-487.622 705.595 -579.764 702.028 -668.911 698.575C-749.758 695.443 -833.359 692.203 -915.614 691.642C-959.594 691.349 -1005.36 697.441 -1053.81 703.897C-1149.5 716.652 -1248.45 729.835 -1333.99 690.692V690.692ZM402.049 606.311C435.971 620.729 469.446 638.696 502.393 656.381C543.046 678.204 585.084 700.768 626.227 715.501C682.51 735.654 740.146 747.35 797.538 750.268C854.009 753.139 912.212 747.605 970.526 733.824C1118.1 698.948 1262.24 645.545 1387.34 579.387C1461.87 539.969 1517.1 522.101 1572 519.638C1626.34 517.194 1682.75 529.834 1760.61 561.892C1769.66 524.306 1766.59 496.084 1751.5 478.01C1742.26 466.95 1728.45 459.61 1710.43 456.187C1695.03 453.263 1676.6 453.184 1655.61 455.946C1617.73 460.932 1579.61 474.107 1558.46 483.874C1552.48 486.643 1546.52 489.397 1540.62 492.127C1410.25 552.431 1297.68 604.511 1154.9 634.92C1113.3 643.785 1070.73 656.231 1029.59 668.27C951.921 690.986 871.615 714.477 791.932 715.901C789.931 715.938 787.921 715.956 785.927 715.956C702.138 715.96 622.177 684.858 544.775 654.76C498.29 636.683 450.684 618.171 402.049 606.311V606.311ZM826.666 751.501C816.902 751.501 807.192 751.254 797.522 750.765C740.1 747.846 682.431 736.14 626.119 715.978C584.952 701.237 542.905 678.668 502.24 656.84C468.4 638.676 434.012 620.217 399.149 605.612C379.822 601.009 360.333 597.476 340.685 595.458C304.137 591.699 266.324 594.931 225.085 605.329C188.195 614.634 151.631 628.798 116.269 642.497C76.8961 657.75 36.182 673.523 -6.66827 683.482C-71.8691 698.632 -139.757 703.974 -207.757 705.63C-306.002 719.23 -411.872 725.365 -533.401 724.761C-597.638 724.435 -663.563 719.147 -727.32 714.032C-814.696 707.022 -905.048 699.773 -992.736 705.128C-1023.59 707.011 -1055.81 714.504 -1089.92 722.436C-1176.21 742.507 -1265.45 763.261 -1335.12 690.155L-1336 689.233L-1334.93 689.73C-1249.23 729.444 -1149.91 716.207 -1053.85 703.402C-1005.39 696.944 -959.598 690.837 -915.612 691.145C-833.351 691.706 -749.749 694.945 -668.899 698.078C-579.76 701.531 -487.61 705.098 -396.866 705.098C-394.931 705.098 -393.009 705.096 -391.07 705.096C-371.097 705.096 -350.564 705.269 -330.674 705.438C-290.045 705.784 -248.884 706.132 -207.78 705.133C-173.02 700.32 -139.208 694.573 -106 687.864C-57.2015 678.005 -6.03498 658.036 48.1391 636.894C127.494 605.926 209.56 573.898 283.362 576.459C322.497 577.813 361.157 589.174 399.248 605.13C448.904 616.958 497.48 635.848 544.891 654.285C624.107 685.09 706.025 716.945 791.926 715.406C871.568 713.979 951.854 690.496 1029.49 667.786C1070.66 655.747 1113.22 643.295 1154.84 634.431C1297.58 604.026 1410.13 551.956 1540.48 491.662C1546.39 488.93 1552.35 486.178 1558.34 483.407C1579.49 473.63 1617.65 460.44 1655.57 455.451C1676.58 452.684 1695.07 452.766 1710.49 455.695C1728.59 459.132 1742.47 466.518 1751.78 477.649C1767.02 495.903 1770.09 524.376 1760.92 562.277L1760.86 562.521L1760.69 562.441C1682.77 530.349 1626.36 517.696 1572.02 520.135C1517.16 522.596 1461.98 540.451 1387.49 579.847C1262.36 646.017 1118.22 699.43 970.599 734.314C922.239 745.741 873.948 751.501 826.666 751.501" fill="black" fill-opacity="0.4"/>
<path d="M49.8221 681.224C-122.855 719.08 -291.29 732.926 -467.634 747.422C-485.721 748.908 -504.007 750.411 -522.43 751.953C-501.56 751.518 -480.288 751.033 -458.571 750.497L-455.581 750.424C-380.091 748.564 -302.028 746.644 -226.148 739.521C-141.315 731.562 -67.1708 717.711 0.524175 697.18C16.8224 692.236 33.455 686.734 49.8221 681.224V681.224ZM243.173 639.492C267.203 639.492 291.385 643.069 316.597 650.225C361.216 662.895 403.329 685.131 447.914 708.677C477.884 724.502 508.874 740.866 542.054 755.008C673.095 810.863 791.683 822.819 904.593 791.557C928.897 784.83 953.387 777.992 977.069 771.377C1231.87 700.223 1472.55 633.011 1739.6 628.601C1740.58 611.62 1736.08 597.787 1726.18 587.478C1655.26 513.589 1325.34 628.492 1166.78 683.711C1134.13 695.085 1108.34 704.068 1094.18 708.105C1071.36 714.615 1048.45 721.479 1026.3 728.116C963.358 746.977 903.906 764.787 842.315 776.456C772.59 789.663 712.397 792.602 652.885 785.698C585.699 777.908 530.455 743.143 477.03 709.519C432.754 681.654 386.969 652.84 334.642 639.564C243.129 616.344 151.888 647.213 63.6499 677.068C61.9741 677.634 60.2962 678.204 58.6125 678.773C96.0359 670.396 133.685 660.867 171.652 649.949C195.887 642.977 219.457 639.492 243.173 639.492V639.492ZM-1330.66 735.216C-1324.22 752.905 -1313.29 768.232 -1298.17 780.781C-1283.87 792.654 -1265.43 802.36 -1243.36 809.639C-1204.27 822.528 -1152.16 828.305 -1088.47 826.812C-972.108 824.084 -840.902 798.518 -745.1 779.849C-700.778 771.214 -665.77 764.392 -644.828 762.364C-609.008 758.896 -573.292 755.751 -538.046 752.768C-678.607 755.563 -800.947 756.07 -918.019 754.384C-956.365 753.829 -997.469 758.095 -1040.98 762.612C-1090.97 767.8 -1142.67 773.162 -1192.22 771.086C-1248.01 768.744 -1293.3 757.011 -1330.66 735.216V735.216ZM-1107.74 827.54C-1162.77 827.54 -1208.36 821.695 -1243.46 810.119C-1265.57 802.828 -1284.05 793.099 -1298.38 781.199C-1313.74 768.451 -1324.8 752.846 -1331.24 734.811L-1331.46 734.202L-1330.98 734.483C-1293.58 756.43 -1248.18 768.24 -1192.21 770.589C-1142.68 772.665 -1091 767.303 -1041.01 762.117C-997.492 757.598 -956.388 753.332 -918.015 753.886C-798.804 755.604 -674.112 755.048 -530.304 752.115C-509.22 750.342 -488.315 748.624 -467.66 746.926C-289.829 732.307 -120.056 718.352 54.1436 679.767C57.2907 678.703 60.428 677.642 63.5476 676.588C151.829 646.718 243.115 615.831 334.721 639.076C387.097 652.366 432.906 681.196 477.206 709.075C530.599 742.676 585.807 777.422 652.92 785.203C712.401 792.101 772.565 789.166 842.256 775.964C903.832 764.3 963.275 746.489 1026.2 727.634C1048.37 720.994 1071.27 714.131 1094.1 707.618C1108.24 703.586 1134.03 694.604 1166.68 683.232C1325.3 627.992 1655.35 513.04 1726.42 587.093C1736.47 597.556 1741.04 611.61 1739.97 628.867L1739.95 629.093L1739.78 629.096C1472.68 633.476 1231.99 700.695 977.154 771.862C953.472 778.477 928.981 785.315 904.677 792.044C845.96 808.299 784.354 812.811 721.575 805.456C663.675 798.671 604.912 782.325 541.928 755.478C508.736 741.331 477.739 724.965 447.762 709.135C403.193 685.601 361.096 663.37 316.511 650.71C266.477 636.504 220.474 636.414 171.738 650.434C132.248 661.791 93.1386 671.633 54.2301 680.252C36.4763 686.245 18.3507 692.283 0.614647 697.662C-67.1 718.2 -141.264 732.056 -226.119 740.018C-302.01 747.14 -380.077 749.061 -455.575 750.921L-458.563 750.994C-483.014 751.598 -506.911 752.137 -530.292 752.612C-568.042 755.789 -606.356 759.14 -644.799 762.861C-665.725 764.886 -700.727 771.708 -745.039 780.341C-840.853 799.009 -972.074 824.579 -1088.46 827.308C-1095.01 827.462 -1101.44 827.54 -1107.74 827.54Z" fill="black" fill-opacity="0.4"/>
<path d="M208.297 682.755C140.564 682.755 69.5019 702.232 0.227512 721.216C-46.7966 734.102 -91.2125 746.276 -134.427 752.682C-194.531 761.596 -255.767 767.726 -314.986 773.654C-349.398 777.097 -384.369 780.598 -419.481 784.679C-405.543 783.933 -391.652 783.227 -378.039 782.536C-262.401 776.662 -142.824 770.592 -26.0452 739.66C-7.73472 734.813 10.2905 729.683 27.7237 724.723C81.3745 709.457 132.053 695.038 183.405 690.643C240.915 685.721 291.548 694.043 342.752 716.833C351.061 720.532 359.31 724.318 367.497 728.157C336.222 710.678 304.127 696.362 270.911 689.126C250.476 684.674 229.548 682.755 208.297 682.755ZM-1328.34 777.393C-1309.17 796.126 -1287.17 812.391 -1262.96 825.747C-1239.89 838.47 -1214.13 848.928 -1186.39 856.83C-1135.97 871.191 -1078.93 877.614 -1012.02 876.468C-889.817 874.376 -757.696 846.303 -651.535 823.746C-609.946 814.909 -570.663 806.562 -536.421 800.655C-502.809 794.856 -468.905 790.138 -435.081 786.034C-439.154 786.263 -443.224 786.496 -447.284 786.735C-495.289 789.554 -544.924 793.067 -592.923 796.461C-837.912 813.79 -1091.23 831.711 -1328.34 777.393ZM378.415 733.852C402.888 748.142 426.881 764.119 450.534 779.868C497.556 811.183 546.179 843.561 597.155 861.896C723.015 907.165 849.491 907.464 962.906 862.759C1009.46 844.409 1051.2 820.808 1091.55 797.986C1155.71 761.698 1216.33 727.422 1293.24 713.721C1312.18 710.35 1331.63 706.644 1350.42 703.062C1473.75 679.563 1601.28 655.264 1723.18 694.834C1719.64 676.168 1714.29 660.285 1707.32 647.618C1700.77 635.743 1692.59 626.329 1682.99 619.637C1638.71 588.801 1570.11 618.434 1514.97 642.246C1498.61 649.311 1483.15 655.983 1469.95 660.375C1410.86 680.008 1349.69 690.648 1290.54 700.938C1222.62 712.757 1152.38 724.977 1085.09 750.881C1068.16 757.407 1051.24 764.099 1034.9 770.57C933.079 810.865 836.155 849.218 727.48 849.223C711.205 849.223 694.681 848.364 677.822 846.522C586.697 836.566 509.641 798.456 428.059 758.111C411.822 750.078 395.26 741.888 378.415 733.852V733.852ZM785.889 896.567C723.945 896.568 660.422 885.169 597.047 862.374C546.032 844.026 497.391 811.636 450.351 780.309C425.044 763.457 399.359 746.356 373.104 731.328C363.04 726.563 352.874 721.864 342.623 717.303C291.47 694.536 240.885 686.223 183.43 691.14C132.11 695.532 81.4474 709.948 27.8103 725.208C10.3752 730.169 -7.65207 735.298 -25.9645 740.148C-142.776 771.087 -262.368 777.159 -378.023 783.033C-394.201 783.854 -410.771 784.696 -427.345 785.603C-463.714 789.924 -500.211 794.911 -536.367 801.148C-570.604 807.054 -609.885 815.399 -651.47 824.236C-757.644 846.794 -889.781 874.87 -1012.01 876.965C-1078.96 878.116 -1136.03 871.686 -1186.47 857.317C-1214.24 849.408 -1240.03 838.94 -1263.12 826.202C-1287.63 812.681 -1309.87 796.181 -1329.22 777.164L-1329.85 776.543L-1329.06 776.724C-1209.34 804.233 -1085.45 813.298 -960.599 813.298C-837.987 813.298 -714.456 804.561 -592.945 795.965C-544.943 792.569 -495.309 789.059 -447.303 786.237C-440.677 785.847 -434.024 785.472 -427.374 785.109C-389.62 780.625 -351.998 776.858 -315.017 773.157C-255.802 767.231 -194.57 761.1 -134.474 752.189C-91.2775 745.784 -46.8714 733.616 0.144914 720.728C91.1897 695.779 185.338 669.978 270.978 688.637C306.222 696.316 340.191 711.943 373.258 730.869C391.928 739.706 410.266 748.776 428.203 757.646C509.757 797.981 586.787 836.076 677.856 846.027C807.209 860.161 917.75 816.41 1034.78 770.094C1051.12 763.621 1068.04 756.93 1084.98 750.406C1152.28 724.49 1222.54 712.267 1290.5 700.444C1349.63 690.158 1410.78 679.519 1469.83 659.893C1483.03 655.508 1498.49 648.836 1514.84 641.776C1570.05 617.932 1638.75 588.259 1683.17 619.202C1692.83 625.929 1701.07 635.395 1707.64 647.334C1714.7 660.144 1720.07 676.22 1723.65 695.119L1723.71 695.522L1723.39 695.417C1601.48 655.729 1473.88 680.043 1350.48 703.554C1331.69 707.136 1312.24 710.84 1293.3 714.215C1216.43 727.905 1155.85 762.168 1091.72 798.438C1051.34 821.268 1009.6 844.873 963.024 863.234C906.647 885.457 847.038 896.567 785.889 896.567Z" fill="black" fill-opacity="0.4"/>
<path d="M143.643 756.788C158.966 756.788 173.527 758.125 187.742 760.823C210.488 765.138 231.816 772.799 252.939 784.249C292.863 805.891 328.085 833.274 362.151 859.756C409.277 896.395 458.011 934.281 518.457 955.685C578.597 976.98 641.896 988.311 706.591 989.365C772.376 990.436 835.935 980.784 895.487 960.679C957.025 939.905 1011.81 902.662 1064.79 866.646C1127.46 824.048 1192.27 779.999 1268.32 763.336C1374.79 740.004 1484.35 746.56 1590.29 752.895C1629.41 755.237 1669.85 757.656 1709.51 758.526C1688.7 693.086 1632.66 668.628 1559.6 668.628C1412.53 668.628 1196.35 767.632 1059.09 830.493C1016.13 850.171 982.19 865.712 959.35 874.201C885.486 901.66 818.063 919.339 753.22 928.255C679.589 938.383 608.947 936.713 543.255 923.301C458.587 906.013 414.883 862.237 368.616 815.886C338.453 785.671 307.261 754.429 262.697 727.886C228.37 707.442 186.147 701.759 133.615 710.52C87.201 718.26 38.7744 735.962 -8.05506 753.079C-48.4053 767.83 -86.5171 781.763 -121.448 788.808C-235.615 811.832 -358.233 825.698 -507.335 832.442C-617.372 837.419 -726.779 839.904 -835.011 839.904C-1002.69 839.906 -1167.64 833.938 -1328.16 822.032C-1275.22 855.753 -1220.56 879.979 -1161.08 896.071C-1107.81 910.484 -1051.88 917.994 -990.086 919.028C-875.286 920.963 -757.225 899.579 -643.049 878.912C-592.487 869.759 -540.203 860.296 -488.916 852.985C-432.999 845.015 -375.615 839.805 -320.119 834.766C-246.244 828.06 -169.851 821.124 -95.87 807.586C-64.9612 801.93 -34.2294 793.211 -4.50857 784.779C39.3901 772.325 80.8556 760.559 123.495 757.524C130.372 757.034 137.079 756.788 143.643 756.788V756.788ZM716.432 989.942C713.153 989.942 709.878 989.914 706.587 989.862C641.857 988.808 578.525 977.47 518.351 956.164C457.851 934.741 409.094 896.838 361.944 860.178C327.892 833.707 292.68 806.333 252.784 784.706C231.692 773.274 210.398 765.623 187.683 761.315C167.404 757.467 146.412 756.39 123.517 758.021C80.9106 761.054 39.4609 772.814 -4.42204 785.264C-34.1507 793.698 -64.8904 802.421 -95.815 808.078C-169.81 821.619 -246.209 828.554 -320.092 835.261C-375.582 840.3 -432.962 845.51 -488.871 853.479C-540.154 860.788 -592.433 870.251 -642.994 879.404C-757.185 900.074 -875.262 921.447 -990.091 919.526C-1051.91 918.491 -1107.87 910.977 -1161.16 896.556C-1220.99 880.369 -1275.95 855.96 -1329.18 821.935L-1330.03 821.395L-1329.08 821.465C-1064.67 841.122 -788.203 844.648 -507.349 831.945C-358.263 825.201 -235.66 811.337 -121.511 788.315C-86.6037 781.276 -48.5016 767.348 -8.1632 752.602C38.68 735.477 87.1184 717.77 133.564 710.028C186.173 701.254 228.466 706.949 262.864 727.435C307.471 754.001 338.679 785.266 368.86 815.499C415.088 861.805 458.75 905.543 543.316 922.81C608.973 936.216 679.581 937.883 753.177 927.761C817.996 918.849 885.398 901.172 959.238 873.724C982.068 865.24 1016 849.698 1058.95 830.026C1196.21 767.167 1412.4 668.159 1559.58 668.159C1632.99 668.159 1689.19 692.746 1709.98 758.688L1710.08 759.035L1709.78 759.027C1670.05 758.165 1629.49 755.74 1590.27 753.393C1484.35 747.056 1374.81 740.503 1268.38 763.825C1192.39 780.475 1127.62 824.505 1064.99 867.084C1011.98 903.114 957.17 940.369 895.589 961.16C838.982 980.269 778.751 989.942 716.432 989.942" fill="black" fill-opacity="0.4"/>
</g>
<defs>
<clipPath id="clip0">
<rect width="1280" height="720" fill="white"/>
</clipPath>
</defs>
</svg>
