<svg width="1227" height="234" viewBox="0 0 1227 234" fill="none" xmlns="http://www.w3.org/2000/svg">
<g clip-path="url(#clip0)">
<g clip-path="url(#clip1)">
<rect width="1440" height="887" transform="translate(-87 -128)" fill="#090B3D"/>
<g opacity="0.39">
<path style="mix-blend-mode:screen" opacity="0.51" d="M1359.92 194.805C1295.08 167.171 1225.17 152.947 1154.52 153.014C868.378 153.014 636.417 381.625 636.417 663.633C636.383 706.317 641.777 748.837 652.472 790.2H1359.92V194.805Z" fill="url(#paint0_radial)"/>
<path d="M809.863 -140.504C809.863 132.784 1034.65 354.31 1311.93 354.31C1328.08 354.31 1344.05 353.556 1359.82 352.049V-159.519H810.267C810.036 -153.193 809.863 -146.868 809.863 -140.504Z" fill="url(#paint1_radial)"/>
<path style="mix-blend-mode:screen" opacity="0.5" d="M288.908 105.354C264.026 114.358 237.158 117.018 212.179 125.756C187.2 134.494 162.722 151.647 156.284 177.044C154.82 182.742 154.261 189.087 150.714 193.874C145.568 200.826 135.931 202.535 127.258 203.371C55.9444 209.887 -14.3668 191.233 -84.6202 173.529V333.851C-30.6533 335.884 25.241 321.029 80.0175 321.105C128.588 321.105 176.233 333.054 224.225 340.481C331.01 356.915 440.087 351.458 544.634 324.449C558.319 320.915 574.104 314.837 577.4 301.274C581.351 284.691 563.908 271.489 549.279 262.561C510.828 239.197 472.839 209.07 459.386 166.577C450.385 138.084 453.449 107.178 445.778 78.3429C436.141 42.2514 410.681 12.4285 383.813 -13.8613C327.918 -68.4924 263.64 -113.341 196.856 -154.561H-84.5431V-119.97C-81.8062 -118.584 -79.0501 -117.197 -76.2746 -115.867C-14.1356 -86.0822 53.7664 -70.278 119.992 -50.8836C186.217 -31.4891 252.712 -7.19389 305.869 36.3248C314.504 43.3911 323.216 51.7681 325.143 62.6716C328.555 82.5599 308.124 98.4021 288.908 105.354Z" fill="url(#paint2_radial)"/>
<path style="mix-blend-mode:screen" d="M-28.302 470.562C13.7151 469.669 55.5588 469.745 97.229 463.572C135.485 457.863 172.873 447.495 208.536 432.704C226.754 425.242 244.499 416.704 261.674 407.136C276.765 398.664 292.3 389.356 303.325 375.869C330.501 342.57 313.155 302.167 286.769 274.319C261.712 247.935 228.002 230.63 195.179 215.642C157.418 198.58 118.585 183.923 78.9188 171.762C56.2527 164.671 33.4131 158.174 10.4 152.273C-11.0325 146.764 -32.8699 142.566 -54.129 136.393C-65.0172 133.295 -75.5667 129.14 -85.6226 123.989V150.905C-57.6561 165.228 -25.141 171.8 4.57932 180.405C45.0545 192.183 84.9901 205.935 124.367 221.094C160.582 235.056 197.087 250.765 229.776 271.736C244.154 280.968 258.012 291.795 268.535 305.301C277.382 316.698 287.694 333.509 280.447 347.927C273.547 361.699 256.778 369.81 243.826 376.933C227.348 386.084 210.28 394.162 192.731 401.114C157.281 415.153 120.217 424.85 82.3688 429.987C40.7372 435.42 -1.37633 433.901 -43.2393 435.363C-56.731 435.838 -71.1671 436.332 -85.6418 437.643V472.955C-66.3487 470.942 -46.4194 470.961 -28.302 470.562Z" fill="url(#paint3_radial)"/>
<path style="mix-blend-mode:screen" d="M86.4357 379.954C107.406 379.441 131.421 378.054 147.206 362.573C161.854 348.193 163.088 326.329 155.282 308.284C146.358 287.559 126.853 274.851 106.712 265.962C83.562 255.929 59.8931 247.103 35.8031 239.52C7.5283 230.402 -21.2091 222.785 -50.0236 215.528C-62.1234 212.688 -74.0163 209.052 -85.6225 204.644V212.052C-62.3782 222.766 -35.1249 227.705 -11.9962 235.892C13.0599 244.782 37.7305 254.602 62.1506 265.088C82.8507 273.978 106.481 282.355 123.442 297.475C136.625 309.176 148.131 333.225 132.173 347.661C116.503 361.832 86.8404 358.603 67.4894 358.489C16.4714 358.147 -34.7779 352.79 -85.6225 358.964V380.884C-84.0613 380.694 -82.5194 380.466 -80.9582 380.295C-25.3915 374.008 30.657 381.34 86.4357 379.954Z" fill="url(#paint4_radial)"/>
<path style="mix-blend-mode:screen" d="M1304.43 126.497C1254.88 155.579 1198.29 168.401 1145.4 189.98C1099.01 208.975 1029.01 242.198 1044.18 303.953C1050.13 328.039 1070.81 344.926 1091.47 357.292C1115.65 371.432 1140.56 384.316 1166.1 395.891C1222 421.801 1294.08 448.091 1355.2 424.175C1357.02 423.479 1358.62 422.311 1359.82 420.794V409.055C1358.94 408.024 1357.84 407.188 1356.61 406.599C1355.37 406.01 1354.03 405.682 1352.65 405.636C1325.67 403.736 1298.69 401.836 1272.3 395.435C1246.81 389.024 1221.96 380.392 1198.02 369.639C1172.25 358.242 1147.25 345.268 1122.56 331.819C1107.45 323.594 1087.41 313.754 1081.51 296.468C1074.03 274.586 1096.79 255.951 1113.23 246.054C1135.78 232.473 1160.36 222.557 1184.97 213.268C1235.08 194.273 1288.32 178.563 1332.46 147.468C1342.2 140.601 1351.37 132.978 1359.88 124.673V80.9834C1344.12 99.115 1325.38 114.501 1304.43 126.497Z" fill="url(#paint5_radial)"/>
<path style="mix-blend-mode:screen" d="M1236.01 281.31C1267.69 275.645 1298.67 266.686 1328.43 254.583C1339.18 250.407 1349.7 245.651 1359.92 240.337V225.406C1355.22 227.819 1350.28 229.965 1345.77 232.055C1328.15 240.048 1309.98 246.821 1291.4 252.323C1274.49 257.345 1257.28 261.36 1239.88 264.347C1224.46 267.025 1207.87 269.153 1196.94 281.443C1187.3 292.308 1186.44 307.22 1195.48 318.655C1204.52 330.091 1218.95 333.415 1232.91 335.599C1252.76 338.714 1272.65 341.545 1292.54 344.337C1311.49 346.978 1331.57 350.473 1350.73 348.877C1351.81 348.831 1352.85 348.409 1353.66 347.686C1354.46 346.963 1354.98 345.984 1355.13 344.921C1355.28 343.858 1355.04 342.777 1354.46 341.869C1353.88 340.96 1353 340.281 1351.96 339.949C1335.92 333.643 1317.85 331.135 1300.87 328.457C1283.51 325.747 1266.16 323.151 1248.83 320.669C1236.45 318.921 1213.38 319.092 1207.12 305.795C1199.16 289.326 1225.29 283.21 1236.01 281.31Z" fill="url(#paint6_radial)"/>
<path d="M-85.6225 350.777C-29.9526 371.024 28.927 381.354 88.2667 381.284C365.387 381.284 590.236 159.739 590.236 -113.511C590.236 -129.024 589.51 -144.36 588.058 -159.519H-85.6225V350.777Z" fill="url(#paint7_radial)"/>
</g>
<g style="mix-blend-mode:screen" opacity="0.2">
<path style="mix-blend-mode:screen" opacity="0.2" d="M487.435 176.025C493.793 176.025 493.793 166.279 487.435 166.279C481.076 166.279 481.06 176.025 487.435 176.025Z" fill="url(#paint8_radial)"/>
</g>
<path d="M781.115 122.085L780.194 123.091C779.658 123.656 779.348 124.395 779.324 125.168C779.327 125.947 779.639 126.693 780.194 127.246C780.471 127.519 780.8 127.736 781.161 127.883C781.523 128.03 781.911 128.105 782.303 128.104L783.089 128.005C783.591 127.875 784.048 127.613 784.411 127.246L785.432 126.356C785.724 126.09 785.943 125.755 786.067 125.383C786.264 125.024 786.356 124.619 786.335 124.212C786.331 123.413 786.007 122.648 785.433 122.083C784.86 121.518 784.084 121.199 783.273 121.194C782.464 121.205 781.69 121.524 781.115 122.085Z" fill="url(#paint9_radial)"/>
<path d="M1136.47 122.922C1134.14 123.164 1131.93 124.046 1130.09 125.467C1129.37 126.194 1128.97 127.169 1128.97 128.184C1128.97 129.199 1129.37 130.174 1130.09 130.901C1131.95 132.295 1134.15 133.173 1136.47 133.445C1137.29 133.674 1138.16 133.711 1139 133.554C1139.84 133.397 1140.63 133.05 1141.32 132.541C1142 132.031 1142.55 131.372 1142.93 130.616C1143.32 129.861 1143.51 129.028 1143.51 128.184C1143.51 127.34 1143.32 126.507 1142.93 125.751C1142.55 124.995 1142 124.337 1141.32 123.827C1140.63 123.317 1139.84 122.971 1139 122.814C1138.16 122.657 1137.29 122.694 1136.47 122.922Z" fill="url(#paint10_radial)"/>
<g opacity="0.5">
<path opacity="0.5" d="M1078.46 126.212C1088.46 126.212 1088.46 110.883 1078.46 110.883C1068.45 110.883 1068.45 126.212 1078.46 126.212Z" fill="url(#paint11_radial)"/>
</g>
<g opacity="0.5">
<path opacity="0.5" d="M1128.82 83.0839L1129.77 83.9949C1130.96 85.1272 1132.55 85.7601 1134.2 85.7601C1135.86 85.7601 1137.44 85.1272 1138.63 83.9949L1139.59 83.0839C1140.63 82.0229 1141.32 80.6874 1141.6 79.241C1141.88 77.7945 1141.72 76.2998 1141.15 74.9398C1140.58 73.5798 1139.62 72.4136 1138.38 71.5838C1137.15 70.7541 1135.7 70.2969 1134.2 70.2681C1132.88 70.3017 1131.59 70.6614 1130.44 71.3143C1129.29 71.9672 1128.33 72.8925 1127.64 74.006C1126.8 75.4372 1126.46 77.1011 1126.67 78.7415C1126.88 80.3819 1127.64 81.9077 1128.82 83.0839Z" fill="url(#paint12_radial)"/>
</g>
<g style="mix-blend-mode:screen" opacity="0.2">
<path style="mix-blend-mode:screen" opacity="0.2" d="M747.934 70.8884C754.892 70.8884 754.911 60.2129 747.934 60.2129C740.957 60.2129 740.938 70.8884 747.934 70.8884Z" fill="url(#paint13_radial)"/>
</g>
<path opacity="0.5" d="M1152.73 134.353C1177.41 124.275 1189.14 96.3827 1178.91 72.0529C1168.69 47.7231 1140.38 36.1696 1115.7 46.2473C1091.01 56.325 1079.29 84.2178 1089.51 108.548C1099.74 132.877 1128.04 144.431 1152.73 134.353Z" fill="url(#paint14_radial)"/>
<path d="M1173.51 96.6172C1177.03 75.2808 1162.32 55.1765 1140.68 51.7131C1119.03 48.2497 1098.63 62.7387 1095.11 84.0751C1091.6 105.412 1106.3 125.516 1127.95 128.979C1149.6 132.442 1170 117.954 1173.51 96.6172Z" fill="url(#paint15_radial)"/>
<g style="mix-blend-mode:screen" opacity="0.5">
<path d="M1097.58 97.4263C1097.58 88.7398 1100.51 80.3002 1105.92 73.4369C1111.32 66.5736 1118.89 61.6767 1127.42 59.5174C1135.96 57.3582 1144.98 58.0594 1153.07 61.5105C1161.16 64.9616 1167.85 70.9665 1172.1 78.5794C1170.42 73.3823 1167.65 68.5887 1163.98 64.5061C1160.31 60.4234 1155.82 57.1418 1150.79 54.8719C1145.75 52.602 1140.3 51.3938 1134.76 51.3249C1129.23 51.256 1123.74 52.3278 1118.65 54.4717C1113.56 56.6155 1108.98 59.784 1105.21 63.774C1101.44 67.7639 1098.55 72.4872 1096.74 77.6408C1094.92 82.7944 1094.23 88.2645 1094.68 93.7003C1095.14 99.136 1096.75 104.417 1099.4 109.206C1098.19 105.393 1097.58 101.421 1097.58 97.4263Z" fill="#289AD9"/>
</g>
<path style="mix-blend-mode:multiply" opacity="0.5" d="M1145.74 114.514C1139.15 114.514 1132.67 112.899 1126.87 109.815C1121.08 106.731 1116.15 102.274 1112.54 96.8467C1108.92 91.4191 1106.74 85.1909 1106.17 78.7229C1105.61 72.255 1106.69 65.7506 1109.31 59.7954C1104.63 63.5219 1100.86 68.2492 1098.3 73.62C1095.75 78.9908 1094.46 84.8644 1094.54 90.7969C1094.63 96.7294 1096.08 102.565 1098.79 107.864C1101.5 113.162 1105.39 117.784 1110.18 121.38C1114.97 124.976 1120.53 127.453 1126.43 128.622C1132.33 129.791 1138.42 129.623 1144.25 128.129C1150.08 126.635 1155.48 123.856 1160.06 120.001C1164.63 116.146 1168.26 111.316 1170.66 105.876C1163.6 111.479 1154.81 114.528 1145.74 114.514V114.514Z" fill="url(#paint16_radial)"/>
<path style="mix-blend-mode:multiply" opacity="0.5" d="M1159.54 60.1411C1163.11 68.5674 1163.25 78.0269 1159.93 86.5526C1156.61 95.0784 1150.08 102.014 1141.71 105.918C1133.33 109.821 1123.75 110.393 1114.95 107.512C1106.16 104.632 1098.83 98.5222 1094.49 90.4531C1094.51 97.0478 1096.22 103.531 1099.45 109.302C1102.69 115.073 1107.36 119.944 1113.02 123.465C1118.67 126.986 1125.14 129.042 1131.82 129.442C1138.5 129.843 1145.17 128.575 1151.22 125.756C1157.27 122.937 1162.5 118.659 1166.42 113.317C1170.35 107.976 1172.84 101.745 1173.67 95.2008C1174.5 88.657 1173.64 82.0127 1171.17 75.8839C1168.7 69.7551 1164.7 64.3401 1159.54 60.1411V60.1411Z" fill="url(#paint17_radial)"/>
<g style="mix-blend-mode:multiply" opacity="0.4">
<path d="M1116.29 59.2928C1118.46 62.1512 1117.34 66.1405 1117.37 69.69C1117.48 73.2594 1118.8 76.691 1121.11 79.4437C1123.41 82.1964 1126.59 84.1136 1130.12 84.8931C1131.86 85.3035 1133.68 85.1493 1135.32 84.4533C1136.12 84.0922 1136.8 83.4932 1137.24 82.7391C1137.69 81.985 1137.88 81.1132 1137.8 80.2442C1137.52 78.7051 1136.21 77.5742 1135.48 76.1607C1134.95 75.0482 1134.78 73.7979 1135.02 72.59C1135.25 71.382 1135.87 70.2786 1136.78 69.4387C1138.31 68.1194 1140.51 67.6168 1141.82 66.1091C1144.05 63.6276 1142.9 59.8268 1141.56 56.6856C1140.77 55.0384 1140.21 53.2959 1139.88 51.5027C1137.98 51.2134 1136.06 51.0664 1134.14 51.063C1126.7 51.0625 1119.41 53.1311 1113.1 57.0311C1114.37 57.464 1115.47 58.2499 1116.29 59.2928V59.2928Z" fill="#B02BAE"/>
</g>
<g style="mix-blend-mode:multiply" opacity="0.4">
<path d="M1162.7 62.9993C1160.5 62.7794 1158.36 62.5595 1157.25 60.8633L1157.5 61.1774C1158.29 64.6003 1157.67 68.1926 1155.78 71.1662C1155.03 72.1623 1154.36 73.2123 1153.77 74.3074C1153.48 74.8552 1153.33 75.4641 1153.33 76.0821C1153.33 76.7002 1153.48 77.3091 1153.77 77.8569C1154.31 78.4826 1155.01 78.9513 1155.79 79.2117C1156.58 79.4721 1157.42 79.5141 1158.23 79.3332C1159.85 78.9737 1161.53 78.9098 1163.17 79.1448C1166.11 79.9301 1168.18 83.6366 1171.17 83.0398C1171.91 82.8882 1172.56 82.4879 1173.02 81.909C1171.45 74.776 1167.87 68.2233 1162.7 62.9993V62.9993Z" fill="#EC5EBB"/>
</g>
<g style="mix-blend-mode:multiply" opacity="0.4">
<path d="M1164.38 115.739C1164.16 115.19 1163.85 114.68 1163.46 114.231C1161.48 112.561 1159.06 111.472 1156.48 111.09C1154.03 110.305 1151.35 108.577 1151.41 106.001C1151.41 104.022 1153.01 101.447 1151.41 100.41C1150.9 100.171 1150.32 100.074 1149.76 100.127C1146.22 100.127 1141.79 100.379 1140.19 97.269C1139.17 95.3215 1139.81 92.8714 1138.95 90.9867C1137.42 87.3116 1131.65 87.2174 1128.75 89.9816C1126.14 93.0557 1124.77 96.9687 1124.9 100.976C1124.22 105.833 1125.2 110.775 1127.7 115.017C1128.55 115.85 1129.04 116.976 1129.07 118.158C1128.69 120.639 1124.77 120.042 1122.7 121.456C1121.86 122.291 1121.38 123.42 1121.38 124.597C1121.38 125.774 1121.86 126.903 1122.7 127.738C1126.54 128.902 1130.53 129.495 1134.55 129.497C1140.24 129.445 1145.84 128.189 1150.99 125.815C1156.13 123.442 1160.7 120.005 1164.38 115.739V115.739Z" fill="#B02BAE"/>
</g>
<g style="mix-blend-mode:screen" opacity="0.5">
<path d="M1147.84 63.219C1151.03 61.9311 1154.54 62.2766 1157.69 61.1458C1158.37 60.9176 1159.01 60.5778 1159.57 60.1407C1154.18 55.732 1147.71 52.8066 1140.8 51.661C1133.89 50.5153 1126.8 51.1904 1120.24 53.6176C1113.69 56.0448 1107.9 60.1378 1103.47 65.4815C1099.03 70.8252 1096.11 77.2296 1095 84.0448L1095.45 87.5943C1094.56 91.3698 1094.79 95.3156 1096.11 98.9652C1096.79 100.78 1097.92 102.399 1099.39 103.673C1100.87 104.946 1102.65 105.833 1104.56 106.253C1105.4 106.447 1106.28 106.457 1107.13 106.283C1107.98 106.11 1108.77 105.756 1109.47 105.248C1111.13 103.3 1111.99 100.814 1111.89 98.2742C1112.24 95.7613 1113.39 92.8086 1115.91 92.4003C1118.43 91.9919 1120.62 94.6619 1121.01 97.2062C1121.39 99.7505 1120.72 102.389 1121.01 104.965C1121.26 107.497 1122.4 109.865 1124.22 111.667C1126.05 113.47 1128.45 114.597 1131.01 114.859C1133.6 114.936 1136.11 114.044 1138.05 112.365C1139.99 110.687 1141.21 108.345 1141.47 105.813C1141.43 103.301 1140.79 100.835 1139.59 98.6197C1138.02 95.2806 1136.09 92.1207 1133.82 89.1963C1132.38 87.5433 1131.3 85.6198 1130.63 83.5422C1130.46 82.4514 1130.55 81.3357 1130.89 80.2839C1131.23 79.2321 1131.81 78.2733 1132.6 77.4834C1133.38 76.6936 1134.34 76.0946 1135.4 75.7341C1136.46 75.3736 1137.59 75.2615 1138.7 75.4067C1141.37 75.9407 1143.51 78.0138 1146.12 78.7363C1148.74 79.4587 1152.5 77.4484 1151.54 74.9355C1150.58 72.4225 1146.95 72.8309 1145.17 71.0719C1142.46 68.7474 1144.75 64.5069 1147.84 63.219Z" fill="#289AD9"/>
</g>
<g style="mix-blend-mode:screen" opacity="0.5">
<path d="M1135.64 86.9346C1135.64 90.1092 1134.68 93.2126 1132.89 95.8522C1131.1 98.4918 1128.56 100.549 1125.58 101.764C1122.61 102.979 1119.33 103.297 1116.17 102.677C1113.01 102.058 1110.11 100.529 1107.83 98.2845C1105.56 96.0397 1104 93.1796 1103.38 90.066C1102.75 86.9524 1103.07 83.725 1104.3 80.792C1105.54 77.859 1107.62 75.3522 1110.3 73.5885C1112.98 71.8247 1116.13 70.8833 1119.35 70.8833C1121.49 70.8792 1123.61 71.2915 1125.59 72.0967C1127.57 72.9019 1129.36 74.0841 1130.88 75.5754C1132.39 77.0667 1133.59 78.8378 1134.41 80.7871C1135.22 82.7364 1135.64 84.8255 1135.64 86.9346V86.9346Z" fill="#289AD9"/>
</g>
<g style="mix-blend-mode:screen" opacity="0.5">
<path d="M1148.23 66.6433C1148.23 68.0784 1147.79 69.4813 1146.99 70.6746C1146.18 71.8678 1145.03 72.7979 1143.68 73.3471C1142.34 73.8962 1140.86 74.04 1139.43 73.76C1138 73.48 1136.69 72.7889 1135.66 71.7741C1134.63 70.7594 1133.93 69.4665 1133.64 68.0589C1133.36 66.6514 1133.5 65.1925 1134.06 63.8666C1134.62 62.5407 1135.56 61.4075 1136.77 60.6102C1137.98 59.8129 1139.41 59.3873 1140.86 59.3873C1141.83 59.3831 1142.79 59.568 1143.69 59.9311C1144.58 60.2943 1145.39 60.8286 1146.08 61.5032C1146.76 62.1779 1147.31 62.9794 1147.67 63.8616C1148.04 64.7439 1148.23 65.6893 1148.23 66.6433V66.6433Z" fill="#289AD9"/>
</g>
<g style="mix-blend-mode:screen" opacity="0.5">
<path d="M1150.58 85.6783C1150.58 86.2995 1150.4 86.9068 1150.05 87.4234C1149.7 87.94 1149.2 88.3426 1148.62 88.5803C1148.03 88.8181 1147.39 88.8803 1146.78 88.7591C1146.16 88.6379 1145.59 88.3387 1145.14 87.8994C1144.7 87.4601 1144.39 86.9004 1144.27 86.2911C1144.15 85.6818 1144.21 85.0502 1144.45 84.4762C1144.69 83.9022 1145.1 83.4117 1145.63 83.0665C1146.15 82.7213 1146.77 82.5371 1147.4 82.5371C1148.24 82.5371 1149.05 82.8681 1149.65 83.4572C1150.25 84.0463 1150.58 84.8452 1150.58 85.6783Z" fill="#289AD9"/>
</g>
<path style="mix-blend-mode:screen" opacity="0.2" d="M97.5273 124.785C96.8924 124.229 96.1522 123.796 95.4296 123.293C94.3529 122.474 93.2292 121.721 92.0645 121.037C89.9266 120.042 87.5741 119.617 85.2302 119.802C88.134 120.747 91.0411 121.739 93.9238 122.709L93.1668 122.045C91.6743 120.744 89.8699 119.866 87.9361 119.5C86.0023 119.134 84.008 119.292 82.1553 119.96C80.2577 120.639 78.5682 121.809 77.2535 123.354C75.9388 124.899 75.0445 126.766 74.6587 128.77L74.4177 129.854L79.5123 121.964C76.0402 124.639 73.6352 128.494 72.7375 132.823C71.8398 137.153 72.5094 141.667 74.6238 145.54C76.359 148.061 78.7819 150.013 81.5947 151.157C84.4075 152.301 87.4876 152.586 90.4562 151.978C93.1211 151.445 95.5953 150.196 97.6209 148.361C99.6466 146.527 101.149 144.175 101.973 141.549C102.814 138.998 102.962 136.263 102.402 133.632C101.801 130.237 100.038 127.164 97.4254 124.955L97.5273 124.785Z" fill="url(#paint18_radial)"/>
<path opacity="0.5" d="M246.542 171.149C246.075 165.437 237.253 166.258 237.72 171.97C238.187 177.682 247.009 176.861 246.542 171.149Z" fill="url(#paint19_radial)"/>
<path d="M115.515 151.009C114.655 140.725 98.86 142.147 99.7212 152.45C100.582 162.753 116.378 161.332 115.515 151.009Z" fill="url(#paint20_radial)"/>
</g>
</g>
<defs>
<radialGradient id="paint0_radial" cx="0" cy="0" r="1" gradientUnits="userSpaceOnUse" gradientTransform="translate(987.992 472.652) scale(305.742 301.326)">
<stop offset="0.04" stop-color="#28003E"/>
<stop offset="1" stop-color="#340A93" stop-opacity="0"/>
</radialGradient>
<radialGradient id="paint1_radial" cx="0" cy="0" r="1" gradientUnits="userSpaceOnUse" gradientTransform="translate(377908 102267) scale(72693.9 67917.8)">
<stop stop-color="#340A93"/>
<stop offset="0.95" stop-color="#28003E" stop-opacity="0"/>
</radialGradient>
<radialGradient id="paint2_radial" cx="0" cy="0" r="1" gradientUnits="userSpaceOnUse" gradientTransform="translate(296450 27108.6) scale(461214 351042)">
<stop offset="0.06" stop-color="#300056"/>
<stop offset="0.96" stop-color="#18002B"/>
</radialGradient>
<radialGradient id="paint3_radial" cx="0" cy="0" r="1" gradientUnits="userSpaceOnUse" gradientTransform="translate(67799.5 95231.3) scale(61853.2 53604.8)">
<stop offset="0.06" stop-color="#300056"/>
<stop offset="0.96" stop-color="#18002B"/>
</radialGradient>
<radialGradient id="paint4_radial" cx="0" cy="0" r="1" gradientUnits="userSpaceOnUse" gradientTransform="translate(31596.4 50367.9) scale(20875.7 14976.9)">
<stop offset="0.06" stop-color="#300056"/>
<stop offset="0.96" stop-color="#18002B"/>
</radialGradient>
<radialGradient id="paint5_radial" cx="0" cy="0" r="1" gradientUnits="userSpaceOnUse" gradientTransform="translate(233773 88406.8) scale(44942.5 49858.9)">
<stop offset="0.06" stop-color="#300056"/>
<stop offset="0.96" stop-color="#18002B"/>
</radialGradient>
<radialGradient id="paint6_radial" cx="0" cy="0" r="1" gradientUnits="userSpaceOnUse" gradientTransform="translate(132909 35696.3) scale(10137 7354.32)">
<stop offset="0.06" stop-color="#300056"/>
<stop offset="0.96" stop-color="#18002B"/>
</radialGradient>
<radialGradient id="paint7_radial" cx="0" cy="0" r="1" gradientUnits="userSpaceOnUse" gradientTransform="translate(173144 111549) scale(102116 81709.8)">
<stop stop-color="#340A93"/>
<stop offset="0.95" stop-color="#28003E" stop-opacity="0"/>
</radialGradient>
<radialGradient id="paint8_radial" cx="0" cy="0" r="1" gradientUnits="userSpaceOnUse" gradientTransform="translate(4675.34 2286.47) scale(27.6764 28.2627)">
<stop stop-color="#8EE1EE"/>
<stop offset="0.94" stop-color="#5E8DEC"/>
</radialGradient>
<radialGradient id="paint9_radial" cx="0" cy="0" r="1" gradientUnits="userSpaceOnUse" gradientTransform="translate(5098.38 1429.98) scale(4.76926 4.69843)">
<stop offset="0.06" stop-color="#E47E99"/>
<stop offset="0.53" stop-color="#E43D99"/>
<stop offset="0.99" stop-color="#B30058"/>
</radialGradient>
<radialGradient id="paint10_radial" cx="0" cy="0" r="1" gradientUnits="userSpaceOnUse" gradientTransform="translate(1136.28 128.168) scale(6.4062 6.31368)">
<stop offset="0.08" stop-color="#FFE245"/>
<stop offset="1" stop-color="#E38427" stop-opacity="0"/>
</radialGradient>
<radialGradient id="paint11_radial" cx="0" cy="0" r="1" gradientUnits="userSpaceOnUse" gradientTransform="translate(12021.8 4431.43) scale(36.0281 36.7889)">
<stop stop-color="#8EE1EE"/>
<stop offset="0.94" stop-color="#5E8DEC"/>
</radialGradient>
<radialGradient id="paint12_radial" cx="0" cy="0" r="1" gradientUnits="userSpaceOnUse" gradientTransform="translate(12801.7 4333.68) scale(6.80685 6.97142)">
<stop stop-color="#8EE1EE"/>
<stop offset="0.94" stop-color="#5E8DEC"/>
</radialGradient>
<radialGradient id="paint13_radial" cx="0" cy="0" r="1" gradientUnits="userSpaceOnUse" gradientTransform="translate(6013.56 1964.07) scale(28.9902 29.571)">
<stop stop-color="#8EE1EE"/>
<stop offset="0.94" stop-color="#5E8DEC"/>
</radialGradient>
<radialGradient id="paint14_radial" cx="0" cy="0" r="1" gradientUnits="userSpaceOnUse" gradientTransform="translate(72319.5 21499.8) scale(1433.05 1412.36)">
<stop offset="0.06" stop-color="#EC5EBB"/>
<stop offset="0.24" stop-color="#EC5FBC" stop-opacity="0.99"/>
<stop offset="0.37" stop-color="#EB60BE" stop-opacity="0.95"/>
<stop offset="0.48" stop-color="#EA64C1" stop-opacity="0.88"/>
<stop offset="0.59" stop-color="#E968C6" stop-opacity="0.79"/>
<stop offset="0.68" stop-color="#E86ECC" stop-opacity="0.66"/>
<stop offset="0.78" stop-color="#E675D4" stop-opacity="0.51"/>
<stop offset="0.87" stop-color="#E37EDD" stop-opacity="0.34"/>
<stop offset="0.95" stop-color="#E187E7" stop-opacity="0.14"/>
<stop offset="1" stop-color="#DF8EEE" stop-opacity="0"/>
</radialGradient>
<radialGradient id="paint15_radial" cx="0" cy="0" r="1" gradientUnits="userSpaceOnUse" gradientTransform="translate(59279.5 16981.7) scale(1864.09 1837.17)">
<stop offset="0.14" stop-color="#289AD9"/>
<stop offset="0.94" stop-color="#EC5EBB"/>
</radialGradient>
<radialGradient id="paint16_radial" cx="0" cy="0" r="1" gradientUnits="userSpaceOnUse" gradientTransform="translate(56833 15275.8) scale(1634.35 1494.18)">
<stop offset="0.14" stop-color="#289AD9"/>
<stop offset="0.94" stop-color="#EC5EBB"/>
</radialGradient>
<radialGradient id="paint17_radial" cx="0" cy="0" r="1" gradientUnits="userSpaceOnUse" gradientTransform="translate(59493.6 15698.3) scale(1242.4 1084.31)">
<stop offset="0.14" stop-color="#289AD9"/>
<stop offset="0.94" stop-color="#EC5EBB"/>
</radialGradient>
<radialGradient id="paint18_radial" cx="0" cy="0" r="1" gradientUnits="userSpaceOnUse" gradientTransform="translate(-8734.9 4327.37) rotate(130.395) scale(41.4839 42.3556)">
<stop stop-color="#8EE1EE"/>
<stop offset="0.94" stop-color="#5E8DEC"/>
</radialGradient>
<radialGradient id="paint19_radial" cx="0" cy="0" r="1" gradientUnits="userSpaceOnUse" gradientTransform="translate(1241.32 -6365.44) rotate(-94.6742) scale(22.6082 23.2997)">
<stop stop-color="#8EE1EE"/>
<stop offset="0.94" stop-color="#5E8DEC"/>
</radialGradient>
<radialGradient id="paint20_radial" cx="0" cy="0" r="1" gradientUnits="userSpaceOnUse" gradientTransform="translate(1729.8 -7895.7) rotate(-94.7779) scale(63.5866 65.0212)">
<stop offset="0.06" stop-color="#E47E99"/>
<stop offset="0.53" stop-color="#E43D99"/>
<stop offset="0.99" stop-color="#B30058"/>
</radialGradient>
<clipPath id="clip0">
<rect width="1227" height="234" rx="37" fill="white"/>
</clipPath>
<clipPath id="clip1">
<rect width="1440" height="887" fill="white" transform="translate(-87 -128)"/>
</clipPath>
</defs>
</svg>
