<svg width="106" height="106" viewBox="0 0 106 106" fill="none" xmlns="http://www.w3.org/2000/svg">
<path d="M106 53C106 82.2711 82.2711 106 53 106C23.7289 106 0 82.2711 0 53C0 23.7289 23.7289 0 53 0C82.2711 0 106 23.7289 106 53ZM7.7278 53C7.7278 78.0032 27.9969 98.2722 53 98.2722C78.0032 98.2722 98.2722 78.0032 98.2722 53C98.2722 27.9969 78.0032 7.7278 53 7.7278C27.9969 7.7278 7.7278 27.9969 7.7278 53Z" fill="white"/>
<path d="M67.0821 52.744C67.0821 61.2283 60.2041 68.1063 51.7197 68.1063C43.2354 68.1063 36.3574 61.2283 36.3574 52.744C36.3574 44.2596 43.2354 37.3816 51.7197 37.3816C60.2041 37.3816 67.0821 44.2596 67.0821 52.744Z" fill="white"/>
<path d="M31.2367 50.9517C31.2367 55.3353 27.6831 58.8889 23.2995 58.8889C18.9159 58.8889 15.3623 55.3353 15.3623 50.9517C15.3623 46.5681 18.9159 43.0145 23.2995 43.0145C27.6831 43.0145 31.2367 46.5681 31.2367 50.9517Z" fill="white"/>
<path d="M80.6269 52.744C82.7619 52.744 84.5162 54.4807 84.265 56.6009C83.7117 61.2698 82.1582 65.7808 79.6929 69.8195C76.5538 74.9619 72.0579 79.1395 66.6993 81.8933C61.3406 84.647 55.3265 85.8703 49.3179 85.4288C43.3093 84.9873 37.5387 82.898 32.6401 79.3905C27.7416 75.883 23.9047 71.093 21.5511 65.547C19.1974 60.0009 18.4181 53.9134 19.2989 47.9533C20.1796 41.9932 22.6862 36.3912 26.5432 31.7628C29.5724 28.1279 33.3425 25.2041 37.5842 23.1762C39.5105 22.2553 41.7198 23.3566 42.4075 25.3779C43.0953 27.3991 41.995 29.5695 40.1036 30.5599C37.1942 32.0834 34.6013 34.1704 32.4827 36.7126C29.5356 40.249 27.6204 44.5294 26.9474 49.0835C26.2745 53.6375 26.8699 58.2889 28.6683 62.5265C30.4667 66.7642 33.3984 70.4241 37.1413 73.1042C40.8842 75.7842 45.2935 77.3806 49.8846 77.718C54.4757 78.0553 59.0709 77.1206 63.1654 75.0165C67.2598 72.9124 70.6951 69.7204 73.0936 65.7911C74.8178 62.9665 75.9583 59.8396 76.4633 56.5945C76.7916 54.4849 78.4919 52.744 80.6269 52.744Z" fill="white"/>
<path d="M47.6482 24.125C47.3475 22.0113 48.8199 20.0298 50.9543 19.9799C57.702 19.8222 64.3695 21.7527 70.0207 25.5568C75.6719 29.3609 79.9698 34.8116 82.3631 41.1226C83.1202 43.1189 81.8385 45.2287 79.767 45.7456C77.6954 46.2625 75.6243 44.9849 74.795 43.0175C72.914 38.555 69.7664 34.7058 65.7032 31.9707C61.64 29.2356 56.8893 27.768 52.0469 27.7047C49.9121 27.6768 47.9489 26.2388 47.6482 24.125Z" fill="white"/>
<path d="M27.6522 84.4928C27.6522 90.9974 22.3791 96.2705 15.8744 96.2705C9.36972 96.2705 4.09663 90.9974 4.09663 84.4928C4.09663 77.9881 9.36972 72.715 15.8744 72.715C22.3791 72.715 27.6522 77.9881 27.6522 84.4928ZM9.12502 84.4928C9.12502 88.2203 12.1468 91.2421 15.8744 91.2421C19.602 91.2421 22.6238 88.2203 22.6238 84.4928C22.6238 80.7652 19.602 77.7434 15.8744 77.7434C12.1468 77.7434 9.12502 80.7652 9.12502 84.4928Z" fill="white"/>
<path d="M23.0434 84.4927C23.0434 88.4521 19.8337 91.6618 15.8743 91.6618C11.9149 91.6618 8.70523 88.4521 8.70523 84.4927C8.70523 80.5334 11.9149 77.3237 15.8743 77.3237C19.8337 77.3237 23.0434 80.5334 23.0434 84.4927Z" fill="white"/>
</svg>
