<svg width="171" height="38" viewBox="0 0 171 38" fill="none" xmlns="http://www.w3.org/2000/svg">
<path d="M69.7105 30.496C71.4672 30.496 73.0482 30.1395 74.4535 29.4265C75.8588 28.7032 76.9697 27.7112 77.786 26.4505C78.6127 25.1795 79.026 23.7173 79.026 22.064C79.026 20.4107 78.6127 18.9537 77.786 17.693C76.9697 16.422 75.8588 15.43 74.4535 14.717C73.0482 13.9937 71.4672 13.632 69.7105 13.632C67.9642 13.632 66.3832 13.9937 64.9675 14.717C63.5622 15.43 62.4462 16.422 61.6195 17.693C60.8032 18.9537 60.395 20.4107 60.395 22.064C60.395 23.7173 60.8032 25.1795 61.6195 26.4505C62.4462 27.7112 63.5622 28.7032 64.9675 29.4265C66.3832 30.1395 67.9642 30.496 69.7105 30.496ZM69.7105 26.435C68.9045 26.435 68.1708 26.249 67.5095 25.877C66.8585 25.505 66.3418 24.9935 65.9595 24.3425C65.5772 23.6812 65.386 22.9217 65.386 22.064C65.386 21.2063 65.5772 20.452 65.9595 19.801C66.3418 19.1397 66.8585 18.623 67.5095 18.251C68.1708 17.879 68.9045 17.693 69.7105 17.693C70.5268 17.693 71.2605 17.879 71.9115 18.251C72.5728 18.623 73.0947 19.1397 73.477 19.801C73.8697 20.452 74.066 21.2063 74.066 22.064C74.066 22.9217 73.8697 23.6812 73.477 24.3425C73.0947 24.9935 72.5728 25.505 71.9115 25.877C71.2605 26.249 70.5268 26.435 69.7105 26.435ZM83.1785 30H87.937V21.134C87.937 20.545 88.1075 19.9973 88.4485 19.491C88.7999 18.9743 89.2494 18.5558 89.797 18.2355C90.355 17.9152 90.944 17.755 91.564 17.755C92.463 17.755 93.3104 18.0133 94.106 18.53L96.09 14.5155C95.6767 14.2572 95.1704 14.0453 94.571 13.88C93.982 13.7147 93.4085 13.632 92.8505 13.632C91.8689 13.632 90.9492 13.8748 90.0915 14.3605C89.2442 14.8358 88.526 15.5178 87.937 16.4065V14.128H83.1785V30ZM109.078 30.496C110.514 30.496 111.821 30.1395 112.999 29.4265C114.187 28.7032 115.133 27.706 115.836 26.435C116.538 25.164 116.89 23.707 116.89 22.064C116.89 20.452 116.543 19.0105 115.851 17.7395C115.169 16.4685 114.229 15.4662 113.03 14.7325C111.842 13.9988 110.483 13.632 108.954 13.632C107.848 13.632 106.82 13.849 105.869 14.283C104.918 14.7067 104.128 15.3008 103.498 16.0655V3.34H98.7391V30H103.498V27.9075C104.2 28.7238 105.032 29.3593 105.993 29.814C106.954 30.2687 107.982 30.496 109.078 30.496ZM107.652 26.4505C106.401 26.4505 105.373 26.0423 104.567 25.226C103.771 24.3993 103.374 23.3557 103.374 22.095C103.374 20.8137 103.777 19.7597 104.583 18.933C105.399 18.096 106.422 17.6775 107.652 17.6775C108.871 17.6775 109.878 18.096 110.674 18.933C111.48 19.7597 111.883 20.8137 111.883 22.095C111.883 23.3557 111.485 24.3993 110.69 25.226C109.904 26.0423 108.892 26.4505 107.652 26.4505ZM123.634 10.8265C124.409 10.8265 125.07 10.5475 125.618 9.9895C126.166 9.4315 126.44 8.765 126.44 7.99C126.44 7.215 126.166 6.55366 125.618 6.006C125.07 5.45833 124.409 5.1845 123.634 5.1845C122.849 5.1845 122.177 5.45833 121.619 6.006C121.071 6.55366 120.798 7.215 120.798 7.99C120.798 8.77533 121.071 9.447 121.619 10.005C122.177 10.5527 122.849 10.8265 123.634 10.8265ZM121.247 30H126.006V14.128H121.247V30ZM137.088 30.496C137.728 30.496 138.379 30.4133 139.041 30.248C139.712 30.0827 140.317 29.8553 140.854 29.566L139.661 25.753C139.216 26.0837 138.741 26.249 138.235 26.249C137.305 26.249 136.84 25.6393 136.84 24.42V17.7395H140.327V14.128H136.84V8.176H132.081V14.128H129.958V17.7395H132.081V24.761C132.081 26.5693 132.52 27.9798 133.399 28.9925C134.287 29.9948 135.517 30.496 137.088 30.496ZM149.462 30.496C151.652 30.496 153.357 30.031 154.577 29.101C155.806 28.1607 156.421 26.8277 156.421 25.102C156.421 24.1617 156.245 23.4125 155.894 22.8545C155.543 22.2862 155.057 21.8263 154.437 21.475C153.827 21.1237 153.125 20.8033 152.329 20.514C151.843 20.3383 151.332 20.1472 150.795 19.9405C150.268 19.7235 149.818 19.4755 149.446 19.1965C149.084 18.9175 148.904 18.5972 148.904 18.2355C148.904 17.8428 149.079 17.5173 149.431 17.259C149.782 17.0007 150.252 16.8715 150.841 16.8715C151.885 16.8715 153.078 17.3003 154.422 18.158L156.049 15.1045C154.086 14.1435 152.339 13.663 150.81 13.663C149.549 13.663 148.433 13.8748 147.462 14.2985C146.501 14.7222 145.747 15.3112 145.199 16.0655C144.651 16.8095 144.378 17.6723 144.378 18.654C144.378 19.4703 144.558 20.142 144.92 20.669C145.292 21.1857 145.773 21.6145 146.362 21.9555C146.951 22.2965 147.565 22.6013 148.206 22.87C149.322 23.335 150.144 23.7018 150.671 23.9705C151.198 24.2288 151.461 24.6628 151.461 25.2725C151.461 25.8202 151.275 26.2438 150.903 26.5435C150.541 26.8328 150.061 26.9775 149.462 26.9775C147.994 26.9775 146.579 26.2542 145.215 24.8075L143.215 28.0005C144.641 29.6642 146.723 30.496 149.462 30.496ZM164.333 30.496C165.191 30.496 165.919 30.1963 166.518 29.597C167.128 28.9873 167.433 28.2537 167.433 27.396C167.433 26.5383 167.128 25.8098 166.518 25.2105C165.919 24.6008 165.191 24.296 164.333 24.296C163.475 24.296 162.742 24.6008 162.132 25.2105C161.533 25.8098 161.233 26.5383 161.233 27.396C161.233 28.2537 161.533 28.9873 162.132 29.597C162.742 30.1963 163.475 30.496 164.333 30.496Z" fill="white"/>
<path d="M38 19C38 29.4934 29.4934 38 19 38C8.50659 38 0 29.4934 0 19C0 8.50659 8.50659 0 19 0C29.4934 0 38 8.50659 38 19ZM2.77034 19C2.77034 27.9634 10.0366 35.2297 19 35.2297C27.9634 35.2297 35.2297 27.9634 35.2297 19C35.2297 10.0366 27.9634 2.77034 19 2.77034C10.0366 2.77034 2.77034 10.0366 2.77034 19Z" fill="white"/>
<circle cx="18.5411" cy="18.9082" r="5.50725" fill="white"/>
<circle cx="8.35267" cy="18.2657" r="2.84541" fill="white"/>
<path d="M28.904 18.9082C29.6694 18.9082 30.2983 19.5308 30.2082 20.2909C30.0098 21.9646 29.4529 23.5818 28.5691 25.0296C27.4438 26.8731 25.8321 28.3708 23.911 29.358C21.99 30.3452 19.834 30.7837 17.68 30.6254C15.526 30.4671 13.4573 29.7181 11.7012 28.4607C9.94508 27.2033 8.56959 25.4862 7.72584 23.498C6.88208 21.5097 6.60272 19.3274 6.91844 17.1908C7.23416 15.0541 8.13276 13.0459 9.51548 11.3867C10.6014 10.0836 11.953 9.03541 13.4736 8.30844C14.1641 7.97832 14.9561 8.37313 15.2027 9.09772V9.09772C15.4492 9.8223 15.0548 10.6004 14.3767 10.9554C13.3337 11.5016 12.4042 12.2498 11.6447 13.1611C10.5882 14.4289 9.90162 15.9634 9.66038 17.596C9.41914 19.2285 9.6326 20.896 10.2773 22.4152C10.922 23.9343 11.973 25.2464 13.3148 26.2071C14.6566 27.1679 16.2373 27.7402 17.8831 27.8612C19.529 27.9821 21.1763 27.647 22.6442 26.8927C24.112 26.1384 25.3435 24.9941 26.2033 23.5855C26.8215 22.5729 27.2303 21.4519 27.4113 20.2886C27.529 19.5323 28.1386 18.9082 28.904 18.9082V18.9082Z" fill="white"/>
<path d="M17.0814 8.64859C16.9736 7.89083 17.5015 7.18049 18.2666 7.1626C20.6856 7.10605 23.0758 7.79814 25.1017 9.16187C27.1276 10.5256 28.6684 12.4796 29.5264 14.7421C29.7978 15.4577 29.3383 16.2141 28.5957 16.3994V16.3994C27.8531 16.5847 27.1106 16.1267 26.8133 15.4214C26.139 13.8216 25.0106 12.4417 23.554 11.4612C22.0974 10.4807 20.3943 9.95456 18.6583 9.93188C17.893 9.92188 17.1892 9.40635 17.0814 8.64859V8.64859Z" fill="white"/>
<path d="M9.91307 30.2898C9.91307 32.6217 8.02272 34.5121 5.69085 34.5121C3.35898 34.5121 1.46863 32.6217 1.46863 30.2898C1.46863 27.958 3.35898 26.0676 5.69085 26.0676C8.02272 26.0676 9.91307 27.958 9.91307 30.2898ZM3.27126 30.2898C3.27126 31.6262 4.35455 32.7094 5.69085 32.7094C7.02715 32.7094 8.11044 31.6262 8.11044 30.2898C8.11044 28.9535 7.02715 27.8703 5.69085 27.8703C4.35455 27.8703 3.27126 28.9535 3.27126 30.2898Z" fill="white"/>
<circle cx="5.69078" cy="30.2898" r="2.57005" fill="#090B3D"/>
</svg>
