<svg width="1440" height="810" viewBox="0 0 1440 810" fill="none" xmlns="http://www.w3.org/2000/svg">
<g clip-path="url(#clip0)">
<rect width="1440" height="810" fill="#1A6EFC"/>
<g opacity="0.55">
<path d="M1968.3 848.309C1955.15 840.907 1940.87 835.168 1925.26 831.541C1917.66 829.766 1910.21 828.183 1902.89 826.746C1922.03 832.53 1941.55 838.695 1961.38 845.681C1963.58 846.453 1965.88 847.327 1968.3 848.309ZM2002.12 872.443C2043.58 909.65 2072.41 963.997 2098.91 1013.97C2104.79 1025.05 2110.35 1035.53 2116.01 1045.79C2128.39 1026.99 2130.19 1005.69 2121.37 982.478C2108.24 947.892 2074.92 916.902 2049.28 897.001C2024.55 877.806 1995.56 860.308 1972.2 850.242C1982.89 856.622 1992.82 864.1 2002.12 872.443V872.443ZM754.846 -37.5711C789.194 -3.19366 819.968 25.6825 849.866 51.6465C898.541 93.9151 944.645 128.196 990.813 156.446C999.205 161.581 1007.87 166.285 1016.73 170.656C941.125 117.979 869.183 57.8755 799.375 -0.441804C788.353 -9.64948 776.955 -19.1713 765.751 -28.4892C762.126 -31.5047 758.489 -34.5343 754.846 -37.5711V-37.5711ZM1244.62 310.943C1245.88 312.071 1247.12 313.206 1248.36 314.356C1290.97 354.004 1321.58 405.238 1351.19 454.785C1369.1 484.767 1387.63 515.77 1408.52 543.639C1438.65 583.829 1474.12 622.607 1513.95 658.893C1553.35 694.794 1595.24 726.656 1638.47 753.607C1670.84 773.786 1702.54 787.764 1738.25 797.598C1770.06 806.359 1800.96 810.719 1833.67 815.33C1854.22 818.233 1875.26 821.2 1897.41 825.393C1887.62 822.453 1877.94 819.617 1868.34 816.795C1797.28 795.937 1730.15 776.229 1660.36 731.839C1564.45 670.824 1474.71 588.239 1393.65 486.378C1373.17 460.646 1355.06 430.169 1337.55 400.697C1311.37 356.63 1284.31 311.089 1248.04 278.54C1247.38 277.951 1246.72 277.368 1246.06 276.787C1227.9 260.87 1205.85 247.04 1178.67 234.506C1154.4 223.316 1128.29 214.132 1103.04 205.252C1075.24 195.475 1046.75 185.455 1019.9 172.516C1027.19 177.573 1034.53 182.561 1041.89 187.47C1067.61 204.616 1095.87 219.469 1123.19 233.832C1165.36 256.009 1208.93 278.916 1244.62 310.943V310.943ZM262.667 -493.71C259.626 -455.283 273.569 -420.468 305.274 -387.297C333.245 -358.03 370.173 -334.525 405.884 -311.794C422.292 -301.35 437.79 -291.486 451.646 -281.519C540.107 -217.891 625.535 -146.275 708.15 -77.0161C721.987 -65.416 736.169 -53.5282 750.319 -41.715C741.344 -50.7397 732.117 -60.1454 722.601 -69.9677C695.661 -97.7709 669.292 -128.88 643.791 -158.966C593.575 -218.208 541.651 -279.465 479.725 -323.202C455.743 -340.141 428.116 -352.847 401.401 -365.134C371.865 -378.719 341.324 -392.766 316.545 -412.348C303.215 -422.881 292.51 -434.166 283.821 -446.846C274.234 -460.834 267.31 -476.173 262.667 -493.71V-493.71ZM319.599 -373.067C314.544 -377.604 309.685 -382.276 305.069 -387.105C273.068 -420.586 259.125 -455.746 262.444 -494.595L262.515 -495.432L262.732 -494.599C267.364 -476.748 274.342 -461.176 284.06 -446.997C292.731 -434.344 303.411 -423.082 316.717 -412.57C341.465 -393.012 371.988 -378.973 401.507 -365.398C428.237 -353.103 455.877 -340.391 479.884 -323.436C541.841 -279.675 593.781 -218.401 644.009 -159.144C669.507 -129.063 695.874 -97.9558 722.806 -70.1597C733.082 -59.5538 743.017 -49.4367 752.667 -39.7557C757.097 -36.0594 761.521 -32.3723 765.93 -28.7065C777.134 -19.3886 788.531 -9.86678 799.554 -0.659105C869.817 58.041 942.256 118.555 1018.4 171.474C1045.71 184.787 1074.77 195.008 1103.12 204.977C1128.38 213.861 1154.49 223.047 1178.78 234.243C1205.99 246.791 1228.06 260.638 1246.25 276.575C1283.57 309.262 1311.13 355.678 1337.8 400.563C1355.31 430.027 1373.41 460.493 1393.88 486.208C1474.92 588.041 1564.62 670.602 1660.5 731.592C1730.26 775.967 1797.36 795.663 1868.41 816.518C1878.87 819.595 1889.44 822.69 1900.14 825.913C1908.36 827.499 1916.74 829.265 1925.31 831.259C1941.71 835.072 1956.64 841.21 1970.35 849.155C2017.53 868.922 2099.68 924.557 2121.65 982.396C2130.52 1005.77 2128.66 1027.22 2116.13 1046.16L2116 1046.35L2115.88 1046.14C2110.17 1035.8 2104.58 1025.25 2098.66 1014.09C2065.88 952.297 2029.55 883.8 1970.2 849.391C1967.12 848.105 1964.14 846.954 1961.3 845.952C1940.52 838.634 1920.11 832.224 1900.09 826.196C1876.94 821.727 1855.03 818.639 1833.65 815.621C1800.93 811.004 1770.03 806.648 1738.2 797.883C1702.46 788.04 1670.72 774.048 1638.33 753.854C1595.08 726.889 1553.16 695.021 1513.76 659.1C1473.92 622.801 1438.44 584.009 1408.29 543.802C1387.39 515.918 1368.86 484.909 1350.94 454.92C1321.35 405.392 1290.74 354.176 1248.16 314.56C1211.84 280.768 1166.71 257.034 1123.06 234.088C1095.74 219.719 1067.48 204.863 1041.74 187.709C1033.87 182.465 1026.05 177.136 1018.26 171.723C1008.82 167.122 999.592 162.149 990.673 156.69C944.49 128.431 898.371 94.1405 849.682 51.8588C819.148 25.345 787.706 -4.20614 752.477 -39.5486C737.55 -52.0029 722.569 -64.5614 707.97 -76.7998C625.36 -146.055 539.937 -217.668 451.485 -281.287C437.637 -291.249 422.143 -301.112 405.738 -311.553C375.902 -330.545 345.216 -350.078 319.599 -373.067" fill="#CDF0FF"/>
<path d="M242.946 -473.507C246.219 -440.792 261.093 -410.764 288.39 -381.749C312.734 -355.872 343.391 -334.218 373.039 -313.277C384.552 -305.146 395.426 -297.467 405.86 -289.606C473.329 -238.782 537.686 -182.142 599.924 -127.368C630.15 -100.767 661.404 -73.2609 692.65 -46.7395L700.836 -39.7919C791.462 37.1476 885.175 116.706 984.506 183.372C1013.46 202.801 1047.06 219.148 1079.56 234.958C1127.53 258.292 1177.14 282.423 1213.93 317.274C1274.78 374.912 1315.61 443.02 1355.1 508.885C1383.06 555.515 1411.96 603.734 1447.33 646.657C1466.34 669.737 1485.72 689.583 1506.57 707.333C1529.94 727.227 1554.58 744.02 1581.88 758.67C1634.19 786.74 1694.58 807.402 1753 827.392C1820.66 850.543 1890.64 874.493 1949.17 910.189C1980.68 929.413 2006.42 950.402 2027.84 974.345C2051.85 1001.18 2069.85 1031 2082.88 1065.52C2099 1053.6 2105.14 1038.04 2101.15 1019.27C2096.45 997.085 2077.1 970.242 2046.69 943.706C2022.16 922.299 1993.09 903.61 1974.38 897.215C1952.27 889.658 1931.38 882.922 1911.17 876.402C1828.94 849.893 1757.91 826.994 1672.81 769.413C1559.04 692.446 1458.41 605.241 1373.69 510.22C1349.12 482.653 1326.85 450.127 1305.31 418.671C1268.65 365.131 1230.75 309.768 1179.1 274.427C1150.5 254.865 1118.47 240.057 1087.49 225.737C1060.27 213.159 1032.14 200.153 1006.26 183.92C927.079 134.256 846.506 73.229 759.93 -2.64965C710.039 -46.3721 663.274 -95.1562 618.046 -142.33C572.847 -189.475 526.112 -238.22 476.434 -281.707C451.438 -303.587 420.541 -321.32 387.832 -340.095C354.013 -359.506 319.541 -379.295 291.828 -404.162C270.306 -423.474 252.862 -445.851 242.946 -473.507V-473.507ZM305.99 -364.241C299.778 -369.816 293.813 -375.573 288.182 -381.559C260.512 -410.969 245.585 -441.423 242.543 -474.661L242.438 -475.818L242.827 -474.701C265.136 -410.844 327.579 -375.005 387.964 -340.344C420.689 -321.561 451.598 -303.821 476.619 -281.918C526.306 -238.432 573.047 -189.671 618.251 -142.522C663.474 -95.3522 710.235 -46.5732 760.115 -2.86088C846.678 73.0056 927.238 134.023 1006.4 183.677C1032.26 199.899 1060.39 212.901 1087.59 225.474C1118.59 239.8 1150.64 254.613 1179.25 274.192C1230.95 309.565 1268.88 364.954 1305.55 418.519C1327.08 449.967 1349.34 482.486 1373.91 510.036C1458.6 605.037 1559.22 692.225 1672.96 769.176C1711.94 795.547 1750.02 816.204 1792.8 834.17C1831.34 850.367 1870.14 862.875 1911.25 876.133C1931.45 882.642 1952.34 889.378 1974.45 896.935C1993.21 903.348 2022.31 922.059 2046.88 943.497C2077.34 970.085 2096.71 996.973 2101.44 1019.24C2105.47 1038.18 2099.23 1053.86 2082.91 1065.87L2082.75 1065.99L2082.68 1065.79C2069.66 1031.24 2051.65 1001.38 2027.62 974.523C2006.23 950.614 1980.52 929.642 1949.03 910.435C1890.53 874.754 1820.58 850.819 1752.92 827.663C1694.5 807.677 1634.08 786.998 1581.76 758.923C1554.43 744.263 1529.78 727.456 1506.39 707.549C1485.53 689.785 1466.13 669.925 1447.11 646.83C1411.73 603.888 1382.81 555.659 1354.85 509.019C1315.38 443.173 1274.56 375.085 1213.74 317.477C1176.98 282.658 1127.4 258.54 1079.45 235.217C1046.94 219.403 1013.32 203.052 984.353 183.609C885.007 116.932 791.289 37.3681 700.653 -39.5754L692.469 -46.5242C661.22 -73.0487 629.965 -100.555 599.739 -127.157C537.506 -181.927 473.153 -238.563 405.694 -289.38C395.264 -297.236 384.393 -304.915 372.882 -313.044C350.075 -329.153 326.667 -345.686 305.99 -364.241" fill="#CDF0FF"/>
<path d="M1187.74 323.351C1146.75 286.561 1089.96 258.976 1034.98 232.263C995.946 213.3 959.08 195.391 927.38 174.438C906.715 160.778 886.064 146.459 865.246 131.339C904.034 164.799 944.098 196.626 986.241 223.185C1014.54 241.016 1043.81 255.309 1072.12 269.131C1097.56 281.552 1123.87 294.393 1148.53 309.454C1176.11 326.296 1199.01 344.396 1218.55 364.789C1228.54 375.206 1237.92 386.124 1246.84 397.381C1231.34 371.823 1213.84 347.881 1192.49 327.718C1190.93 326.249 1189.35 324.79 1187.74 323.351V323.351ZM222.903 -455.986C235.531 -390.059 294.173 -353.118 350.893 -317.383C373.441 -303.179 394.738 -289.762 413.144 -274.675C465.418 -231.828 514.454 -182.32 561.875 -134.44C596.467 -99.5104 632.239 -63.392 668.912 -30.2341C737.286 31.5897 799.414 82.815 859.972 127.145C836.918 107.119 814.315 86.5806 791.982 66.2857C780.107 55.4954 767.836 44.3357 755.865 33.6162C755.308 33.1156 754.746 32.6119 754.187 32.1103C702.19 -14.5522 650.745 -63.4285 600.974 -110.717C555.836 -153.603 509.161 -197.95 462.246 -240.478C437.159 -263.214 408.64 -284.179 378.44 -306.376C318.798 -350.21 257.131 -395.535 222.903 -455.986V-455.986ZM1249.41 401.099C1263.4 424.607 1275.79 449.379 1287.99 473.76C1303.04 503.845 1318.61 534.954 1336.62 562.308C1361.25 599.726 1389.86 634.281 1421.64 665.017C1452.91 695.261 1488.34 722.857 1526.96 747.041C1624.68 808.241 1727.43 859.879 1824.08 896.361C1881.67 918.093 1920.06 938.972 1952.44 966.162C1984.5 993.076 2012.05 1027.4 2044.55 1080.92C2063.93 1069.75 2072.83 1056.3 2071.01 1040.94C2069.89 1031.53 2064.75 1021.34 2055.72 1010.64C2048 1001.49 2037.47 991.981 2024.4 982.352C2000.81 964.972 1974 950.917 1958.19 944.155C1953.72 942.246 1949.27 940.34 1944.86 938.455C1847.39 896.8 1763.23 860.836 1669.94 800.22C1642.76 782.561 1613.67 765.913 1585.55 749.822C1532.47 719.449 1477.59 688.044 1431.4 647.674C1430.24 646.661 1429.08 645.635 1427.94 644.609C1379.93 601.531 1345.87 547.331 1312.89 494.869C1293.08 463.362 1272.79 431.095 1249.41 401.099V401.099ZM1437.86 680.513C1432.27 675.493 1426.8 670.396 1421.44 665.218C1389.64 634.467 1361.02 599.89 1336.37 562.453C1318.35 535.084 1302.79 503.968 1287.73 473.875C1275.2 448.833 1262.47 423.384 1248.01 399.314C1238.67 387.44 1228.84 375.933 1218.35 364.982C1198.83 344.609 1175.94 326.527 1148.39 309.699C1123.74 294.647 1097.44 281.807 1072.01 269.39C1043.69 255.565 1014.41 241.269 986.097 223.428C943.02 196.28 902.107 163.622 862.522 129.357C801.098 84.5659 738.124 32.7139 668.724 -30.0249C632.044 -63.1899 596.269 -99.3103 561.672 -134.244C514.258 -182.118 465.229 -231.624 412.968 -274.456C394.576 -289.529 373.288 -302.942 350.749 -317.142C293.731 -353.063 234.77 -390.209 222.455 -456.796L222.301 -457.635L222.728 -456.875C256.831 -396.101 318.736 -350.603 378.603 -306.605C408.81 -284.404 437.35 -263.431 462.435 -240.686C509.354 -198.155 556.029 -153.807 601.168 -110.92C650.935 -63.6356 702.385 -14.7553 754.375 31.9011C755.484 32.8962 756.586 33.8834 757.697 34.8806C769.14 45.1496 780.839 55.7799 792.17 66.0776C815.318 87.113 838.769 108.422 862.696 129.135C884.429 144.982 905.972 159.949 927.531 174.2C959.212 195.141 996.068 213.046 1035.09 232.004C1092.25 259.773 1151.36 288.491 1192.68 327.514C1214.59 348.205 1232.45 372.863 1248.25 399.162C1272.23 429.67 1292.93 462.594 1313.13 494.729C1346.88 548.421 1381.79 603.944 1431.59 647.462C1477.75 687.811 1532.62 719.208 1585.68 749.568C1613.81 765.669 1642.9 782.314 1670.09 799.984C1763.36 860.582 1847.5 896.539 1944.95 938.188C1949.37 940.073 1953.82 941.979 1958.3 943.897C1974.11 950.655 2000.95 964.725 2024.56 982.124C2037.65 991.76 2048.21 1001.3 2055.94 1010.46C2065.01 1021.21 2070.17 1031.46 2071.3 1040.93C2073.14 1056.45 2064.15 1070.01 2044.58 1081.24L2044.46 1081.31L2044.39 1081.19C2011.87 1027.63 1984.32 993.298 1952.27 966.381C1919.91 939.211 1881.55 918.357 1824 896.635C1727.32 860.138 1624.56 808.504 1526.81 747.284C1494.79 727.228 1464.95 704.823 1437.86 680.513" fill="#CDF0FF"/>
<path d="M1019.32 251.523C906.086 178.669 804.355 97.8939 697.847 13.3253C686.924 4.6517 675.879 -4.11801 664.742 -12.9412C676.863 -2.39413 689.234 8.33902 701.879 19.2795L703.62 20.7861C747.573 58.8172 793.023 98.1454 839.187 134.162C890.797 174.43 938.507 206.724 985.045 232.891C996.25 239.19 1007.86 245.426 1019.32 251.523V251.523ZM1145.85 333.374C1159.62 345.73 1172.12 359.668 1183.87 375.643C1204.65 403.915 1220.38 434.924 1237.03 467.756C1248.23 489.824 1259.8 512.644 1273.47 535.654C1327.46 626.533 1390.89 692.537 1467.38 737.435C1483.85 747.1 1500.46 756.815 1516.53 766.207C1689.38 867.272 1852.65 962.736 2007.32 1098.19C2014.3 1091.55 2016.94 1083.41 2015.17 1073.99C2002.43 1006.43 1770.02 885.147 1658.32 826.86C1635.32 814.858 1617.15 805.379 1607.52 799.797C1591.99 790.805 1576.26 781.911 1561.07 773.316C1517.88 748.89 1477.1 725.817 1437.4 699.06C1392.47 668.768 1356.87 639.056 1325.38 605.553C1289.83 567.731 1271.31 524.698 1253.39 483.081C1238.55 448.59 1223.2 412.925 1198.23 380.434C1154.57 323.612 1090.64 289.689 1028.81 256.884C1027.63 256.26 1026.46 255.637 1025.28 255.011C1049.88 270.728 1075.05 286.076 1100.93 301.002C1117.44 310.529 1132.26 321.181 1145.85 333.374V333.374ZM207.995 -435.542C205.007 -424.786 205.481 -412.716 209.405 -399.662C213.117 -387.311 220.017 -373.746 229.911 -359.337C247.438 -333.817 275.114 -304.592 312.17 -272.472C379.866 -213.794 464.694 -157.091 526.632 -115.69C555.286 -96.5353 577.92 -81.4063 590.684 -71.4923C612.516 -54.5341 634.167 -37.494 655.487 -20.6274C573.899 -91.7215 503.615 -154.41 437.176 -215.313C415.416 -235.262 390.255 -254.601 363.619 -275.072C333.017 -298.593 301.374 -322.916 273.767 -349.268C242.688 -378.938 221.17 -407.161 207.995 -435.542V-435.542ZM300.85 -282.077C269.322 -310.371 245.411 -336.269 229.674 -359.186C219.76 -373.621 212.845 -387.217 209.125 -399.596C205.138 -412.858 204.698 -425.108 207.816 -436.01L207.921 -436.378L208.09 -436.013C221.232 -407.547 242.78 -379.238 273.961 -349.471C301.557 -323.13 333.193 -298.813 363.787 -275.297C390.429 -254.822 415.59 -235.483 437.367 -215.52C505.018 -153.504 576.669 -89.6273 660.17 -16.9217C672.919 -6.82699 685.545 3.19843 698.02 13.1037C805.426 98.3851 907.965 179.802 1022.34 253.132C1024.55 254.302 1026.74 255.469 1028.93 256.629C1090.79 289.45 1154.75 323.389 1198.46 380.27C1223.45 412.791 1238.81 448.476 1253.66 482.984C1271.56 524.575 1290.07 567.582 1325.59 605.362C1357.06 638.848 1392.64 668.546 1437.55 698.823C1477.24 725.574 1518.02 748.643 1561.19 773.063C1576.4 781.666 1592.11 790.55 1607.65 799.551C1617.28 805.126 1635.45 814.605 1658.45 826.607C1770.18 884.916 2002.69 1006.25 2015.45 1073.95C2017.25 1083.52 2014.56 1091.78 2007.44 1098.49L2007.34 1098.58L2007.24 1098.49C1852.56 963.002 1689.27 867.532 1516.39 766.455C1500.33 757.062 1483.71 747.348 1467.25 737.683C1427.47 714.333 1390.47 684.557 1357.28 649.184C1326.66 616.56 1299.17 579.468 1273.22 535.787C1259.55 512.768 1247.97 489.944 1236.77 467.87C1220.12 435.052 1204.4 404.053 1183.63 375.802C1160.33 344.099 1134.01 320.409 1100.79 301.251C1073.88 285.725 1047.75 269.758 1022.21 253.38C1009.77 246.774 997.108 239.995 984.915 233.14C938.363 206.966 890.64 174.665 839.016 134.386C792.846 98.3633 747.393 59.0335 703.435 20.9984L701.696 19.4928C687.459 7.17509 673.564 -4.88467 659.989 -16.7064C637.161 -34.7788 613.944 -53.0684 590.513 -71.2679C577.759 -81.1751 555.129 -96.3011 526.481 -115.451C464.536 -156.859 379.699 -213.568 311.987 -272.26C308.176 -275.563 304.462 -278.836 300.85 -282.077Z" fill="#CDF0FF"/>
<path d="M1109.53 333.648C1070.73 298.823 1022.66 270.481 975.798 242.852C943.99 224.096 913.946 206.382 886.768 186.859C848.966 159.707 811.567 130.802 775.399 102.848C754.383 86.6043 733.025 70.0969 711.367 53.7611C719.634 60.6136 727.859 67.4585 735.92 74.1668C804.391 131.151 875.193 190.078 953.781 237.105C966.102 244.479 978.366 251.588 990.228 258.465C1026.73 279.626 1061.21 299.615 1092.29 324.168C1127.1 351.666 1152.97 381.202 1173.7 417.118C1177.06 422.947 1180.36 428.781 1183.6 434.606C1172.28 411.171 1159.3 388.645 1143 368.522C1132.97 356.142 1121.71 344.574 1109.53 333.648ZM193.398 -416.6C197.31 -398.859 203.768 -380.707 212.598 -362.636C221.01 -345.423 231.821 -327.776 244.732 -310.187C268.193 -278.224 298.447 -246.194 337.219 -212.271C408.023 -150.321 494.32 -94.2032 563.662 -49.1116C590.827 -31.4468 616.485 -14.762 638.335 0.358557C659.782 15.1999 680.989 30.6467 701.917 46.3103C699.497 44.3123 697.077 42.3179 694.661 40.3311C666.093 16.8349 636.329 -7.20654 607.546 -30.4574C460.639 -149.128 308.739 -271.83 193.398 -416.6ZM1187.7 442.616C1196.33 461.212 1204.04 480.271 1211.65 499.059C1226.76 536.413 1242.39 575.037 1264.68 608.962C1319.69 692.722 1392.04 757.876 1473.9 797.378C1507.51 813.594 1540.33 825.123 1572.07 836.262C1622.53 853.982 1670.2 870.728 1719.44 904.506C1731.57 912.826 1744.11 921.269 1756.23 929.42C1835.76 982.941 1918.01 1038.29 1972.9 1117.61C1977.92 1107.94 1980.85 1098.5 1981.65 1089.59C1982.38 1081.23 1981.25 1073.06 1978.27 1065.31C1964.55 1029.57 1914.05 1006.76 1873.47 988.436C1861.43 982.995 1850.05 977.853 1840.83 972.915C1799.56 950.797 1760.5 923.821 1722.73 897.741C1679.35 867.793 1634.49 836.821 1586.16 813.124C1573.99 807.162 1561.77 801.281 1549.96 795.6C1476.41 760.205 1406.4 726.51 1344.13 670.637C1334.81 662.269 1325.66 653.411 1316.7 643.968C1268.25 592.926 1238.49 537.271 1206.99 478.349C1200.72 466.62 1194.32 454.658 1187.7 442.616V442.616ZM1359.72 720.589C1324.23 688.742 1292.14 651.284 1264.43 609.107C1242.13 575.157 1226.5 536.519 1211.38 499.151C1203.24 479.048 1194.98 458.646 1185.61 438.823C1181.65 431.643 1177.6 424.44 1173.45 417.249C1152.74 381.369 1126.89 351.862 1092.12 324.391C1061.06 299.852 1026.59 279.87 990.094 258.713C978.231 251.837 965.966 244.726 953.643 237.351C875.034 190.311 804.222 131.377 735.741 74.3841C726.162 66.4113 716.35 58.2466 706.512 50.1068C684.043 33.2257 661.25 16.5588 638.179 0.593079C616.333 -14.5246 590.677 -31.2091 563.514 -48.8724C494.165 -93.9696 407.857 -150.095 337.034 -212.059C298.243 -245.996 267.974 -278.044 244.498 -310.027C231.577 -327.631 220.756 -345.294 212.337 -362.526C203.398 -380.819 196.887 -399.197 192.983 -417.146L192.855 -417.733L193.238 -417.251C251.442 -344.122 319.003 -276.606 390.533 -212.415C460.782 -149.373 534.857 -89.536 607.721 -30.6773C636.505 -7.42628 666.268 16.6168 694.838 40.1117C698.782 43.3547 702.735 46.6172 706.682 49.8837C730.006 67.4081 752.983 85.1668 775.569 102.623C811.733 130.575 849.13 159.478 886.927 186.628C914.094 206.142 944.131 223.853 975.935 242.604C1037.52 278.917 1101.2 316.467 1143.22 368.35C1160.52 389.702 1174.08 413.744 1185.88 438.709C1193.24 452.027 1200.32 465.272 1207.24 478.227C1238.74 537.131 1268.49 592.767 1316.91 643.777C1385.68 716.232 1465.53 754.658 1550.07 795.339C1561.88 801.019 1574.1 806.901 1586.27 812.863C1634.62 836.566 1679.49 867.547 1722.89 897.513C1760.65 923.585 1799.7 950.55 1840.95 972.652C1850.16 977.593 1861.54 982.734 1873.57 988.168C1914.21 1006.52 1964.78 1029.36 1978.54 1065.22C1981.53 1073.01 1982.68 1081.23 1981.94 1089.64C1981.14 1098.66 1978.15 1108.18 1973.06 1117.98L1972.95 1118.18L1972.81 1117.97C1917.94 1038.59 1835.66 983.214 1756.08 929.657C1743.96 921.506 1731.42 913.063 1719.29 904.744C1670.08 870.982 1622.43 854.251 1572 836.544C1540.24 825.388 1507.41 813.861 1473.79 797.638C1433.1 778.003 1394.75 752.029 1359.72 720.589Z" fill="#CDF0FF"/>
<path d="M1044.53 331.558C1053.31 339.436 1061.15 347.486 1068.28 355.93C1079.68 369.44 1089.01 383.63 1096.78 399.308C1111.49 428.942 1121.33 458.574 1130.84 487.233C1144.01 526.88 1157.62 567.879 1184.17 607.964C1210.59 647.846 1242.57 685.16 1279.24 718.867C1316.53 753.141 1356.59 781.759 1398.3 803.917C1441.4 826.816 1486.86 839.314 1530.81 851.4C1582.8 865.696 1636.57 880.483 1686.43 912.57C1756.24 957.495 1816.54 1016.58 1874.84 1073.72C1896.37 1094.82 1918.63 1116.63 1941.02 1137.39C1953.81 1099.15 1930.94 1060.04 1889.08 1022.48C1804.82 946.868 1643.57 877.373 1541.2 833.254C1509.15 819.444 1483.84 808.535 1467.55 800.364C1414.86 773.941 1369.55 746.714 1329.03 717.127C1283.02 683.531 1243.18 646.507 1210.61 607.087C1168.63 556.28 1160.12 515.389 1151.11 472.097C1145.24 443.874 1139.17 414.69 1123.66 380.608C1111.71 354.356 1089.67 330.256 1056.26 306.933C1026.75 286.326 992.315 268.876 959.021 252.001C930.333 237.461 903.236 223.729 880.562 208.733C806.457 159.722 730.969 102.512 642.996 28.6887C578.072 -25.7937 514.45 -80.9996 452.441 -136.647C356.367 -222.862 264.118 -310.181 176.645 -397.724C194.243 -356.315 216.414 -318.015 244.412 -280.664C269.489 -247.212 298.699 -215.293 333.714 -183.085C398.756 -123.247 474.473 -71.5431 547.692 -21.5353C580.118 0.61029 613.647 23.5101 645.791 46.803C680.838 72.1991 715.683 99.5113 749.381 125.924C794.24 161.086 840.627 197.445 888.126 229.786C907.97 243.298 928.87 255.43 949.082 267.163C978.937 284.493 1007.14 300.862 1032.71 321.509C1036.84 324.838 1040.77 328.183 1044.53 331.558V331.558ZM1284.66 724.169C1282.78 722.483 1280.92 720.788 1279.05 719.074C1242.36 685.349 1210.36 648.015 1183.93 608.112C1157.36 567.991 1143.74 526.973 1130.56 487.304C1121.05 458.657 1111.21 429.034 1096.52 399.421C1088.75 383.766 1079.44 369.598 1068.06 356.106C1057.89 344.06 1046.27 332.814 1032.54 321.729C1006.98 301.099 978.792 284.736 948.949 267.412C928.731 255.676 907.826 243.541 887.972 230.022C840.464 197.674 794.073 161.312 749.21 126.147C715.515 99.7365 680.672 72.4267 645.631 47.0342C613.489 23.7425 579.963 0.844372 547.538 -21.3003C474.309 -71.3142 398.587 -123.03 333.523 -182.879C298.494 -215.1 269.271 -247.033 244.182 -280.503C216.018 -318.074 193.746 -356.603 176.096 -398.291L175.815 -398.953L176.331 -398.437C320.398 -254.218 477.467 -110.585 643.176 28.4724C731.139 102.288 806.618 159.491 880.712 208.494C903.37 223.479 930.459 237.209 959.139 251.744C992.444 268.623 1026.88 286.077 1056.42 306.699C1089.87 330.057 1111.95 354.198 1123.92 380.505C1139.45 414.618 1145.52 443.82 1151.4 472.059C1160.4 515.312 1168.9 556.166 1210.83 606.912C1243.38 646.311 1283.21 683.316 1329.2 716.897C1369.7 746.474 1414.99 773.69 1467.66 800.106C1483.95 808.274 1509.25 819.179 1541.29 832.987C1643.67 877.106 1804.92 946.599 1889.25 1022.28C1931.31 1060.02 1954.22 1099.26 1941.23 1137.7L1941.15 1137.89L1940.99 1137.74C1918.55 1116.95 1896.23 1095.07 1874.64 1073.92C1816.35 1016.79 1756.06 957.715 1686.28 912.806C1636.46 880.745 1582.72 865.969 1530.76 851.686C1486.78 839.589 1441.31 827.086 1398.18 804.173C1358.53 783.108 1320.37 756.211 1284.66 724.169" fill="#CDF0FF"/>
<path d="M1013.88 329.198C1021.22 335.788 1027.49 342.582 1032.2 349.584C1044.95 368.565 1045.06 386.838 1045.17 406.184C1045.24 417.429 1045.31 429.058 1047.93 441.262C1056.1 479.357 1071.21 518.112 1092.86 556.455C1113.25 592.573 1139.11 627.812 1169.73 661.195C1228.48 725.242 1301.68 778.961 1375.84 812.452C1411.2 828.417 1448.66 840.407 1484.89 852.002C1542.01 870.28 1601.07 889.184 1652.99 924.078C1706.33 959.929 1753.9 1007.3 1799.9 1053.12C1835.45 1088.52 1872.22 1125.13 1911.35 1156.12L1911.4 1155.95C1911.6 1151.69 1868.61 1106.94 1801.89 1041.95C1749.34 990.761 1685.66 930.774 1671.14 920.425C1617.83 882.432 1562.29 864.478 1503.47 845.459C1470.8 834.896 1437.02 823.974 1403.49 809.279C1310.6 768.56 1234.95 716.508 1178.63 654.568C1116.2 585.893 1078.31 505.645 1066.04 416.054C1060.97 379.07 1046.33 350.109 1019.96 324.91C996.361 302.345 965.999 285.339 933.858 267.331C913.095 255.699 891.625 243.67 870.566 229.388C785.808 171.913 706.134 109.439 612.58 33.318C541.662 -24.3843 458.301 -93.084 377.706 -165.123C294.181 -239.79 222.433 -310.115 158.372 -380.133C160.476 -337.392 178.086 -297.696 212.198 -258.794C242.266 -224.504 280.392 -195.716 317.263 -167.876C323.586 -163.102 330.124 -158.164 336.39 -153.368C428.582 -82.7992 522.132 -13.0611 614.443 53.9063C707.234 121.224 802.861 188.713 898.667 254.499C909.585 261.995 923.409 270.044 938.045 278.567C964.391 293.906 993.327 310.754 1013.88 329.198ZM1215.32 706.643C1199.31 692.28 1183.98 677.144 1169.52 661.382C1138.89 627.981 1113.01 592.723 1092.61 556.583C1070.94 518.212 1055.82 479.426 1047.64 441.302C1045.02 429.068 1044.95 417.424 1044.88 406.164C1044.76 386.865 1044.65 368.635 1031.96 349.732C1014.13 323.199 973.639 299.618 937.911 278.815C923.27 270.289 909.441 262.237 898.512 254.733C802.704 188.946 707.076 121.457 614.281 54.1366C521.968 -12.8329 428.417 -82.5723 336.222 -153.143C329.957 -157.938 323.419 -162.876 317.096 -167.649C280.212 -195.499 242.073 -224.298 211.984 -258.612C177.719 -297.688 160.081 -337.567 158.059 -380.526L158.041 -380.91L158.311 -380.615C220.906 -312.176 290.857 -243.427 371.953 -170.651C373.931 -168.877 375.903 -167.111 377.894 -165.332C458.483 -93.298 541.841 -24.6016 612.756 33.0987C706.304 109.214 785.972 171.683 870.719 229.152C891.766 243.426 913.229 255.452 933.987 267.08C966.146 285.097 996.523 302.117 1020.16 324.708C1046.58 349.959 1061.25 378.979 1066.33 416.036C1078.59 505.563 1116.45 585.755 1178.84 654.382C1235.13 716.287 1310.74 768.313 1403.59 809.014C1437.1 823.702 1470.88 834.621 1503.54 845.18C1562.37 864.201 1617.96 882.177 1671.3 920.197C1677.88 924.884 1694.96 940.04 1720.67 964.004C1744.51 986.214 1773.42 1013.83 1802.09 1041.75C1855.24 1093.53 1911.94 1150.72 1911.69 1155.99C1911.69 1156.26 1911.54 1156.38 1911.42 1156.43L1911.34 1156.47L1911.27 1156.41C1872.09 1125.4 1835.29 1088.75 1799.71 1053.32C1753.71 1007.51 1706.15 960.149 1652.84 924.315C1600.96 889.447 1541.92 870.555 1484.82 852.278C1448.58 840.682 1411.11 828.689 1375.74 812.715C1319.79 787.45 1264.39 750.677 1215.32 706.643Z" fill="#CDF0FF"/>
<path d="M1515 848.309C1501.84 840.907 1487.56 835.168 1471.96 831.541C1464.36 829.766 1456.91 828.183 1449.59 826.746C1468.73 832.53 1488.24 838.695 1508.08 845.681C1510.27 846.453 1512.58 847.327 1515 848.309ZM1548.82 872.443C1590.28 909.65 1619.11 963.997 1645.61 1013.97C1651.49 1025.05 1657.05 1035.53 1662.71 1045.79C1675.08 1026.99 1676.89 1005.69 1668.07 982.478C1654.94 947.892 1621.61 916.902 1595.98 897.001C1571.25 877.806 1542.25 860.308 1518.9 850.242C1529.59 856.622 1539.52 864.1 1548.82 872.443V872.443ZM301.545 -37.5711C335.892 -3.19366 366.666 25.6825 396.564 51.6465C445.239 93.9151 491.343 128.196 537.511 156.446C545.903 161.581 554.569 166.285 563.427 170.656C487.823 117.979 415.881 57.8755 346.073 -0.441804C335.051 -9.64948 323.654 -19.1713 312.45 -28.4892C308.824 -31.5047 305.187 -34.5343 301.545 -37.5711V-37.5711ZM791.32 310.943C792.577 312.071 793.818 313.206 795.054 314.356C837.669 354.004 868.282 405.238 897.889 454.785C915.803 484.767 934.328 515.77 955.222 543.639C985.352 583.829 1020.82 622.607 1060.64 658.893C1100.04 694.794 1141.93 726.656 1185.17 753.607C1217.53 773.786 1249.24 787.764 1284.95 797.598C1316.76 806.359 1347.66 810.719 1380.37 815.33C1400.92 818.233 1421.95 821.2 1444.11 825.393C1434.32 822.453 1424.64 819.617 1415.04 816.795C1343.98 795.937 1276.85 776.229 1207.06 731.839C1111.15 670.824 1021.41 588.239 940.349 486.378C919.872 460.646 901.762 430.169 884.251 400.697C858.068 356.63 831.008 311.089 794.737 278.54C794.081 277.951 793.423 277.368 792.76 276.787C774.595 260.87 752.551 247.04 725.367 234.506C701.101 223.316 674.988 214.132 649.735 205.252C621.939 195.475 593.451 185.455 566.598 172.516C573.892 177.573 581.224 182.561 588.588 187.47C614.313 204.616 642.563 219.469 669.884 233.832C712.061 256.009 755.632 278.916 791.32 310.943V310.943ZM-190.635 -493.71C-193.676 -455.283 -179.732 -420.468 -148.028 -387.297C-120.056 -358.03 -83.1283 -334.525 -47.418 -311.794C-31.0101 -301.35 -15.5122 -291.486 -1.65567 -281.519C86.8049 -217.891 172.234 -146.275 254.848 -77.0161C268.685 -65.416 282.867 -53.5282 297.017 -41.715C288.043 -50.7397 278.816 -60.1454 269.299 -69.9677C242.36 -97.7709 215.991 -128.88 190.489 -158.966C140.273 -218.208 88.3488 -279.465 26.4233 -323.202C2.44122 -340.141 -25.1853 -352.847 -51.901 -365.134C-81.4365 -378.719 -111.977 -392.766 -136.757 -412.348C-150.087 -422.881 -160.791 -434.166 -169.481 -446.846C-179.067 -460.834 -185.991 -476.173 -190.635 -493.71V-493.71ZM-133.702 -373.067C-138.758 -377.604 -143.617 -382.276 -148.233 -387.105C-180.234 -420.586 -194.177 -455.746 -190.858 -494.595L-190.787 -495.432L-190.57 -494.599C-185.937 -476.748 -178.96 -461.176 -169.241 -446.997C-160.571 -434.344 -149.89 -423.082 -136.585 -412.57C-111.837 -393.012 -81.3135 -378.973 -51.7944 -365.398C-25.0649 -353.103 2.57505 -340.391 26.5819 -323.436C88.5397 -279.675 140.479 -218.401 190.708 -159.144C216.206 -129.063 242.572 -97.9558 269.504 -70.1597C279.78 -59.5538 289.715 -49.4367 299.365 -39.7557C303.795 -36.0594 308.219 -32.3723 312.628 -28.7065C323.832 -19.3886 335.23 -9.86678 346.252 -0.659105C416.516 58.041 488.954 118.555 565.096 171.474C592.406 184.787 621.469 195.008 649.815 204.977C675.074 213.861 701.193 223.047 725.474 234.243C752.686 246.791 774.757 260.638 792.946 276.575C830.268 309.262 857.832 355.678 884.501 400.563C902.008 430.027 920.11 460.493 940.574 486.208C1021.61 588.041 1111.32 670.602 1207.2 731.592C1276.96 775.967 1344.06 795.663 1415.11 816.518C1425.57 819.595 1436.14 822.69 1446.84 825.913C1455.06 827.499 1463.44 829.265 1472.01 831.259C1488.4 835.072 1503.34 841.21 1517.05 849.155C1564.23 868.922 1646.38 924.557 1668.35 982.396C1677.22 1005.77 1675.36 1027.22 1662.83 1046.16L1662.7 1046.35L1662.58 1046.14C1656.87 1035.8 1651.27 1025.25 1645.36 1014.09C1612.58 952.297 1576.25 883.8 1516.9 849.391C1513.82 848.105 1510.84 846.954 1508 845.952C1487.22 838.634 1466.81 832.224 1446.79 826.196C1423.64 821.727 1401.73 818.639 1380.35 815.621C1347.63 811.004 1316.73 806.648 1284.9 797.883C1249.16 788.04 1217.42 774.048 1185.03 753.854C1141.78 726.889 1099.86 695.021 1060.45 659.1C1020.62 622.801 985.134 584.009 954.991 543.802C934.087 515.918 915.558 484.909 897.639 454.92C868.044 405.392 837.443 354.176 794.863 314.56C758.539 280.768 713.406 257.034 669.762 234.088C642.434 219.719 614.177 204.863 588.437 187.709C580.57 182.465 572.75 177.136 564.961 171.723C555.522 167.122 546.291 162.149 537.371 156.69C491.188 128.431 445.07 94.1405 396.38 51.8588C365.846 25.345 334.404 -4.20614 299.175 -39.5486C284.249 -52.0029 269.267 -64.5614 254.668 -76.7998C172.058 -146.055 86.6348 -217.668 -1.8165 -281.287C-15.6651 -291.249 -31.1588 -301.112 -47.5635 -311.553C-77.3997 -330.545 -108.085 -350.078 -133.702 -373.067" fill="#CDF0FF"/>
<path d="M-210.356 -473.507C-207.083 -440.792 -192.209 -410.764 -164.912 -381.749C-140.568 -355.872 -109.91 -334.218 -80.2624 -313.277C-68.7497 -305.145 -57.8755 -297.466 -47.4422 -289.606C20.0276 -238.782 84.3844 -182.142 146.622 -127.368C176.848 -100.767 208.103 -73.2609 239.348 -46.7394L247.534 -39.7919C338.16 37.1477 431.873 116.706 531.204 183.372C560.154 202.801 593.761 219.148 626.261 234.958C674.232 258.292 723.84 282.423 760.633 317.274C821.481 374.913 862.313 443.02 901.8 508.885C929.756 555.515 958.662 603.734 994.027 646.657C1013.04 669.737 1032.42 689.583 1053.27 707.333C1076.64 727.227 1101.28 744.02 1128.58 758.67C1180.89 786.74 1241.28 807.402 1299.7 827.392C1367.36 850.543 1437.34 874.493 1495.86 910.189C1527.38 929.413 1553.12 950.402 1574.54 974.345C1598.55 1001.18 1616.55 1031 1629.58 1065.52C1645.69 1053.6 1651.84 1038.04 1647.85 1019.27C1643.14 997.086 1623.8 970.242 1593.39 943.706C1568.86 922.299 1539.79 903.61 1521.08 897.215C1498.97 889.659 1478.08 882.922 1457.87 876.402C1375.64 849.893 1304.61 826.994 1219.51 769.413C1105.74 692.446 1005.11 605.241 920.391 510.22C895.815 482.653 873.545 450.127 852.008 418.671C815.352 365.131 777.446 309.768 725.797 274.427C697.203 254.865 665.167 240.057 634.184 225.737C606.972 213.159 578.835 200.153 552.954 183.92C473.777 134.256 393.204 73.229 306.628 -2.64959C256.737 -46.3721 209.972 -95.1561 164.745 -142.33C119.545 -189.475 72.8107 -238.22 23.1323 -281.707C-1.86371 -303.587 -32.7603 -321.32 -65.4701 -340.095C-99.289 -359.506 -133.761 -379.295 -161.474 -404.162C-182.996 -423.474 -200.44 -445.851 -210.356 -473.507V-473.507ZM-147.311 -364.241C-153.524 -369.816 -159.489 -375.573 -165.119 -381.559C-192.789 -410.969 -207.717 -441.423 -210.759 -474.661L-210.864 -475.818L-210.474 -474.701C-188.166 -410.844 -125.723 -375.005 -65.3377 -340.344C-32.6127 -321.561 -1.70336 -303.82 23.3174 -281.918C73.0043 -238.432 119.745 -189.671 164.949 -142.522C210.172 -95.3521 256.934 -46.5732 306.813 -2.86082C393.376 73.0057 473.936 134.023 553.099 183.678C578.961 199.899 607.09 212.902 634.292 225.474C665.286 239.8 697.335 254.613 725.952 274.193C777.65 309.565 815.574 364.954 852.248 418.519C873.779 449.967 896.043 482.486 920.605 510.036C1005.3 605.037 1105.92 692.225 1219.66 769.176C1258.63 795.547 1296.72 816.204 1339.49 834.17C1378.04 850.367 1416.84 862.875 1457.94 876.133C1478.14 882.642 1499.04 889.378 1521.15 896.935C1539.91 903.348 1569.01 922.059 1593.58 943.497C1624.04 970.085 1643.41 996.973 1648.14 1019.24C1652.16 1038.18 1645.92 1053.86 1629.61 1065.87L1629.45 1065.99L1629.38 1065.79C1616.36 1031.24 1598.35 1001.38 1574.32 974.523C1552.93 950.614 1527.21 929.642 1495.72 910.435C1437.23 874.754 1367.28 850.819 1299.62 827.663C1241.2 807.677 1180.78 786.998 1128.46 758.924C1101.13 744.263 1076.48 727.456 1053.09 707.549C1032.23 689.785 1012.83 669.925 993.804 646.83C958.426 603.888 929.512 555.66 901.549 509.019C862.074 443.173 821.255 375.085 760.438 317.477C723.679 282.658 674.099 258.54 626.149 235.217C593.638 219.403 560.021 203.052 531.051 183.609C431.705 116.932 337.987 37.3682 247.352 -39.5753L239.167 -46.5241C207.918 -73.0486 176.663 -100.555 146.437 -127.157C84.2038 -181.927 19.8516 -238.563 -47.6081 -289.38C-58.0378 -297.236 -68.9092 -304.915 -80.4193 -313.044C-103.227 -329.153 -126.635 -345.686 -147.311 -364.241" fill="#CDF0FF"/>
<path d="M734.441 323.351C693.445 286.561 636.663 258.976 581.676 232.263C542.644 213.3 505.778 195.391 474.078 174.438C453.413 160.778 432.762 146.459 411.944 131.339C450.732 164.799 490.797 196.626 532.94 223.185C561.235 241.016 590.509 255.309 618.82 269.131C644.259 281.552 670.565 294.393 695.227 309.454C722.805 326.296 745.71 344.396 765.252 364.789C775.233 375.206 784.616 386.124 793.541 397.381C778.042 371.823 760.535 347.881 739.185 327.718C737.63 326.249 736.044 324.79 734.441 323.351V323.351ZM-230.399 -455.986C-217.771 -390.059 -159.129 -353.118 -102.409 -317.383C-79.8612 -303.179 -58.5635 -289.762 -40.1574 -274.675C12.1165 -231.828 61.1523 -182.32 108.573 -134.44C143.166 -99.5104 178.937 -63.392 215.61 -30.2341C283.984 31.5897 346.112 82.815 406.67 127.145C383.616 107.119 361.013 86.5806 338.68 66.2857C326.805 55.4954 314.534 44.3357 302.564 33.6162C302.006 33.1156 301.445 32.6119 300.886 32.1103C248.888 -14.5522 197.443 -63.4285 147.672 -110.717C102.534 -153.603 55.8597 -197.95 8.94473 -240.478C-16.1423 -263.214 -44.662 -284.179 -74.8617 -306.376C-134.504 -350.21 -196.171 -395.535 -230.399 -455.986V-455.986ZM796.105 401.099C810.096 424.607 822.491 449.379 834.689 473.76C849.74 503.845 865.305 534.954 883.313 562.308C907.95 599.726 936.555 634.281 968.335 665.017C999.605 695.261 1035.04 722.857 1073.66 747.041C1171.38 808.241 1274.12 859.879 1370.78 896.361C1428.37 918.093 1466.76 938.972 1499.14 966.162C1531.2 993.076 1558.75 1027.4 1591.25 1080.92C1610.62 1069.75 1619.52 1056.3 1617.71 1040.94C1616.58 1031.53 1611.45 1021.34 1602.42 1010.64C1594.7 1001.49 1584.17 991.981 1571.1 982.352C1547.51 964.972 1520.7 950.917 1504.89 944.155C1500.42 942.246 1495.97 940.34 1491.55 938.455C1394.09 896.8 1309.93 860.836 1216.64 800.22C1189.46 782.561 1160.37 765.913 1132.25 749.822C1079.17 719.449 1024.29 688.044 978.101 647.674C976.941 646.661 975.782 645.635 974.639 644.609C926.632 601.531 892.564 547.331 859.584 494.869C839.777 463.362 819.492 431.095 796.105 401.099V401.099ZM984.558 680.513C978.964 675.493 973.493 670.396 968.138 665.218C936.342 634.467 907.721 599.89 883.071 562.453C865.052 535.084 849.484 503.968 834.428 473.875C821.899 448.833 809.167 423.384 794.708 399.314C785.373 387.44 775.541 375.933 765.046 364.982C745.526 344.609 722.641 326.527 695.087 309.699C670.438 294.647 644.14 281.807 618.707 269.39C590.389 255.565 561.106 241.269 532.795 223.428C489.718 196.28 448.805 163.622 409.22 129.357C347.796 84.5659 284.823 32.7139 215.422 -30.0249C178.742 -63.1899 142.968 -99.3103 108.371 -134.244C60.9567 -182.118 11.9275 -231.624 -40.3341 -274.456C-58.7253 -289.529 -80.0137 -302.942 -102.552 -317.142C-159.571 -353.063 -218.531 -390.209 -230.846 -456.796L-231.001 -457.635L-230.574 -456.875C-196.471 -396.101 -134.566 -350.603 -74.6985 -306.605C-44.4915 -284.404 -15.9518 -263.431 9.13335 -240.686C56.0518 -198.155 102.727 -153.807 147.866 -110.92C197.633 -63.6356 249.083 -14.7553 301.073 31.9011C302.182 32.8962 303.284 33.8834 304.395 34.8806C315.838 45.1496 327.537 55.7799 338.869 66.0776C362.016 87.113 385.468 108.422 409.395 129.135C431.127 144.982 452.67 159.949 474.229 174.2C505.911 195.141 542.767 213.046 581.788 232.004C638.948 259.773 698.061 288.491 739.378 327.514C761.288 348.205 779.148 372.863 794.946 399.162C818.93 429.67 839.628 462.594 859.829 494.729C893.582 548.421 928.487 603.944 978.284 647.462C1024.45 687.811 1079.32 719.208 1132.37 749.568C1160.51 765.669 1189.6 782.314 1216.79 799.984C1310.05 860.582 1394.2 896.539 1491.65 938.188C1496.06 940.073 1500.52 941.979 1505 943.897C1520.81 950.655 1547.65 964.725 1571.26 982.124C1584.34 991.76 1594.91 1001.3 1602.64 1010.46C1611.7 1021.21 1616.87 1031.46 1618 1040.93C1619.84 1056.45 1610.85 1070.01 1591.28 1081.24L1591.16 1081.31L1591.09 1081.19C1558.57 1027.63 1531.02 993.298 1498.96 966.381C1466.6 939.211 1428.25 918.357 1370.7 896.635C1274.01 860.138 1171.26 808.504 1073.51 747.284C1041.49 727.228 1011.65 704.823 984.558 680.513" fill="#CDF0FF"/>
<path d="M566.013 251.523C452.785 178.669 351.054 97.8939 244.546 13.3253C233.622 4.6517 222.577 -4.11801 211.44 -12.9412C223.561 -2.39413 235.932 8.33902 248.577 19.2795L250.318 20.7861C294.271 58.8172 339.722 98.1454 385.885 134.162C437.495 174.43 485.206 206.724 531.743 232.891C542.948 239.19 554.555 245.426 566.013 251.523V251.523ZM692.55 333.374C706.318 345.73 718.822 359.668 730.564 375.643C751.344 403.915 767.075 434.924 783.728 467.756C794.923 489.824 806.499 512.644 820.169 535.654C874.156 626.533 937.585 692.537 1014.08 737.435C1030.54 747.1 1047.16 756.815 1063.22 766.207C1236.08 867.272 1399.35 962.736 1554.02 1098.19C1561 1091.55 1563.64 1083.41 1561.86 1073.99C1549.13 1006.43 1316.72 885.147 1205.02 826.86C1182.02 814.858 1163.85 805.379 1154.21 799.797C1138.68 790.805 1122.96 781.911 1107.77 773.316C1064.58 748.89 1023.8 725.817 984.101 699.06C939.165 668.768 903.569 639.056 872.079 605.553C836.528 567.731 818.004 524.698 800.092 483.081C785.247 448.59 769.896 412.925 744.929 380.434C701.266 323.612 637.334 289.689 575.505 256.884C574.331 256.26 573.155 255.637 571.975 255.011C596.58 270.728 621.749 286.076 647.624 301.002C664.142 310.529 678.962 321.181 692.55 333.374V333.374ZM-245.307 -435.542C-248.295 -424.786 -247.821 -412.716 -243.896 -399.662C-240.185 -387.311 -233.285 -373.746 -223.39 -359.337C-205.864 -333.817 -178.188 -304.592 -141.131 -272.472C-73.4355 -213.794 11.3918 -157.091 73.3302 -115.69C101.985 -96.5353 124.618 -81.4063 137.382 -71.4923C159.215 -54.5341 180.865 -37.494 202.186 -20.6274C120.598 -91.7215 50.3129 -154.41 -16.1257 -215.313C-37.8861 -235.262 -63.047 -254.601 -89.6828 -275.072C-120.285 -298.593 -151.928 -322.916 -179.535 -349.268C-210.614 -378.938 -232.131 -407.161 -245.307 -435.542V-435.542ZM-152.451 -282.077C-183.98 -310.371 -207.891 -336.269 -223.628 -359.186C-233.542 -373.621 -240.456 -387.217 -244.177 -399.596C-248.163 -412.858 -248.604 -425.108 -245.486 -436.01L-245.381 -436.378L-245.212 -436.013C-232.069 -407.547 -210.522 -379.238 -179.34 -349.471C-151.744 -323.13 -120.109 -298.813 -89.5144 -275.297C-62.8724 -254.822 -37.7115 -235.483 -15.9352 -215.52C51.7164 -153.504 123.367 -89.6273 206.868 -16.9217C219.617 -6.82699 232.243 3.19843 244.718 13.1037C352.125 98.3851 454.663 179.802 569.039 253.132C571.244 254.302 573.443 255.469 575.628 256.629C637.487 289.45 701.452 323.389 745.158 380.27C770.148 412.791 785.507 448.476 800.36 482.984C818.263 524.575 836.773 567.582 872.286 605.362C903.76 638.848 939.339 668.546 984.253 698.823C1023.94 725.574 1064.72 748.643 1107.89 773.063C1123.1 781.666 1138.81 790.55 1154.35 799.551C1163.98 805.126 1182.14 814.605 1205.15 826.607C1316.88 884.916 1549.39 1006.25 1562.15 1073.95C1563.95 1083.52 1561.26 1091.78 1554.13 1098.49L1554.04 1098.58L1553.94 1098.49C1399.25 963.002 1235.97 867.532 1063.09 766.455C1047.02 757.062 1030.41 747.348 1013.94 737.683C974.164 714.333 937.165 684.557 903.973 649.184C873.363 616.56 845.868 579.468 819.92 535.787C806.245 512.768 794.665 489.944 783.468 467.87C766.82 435.052 751.095 404.053 730.332 375.802C707.03 344.099 680.707 320.409 647.491 301.251C620.576 285.725 594.453 269.758 568.906 253.38C556.471 246.774 543.806 239.995 531.613 233.14C485.061 206.966 437.338 174.665 385.715 134.386C339.544 98.3633 294.091 59.0335 250.134 20.9984L248.394 19.4928C234.157 7.17509 220.262 -4.88467 206.687 -16.7064C183.859 -34.7788 160.642 -53.0684 137.212 -71.2679C124.457 -81.1751 101.827 -96.3011 73.1793 -115.451C11.2344 -156.859 -73.6026 -213.568 -141.315 -272.26C-145.126 -275.563 -148.839 -278.836 -152.451 -282.077Z" fill="#CDF0FF"/>
<path d="M656.231 333.648C617.424 298.823 569.355 270.481 522.497 242.852C490.688 224.096 460.644 206.382 433.466 186.859C395.664 159.707 358.265 130.802 322.097 102.848C301.081 86.6043 279.723 70.097 258.065 53.7612C266.332 60.6136 274.557 67.4585 282.618 74.1669C351.089 131.151 421.892 190.078 500.479 237.105C512.8 244.479 525.065 251.588 536.926 258.465C573.429 279.626 607.91 299.615 638.991 324.168C673.799 351.666 699.666 381.202 720.397 417.118C723.76 422.947 727.057 428.781 730.298 434.606C718.98 411.171 705.997 388.645 689.699 368.522C679.672 356.142 668.406 344.574 656.231 333.648ZM-259.904 -416.6C-255.992 -398.859 -249.534 -380.707 -240.703 -362.636C-232.292 -345.423 -221.48 -327.776 -208.57 -310.187C-185.108 -278.224 -154.854 -246.194 -116.083 -212.271C-45.2792 -150.321 41.0183 -94.2031 110.36 -49.1115C137.525 -31.4468 163.183 -14.762 185.033 0.358618C206.48 15.2 227.687 30.6467 248.616 46.3104C246.195 44.3124 243.776 42.318 241.359 40.3311C212.791 16.8349 183.027 -7.20648 154.244 -30.4574C7.33715 -149.128 -144.563 -271.83 -259.904 -416.6ZM734.403 442.616C743.028 461.212 750.741 480.271 758.345 499.059C773.461 536.413 789.093 575.037 811.375 608.962C866.391 692.722 938.74 757.876 1020.6 797.378C1054.21 813.594 1087.03 825.123 1118.76 836.262C1169.23 853.982 1216.9 870.728 1266.14 904.506C1278.27 912.826 1290.81 921.269 1302.93 929.42C1382.46 982.941 1464.71 1038.29 1519.6 1117.61C1524.62 1107.94 1527.55 1098.5 1528.35 1089.59C1529.08 1081.23 1527.94 1073.06 1524.97 1065.31C1511.25 1029.57 1460.75 1006.76 1420.17 988.436C1408.13 982.995 1396.75 977.853 1387.53 972.915C1346.26 950.797 1307.2 923.822 1269.42 897.741C1226.05 867.793 1181.19 836.821 1132.85 813.124C1120.69 807.162 1108.47 801.281 1096.66 795.6C1023.11 760.205 953.094 726.51 890.829 670.637C881.504 662.269 872.361 653.411 863.398 643.968C814.948 592.926 785.191 537.271 753.685 478.349C747.415 466.62 741.019 454.658 734.403 442.616V442.616ZM906.416 720.59C870.925 688.742 838.835 651.284 811.133 609.107C788.833 575.157 773.196 536.519 758.074 499.151C749.939 479.048 741.681 458.646 732.313 438.823C728.346 431.643 724.296 424.44 720.145 417.249C699.435 381.369 673.592 351.862 638.818 324.391C607.756 299.852 573.285 279.87 536.792 258.714C524.929 251.837 512.664 244.726 500.341 237.351C421.732 190.311 350.921 131.377 282.439 74.3842C272.86 66.4114 263.049 58.2467 253.21 50.1068C230.742 33.2258 207.948 16.5588 184.877 0.59314C163.031 -14.5245 137.375 -31.209 110.212 -48.8723C40.8628 -93.9695 -45.4451 -150.094 -116.268 -212.059C-155.058 -245.996 -185.328 -278.044 -208.804 -310.027C-221.725 -327.631 -232.546 -345.294 -240.965 -362.526C-249.904 -380.818 -256.415 -399.197 -260.319 -417.146L-260.447 -417.733L-260.064 -417.251C-201.86 -344.122 -134.299 -276.606 -62.7688 -212.415C7.48038 -149.373 81.5549 -89.5359 154.419 -30.6773C183.204 -7.42622 212.966 16.6169 241.536 40.1118C245.48 43.3547 249.433 46.6173 253.38 49.8837C276.704 67.4082 299.682 85.1669 322.267 102.623C358.432 130.575 395.828 159.478 433.625 186.628C460.793 206.142 490.829 223.853 522.633 242.604C584.218 278.917 647.902 316.467 689.922 368.35C707.215 389.702 720.776 413.744 732.574 438.709C739.934 452.027 747.016 465.272 753.943 478.227C785.437 537.131 815.185 592.767 863.604 643.777C932.378 716.232 1012.23 754.658 1096.77 795.339C1108.58 801.019 1120.8 806.901 1132.97 812.864C1181.32 836.566 1226.19 867.547 1269.59 897.513C1307.35 923.585 1346.4 950.55 1387.64 972.652C1396.86 977.593 1408.24 982.734 1420.27 988.168C1460.91 1006.52 1511.48 1029.36 1525.24 1065.22C1528.23 1073.01 1529.38 1081.23 1528.63 1089.64C1527.84 1098.66 1524.85 1108.18 1519.76 1117.98L1519.64 1118.18L1519.5 1117.97C1464.64 1038.59 1382.36 983.214 1302.77 929.657C1290.66 921.506 1278.11 913.063 1265.99 904.744C1216.78 870.982 1169.13 854.251 1118.69 836.544C1086.94 825.388 1054.11 813.861 1020.49 797.638C979.797 778.003 941.45 752.03 906.416 720.59Z" fill="#CDF0FF"/>
<path d="M591.232 331.558C600.011 339.436 607.849 347.486 614.975 355.93C626.377 369.44 635.704 383.63 643.482 399.308C658.183 428.942 668.023 458.574 677.541 487.233C690.706 526.88 704.32 567.879 730.87 607.964C757.285 647.846 789.273 685.16 825.941 718.867C863.227 753.141 903.287 781.759 944.999 803.917C988.101 826.816 1033.55 839.314 1077.51 851.4C1129.5 865.696 1183.27 880.483 1233.13 912.57C1302.94 957.495 1363.23 1016.58 1421.54 1073.72C1443.07 1094.82 1465.33 1116.63 1487.72 1137.39C1500.51 1099.15 1477.63 1060.04 1435.78 1022.48C1351.52 946.868 1190.27 877.373 1087.89 833.254C1055.85 819.444 1030.54 808.535 1014.24 800.364C961.556 773.941 916.25 746.714 875.733 717.127C829.722 683.531 789.88 646.507 757.306 607.087C715.325 556.28 706.816 515.389 697.811 472.097C691.94 443.874 685.866 414.69 670.357 380.608C658.409 354.356 636.364 330.256 602.959 306.933C573.443 286.326 539.013 268.876 505.719 252.001C477.031 237.461 449.934 223.729 427.26 208.733C353.156 159.722 277.667 102.512 189.694 28.6887C124.77 -25.7937 61.1487 -80.9996 -0.86124 -136.647C-96.9345 -222.862 -189.184 -310.181 -276.657 -397.724C-259.059 -356.315 -236.888 -318.015 -208.889 -280.664C-183.813 -247.212 -154.602 -215.293 -119.588 -183.085C-54.5459 -123.247 21.171 -71.5431 94.3904 -21.5353C126.816 0.61029 160.345 23.5101 192.49 46.803C227.536 72.1991 262.381 99.5113 296.08 125.924C340.938 161.086 387.325 197.445 434.824 229.786C454.669 243.298 475.569 255.43 495.781 267.163C525.635 284.493 553.835 300.862 579.411 321.509C583.536 324.838 587.471 328.183 591.232 331.558V331.558ZM831.361 724.169C829.483 722.483 827.617 720.788 825.751 719.074C789.062 685.349 757.059 648.015 730.628 608.112C704.055 567.991 690.434 526.973 677.263 487.304C667.749 458.657 657.912 429.034 643.221 399.421C635.453 383.766 626.142 369.598 614.755 356.106C604.589 344.06 592.969 332.814 579.236 321.729C553.68 301.099 525.491 284.736 495.647 267.412C475.43 255.676 454.524 243.541 434.67 230.022C387.162 197.674 340.771 161.312 295.908 126.147C262.213 99.7365 227.371 72.4267 192.329 47.0342C160.187 23.7425 126.661 0.844372 94.2364 -21.3003C21.0068 -71.3142 -54.7148 -123.03 -119.779 -182.879C-154.808 -215.1 -184.031 -247.033 -209.12 -280.503C-237.283 -318.074 -259.555 -356.603 -277.206 -398.291L-277.487 -398.953L-276.971 -398.437C-132.904 -254.218 24.1654 -110.585 189.874 28.4724C277.838 102.288 353.317 159.491 427.41 208.494C450.068 223.479 477.158 237.209 505.837 251.744C539.142 268.623 573.581 286.077 603.115 306.699C636.57 330.057 658.651 354.198 670.623 380.505C686.148 414.618 692.222 443.82 698.097 472.059C707.097 515.312 715.596 556.166 757.527 606.912C790.082 646.311 829.906 683.316 875.894 716.897C916.397 746.474 961.689 773.69 1014.36 800.106C1030.64 808.274 1055.95 819.179 1087.99 832.987C1190.37 877.106 1351.62 946.599 1435.95 1022.28C1478 1060.02 1500.92 1099.26 1487.93 1137.7L1487.85 1137.89L1487.69 1137.74C1465.25 1116.95 1442.93 1095.07 1421.34 1073.92C1363.05 1016.79 1302.76 957.715 1232.98 912.806C1183.15 880.745 1129.42 865.969 1077.46 851.686C1033.48 839.589 988.009 827.086 944.875 804.173C905.227 783.108 867.066 756.211 831.361 724.169" fill="#CDF0FF"/>
<path d="M560.577 329.198C567.92 335.788 574.193 342.582 578.896 349.584C591.645 368.565 591.755 386.838 591.872 406.184C591.941 417.429 592.01 429.058 594.628 441.263C602.794 479.357 617.911 518.112 639.557 556.455C659.946 592.573 685.81 627.812 716.429 661.195C775.179 725.242 848.377 778.961 922.538 812.452C957.894 828.417 995.357 840.407 1031.59 852.002C1088.7 870.28 1147.77 889.184 1199.69 924.078C1253.02 959.929 1300.6 1007.3 1346.6 1053.12C1382.15 1088.52 1418.92 1125.13 1458.05 1156.12L1458.1 1155.95C1458.29 1151.69 1415.3 1106.94 1348.59 1041.95C1296.03 990.761 1232.35 930.774 1217.84 920.425C1164.53 882.432 1108.99 864.478 1050.17 845.459C1017.5 834.896 983.713 823.974 950.19 809.279C857.3 768.56 781.645 716.508 725.331 654.568C662.893 585.893 625.01 505.645 612.735 416.054C607.668 379.07 593.028 350.109 566.661 324.91C543.059 302.345 512.697 285.339 480.556 267.331C459.793 255.699 438.323 243.67 417.264 229.388C332.507 171.913 252.832 109.439 159.278 33.3181C88.3607 -24.3842 4.99893 -93.084 -75.5953 -165.122C-159.121 -239.79 -230.868 -310.115 -294.93 -380.133C-292.826 -337.392 -275.216 -297.696 -241.104 -258.794C-211.035 -224.504 -172.91 -195.716 -136.039 -167.876C-129.716 -163.102 -123.178 -158.164 -116.911 -153.368C-24.7197 -82.7991 68.8304 -13.061 161.141 53.9064C253.932 121.224 349.559 188.713 445.365 254.499C456.283 261.995 470.107 270.044 484.743 278.567C511.089 293.906 540.025 310.755 560.577 329.198ZM762.015 706.643C746.009 692.28 730.677 677.144 716.219 661.382C685.583 627.981 659.704 592.723 639.304 556.583C617.643 518.212 602.514 479.426 594.342 441.302C591.718 429.068 591.647 417.424 591.579 406.165C591.462 386.865 591.352 368.635 578.655 349.732C560.832 323.199 520.337 299.619 484.609 278.815C469.968 270.29 456.139 262.237 445.21 254.733C349.402 188.946 253.774 121.458 160.979 54.1366C68.6663 -12.8328 -24.8852 -82.5723 -117.08 -153.143C-123.345 -157.938 -129.882 -162.876 -136.206 -167.649C-173.089 -195.499 -211.229 -224.298 -241.318 -258.612C-275.583 -297.688 -293.221 -337.566 -295.243 -380.526L-295.261 -380.91L-294.99 -380.615C-232.396 -312.176 -162.445 -243.427 -81.3484 -170.651C-79.371 -168.877 -77.3988 -167.111 -75.408 -165.332C5.18138 -93.2979 88.5394 -24.6015 159.454 33.0988C253.002 109.214 332.67 171.683 417.417 229.152C438.464 243.426 459.928 255.452 480.685 267.08C512.844 285.097 543.221 302.117 566.857 324.708C593.279 349.96 607.949 378.98 613.026 416.036C625.293 505.563 663.15 585.755 725.543 654.382C781.826 716.287 857.442 768.313 950.291 809.014C983.8 823.702 1017.57 834.621 1050.23 845.18C1109.07 864.201 1164.66 882.177 1218 920.197C1224.58 924.884 1241.66 940.04 1267.37 964.004C1291.2 986.214 1320.12 1013.83 1348.78 1041.75C1401.93 1093.53 1458.64 1150.72 1458.39 1155.99C1458.38 1156.26 1458.24 1156.38 1458.11 1156.43L1458.04 1156.47L1457.97 1156.41C1418.78 1125.4 1381.99 1088.75 1346.4 1053.32C1300.41 1007.51 1252.85 960.149 1199.54 924.315C1147.65 889.447 1088.62 870.555 1031.52 852.278C995.278 840.682 957.804 828.689 922.434 812.715C866.485 787.45 811.083 750.678 762.015 706.643Z" fill="#CDF0FF"/>
<path d="M1154.99 977.055C1141.84 969.653 1127.56 963.914 1111.95 960.287C1104.35 958.512 1096.9 956.929 1089.58 955.492C1108.73 961.276 1128.24 967.441 1148.07 974.427C1150.27 975.198 1152.58 976.072 1154.99 977.055ZM1188.81 1001.19C1230.27 1038.4 1259.1 1092.74 1285.6 1142.72C1291.48 1153.8 1297.04 1164.27 1302.7 1174.53C1315.08 1155.73 1316.88 1134.43 1308.07 1111.22C1294.93 1076.64 1261.61 1045.65 1235.97 1025.75C1211.24 1006.55 1182.25 989.054 1158.89 978.988C1169.58 985.368 1179.52 992.846 1188.81 1001.19V1001.19ZM-58.4628 91.1747C-24.1153 125.552 6.65866 154.428 36.5569 180.392C85.232 222.661 131.336 256.942 177.504 285.192C185.896 290.327 194.561 295.031 203.42 299.402C127.816 246.724 55.8735 186.621 -13.9342 128.304C-24.9563 119.096 -36.3537 109.575 -47.5577 100.257C-51.183 97.2412 -54.82 94.2115 -58.4628 91.1747V91.1747ZM431.313 439.689C432.569 440.816 433.811 441.952 435.047 443.102C477.661 482.75 508.275 533.984 537.882 583.531C555.796 613.513 574.32 644.516 595.214 672.385C625.345 712.575 660.814 751.353 700.636 787.639C740.038 823.54 781.928 855.402 825.16 882.353C857.527 902.532 889.233 916.51 924.944 926.344C956.755 935.105 987.653 939.465 1020.36 944.076C1040.91 946.979 1061.95 949.946 1084.1 954.139C1074.31 951.199 1064.63 948.363 1055.04 945.541C983.971 924.683 916.838 904.975 847.054 860.585C751.14 799.57 661.404 716.985 580.342 615.123C559.864 589.392 541.755 558.915 524.243 529.443C498.06 485.376 471.001 439.835 434.73 407.286C434.074 406.697 433.416 406.114 432.753 405.532C414.588 389.616 392.543 375.785 365.359 363.252C341.093 352.062 314.98 342.878 289.728 333.998C261.931 324.221 233.443 314.201 206.591 301.262C213.885 306.319 221.217 311.307 228.581 316.216C254.305 333.362 282.556 348.215 309.876 362.578C352.054 384.755 395.625 407.662 431.313 439.689V439.689ZM-550.643 -364.964C-553.683 -326.537 -539.74 -291.723 -508.035 -258.551C-480.064 -229.284 -443.136 -205.779 -407.425 -183.049C-391.017 -172.605 -375.52 -162.74 -361.663 -152.773C-273.202 -89.1451 -187.774 -17.529 -105.159 51.7298C-91.3219 63.3298 -77.1406 75.2177 -62.9899 87.0309C-71.9647 78.0062 -81.1917 68.6004 -90.7081 58.7781C-117.648 30.9749 -144.017 -0.134609 -169.518 -30.2203C-219.734 -89.462 -271.659 -150.719 -333.584 -194.456C-357.566 -211.395 -385.193 -224.101 -411.908 -236.389C-441.444 -249.973 -471.985 -264.02 -496.764 -283.603C-510.094 -294.135 -520.799 -305.42 -529.488 -318.1C-539.075 -332.088 -545.999 -347.427 -550.643 -364.964V-364.964ZM-493.71 -244.321C-498.765 -248.858 -503.624 -253.53 -508.24 -258.359C-540.241 -291.84 -554.184 -327 -550.865 -365.849L-550.794 -366.686L-550.577 -365.853C-545.945 -348.002 -538.967 -332.43 -529.249 -318.251C-520.578 -305.598 -509.898 -294.337 -496.592 -283.824C-471.844 -264.266 -441.321 -250.227 -411.802 -236.652C-385.072 -224.358 -357.432 -211.645 -333.425 -194.69C-271.468 -150.929 -219.528 -89.655 -169.3 -30.398C-143.802 -0.317475 -117.435 30.79 -90.5033 58.5862C-80.2273 69.1921 -70.2919 79.3092 -60.6425 88.9901C-56.2122 92.6864 -51.7879 96.3736 -47.3789 100.039C-36.175 109.357 -24.7776 118.879 -13.7555 128.087C56.5082 186.787 128.947 247.301 205.089 300.219C232.399 313.533 261.461 323.754 289.807 333.723C315.066 342.607 341.186 351.793 365.467 362.989C392.679 375.537 414.75 389.384 432.939 405.321C470.26 438.007 497.824 484.424 524.494 529.309C542 558.773 560.103 589.239 580.567 614.954C661.607 716.787 751.315 799.347 847.194 860.338C916.951 904.713 984.054 924.409 1055.1 945.264C1065.56 948.341 1076.13 951.436 1086.83 954.658C1095.05 956.245 1103.44 958.011 1112 960.005C1128.4 963.818 1143.34 969.956 1157.04 977.9C1204.22 997.668 1286.37 1053.3 1308.34 1111.14C1317.21 1134.52 1315.36 1155.97 1302.82 1174.9L1302.69 1175.1L1302.57 1174.88C1296.86 1164.54 1291.27 1154 1285.35 1142.84C1252.57 1081.04 1216.24 1012.55 1156.89 978.137C1153.81 976.851 1150.83 975.7 1147.99 974.698C1127.21 967.38 1106.8 960.97 1086.78 954.942C1063.63 950.473 1041.72 947.385 1020.34 944.367C987.621 939.75 956.72 935.394 924.892 926.629C889.149 916.786 857.414 902.794 825.02 882.599C781.768 855.635 739.854 823.767 700.446 787.846C660.609 751.547 625.127 712.755 594.983 672.548C574.079 644.664 555.551 613.654 537.632 583.666C508.037 534.138 477.435 482.922 434.856 443.306C398.532 409.514 353.398 385.78 309.755 362.834C282.427 348.465 254.17 333.609 228.43 316.455C220.563 311.211 212.743 305.882 204.954 300.469C195.515 295.868 186.283 290.895 177.364 285.436C131.181 257.176 85.0623 222.886 36.3726 180.605C5.83855 154.091 -25.6034 124.54 -60.8325 89.1973C-75.7587 76.7429 -90.7399 64.1844 -105.339 51.9461C-187.949 -17.3087 -273.373 -88.922 -361.824 -152.542C-375.672 -162.503 -391.166 -172.366 -407.571 -182.807C-437.407 -201.799 -468.093 -221.332 -493.71 -244.321" fill="#CDF0FF"/>
<path d="M-570.363 -344.761C-567.09 -312.046 -552.216 -282.018 -524.92 -253.003C-500.575 -227.126 -469.918 -205.472 -440.27 -184.531C-428.757 -176.4 -417.883 -168.721 -407.45 -160.86C-339.98 -110.037 -275.623 -53.3965 -213.385 1.37748C-183.16 27.9789 -151.905 55.485 -120.659 82.0065L-112.474 88.954C-21.8468 165.894 71.8659 245.452 171.197 312.118C200.147 331.547 233.753 347.894 266.254 363.703C314.225 387.038 363.832 411.168 400.625 446.02C461.474 503.658 502.306 571.766 541.792 637.631C569.748 684.261 598.655 732.48 634.019 775.402C653.035 798.483 672.414 818.329 693.264 836.079C716.635 855.973 741.268 872.766 768.574 887.416C820.878 915.486 881.275 936.148 939.691 956.137C1007.36 979.289 1077.33 1003.24 1135.86 1038.93C1167.37 1058.16 1193.11 1079.15 1214.53 1103.09C1238.54 1129.93 1256.54 1159.75 1269.57 1194.27C1285.69 1182.34 1291.83 1166.79 1287.84 1148.02C1283.14 1125.83 1263.79 1098.99 1233.38 1072.45C1208.85 1051.04 1179.79 1032.36 1161.07 1025.96C1138.96 1018.4 1118.07 1011.67 1097.86 1005.15C1015.63 978.639 944.606 955.74 859.498 898.159C745.736 821.192 645.099 733.987 560.384 638.966C535.808 611.399 513.538 578.873 492.001 547.417C455.345 493.877 417.438 438.514 365.789 403.173C337.196 383.611 305.159 368.803 274.177 354.483C246.965 341.905 218.828 328.899 192.947 312.666C113.77 263.002 33.1966 201.975 -53.3793 126.096C-103.27 82.3738 -150.035 33.5897 -195.263 -13.5841C-240.462 -60.7293 -287.197 -109.475 -336.875 -152.961C-361.871 -174.841 -392.768 -192.574 -425.477 -211.349C-459.296 -230.76 -493.768 -250.549 -521.481 -275.416C-543.003 -294.729 -560.447 -317.105 -570.363 -344.761V-344.761ZM-507.319 -235.495C-513.532 -241.07 -519.496 -246.827 -525.127 -252.813C-552.797 -282.224 -567.724 -312.677 -570.767 -345.915L-570.871 -347.072L-570.482 -345.956C-548.173 -282.098 -485.73 -246.259 -425.345 -211.599C-392.62 -192.816 -361.711 -175.075 -336.69 -153.172C-287.003 -109.686 -240.262 -60.9256 -195.058 -13.7761C-149.835 33.3937 -103.074 82.1727 -53.1938 125.885C33.3685 201.752 113.929 262.769 193.091 312.423C218.953 328.645 247.082 341.647 274.284 354.22C305.278 368.545 337.328 383.359 365.945 402.938C417.642 438.311 455.566 493.7 492.241 547.265C513.772 578.713 536.036 611.231 560.598 638.782C645.295 733.783 745.91 820.971 859.65 897.922C898.628 924.293 936.711 944.95 979.487 962.916C1018.03 979.113 1056.84 991.621 1097.94 1004.88C1118.14 1011.39 1139.03 1018.12 1161.14 1025.68C1179.9 1032.09 1209.01 1050.8 1233.57 1072.24C1264.03 1098.83 1283.4 1125.72 1288.14 1147.99C1292.16 1166.92 1285.92 1182.61 1269.6 1194.62L1269.44 1194.73L1269.37 1194.54C1256.35 1159.98 1238.35 1130.13 1214.31 1103.27C1192.92 1079.36 1167.21 1058.39 1135.72 1039.18C1077.22 1003.5 1007.27 979.565 939.611 956.409C881.191 936.423 820.769 915.744 768.448 887.669C741.124 873.008 716.47 856.202 693.083 836.294C672.218 818.531 652.825 798.671 633.796 775.576C598.419 732.634 569.505 684.405 541.542 637.765C502.066 571.919 461.248 503.831 400.431 446.223C363.672 411.404 314.091 387.286 266.141 363.963C233.631 348.148 200.013 331.797 171.044 312.355C71.6981 245.678 -22.0203 166.114 -112.656 89.1705L-120.84 82.2217C-152.089 55.6972 -183.344 28.1912 -213.57 1.5887C-275.804 -53.1809 -340.156 -109.817 -407.615 -160.634C-418.045 -168.49 -428.917 -176.169 -440.427 -184.298C-463.235 -200.408 -486.642 -216.94 -507.319 -235.495" fill="#CDF0FF"/>
<path d="M374.433 452.097C333.437 415.307 276.655 387.722 221.668 361.009C182.637 342.046 145.771 324.136 114.071 303.184C93.4057 289.524 72.7549 275.205 51.937 260.084C90.725 293.545 130.789 325.372 172.932 351.931C201.228 369.762 230.502 384.055 258.812 397.877C284.252 410.298 310.558 423.139 335.22 438.2C362.798 455.042 385.703 473.142 405.245 493.534C415.226 503.952 424.609 514.87 433.534 526.127C418.034 500.569 400.528 476.627 379.177 456.464C377.623 454.995 376.037 453.536 374.433 452.097V452.097ZM-590.406 -327.24C-577.778 -261.313 -519.136 -224.372 -462.416 -188.637C-439.869 -174.433 -418.571 -161.016 -400.165 -145.929C-347.891 -103.082 -298.855 -53.5745 -251.434 -5.69403C-216.842 29.2355 -181.07 65.3538 -144.397 98.5118C-76.0231 160.336 -13.8952 211.561 46.6626 255.891C23.6086 235.865 1.0056 215.326 -21.3275 195.032C-33.2019 184.241 -45.4731 173.082 -57.4436 162.362C-58.0014 161.861 -58.5627 161.358 -59.1216 160.856C-111.119 114.194 -162.564 65.3174 -212.335 18.0293C-257.473 -24.8569 -304.148 -69.2037 -351.063 -111.732C-376.15 -134.468 -404.669 -155.433 -434.869 -177.63C-494.511 -221.464 -556.178 -266.789 -590.406 -327.24V-327.24ZM436.098 529.845C450.089 553.353 462.483 578.125 474.682 602.506C489.733 632.591 505.297 663.7 523.306 691.053C547.942 728.472 576.547 763.027 608.328 793.763C639.598 824.006 675.034 851.603 713.648 875.787C811.369 936.987 914.117 988.625 1010.77 1025.11C1068.36 1046.84 1106.75 1067.72 1139.13 1094.91C1171.19 1121.82 1198.74 1156.15 1231.24 1209.66C1250.62 1198.5 1259.52 1185.05 1257.7 1169.68C1256.58 1160.28 1251.44 1150.09 1242.41 1139.39C1234.69 1130.24 1224.16 1120.73 1211.09 1111.1C1187.5 1093.72 1160.69 1079.66 1144.89 1072.9C1140.41 1070.99 1135.96 1069.09 1131.55 1067.2C1034.08 1025.55 949.92 989.582 856.632 928.966C829.449 911.307 800.362 894.659 772.241 878.568C719.165 848.194 664.285 816.79 618.093 776.42C616.933 775.407 615.775 774.381 614.632 773.355C566.625 730.277 532.557 676.077 499.576 623.615C479.769 592.108 459.484 559.841 436.098 529.845V529.845ZM624.551 809.259C618.957 804.239 613.486 799.142 608.131 793.964C576.334 763.212 547.714 728.636 523.064 691.198C505.045 663.83 489.476 632.714 474.42 602.621C461.891 577.579 449.16 552.13 434.701 528.06C425.366 516.186 415.534 504.679 405.039 493.728C385.518 473.355 362.634 455.273 335.08 438.445C310.43 423.393 284.133 410.553 258.699 398.136C230.381 384.311 201.099 370.014 172.788 352.173C129.71 325.025 88.798 292.368 49.2131 258.103C-12.2112 213.312 -75.1847 161.46 -144.585 98.721C-181.266 65.5559 -217.04 29.4356 -251.637 -5.49796C-299.051 -53.3723 -348.08 -102.878 -400.341 -145.71C-418.733 -160.783 -440.021 -174.196 -462.56 -188.396C-519.578 -224.317 -578.539 -261.463 -590.854 -328.05L-591.008 -328.889L-590.581 -328.129C-556.478 -267.355 -494.573 -221.857 -434.706 -177.859C-404.499 -155.658 -375.959 -134.685 -350.874 -111.94C-303.955 -69.4089 -257.28 -25.0614 -212.141 17.8261C-162.374 65.1102 -110.924 113.991 -58.9339 160.647C-57.825 161.642 -56.7232 162.629 -55.6121 163.626C-44.1691 173.895 -32.4705 184.526 -21.1386 194.823C2.009 215.859 25.4602 237.168 49.3873 257.881C71.12 273.728 92.6626 288.694 114.222 302.946C145.903 323.887 182.759 341.792 221.781 360.749C278.941 388.519 338.053 417.237 379.371 456.26C401.281 476.951 419.141 501.609 434.939 527.908C458.922 558.415 479.62 591.34 499.822 623.475C533.575 677.166 568.48 732.689 618.277 776.208C664.446 816.557 719.312 847.954 772.367 878.314C800.5 894.415 829.589 911.06 856.783 928.73C950.047 989.328 1034.19 1025.28 1131.64 1066.93C1136.06 1068.82 1140.51 1070.73 1144.99 1072.64C1160.8 1079.4 1187.64 1093.47 1211.26 1110.87C1224.34 1120.51 1234.9 1130.05 1242.63 1139.21C1251.7 1149.96 1256.86 1160.21 1257.99 1169.67C1259.83 1185.19 1250.84 1198.75 1231.28 1209.99L1231.15 1210.06L1231.08 1209.94C1198.56 1156.37 1171.02 1122.04 1138.96 1095.13C1106.6 1067.96 1068.24 1047.1 1010.69 1025.38C914.006 988.884 811.254 937.25 713.505 876.03C681.483 855.974 651.64 833.569 624.551 809.259" fill="#CDF0FF"/>
<path d="M206.006 380.269C92.7774 307.415 -8.9537 226.64 -115.462 142.071C-126.385 133.398 -137.43 124.628 -148.567 115.805C-136.446 126.352 -124.075 137.085 -111.43 148.025L-109.689 149.532C-65.7361 187.563 -20.2857 226.891 25.8781 262.908C77.4877 303.176 125.198 335.47 171.736 361.636C182.941 367.936 194.548 374.172 206.006 380.269V380.269ZM332.543 462.12C346.311 474.476 358.814 488.414 370.557 504.389C391.336 532.661 407.068 563.67 423.721 596.502C434.916 618.57 446.492 641.389 460.162 664.4C514.149 755.279 577.577 821.282 654.072 866.181C670.537 875.846 687.151 885.561 703.217 894.953C876.07 996.018 1039.34 1091.48 1194.01 1226.93C1200.99 1220.29 1203.63 1212.16 1201.86 1202.73C1189.12 1135.17 956.709 1013.89 845.014 955.606C822.012 943.604 803.846 934.125 794.207 928.543C778.676 919.55 762.955 910.657 747.76 902.062C704.575 877.636 663.788 854.563 624.093 827.806C579.158 797.514 543.562 767.802 512.072 734.298C476.52 696.476 457.997 653.444 440.085 611.827C425.24 577.336 409.888 541.671 384.922 509.18C341.259 452.358 277.327 418.435 215.498 385.629C214.324 385.006 213.148 384.383 211.968 383.757C236.573 399.473 261.742 414.822 287.617 429.748C304.135 439.275 318.955 449.927 332.543 462.12V462.12ZM-605.315 -306.796C-608.302 -296.04 -607.828 -283.97 -603.904 -270.916C-600.192 -258.565 -593.292 -245 -583.398 -230.591C-565.871 -205.071 -538.195 -175.846 -501.139 -143.726C-433.443 -85.048 -348.615 -28.3456 -286.677 13.056C-258.023 32.2105 -235.389 47.3396 -222.625 57.2536C-200.793 74.2117 -179.142 91.2518 -157.822 108.118C-239.41 37.0243 -309.694 -25.6642 -376.133 -86.5671C-397.893 -106.516 -423.054 -125.855 -449.69 -146.326C-480.292 -169.847 -511.935 -194.17 -539.542 -220.522C-570.621 -250.192 -592.139 -278.415 -605.315 -306.796V-306.796ZM-512.459 -153.332C-543.987 -181.626 -567.899 -207.523 -583.635 -230.44C-593.549 -244.875 -600.464 -258.471 -604.184 -270.85C-608.171 -284.112 -608.611 -296.362 -605.493 -307.264L-605.388 -307.632L-605.219 -307.268C-592.077 -278.801 -570.529 -250.492 -539.348 -220.725C-511.752 -194.384 -480.116 -170.067 -449.522 -146.551C-422.88 -126.076 -397.719 -106.737 -375.943 -86.7738C-308.291 -24.758 -236.64 39.1186 -153.139 111.824C-140.39 121.919 -127.765 131.944 -115.289 141.85C-7.88282 227.131 94.6561 308.548 209.032 381.878C211.237 383.048 213.435 384.214 215.621 385.375C277.48 418.196 341.444 452.135 385.151 509.016C410.141 541.537 425.499 577.222 440.353 611.73C458.255 653.321 476.766 696.328 512.279 734.108C543.753 767.593 579.331 797.292 624.246 827.568C663.929 854.32 704.712 877.389 747.886 901.809C763.094 910.412 778.803 919.296 794.346 928.297C803.971 933.872 822.137 943.351 845.139 955.353C956.875 1013.66 1189.39 1134.99 1202.14 1202.69C1203.95 1212.26 1201.25 1220.52 1194.13 1227.24L1194.03 1227.32L1193.93 1227.23C1039.25 1091.75 875.959 996.278 703.083 895.201C687.016 885.808 670.403 876.094 653.937 866.429C614.157 843.079 577.157 813.303 543.966 777.93C513.355 745.305 485.86 708.214 459.912 664.533C446.237 641.514 434.658 618.69 423.461 596.616C406.812 563.798 391.088 532.799 370.324 504.548C347.023 472.845 320.7 449.155 287.483 429.997C260.569 414.471 234.445 398.504 208.899 382.126C196.464 375.52 183.799 368.741 171.606 361.886C125.054 335.712 77.3304 303.41 25.7072 263.132C-20.463 227.109 -65.9159 187.779 -109.874 149.744L-111.613 148.239C-125.85 135.921 -139.745 123.861 -153.32 112.039C-176.148 93.9671 -199.366 75.6775 -222.796 57.478C-235.55 47.5708 -258.18 32.4448 -286.828 13.2945C-348.773 -28.1135 -433.61 -84.8218 -501.322 -143.514C-505.133 -146.817 -508.847 -150.09 -512.459 -153.332Z" fill="#CDF0FF"/>
<path d="M296.223 462.393C257.417 427.569 209.348 399.227 162.489 371.597C130.681 352.842 100.637 335.128 73.4586 315.605C35.6565 288.453 -1.74245 259.548 -37.91 231.594C-58.9262 215.35 -80.284 198.843 -101.942 182.507C-93.6751 189.359 -85.4501 196.204 -77.3893 202.913C-8.91825 259.897 61.8843 318.824 140.472 365.851C152.793 373.225 165.057 380.334 176.918 387.211C213.422 408.372 247.902 428.361 278.983 452.914C313.792 480.412 339.659 509.948 360.389 545.864C363.753 551.692 367.05 557.527 370.29 563.351C358.972 539.917 345.99 517.391 329.692 497.268C319.665 484.888 308.399 473.32 296.223 462.393ZM-619.911 -287.854C-615.999 -270.113 -609.541 -251.961 -600.711 -233.891C-592.299 -216.677 -581.488 -199.03 -568.577 -181.441C-545.116 -149.478 -514.862 -117.448 -476.09 -83.525C-405.287 -21.5752 -318.989 34.5427 -249.647 79.6343C-222.482 97.2991 -196.824 113.984 -174.974 129.104C-153.527 143.946 -132.32 159.393 -111.392 175.056C-113.812 173.058 -116.232 171.064 -118.648 169.077C-147.217 145.581 -176.981 121.539 -205.763 98.2885C-352.67 -20.3818 -504.57 -143.084 -619.911 -287.854ZM374.396 571.362C383.021 589.958 390.734 609.017 398.338 627.805C413.454 665.159 429.085 703.783 451.368 737.708C506.383 821.468 578.733 886.622 660.594 926.124C694.198 942.34 727.024 953.869 758.756 965.008C809.22 982.728 856.896 999.474 906.133 1033.25C918.259 1041.57 930.803 1050.01 942.918 1058.17C1022.45 1111.69 1104.7 1167.04 1159.59 1246.36C1164.61 1236.68 1167.55 1227.25 1168.34 1218.34C1169.07 1209.98 1167.94 1201.81 1164.97 1194.06C1151.24 1158.32 1100.74 1135.51 1060.16 1117.18C1048.12 1111.74 1036.74 1106.6 1027.52 1101.66C986.255 1079.54 947.189 1052.57 909.416 1026.49C866.04 996.539 821.182 965.567 772.847 941.87C760.68 935.908 748.461 930.027 736.653 924.346C663.101 888.951 593.087 855.256 530.821 799.382C521.497 791.015 512.354 782.157 503.391 772.714C454.941 721.672 425.184 666.017 393.678 607.095C387.408 595.366 381.012 583.404 374.396 571.362V571.362ZM546.408 849.335C510.918 817.488 478.828 780.03 451.125 737.853C428.825 703.903 413.188 665.264 398.067 627.897C389.931 607.794 381.674 587.392 372.306 567.569C368.339 560.389 364.289 553.186 360.138 545.995C339.428 510.114 313.585 480.608 278.81 453.137C247.749 428.598 213.278 408.616 176.785 387.459C164.922 380.583 152.657 373.472 140.334 366.097C61.7248 319.056 -9.08682 260.123 -77.5681 203.13C-87.147 195.157 -96.9587 186.993 -106.797 178.853C-129.266 161.972 -152.059 145.305 -175.13 129.339C-196.976 114.221 -222.632 97.5368 -249.795 79.8736C-319.145 34.7763 -405.452 -21.3486 -476.275 -83.3131C-515.066 -117.25 -545.335 -149.298 -568.811 -181.281C-581.732 -198.885 -592.553 -216.548 -600.973 -233.78C-609.911 -252.073 -616.422 -270.451 -620.326 -288.4L-620.454 -288.987L-620.071 -288.505C-561.867 -215.376 -494.306 -147.86 -422.776 -83.6692C-352.527 -20.6274 -278.452 39.2099 -205.588 98.0686C-176.804 121.32 -147.041 145.363 -118.471 168.858C-114.527 172.101 -110.574 175.363 -106.627 178.63C-83.3032 196.154 -60.3258 213.913 -37.7403 231.369C-1.57571 259.321 35.8209 288.224 73.6175 315.373C100.785 334.888 130.822 352.599 162.626 371.35C224.21 407.662 287.894 445.213 329.915 497.096C347.208 518.448 360.769 542.49 372.567 567.455C379.927 580.773 387.008 594.018 393.936 606.973C425.43 665.877 455.178 721.512 503.597 772.523C572.371 844.978 652.225 883.404 736.765 924.085C748.574 929.765 760.792 935.647 772.959 941.609C821.309 965.311 866.18 996.292 909.58 1026.26C947.34 1052.33 986.395 1079.3 1027.64 1101.4C1036.85 1106.34 1048.23 1111.48 1060.26 1116.91C1100.9 1135.27 1151.47 1158.11 1165.23 1193.96C1168.22 1201.76 1169.37 1209.98 1168.63 1218.38C1167.84 1227.4 1164.84 1236.93 1159.76 1246.72L1159.64 1246.92L1159.5 1246.72C1104.64 1167.33 1022.35 1111.96 942.767 1058.4C930.652 1050.25 918.107 1041.81 905.98 1033.49C856.77 999.728 809.121 982.996 758.687 965.29C726.929 954.134 694.103 942.607 660.482 926.384C619.79 906.749 581.443 880.775 546.408 849.335Z" fill="#CDF0FF"/>
<path d="M231.224 460.304C240.003 468.182 247.841 476.231 254.967 484.675C266.369 498.186 275.696 512.376 283.474 528.054C298.176 557.688 308.015 587.32 317.533 615.978C330.698 655.626 344.313 696.625 370.862 736.71C397.277 776.592 429.265 813.906 465.933 847.613C503.22 881.887 543.279 910.504 584.991 932.663C628.093 955.562 673.547 968.06 717.502 980.146C769.493 994.442 823.259 1009.23 873.119 1041.32C942.931 1086.24 1003.23 1145.33 1061.53 1202.47C1083.06 1223.57 1105.32 1245.38 1127.71 1266.13C1140.5 1227.9 1117.63 1188.79 1075.77 1151.23C991.51 1075.61 830.262 1006.12 727.886 962C695.84 948.19 670.528 937.281 654.236 929.11C601.548 902.687 556.242 875.46 515.725 845.873C469.714 812.276 429.872 775.253 397.299 735.833C355.318 685.026 346.809 644.135 337.803 600.843C331.932 572.62 325.858 543.436 310.349 509.354C298.402 483.102 276.356 459.002 242.951 435.679C213.436 415.071 179.006 397.621 145.712 380.747C117.023 366.207 89.926 352.475 67.2523 337.479C-6.85213 288.468 -82.3409 231.258 -170.313 157.435C-235.237 102.952 -298.859 47.7464 -360.869 -7.90152C-456.942 -94.1165 -549.192 -181.435 -636.665 -268.978C-619.067 -227.569 -596.896 -189.269 -568.897 -151.918C-543.821 -118.466 -514.61 -86.5468 -479.596 -54.3395C-414.554 5.49901 -338.837 57.2028 -265.617 107.211C-233.192 129.356 -199.663 152.256 -167.518 175.549C-132.472 200.945 -97.6269 228.257 -63.9282 254.67C-19.07 289.832 27.3174 326.191 74.8163 358.532C94.6607 372.044 115.561 384.176 135.773 395.909C165.627 413.239 193.827 429.608 219.403 450.255C223.528 453.584 227.464 456.929 231.224 460.304V460.304ZM471.354 852.915C469.475 851.229 467.609 849.534 465.743 847.82C429.054 814.095 397.051 776.761 370.621 736.858C344.048 696.737 330.426 655.718 317.255 616.05C307.742 587.403 297.904 557.78 283.213 528.167C275.445 512.512 266.135 498.343 254.747 484.852C244.581 472.806 232.961 461.56 219.228 450.475C193.672 429.845 165.483 413.482 135.639 396.158C115.422 384.422 94.516 372.287 74.662 358.767C27.1541 326.42 -19.2365 290.058 -64.0994 254.893C-97.7944 228.482 -132.637 201.173 -167.679 175.78C-199.821 152.488 -233.347 129.59 -265.771 107.446C-339.001 57.4317 -414.723 5.71554 -479.787 -54.133C-514.816 -86.3538 -544.039 -118.287 -569.128 -151.757C-597.291 -189.328 -619.563 -227.857 -637.214 -269.545L-637.495 -270.207L-636.979 -269.691C-492.912 -125.472 -335.842 18.1609 -170.134 157.218C-82.1701 231.034 -6.6911 288.237 67.4022 337.24C90.0605 352.225 117.15 365.955 145.83 380.49C179.135 397.369 213.573 414.823 243.108 435.445C276.562 458.802 298.643 482.944 310.615 509.251C326.14 543.364 332.214 572.566 338.089 600.805C347.089 644.058 355.589 684.912 397.519 735.658C430.074 775.057 469.899 812.062 515.887 845.642C556.389 875.219 601.681 902.436 654.352 928.851C670.636 937.02 695.945 947.925 727.984 961.733C830.359 1005.85 991.609 1075.35 1075.94 1151.02C1118 1188.77 1140.91 1228 1127.92 1266.44L1127.84 1266.64L1127.68 1266.48C1105.24 1245.69 1082.92 1223.82 1061.33 1202.66C1003.04 1145.54 942.754 1086.46 872.968 1041.55C823.147 1009.49 769.41 994.715 717.449 980.431C673.47 968.335 628.001 955.832 584.867 932.918C545.219 911.854 507.059 884.957 471.354 852.915" fill="#CDF0FF"/>
<path d="M200.57 457.944C207.913 464.534 214.186 471.328 218.889 478.33C231.638 497.311 231.748 515.584 231.865 534.93C231.934 546.175 232.003 557.804 234.621 570.008C242.787 608.103 257.904 646.858 279.55 685.201C299.939 721.319 325.802 756.558 356.422 789.941C415.172 853.988 488.369 907.707 562.531 941.198C597.886 957.163 635.35 969.153 671.582 980.748C728.696 999.026 787.761 1017.93 839.679 1052.82C893.017 1088.67 940.59 1136.05 986.594 1181.86C1022.15 1217.27 1058.91 1253.88 1098.04 1284.86L1098.09 1284.7C1098.29 1280.44 1055.3 1235.69 988.579 1170.7C936.027 1119.51 872.347 1059.52 857.83 1049.17C804.522 1011.18 748.979 993.224 690.159 974.205C657.488 963.642 623.706 952.719 590.183 938.025C497.292 897.306 421.638 845.254 365.324 783.314C302.886 714.639 265.003 634.39 252.728 544.8C247.661 507.815 233.021 478.855 206.654 453.656C183.052 431.091 152.689 414.085 120.548 396.077C99.7859 384.445 78.3158 372.415 57.2571 358.134C-27.5006 300.659 -107.175 238.185 -200.73 162.064C-271.647 104.362 -355.008 35.6619 -435.603 -36.3766C-519.128 -111.044 -590.876 -181.369 -654.937 -251.387C-652.833 -208.646 -635.223 -168.95 -601.111 -130.048C-571.043 -95.7584 -532.917 -66.9702 -496.047 -39.13C-489.723 -34.3557 -483.185 -29.4177 -476.919 -24.6217C-384.727 45.9467 -291.177 115.685 -198.867 182.652C-106.075 249.97 -10.4482 317.459 85.3577 383.245C96.2761 390.741 110.1 398.79 124.735 407.313C151.082 422.652 180.018 439.5 200.57 457.944ZM402.008 835.389C386.002 821.026 370.67 805.89 356.212 790.128C325.576 756.727 299.697 721.469 279.297 685.329C257.635 646.958 242.507 608.172 234.334 570.048C231.711 557.814 231.64 546.17 231.571 534.91C231.455 515.611 231.345 497.381 218.648 478.478C200.825 451.945 160.33 428.364 124.602 407.561C109.961 399.035 96.1318 390.983 85.2026 383.479C-10.6049 317.692 -106.233 250.203 -199.028 182.882C-291.341 115.913 -384.893 46.1736 -477.087 -24.3967C-483.352 -29.1921 -489.89 -34.1301 -496.213 -38.9032C-533.097 -66.7535 -571.236 -95.5521 -601.325 -129.867C-635.591 -168.942 -653.228 -208.821 -655.25 -251.78L-655.268 -252.164L-654.998 -251.869C-592.403 -183.43 -522.452 -114.682 -441.356 -41.9053C-439.378 -40.1308 -437.406 -38.3654 -435.415 -36.5862C-354.826 35.4479 -271.468 104.144 -200.553 161.845C-107.005 237.96 -27.3376 300.429 57.41 357.898C78.4566 372.172 99.9204 384.197 120.678 395.826C152.837 413.843 183.214 430.863 206.85 453.454C233.271 478.705 247.941 507.725 253.019 544.782C265.286 634.309 303.143 714.5 365.536 783.128C421.819 845.033 497.435 897.059 590.284 937.76C623.793 952.448 657.567 963.367 690.226 973.926C749.064 992.947 804.649 1010.92 857.994 1048.94C864.57 1053.63 881.65 1068.79 907.365 1092.75C931.197 1114.96 960.109 1142.57 988.777 1170.5C1041.93 1222.27 1098.63 1279.47 1098.38 1284.73C1098.38 1285.01 1098.23 1285.13 1098.11 1285.18L1098.03 1285.22L1097.96 1285.16C1058.78 1254.14 1021.98 1217.5 986.397 1182.06C940.402 1136.26 892.84 1088.89 839.528 1053.06C787.648 1018.19 728.612 999.301 671.511 981.024C635.27 969.428 597.797 957.435 562.427 941.461C506.478 916.196 451.076 879.423 402.008 835.389Z" fill="#CDF0FF"/>
</g>
</g>
<defs>
<clipPath id="clip0">
<rect width="1440" height="810" fill="white"/>
</clipPath>
</defs>
</svg>
