<svg width="464" height="294" viewBox="0 0 464 294" fill="none" xmlns="http://www.w3.org/2000/svg">
<path d="M459.065 209.181C464.032 193.084 465.192 175.955 461.631 159.488C456.06 133.729 438.115 102.545 386.325 89.0879C288.28 63.6119 254.236 -10.8894 162.523 12.8372C162.523 12.8372 113.304 21.7812 90.0107 103.221C66.7174 184.663 -24.556 186.048 6.87069 256.96C12.008 268.551 25.8373 281.195 45.6947 293.137L417.627 291.887C443.331 260.983 451.331 234.251 459.065 209.181" fill="#E2DDF1"/>
<path d="M371.304 150.94H357.349V135.675C357.349 128.012 352.012 121.609 344.855 119.945V101H339.719V119.585C331.481 120.328 325.023 127.243 325.023 135.675V151.388H311.141V168.899H310.207V201.441L284.975 201.261V162.365H256.065V190.869H235.78V218.56H211.264V291.856H292.712V291.845H310.207V291.856H412.337V199.427H371.268L371.304 150.94" fill="#CBC4E7"/>
<path d="M83.3574 191.224V154.788H97.0161V135.3H102.152V154.788H114.736V191.224H128.855V213.053H151.356V138.692H198.333V291.856H167.721H154.533H121.349H106.024H65.9814V191.224H83.3574" fill="#CBC4E7"/>
<path d="M340.005 291.484L125.896 291.652C117.787 291.659 111.207 285.091 111.2 276.981L354.677 276.791C354.683 284.9 348.115 291.48 340.005 291.484Z" fill="#3F4FAA"/>
<path d="M340.001 286.429L125.892 286.596C119.561 286.601 114.18 282.593 112.113 276.98L111.2 276.981C111.207 285.091 117.787 291.659 125.896 291.652L340.005 291.484C348.115 291.48 354.683 284.9 354.677 276.791H353.764C351.707 282.408 346.331 286.425 340.001 286.429" fill="#4B5BB2"/>
<path d="M246.775 281.79L219.112 281.812C216.397 281.814 214.193 279.614 214.192 276.9L251.685 276.872C251.687 279.586 249.489 281.788 246.775 281.79" fill="#36419C"/>
<path d="M342.147 276.8L123.731 276.972L123.627 145.137C123.623 137.575 129.748 131.439 137.311 131.432L328.339 131.284C335.903 131.277 342.037 137.404 342.044 144.967L342.147 276.8" fill="#4B5BB2"/>
<path d="M330.763 265.42L135.096 265.573L135 142.823L330.668 142.671L330.763 265.42Z" fill="#3C347A"/>
<path d="M330.763 265.42L135.096 265.573L135.087 253.839L330.753 253.687L330.763 265.42Z" fill="#2A254B"/>
<path d="M330.672 148.495L135.005 148.649L135 142.823L330.668 142.67L330.672 148.495Z" fill="#2A254B"/>
<path d="M135.096 265.573L135.052 208.08L194.436 148.601L252.071 148.557L146.963 253.829L135.087 253.839L135.096 265.573" fill="#3D398A"/>
<path d="M135.096 265.573L135.087 253.839L146.963 253.829L135.237 265.573H135.096" fill="#332E66"/>
<path d="M194.436 148.601L200.256 142.772L257.891 142.728L252.071 148.557L194.436 148.601Z" fill="#332E66"/>
<path d="M160.36 265.559L160.365 265.553L186.716 265.533L160.36 265.559ZM310.305 142.687L311.907 142.685L310.305 142.687Z" fill="#4B5BB2"/>
<path d="M172.091 253.811L277.2 148.537L306.087 148.515L200.979 253.788L172.091 253.811" fill="#3D398A"/>
<path d="M160.365 265.553L172.091 253.811L200.979 253.788L189.255 265.531L186.716 265.533L160.365 265.553" fill="#332E66"/>
<path d="M277.2 148.537L283.015 142.713L310.305 142.686L311.907 142.685L306.087 148.514L277.2 148.537" fill="#332E66"/>
<path d="M306.736 265.438L307.748 265.437L306.736 265.438ZM330.745 242.405L330.711 198.824L330.712 198.822L330.745 242.404V242.405Z" fill="#4B5BB2"/>
<path d="M273.835 253.73L330.712 198.822L330.745 242.405L319.472 253.694L273.835 253.73Z" fill="#3D398A"/>
<path d="M261.68 265.465L273.835 253.73L319.472 253.694L307.748 265.437L306.736 265.438L261.68 265.465" fill="#332E66"/>
<path d="M342.147 219.298H123.627V195.176H342.147V219.298Z" fill="#E1C11E"/>
<path d="M150.889 227.761H132.087L148.271 190.74H167.072L150.889 227.761Z" fill="white"/>
<path d="M190.984 227.761H172.183L188.367 190.74H207.168L190.984 227.761Z" fill="white"/>
<path d="M231.08 227.761H212.279L228.461 190.74H247.264L231.08 227.761Z" fill="white"/>
<path d="M271.177 227.761H252.375L268.559 190.74H287.36L271.177 227.761Z" fill="white"/>
<path d="M311.272 227.761H292.469L308.655 190.74H327.456L311.272 227.761Z" fill="white"/>
<path d="M106.081 153.526L101.809 153.69L99.3094 152.897C98.1614 152.533 96.9081 152.969 96.2361 153.969L95.9214 154.436L108.408 161.334L110.824 156.154L106.081 153.526" fill="#262040"/>
<path d="M108.412 161.442L95.8267 154.49L96.2667 153.694C96.3533 153.538 96.552 153.481 96.708 153.566L109.011 160.362L108.412 161.442" fill="#262040"/>
<path d="M110.824 156.155L114.123 150.445L110.824 144.552L106.081 153.527L110.824 156.155Z" fill="#E25E68"/>
<path d="M136.672 123.313C136.672 123.313 118.875 118.207 117.161 123.012C115.448 127.817 105.065 149.076 105.065 149.076L112.815 153.119L124.437 132.931L140.076 131.571L136.672 123.313" fill="#262040"/>
<path d="M122.204 160.005L118.72 162.225L116.149 162.744C114.967 162.982 114.084 163.972 113.98 165.172L113.931 165.733L128.197 165.71L127.797 160.01L122.204 160.005Z" fill="#262040"/>
<path d="M128.253 165.805L113.875 165.827L113.873 164.917C113.873 164.737 114.019 164.592 114.199 164.592L128.252 164.569L128.253 165.805" fill="#262040"/>
<path d="M127.797 160.01L128.253 150.445L122.571 149.805L122.204 160.005L127.797 160.01Z" fill="#E25E68"/>
<path d="M139.075 122.496L122.301 123.261C122.301 123.261 119.889 123.393 120.051 129.04C120.213 134.687 120.197 157.411 120.197 157.411L128.253 157.689L129.795 133.887L146.585 133.68C150.125 133.636 153.417 131.607 154.817 128.356C155.353 127.113 155.611 125.719 155.28 124.253L139.075 122.496" fill="#342E66"/>
<path d="M123.157 119.113C123.161 120.705 122.081 120.947 120.489 120.949C118.899 120.953 117.396 120.717 117.393 119.125C117.389 117.533 118.679 116.24 120.269 116.237C121.86 116.233 123.155 117.521 123.157 119.113" fill="#D6968E"/>
<path d="M125.183 120.74L121.849 120.747C120.98 120.749 120.267 120.039 120.265 119.168C120.263 118.297 120.973 117.584 121.845 117.583L125.176 117.576C126.045 117.575 126.759 118.285 126.76 119.155C126.761 120.025 126.052 120.739 125.183 120.74Z" fill="#D6968E"/>
<path d="M125.053 121.079L123.943 115.627L137.636 114.135L140.376 98.1346C140.652 96.6799 142.757 94.876 144.212 95.152L143.793 95.0333C145.247 95.3093 146.583 96.9986 146.307 98.4533L143.641 117.595C143.445 118.627 142.664 119.449 141.641 119.699L125.053 121.079" fill="#BAACDD"/>
<path d="M152.409 95.5052C152.692 95.5278 152.969 95.5919 153.235 95.6945L153.371 95.7478C155.723 96.6665 157.313 99.1892 157.42 101.552L155.28 124.253C141.089 124.131 139.075 122.496 139.075 122.496L140.203 99.2732C140.375 97.0838 141.38 95.0225 143.875 94.8158L152.409 95.5052" fill="#CCC0E5"/>
<path d="M136.784 120.899C136.894 122.487 135.834 122.799 134.244 122.907C132.656 123.016 131.142 122.881 131.034 121.293C130.924 119.705 132.124 118.329 133.711 118.22C135.299 118.112 136.676 119.311 136.784 120.899Z" fill="#E25E68"/>
<path d="M138.912 122.386L135.588 122.616C134.721 122.674 133.961 122.013 133.903 121.145C133.843 120.277 134.504 119.517 135.372 119.458L138.695 119.23C139.564 119.17 140.323 119.832 140.383 120.7C140.441 121.568 139.78 122.328 138.912 122.386" fill="#E25E68"/>
<path d="M138.806 122.733L137.336 117.366L152.259 114.968L151.41 101.091C151.59 99.6212 153.2 97.9692 154.669 98.1478C156.139 98.3265 157.584 99.9238 157.405 101.393L158.48 118.02C158.353 119.064 157.628 119.937 156.627 120.253L138.806 122.733" fill="#CCC0E5"/>
<path d="M112.984 104.296L129.268 105.831C129.803 105.881 130.231 106.3 130.293 106.833L132.003 121.506C132.085 122.226 131.484 122.841 130.763 122.773L114.209 121.212C113.667 121.161 113.236 120.732 113.183 120.189L111.743 105.541C111.673 104.828 112.272 104.228 112.984 104.296Z" fill="#19181F"/>
<path d="M112.047 104.207L128.331 105.743C128.865 105.793 129.293 106.211 129.355 106.745L131.064 121.419C131.148 122.139 130.547 122.753 129.825 122.685L113.271 121.124C112.728 121.072 112.297 120.644 112.244 120.1L110.805 105.453C110.736 104.74 111.333 104.14 112.047 104.207" fill="#242837"/>
<path d="M131.551 121.608L142.676 122.657C143.016 122.689 143.264 122.991 143.233 123.329C143.2 123.669 142.9 123.917 142.561 123.885L130.763 122.816L131.551 121.608" fill="#19181F"/>
<path d="M121.38 113.109C121.288 114.088 120.417 114.808 119.439 114.716C118.459 114.622 117.739 113.754 117.832 112.774C117.923 111.794 118.793 111.074 119.773 111.168C120.752 111.26 121.472 112.129 121.38 113.109Z" fill="white"/>
<path d="M150.892 104.29L151.259 114.724L137.336 117.366L149.605 113.534L150.892 104.29" fill="#BAACDD"/>
<path d="M143.508 94.1211L144.437 96.6185C144.773 97.5185 145.607 98.1398 146.565 98.2051C148.387 98.3278 149.696 96.4851 148.981 94.8051L147.349 90.9691L143.508 94.1211Z" fill="#E25E68"/>
<path d="M144.336 96.3452C144.336 96.3452 148.921 95.4785 148.247 91.4692C147.573 87.4599 143.261 90.5879 143.261 90.5879L143.683 94.5906L144.336 96.3452" fill="#D84A55"/>
<path d="M137.261 84.3478C135.579 87.9465 137.132 92.2291 140.732 93.9105C144.331 95.5945 148.612 94.0398 150.295 90.4411C151.977 86.8425 150.424 82.5611 146.825 80.8771C143.227 79.1958 138.945 80.7491 137.261 84.3478Z" fill="#E25E68"/>
<path d="M146.447 88.8131C146.447 88.8131 145.313 94.5744 149.549 94.7011C153.785 94.8264 151.479 83.8918 151.479 83.8918L144.776 77.1464L134.517 79.6704L135.536 86.3024C135.536 86.3024 137.168 87.1678 145.985 85.7144L146.447 88.8131" fill="#342E66"/>
<path d="M142.26 84.3037L145.628 89.2317L148.533 86.0224L142.26 84.3037Z" fill="#342E66"/>
<path d="M145.313 87.476C144.839 88.492 145.277 89.7027 146.295 90.1787C147.312 90.6547 148.523 90.2146 148.999 89.1986C149.473 88.18 149.035 86.9707 148.017 86.4947C147 86.0187 145.791 86.4573 145.313 87.476Z" fill="#E25E68"/>
<path d="M135.863 86.1946C135.863 86.1946 134.308 80.5239 137.984 77.0146C141.016 74.1212 145.972 74.3079 148.663 77.5212C149.927 79.0306 150.943 81.3026 151.036 84.7186L135.863 86.1946" fill="#E1C11E"/>
<path d="M136.831 86.0971L136.787 82.5571V82.5384C136.787 81.7504 137.407 81.0984 138.196 81.0611L138.267 81.0598C139.023 81.0598 139.663 81.6318 139.739 82.3918L140.092 85.9238L140.464 85.8864L140.111 82.3544C140.015 81.4024 139.213 80.6864 138.267 80.6864L138.179 80.6891C137.191 80.7344 136.413 81.5504 136.413 82.5384V82.5624L136.457 86.1011L136.831 86.0971" fill="#E3981F"/>
<path d="M150.965 83.9745L134.457 85.5585C134.047 85.5985 133.745 85.9625 133.784 86.3731C133.824 86.7838 134.189 87.0851 134.6 87.0465L151.108 85.4625C151.519 85.4225 151.819 85.0571 151.78 84.6465C151.74 84.2358 151.376 83.9345 150.965 83.9745" fill="white"/>
<path d="M301.328 275.991L305.028 279.576L300.811 281.845L297.196 278.305L301.328 275.991" fill="#E25E68"/>
<path d="M275.281 249.212L277.753 260.154C278.249 262.346 279.201 264.452 280.571 266.381L296.848 281.005L303.285 275.761L289.387 261.044L284.295 241.637L275.281 249.212" fill="#262040"/>
<path d="M300.687 281.741L299.353 285.995L297.831 288.113C297.129 289.088 297.156 290.407 297.893 291.353L298.237 291.796L308.625 282.119L304.472 278.233L300.687 281.741Z" fill="#262040"/>
<path d="M308.729 282.149L298.261 291.901L297.423 291.002L307.891 281.249L308.729 282.149Z" fill="#262040"/>
<path d="M265.737 282.648L264.349 287.282L259.581 286.004L260.975 281.453L265.737 282.648Z" fill="#E25E68"/>
<path d="M272.127 237.005L258.776 282.139L267.2 284.241L274.716 261.616L283.949 246.813C284.417 246.152 284.879 245.46 285.268 244.745C286.008 243.391 286.34 241.913 286.324 240.432L286.292 237.496L272.127 237.005" fill="#342E66"/>
<path d="M259.857 285.559L255.644 287.115L253.016 287.205C251.809 287.247 250.773 288.08 250.473 289.251L250.333 289.797L264.444 292.119L264.985 286.416L259.857 285.559Z" fill="#262040"/>
<path d="M264.484 292.22L250.263 289.88L250.463 288.658L264.685 290.997L264.484 292.22Z" fill="#262040"/>
<path d="M253.492 191.164L248.096 199.584L250.683 201.44L256.267 192.532L253.492 191.164" fill="#3C48A5"/>
<path d="M246.484 177.211C246.484 177.211 248.977 187.648 261.613 191.756C261.977 191.873 262.255 192.18 262.305 192.56C262.467 193.768 262.468 196.38 259.675 197.155C259.409 197.228 259.116 197.175 258.884 197.029C256.952 195.819 247.447 190.261 238.22 191.865L246.484 177.211" fill="#4255AE"/>
<path d="M246.484 177.211C246.484 177.211 244.168 187.621 238.22 191.865C238.22 191.865 239.059 182.739 246.484 177.211Z" fill="#3C48A5"/>
<path d="M246.337 199.037C245.947 200.952 247.523 203.289 249.439 203.681C251.353 204.073 253.224 202.837 253.616 200.922C254.008 199.006 252.43 196.668 250.515 196.277C248.599 195.885 246.729 197.121 246.337 199.037" fill="#E25E68"/>
<path d="M256.476 204.66L252.735 200.752L250.292 203.759L256.476 208.292" fill="#E25E68"/>
<path d="M255.881 201.045L251.927 206.925L262.739 216.821C263.4 217.01 264.088 217.076 264.772 217.018L279.048 215.168C281.297 215.061 283.035 213.15 282.928 210.901C282.821 208.65 283.252 205.396 281.004 205.502L264.416 208.909L255.881 201.045" fill="#BAACDD"/>
<path d="M287.9 214.536C288.281 211.417 286.865 208.329 284.22 206.635C283.031 205.873 281.852 205.359 281.004 205.503C278.156 205.984 275.229 207.273 273.975 211.117C271.845 217.653 271.236 236.976 271.236 236.976L286.54 237.496L287.9 214.536" fill="#CCC0E5"/>
<path d="M282.251 215.023L286.852 231.932L287.783 217.587L282.251 215.023Z" fill="#BAACDD"/>
<path d="M301.008 248.391C302.455 247.075 302.56 244.257 301.244 242.811C299.929 241.364 297.689 241.259 296.244 242.573C294.796 243.888 294.691 246.707 296.007 248.152C297.321 249.599 299.56 249.707 301.008 248.391" fill="#E25E68"/>
<path d="M294.064 236.345L296.853 243.23L300.601 242.245L298.284 234.934" fill="#E25E68"/>
<path d="M294.241 241.657L301.904 239.973L296.708 222.199C296.516 221.54 296.204 220.921 295.792 220.373L286.249 208.496C284.96 206.651 282.788 206.98 280.94 208.268C279.093 209.557 278.641 212.099 279.929 213.947L289.119 224.995L294.241 241.657" fill="#CCC0E5"/>
<path d="M277.42 203.177L277.711 205.857C277.816 206.822 278.477 207.64 279.403 207.941C281.156 208.516 282.9 207.037 282.617 205.21L281.972 201.042L277.42 203.177" fill="#E25E68"/>
<path d="M277.68 205.564C277.68 205.564 282.405 205.409 282.744 201.312C283.081 197.213 278.06 199.652 278.06 199.652L277.475 203.68L277.68 205.564" fill="#D84A55"/>
<path d="M273.732 192.041C271.185 195.15 271.643 199.734 274.752 202.28C277.86 204.825 282.445 204.37 284.991 201.261C287.536 198.15 287.08 193.568 283.971 191.022C280.861 188.476 276.279 188.932 273.732 192.041" fill="#E25E68"/>
<path d="M281.624 198.705C281.624 198.705 279.077 204.072 283.199 205.25C287.319 206.428 287.784 195.134 287.784 195.134L282.892 186.853L272.207 186.772L271.553 193.528C271.553 193.528 272.937 194.782 281.943 195.553L281.624 198.705" fill="#342E66"/>
<path d="M278.643 193.242L280.719 198.913L284.365 196.489L278.643 193.242Z" fill="#342E66"/>
<path d="M280.847 197.112C280.127 197.99 280.256 199.288 281.135 200.006C282.015 200.726 283.309 200.597 284.029 199.718C284.749 198.84 284.62 197.544 283.74 196.824C282.861 196.104 281.567 196.233 280.847 197.112Z" fill="#E25E68"/>
<path d="M271.857 194.127C271.857 194.127 271.501 188.192 275.871 185.484C279.475 183.253 284.341 184.473 286.335 188.213C287.271 189.971 287.801 192.431 287.183 195.831L271.857 194.127" fill="#E1C11E"/>
<path d="M272.835 194.233L273.531 190.72C273.669 190.01 274.293 189.514 274.996 189.514L275.237 189.534C275.969 189.652 276.495 190.285 276.495 191.012L276.487 191.173L276.1 194.741L276.475 194.782L276.861 191.213L276.872 191.012C276.872 190.101 276.215 189.31 275.299 189.161L274.996 189.137C274.115 189.137 273.335 189.757 273.16 190.646L272.464 194.16L272.835 194.233" fill="#E3981F"/>
<path d="M287.267 195.08L270.599 193.205C270.184 193.158 269.809 193.457 269.763 193.872C269.716 194.286 270.015 194.66 270.429 194.706L287.097 196.581C287.512 196.628 287.887 196.33 287.933 195.916C287.98 195.501 287.681 195.126 287.267 195.08" fill="white"/>
<path d="M387.675 237.712L370.429 254.713L372.909 257.228L390.155 240.226" fill="#3F4FAA"/>
<path d="M387.675 219.544L370.429 236.545L372.909 239.06L390.155 222.058" fill="#3F4FAA"/>
<path d="M387.675 201.376L370.429 218.377L372.909 220.892L390.155 203.891" fill="#3F4FAA"/>
<path d="M387.675 183.208L370.429 200.209L372.909 202.724L390.155 185.723" fill="#3F4FAA"/>
<path d="M387.675 165.04L370.429 182.041L372.909 184.556L390.155 167.555" fill="#3F4FAA"/>
<path d="M387.675 146.872L370.429 163.873L372.909 166.388L390.155 149.386" fill="#3F4FAA"/>
<path d="M387.675 128.704L370.429 145.705L372.909 148.22L390.155 131.218" fill="#3F4FAA"/>
<path d="M387.675 110.536L370.429 127.537L372.909 130.052L390.155 113.05" fill="#3F4FAA"/>
<path d="M387.675 92.3678L370.429 109.369L372.909 111.884L390.155 94.8825" fill="#3F4FAA"/>
<path d="M387.675 74.1998L370.429 91.2011L372.909 93.7158L390.155 76.7145" fill="#3F4FAA"/>
<path d="M387.675 56.0318L370.429 73.0332L372.909 75.5479L390.155 58.5465" fill="#3F4FAA"/>
<path d="M371.669 239.568H388.915V236.036H371.669V239.568Z" fill="#3F4FAA"/>
<path d="M371.669 221.4H388.915V217.868H371.669V221.4Z" fill="#3F4FAA"/>
<path d="M371.669 203.232H388.915V199.7H371.669V203.232Z" fill="#3F4FAA"/>
<path d="M371.669 185.064H388.915V181.532H371.669V185.064Z" fill="#3F4FAA"/>
<path d="M371.669 166.896H388.915V163.364H371.669V166.896Z" fill="#3F4FAA"/>
<path d="M371.669 148.728H388.915V145.195H371.669V148.728Z" fill="#3F4FAA"/>
<path d="M371.669 130.56H388.915V127.028H371.669V130.56Z" fill="#3F4FAA"/>
<path d="M371.669 112.392H388.915V108.86H371.669V112.392Z" fill="#3F4FAA"/>
<path d="M371.669 94.2239H388.915V90.6916H371.669V94.2239Z" fill="#3F4FAA"/>
<path d="M371.669 76.0559H388.915V72.5252H371.669V76.0559Z" fill="#3F4FAA"/>
<path d="M369.903 260.893H373.434V60.1958H369.903V260.893Z" fill="#4B5BB2"/>
<path d="M387.149 260.893H390.681V60.1958H387.149V260.893Z" fill="#4B5BB2"/>
<path d="M397.123 291.652H362.779V255.971H397.123V291.652" fill="#342E66"/>
<path d="M388.961 60.1958H371.012C367.844 60.1958 365.277 57.6278 365.277 54.4611V31.9465C365.277 28.7798 367.844 26.2118 371.012 26.2118H388.961C392.128 26.2118 394.696 28.7798 394.696 31.9465V54.4611C394.696 57.6278 392.128 60.1958 388.961 60.1958Z" fill="#3F4FAA"/>
<path d="M379.512 50.3052H367.959V34.4065H379.512C381.911 34.4065 383.856 36.3519 383.856 38.7519V45.9599C383.856 48.3599 381.911 50.3052 379.512 50.3052" fill="#3947A4"/>
<path d="M256.527 62.5185L270.323 102.594L273.049 101.657L259.253 61.5798" fill="#342E66"/>
<path d="M247.136 56.4317L220.233 92.7677L222.551 94.4824L249.452 58.1464" fill="#342E66"/>
<path d="M256.328 75.1186L284.127 111.471C287.185 115.471 286.423 121.192 282.423 124.252L246.071 152.049C242.071 155.108 236.349 154.345 233.291 150.347L205.491 113.993C202.432 109.993 203.195 104.272 207.195 101.213L243.548 73.4133C247.547 70.3546 253.269 71.1186 256.328 75.1186" fill="#E1C11E"/>
<path d="M254.235 81.9558L253.644 82.4078L276.389 112.15C277.321 113.37 277.769 114.801 277.771 116.225C277.769 118.248 276.863 120.242 275.133 121.566L245.389 144.312C244.169 145.244 242.74 145.693 241.315 145.693C239.292 145.692 237.297 144.786 235.973 143.056L213.229 113.313C212.296 112.093 211.848 110.662 211.847 109.238C211.848 107.214 212.755 105.22 214.484 103.897L244.228 81.1518C245.448 80.2198 246.879 79.7705 248.303 79.7705C250.327 79.7705 252.32 80.6771 253.644 82.4078L254.235 81.9558L254.824 81.5051C253.211 79.3958 250.767 78.2838 248.303 78.2851C246.567 78.2851 244.811 78.8358 243.325 79.9718L213.583 102.717C211.472 104.33 210.361 106.773 210.363 109.238C210.361 110.974 210.913 112.73 212.049 114.214L234.793 143.957C236.407 146.068 238.851 147.178 241.315 147.178C243.052 147.178 244.807 146.626 246.292 145.49L276.036 122.746C278.145 121.133 279.256 118.689 279.255 116.225C279.256 114.489 278.704 112.733 277.568 111.249L254.824 81.5051L254.235 81.9558" fill="#342E66"/>
<path d="M250.691 96.1452L247.476 118.829L240.589 117.911C241.608 110.28 242.455 102.863 243.477 95.1839L250.691 96.1452ZM247.168 126.297C246.449 131.695 238.257 130.603 238.977 125.205C239.704 119.76 247.895 120.852 247.168 126.297Z" fill="#342E66"/>
<path d="M265.488 53.8944C265.488 60.2637 260.324 65.4277 253.955 65.4277C247.584 65.4277 242.421 60.2637 242.421 53.8944C242.421 47.5251 247.584 42.3611 253.955 42.3611C260.324 42.3611 265.488 47.5251 265.488 53.8944Z" fill="#342E66"/>
<path d="M262.109 53.8947C262.109 58.3987 258.459 62.0493 253.955 62.0493C249.451 62.0493 245.799 58.3987 245.799 53.8947C245.799 49.3907 249.451 45.74 253.955 45.74C258.459 45.74 262.109 49.3907 262.109 53.8947Z" fill="#3E3885"/>
<path d="M297.415 26.2119H300.947V1.76498H297.415V26.2119Z" fill="#3F4FAA"/>
<path d="M275.492 26.2119H279.024V1.76498H275.492V26.2119Z" fill="#3F4FAA"/>
<path d="M319.265 26.2119H322.797V1.76498H319.265V26.2119Z" fill="#3F4FAA"/>
<path d="M343.544 26.2119H347.076V1.76498H343.544V26.2119Z" fill="#3F4FAA"/>
<path d="M366.192 26.2119H369.724V1.76498H366.192V26.2119Z" fill="#3F4FAA"/>
<path d="M389.672 26.2119H393.204V1.76498H389.672V26.2119Z" fill="#3F4FAA"/>
<path d="M412.737 26.2119H416.27V1.76498H412.737V26.2119Z" fill="#3F4FAA"/>
<path d="M277.4 27.4238L300.465 2.97715L297.896 0.554494L274.831 24.9998" fill="#3F4FAA"/>
<path d="M300.465 27.4238L323.529 2.97715L320.96 0.554494L297.896 24.9998" fill="#3F4FAA"/>
<path d="M323.529 27.4238L346.595 2.97715L344.025 0.554494L320.96 24.9998" fill="#3F4FAA"/>
<path d="M346.595 27.4238L369.657 2.97715L367.089 0.554494L344.025 24.9998" fill="#3F4FAA"/>
<path d="M369.657 27.4238L392.723 2.97715L390.155 0.554494L367.089 24.9998" fill="#3F4FAA"/>
<path d="M392.723 27.4238L415.788 2.97715L413.219 0.554494L390.155 24.9998" fill="#3F4FAA"/>
<path d="M253.955 26.2118V27.9785H442.005C442.724 27.9785 443.373 27.5412 443.643 26.8732C443.912 26.2065 443.749 25.4412 443.232 24.9425L417.911 0.495868C417.581 0.177201 417.143 -0.000161093 416.684 -0.000161093H273.407C272.871 -0.000161093 272.359 0.246506 272.025 0.666506L252.572 25.1132C252.152 25.6412 252.069 26.3705 252.364 26.9799C252.657 27.5879 253.279 27.9785 253.955 27.9785V26.2118L255.336 27.3118L274.259 3.53184H415.971L437.633 24.4465H253.955V26.2118L255.336 27.3118L253.955 26.2118Z" fill="#4B5BB2"/>
<path d="M252.188 26.2118V53.8945C252.188 54.8705 252.979 55.6611 253.955 55.6611C254.929 55.6611 255.72 54.8705 255.72 53.8945V26.2118C255.72 25.2371 254.929 24.4465 253.955 24.4465C252.979 24.4465 252.188 25.2371 252.188 26.2118Z" fill="#4B5BB2"/>
<path d="M154.535 288.349L167.697 254.328C168.325 252.706 170.621 252.706 171.248 254.328L184.411 288.349H154.535" fill="#E1C11E"/>
<path d="M180.956 268.864H157.584V261.644H180.956V268.864Z" fill="#F8F7F7"/>
<path d="M182.741 282.51H156.307V275.289H182.741V282.51Z" fill="#F8F7F7"/>
<path d="M186.968 291.216H152.128V288.349H186.968V291.216Z" fill="#D3B520"/>
<path d="M345.677 288.455L358.841 254.433C359.468 252.812 361.763 252.812 362.391 254.433L375.555 288.455H345.677" fill="#E1C11E"/>
<path d="M372.099 268.969H348.727V261.749H372.099V268.969Z" fill="#F8F7F7"/>
<path d="M373.884 282.615H347.451V275.394H373.884V282.615Z" fill="#F8F7F7"/>
<path d="M378.111 291.321H343.272V288.455H378.111V291.321Z" fill="#D3B520"/>
<path d="M110.375 231.485C110.375 246.584 98.136 258.823 83.0386 258.823C67.9413 258.823 55.7026 246.584 55.7026 231.485C55.7026 216.389 67.9413 204.151 83.0386 204.151C98.136 204.151 110.375 216.389 110.375 231.485Z" fill="#4B5BB2"/>
<path d="M82.2815 221.743V291.216C82.2815 291.635 82.6202 291.975 83.0388 291.975C83.4575 291.975 83.7961 291.635 83.7961 291.216V221.743C83.7961 221.324 83.4575 220.985 83.0388 220.985C82.6202 220.985 82.2815 221.324 82.2815 221.743Z" fill="#3F4FAA"/>
<path d="M71.8427 223.663L82.4734 235.584C82.7521 235.896 83.2307 235.924 83.5427 235.645C83.8561 235.367 83.8827 234.888 83.6041 234.576L72.9747 222.653C72.6961 222.341 72.2161 222.313 71.9041 222.592C71.5921 222.871 71.5641 223.349 71.8427 223.663Z" fill="#3F4FAA"/>
<path d="M91.932 233.888C91.5347 234.285 89.188 236.721 86.9213 239.076C84.66 241.428 82.492 243.685 82.492 243.685C82.2026 243.986 82.212 244.466 82.5133 244.756C82.816 245.046 83.296 245.036 83.5853 244.734C83.5866 244.733 84.1266 244.17 84.952 243.313C87.4213 240.742 92.452 235.51 93.0027 234.96C93.3 234.664 93.3 234.184 93.004 233.888C92.708 233.592 92.228 233.592 91.932 233.888" fill="#3F4FAA"/>
<path d="M0.757324 292.644H459.293C459.711 292.644 460.051 292.304 460.051 291.885C460.051 291.466 459.711 291.128 459.293 291.128H0.757324C0.338658 291.128 0 291.466 0 291.885C0 292.304 0.338658 292.644 0.757324 292.644Z" fill="#3F4FAA"/>
</svg>
