<svg width="1280" height="720" viewBox="0 0 1280 720" fill="none" xmlns="http://www.w3.org/2000/svg">
<g clip-path="url(#clip0)">
<rect width="1280" height="720" fill="#1A6EFC"/>
<path fill-rule="evenodd" clip-rule="evenodd" d="M785.506 -65.3863C814.126 -32.2094 1058.5 -347.5 841.373 60.076C791.805 153.121 613.374 237.092 524 347C445.823 443.138 433.489 572.757 352.116 661.737C269.5 752.075 209.178 727.424 140.949 752.075C80.629 773.868 21.3441 797.48 -23.1245 797.307C-83.9875 797.071 -258.09 738.66 -190.623 670.431C-97.9286 576.688 20.7179 528.185 110.796 412.482C198.316 300.064 168.609 168.331 290.63 35.8844C476.074 -165.404 587.689 -108.176 671.142 -137.26C751.22 -165.169 755.71 -99.9268 785.506 -65.3863Z" fill="#458AFD"/>
<path fill-rule="evenodd" clip-rule="evenodd" d="M1565.7 300.585C1586.53 324.739 1639.63 322.997 1606.37 391.925C1573.01 461.051 1474.24 544.959 1409.17 624.974C1352.26 694.965 1316.55 772.493 1250.18 829.951C1183.79 887.424 1146.11 877.773 1096.44 895.719C1052.53 911.585 1009.37 928.775 976.992 928.65C932.682 928.478 805.931 885.953 855.049 836.28C922.533 768.033 1008.91 732.722 1074.49 648.487C1138.21 566.644 1116.58 470.738 1205.41 374.313C1340.42 227.77 1421.68 269.434 1482.44 248.259C1540.74 227.941 1544.01 275.439 1565.7 300.585Z" fill="#458AFD"/>
<rect x="155" y="101" width="969" height="518" rx="35" fill="white"/>
<path d="M444.73 315.216C453.913 317.677 463.586 312.169 463.698 302.664C463.776 296.064 462.905 289.458 461.086 283.052C457.692 271.093 451.124 260.277 442.078 251.75C433.033 243.224 421.848 237.305 409.71 234.622C397.572 231.94 384.934 232.593 373.138 236.514C361.341 240.434 350.826 247.475 342.709 256.889C334.591 266.303 329.173 277.739 327.031 289.984C324.888 302.228 326.1 314.825 330.539 326.436C332.917 332.657 336.173 338.47 340.186 343.71C345.965 351.258 357.011 349.88 362.894 342.413C368.777 334.946 366.923 324.111 363.19 315.368C363.018 314.963 362.852 314.555 362.695 314.144C360.476 308.338 359.87 302.04 360.941 295.918C362.012 289.795 364.721 284.077 368.78 279.37C372.839 274.663 378.096 271.143 383.995 269.182C389.893 267.222 396.212 266.896 402.28 268.237C408.349 269.578 413.942 272.537 418.465 276.801C422.988 281.064 426.272 286.472 427.969 292.451C428.089 292.875 428.201 293.301 428.305 293.728C430.548 302.966 435.548 312.756 444.73 315.216Z" fill="#1A6EFC"/>
<path d="M343.21 301.851C333.704 301.851 325.786 309.675 328.138 318.885C329.352 323.642 331.076 328.27 333.289 332.689C338.084 342.261 345.046 350.583 353.62 356.994C362.195 363.405 372.146 367.728 382.684 369.619C393.222 371.511 404.056 370.919 414.325 367.891C424.594 364.862 434.015 359.481 441.84 352.173C449.665 344.866 455.678 335.835 459.402 325.797C463.125 315.76 464.457 304.992 463.29 294.349C462.752 289.437 461.688 284.614 460.127 279.96C457.104 270.947 446.208 268.672 438.223 273.83L437.194 274.496C429.777 279.287 428.107 289.323 429.069 298.1C429.653 303.421 428.987 308.805 427.125 313.824C425.263 318.843 422.257 323.359 418.344 327.012C414.432 330.666 409.721 333.357 404.587 334.871C399.452 336.385 394.035 336.681 388.766 335.735C383.497 334.79 378.522 332.628 374.234 329.423C369.947 326.217 366.466 322.056 364.069 317.27C360.114 309.376 353.265 301.851 344.436 301.851H343.21Z" fill="url(#paint0_linear)"/>
<circle cx="486.63" cy="251.37" r="18.3698" fill="#1A6EFC"/>
<path d="M576.312 362.064C583.751 362.064 590.459 360.581 596.436 357.613C602.413 354.603 607.143 350.475 610.626 345.229C614.109 339.94 615.85 333.856 615.85 326.976C615.85 320.096 614.109 314.033 610.626 308.787C607.143 303.498 602.413 299.37 596.436 296.403C590.459 293.393 583.751 291.888 576.312 291.888C568.873 291.888 562.165 293.393 556.188 296.403C550.211 299.37 545.481 303.498 541.998 308.787C538.515 314.033 536.773 320.096 536.773 326.976C536.773 333.856 538.515 339.94 541.998 345.229C545.481 350.475 550.211 354.603 556.188 357.613C562.165 360.581 568.873 362.064 576.312 362.064ZM576.312 342.069C572.184 342.069 568.658 340.671 565.734 337.876C562.853 335.038 561.412 331.405 561.412 326.976C561.412 322.504 562.853 318.87 565.734 316.075C568.658 313.28 572.184 311.883 576.312 311.883C580.44 311.883 583.944 313.28 586.825 316.075C589.749 318.87 591.211 322.504 591.211 326.976C591.211 331.405 589.749 335.038 586.825 337.876C583.944 340.671 580.44 342.069 576.312 342.069ZM631.146 360H654.688V325.492C654.688 323.213 655.355 321.063 656.688 319.042C658.021 317.021 659.762 315.387 661.912 314.14C664.105 312.893 666.406 312.27 668.814 312.27C670.577 312.27 672.49 312.614 674.554 313.302C676.618 313.947 678.424 314.807 679.972 315.882L689.776 296.08C688.013 294.833 685.799 293.823 683.133 293.049C680.467 292.275 677.908 291.888 675.457 291.888C671.458 291.888 667.653 292.898 664.041 294.919C660.429 296.897 657.311 299.692 654.688 303.304V293.952H631.146V360ZM743.696 362.064C749.63 362.064 755.048 360.581 759.95 357.613C764.852 354.603 768.765 350.475 771.689 345.229C774.656 339.94 776.14 333.856 776.14 326.976C776.14 320.268 774.721 314.269 771.883 308.98C769.045 303.691 765.132 299.52 760.144 296.467C755.199 293.414 749.523 291.888 743.116 291.888C738.945 291.888 735.032 292.619 731.377 294.081C727.722 295.5 724.583 297.478 721.96 300.015V249.06H698.417V360H721.96V353.163C724.927 356.001 728.259 358.194 731.957 359.742C735.698 361.29 739.611 362.064 743.696 362.064ZM736.472 342.133C732.086 342.133 728.474 340.714 725.636 337.876C722.841 334.995 721.444 331.405 721.444 327.105C721.444 322.719 722.863 319.085 725.701 316.204C728.582 313.28 732.151 311.818 736.408 311.818C740.665 311.818 744.212 313.28 747.05 316.204C749.888 319.085 751.307 322.74 751.307 327.169C751.307 331.469 749.91 335.038 747.115 337.876C744.363 340.714 740.815 342.133 736.472 342.133ZM804.387 280.02C808.171 280.02 811.396 278.665 814.062 275.956C816.771 273.247 818.125 270.001 818.125 266.217C818.125 262.433 816.771 259.208 814.062 256.542C811.396 253.833 808.171 252.478 804.387 252.478C800.603 252.478 797.356 253.833 794.647 256.542C791.981 259.208 790.648 262.433 790.648 266.217C790.648 270.001 791.981 273.247 794.647 275.956C797.356 278.665 800.603 280.02 804.387 280.02ZM792.648 360H816.19V293.952H792.648V360ZM862.964 362.064C865.888 362.064 868.876 361.699 871.929 360.968C874.982 360.237 877.756 359.204 880.25 357.872L874.38 338.973C872.531 340.349 870.661 341.037 868.769 341.037C865.458 341.037 863.802 338.93 863.802 334.716V311.818H877.605V293.952H863.802V269.184H840.26V293.952H830.649V311.818H840.26V336.457C840.26 344.498 842.259 350.776 846.258 355.291C850.257 359.806 855.826 362.064 862.964 362.064ZM915.36 362.064C925.121 362.064 932.667 360.107 937.999 356.194C943.331 352.281 945.997 346.648 945.997 339.295C945.997 335.382 945.288 332.243 943.869 329.878C942.45 327.47 940.515 325.535 938.064 324.073C935.613 322.611 932.839 321.343 929.743 320.268C927.937 319.623 925.938 318.892 923.745 318.075C921.595 317.215 919.724 316.269 918.133 315.237C916.585 314.205 915.811 313.065 915.811 311.818C915.811 310.657 916.392 309.69 917.553 308.916C918.757 308.142 920.369 307.755 922.39 307.755C926.303 307.755 931.291 309.26 937.354 312.27L944.965 296.854C935.849 293.629 928.26 292.017 922.197 292.017C916.564 292.017 911.576 292.963 907.233 294.855C902.89 296.704 899.493 299.262 897.042 302.53C894.591 305.798 893.365 309.582 893.365 313.882C893.365 317.279 894.096 320.074 895.558 322.267C897.063 324.46 898.998 326.266 901.363 327.685C903.728 329.104 906.244 330.394 908.91 331.555C913.296 333.404 916.456 334.802 918.391 335.748C920.326 336.651 921.294 338.113 921.294 340.134C921.294 343.23 919.337 344.778 915.424 344.778C910.049 344.778 904.33 342.305 898.267 337.36L888.721 353.421C895.085 359.183 903.965 362.064 915.36 362.064Z" fill="#3A3A3A"/>
<path d="M342.462 454H344.796V446.26H346.579L352.455 454H355.422L349.143 446.019C350.646 445.797 351.83 445.195 352.697 444.213C353.563 443.232 353.996 441.994 353.996 440.499C353.996 438.782 353.44 437.44 352.329 436.474C351.225 435.508 349.73 435.025 347.844 435.025H342.462V454ZM344.796 444.271V436.911H347.211C348.583 436.911 349.653 437.233 350.42 437.877C351.194 438.521 351.581 439.414 351.581 440.556C351.581 441.706 351.19 442.615 350.408 443.282C349.634 443.941 348.568 444.271 347.211 444.271H344.796ZM363.332 454.368C364.528 454.368 365.613 454.111 366.586 453.597C367.568 453.084 368.338 452.363 368.898 451.435L367.265 450.584C366.322 451.895 365.049 452.551 363.447 452.551C362.596 452.551 361.841 452.375 361.181 452.022C360.53 451.662 360.016 451.167 359.64 450.538C359.272 449.91 359.088 449.185 359.088 448.365H369.208C369.247 448.204 369.266 448.043 369.266 447.882C369.266 446.686 369.005 445.636 368.484 444.731C367.97 443.826 367.25 443.121 366.322 442.615C365.402 442.109 364.329 441.856 363.102 441.856C362.236 441.856 361.423 442.017 360.664 442.339C359.905 442.661 359.238 443.113 358.663 443.696C358.088 444.271 357.639 444.938 357.317 445.697C356.995 446.456 356.834 447.272 356.834 448.146C356.834 449.327 357.118 450.389 357.685 451.332C358.253 452.267 359.027 453.007 360.008 453.551C360.99 454.096 362.098 454.368 363.332 454.368ZM359.203 446.72C359.357 445.793 359.79 445.053 360.503 444.501C361.216 443.949 362.094 443.673 363.136 443.673C364.125 443.673 364.976 443.957 365.689 444.524C366.41 445.084 366.855 445.816 367.023 446.72H359.203ZM376.033 454.368C377.413 454.368 378.521 454.023 379.357 453.333C380.2 452.643 380.622 451.692 380.622 450.481C380.622 449.791 380.484 449.243 380.208 448.836C379.932 448.422 379.544 448.085 379.046 447.824C378.555 447.564 377.98 447.311 377.321 447.065C376.884 446.897 376.462 446.724 376.056 446.548C375.65 446.372 375.316 446.165 375.056 445.927C374.795 445.682 374.665 445.379 374.665 445.018C374.665 444.551 374.845 444.171 375.205 443.88C375.565 443.581 376.037 443.431 376.62 443.431C377.586 443.431 378.467 443.853 379.265 444.696L380.162 443.339C379.05 442.358 377.865 441.867 376.608 441.867C375.826 441.867 375.128 442.009 374.515 442.293C373.902 442.577 373.419 442.968 373.066 443.466C372.721 443.964 372.549 444.535 372.549 445.179C372.549 445.777 372.694 446.272 372.986 446.663C373.285 447.046 373.664 447.364 374.124 447.617C374.584 447.87 375.059 448.097 375.55 448.296C376.163 448.534 376.673 448.744 377.08 448.928C377.494 449.112 377.804 449.327 378.011 449.572C378.226 449.81 378.333 450.14 378.333 450.561C378.333 451.221 378.107 451.738 377.655 452.114C377.21 452.49 376.666 452.677 376.022 452.677C375.362 452.677 374.745 452.49 374.17 452.114C373.595 451.738 373.104 451.209 372.698 450.527L371.629 451.907C372.073 452.697 372.671 453.306 373.423 453.735C374.182 454.157 375.052 454.368 376.033 454.368ZM389.971 454.368C391.167 454.368 392.251 454.111 393.225 453.597C394.206 453.084 394.977 452.363 395.537 451.435L393.904 450.584C392.961 451.895 391.688 452.551 390.086 452.551C389.235 452.551 388.479 452.375 387.82 452.022C387.168 451.662 386.655 451.167 386.279 450.538C385.911 449.91 385.727 449.185 385.727 448.365H395.847C395.885 448.204 395.905 448.043 395.905 447.882C395.905 446.686 395.644 445.636 395.123 444.731C394.609 443.826 393.888 443.121 392.961 442.615C392.041 442.109 390.967 441.856 389.741 441.856C388.874 441.856 388.062 442.017 387.303 442.339C386.544 442.661 385.877 443.113 385.302 443.696C384.727 444.271 384.278 444.938 383.956 445.697C383.634 446.456 383.473 447.272 383.473 448.146C383.473 449.327 383.757 450.389 384.324 451.332C384.891 452.267 385.666 453.007 386.647 453.551C387.628 454.096 388.736 454.368 389.971 454.368ZM385.842 446.72C385.995 445.793 386.429 445.053 387.142 444.501C387.855 443.949 388.732 443.673 389.775 443.673C390.764 443.673 391.615 443.957 392.328 444.524C393.049 445.084 393.493 445.816 393.662 446.72H385.842ZM404.501 454.368C405.475 454.368 406.364 454.142 407.169 453.689C407.974 453.237 408.633 452.605 409.147 451.792V454H411.378V442.224H409.147V444.374C408.695 443.585 408.054 442.968 407.226 442.523C406.406 442.078 405.498 441.856 404.501 441.856C403.374 441.856 402.37 442.128 401.488 442.672C400.606 443.217 399.912 443.96 399.406 444.903C398.9 445.839 398.647 446.904 398.647 448.1C398.647 449.312 398.904 450.389 399.418 451.332C399.939 452.275 400.641 453.019 401.522 453.563C402.412 454.1 403.405 454.368 404.501 454.368ZM405.099 452.447C404.302 452.447 403.592 452.263 402.971 451.895C402.35 451.52 401.86 451.006 401.499 450.354C401.147 449.695 400.97 448.948 400.97 448.112C400.97 447.269 401.147 446.521 401.499 445.869C401.86 445.218 402.35 444.708 402.971 444.34C403.592 443.964 404.302 443.776 405.099 443.776C405.904 443.776 406.613 443.964 407.226 444.34C407.847 444.708 408.334 445.218 408.687 445.869C409.04 446.521 409.216 447.269 409.216 448.112C409.216 448.955 409.04 449.703 408.687 450.354C408.334 451.006 407.847 451.52 407.226 451.895C406.613 452.263 405.904 452.447 405.099 452.447ZM416.086 454H418.317V446.582C418.317 446.099 418.459 445.647 418.743 445.225C419.034 444.804 419.41 444.463 419.87 444.202C420.337 443.934 420.828 443.799 421.342 443.799C421.618 443.799 421.913 443.838 422.227 443.914C422.541 443.991 422.817 444.095 423.055 444.225L423.975 442.339C423.699 442.193 423.369 442.078 422.986 441.994C422.61 441.902 422.239 441.856 421.871 441.856C420.299 441.856 419.114 442.554 418.317 443.949V442.224H416.086V454ZM432.083 454.368C432.858 454.368 433.59 454.253 434.28 454.023C434.97 453.793 435.56 453.49 436.051 453.114L435.2 451.608C434.448 452.206 433.513 452.505 432.394 452.505C431.52 452.505 430.745 452.313 430.071 451.93C429.404 451.539 428.882 451.014 428.507 450.354C428.131 449.687 427.943 448.94 427.943 448.112C427.943 447.307 428.123 446.571 428.484 445.904C428.852 445.237 429.369 444.708 430.036 444.317C430.703 443.918 431.481 443.719 432.371 443.719C433.49 443.719 434.437 444.018 435.211 444.616L436.051 443.109C435.568 442.726 434.977 442.423 434.28 442.201C433.582 441.971 432.846 441.856 432.072 441.856C430.853 441.856 429.756 442.136 428.783 442.695C427.817 443.255 427.05 444.006 426.483 444.949C425.923 445.892 425.643 446.947 425.643 448.112C425.643 449.3 425.931 450.366 426.506 451.309C427.088 452.252 427.867 452.999 428.84 453.551C429.814 454.096 430.895 454.368 432.083 454.368ZM439.468 454H441.699V446.536C441.699 445.754 441.979 445.076 442.538 444.501C443.098 443.918 443.872 443.627 444.861 443.627C445.82 443.627 446.563 443.926 447.092 444.524C447.621 445.114 447.886 445.961 447.886 447.065V454H450.117V446.617C450.117 445.13 449.714 443.964 448.909 443.121C448.104 442.278 447.02 441.856 445.655 441.856C444.727 441.856 443.926 442.036 443.251 442.396C442.577 442.757 442.059 443.205 441.699 443.742V434.208H439.468V454ZM455.711 439.843C456.094 439.843 456.42 439.705 456.688 439.429C456.964 439.153 457.102 438.824 457.102 438.44C457.102 438.057 456.964 437.731 456.688 437.463C456.42 437.187 456.094 437.049 455.711 437.049C455.327 437.049 454.998 437.187 454.722 437.463C454.453 437.731 454.319 438.057 454.319 438.44C454.319 438.824 454.453 439.153 454.722 439.429C454.998 439.705 455.327 439.843 455.711 439.843ZM454.595 454H456.826V442.224H454.595V454ZM461.547 454H463.778V446.536C463.778 445.754 464.058 445.076 464.617 444.501C465.177 443.926 465.951 443.638 466.94 443.638C467.899 443.638 468.642 443.934 469.171 444.524C469.7 445.114 469.965 445.961 469.965 447.065V454H472.196V446.617C472.196 445.13 471.793 443.964 470.988 443.121C470.183 442.278 469.099 441.856 467.734 441.856C466.806 441.856 466.005 442.036 465.33 442.396C464.656 442.757 464.138 443.205 463.778 443.742V442.224H461.547V454ZM482.022 460.325C484.107 460.325 485.717 459.796 486.852 458.738C487.986 457.68 488.554 456.208 488.554 454.322V442.224H486.323V444.374C485.855 443.585 485.215 442.968 484.402 442.523C483.589 442.078 482.692 441.856 481.711 441.856C480.584 441.856 479.576 442.128 478.687 442.672C477.805 443.217 477.107 443.96 476.594 444.903C476.08 445.839 475.823 446.908 475.823 448.112C475.823 449.323 476.084 450.4 476.605 451.343C477.126 452.286 477.828 453.026 478.71 453.563C479.591 454.1 480.576 454.368 481.665 454.368C482.646 454.368 483.543 454.142 484.356 453.689C485.169 453.229 485.824 452.597 486.323 451.792V454.311C486.323 455.162 486.135 455.894 485.759 456.507C485.391 457.12 484.881 457.592 484.23 457.922C483.586 458.251 482.85 458.416 482.022 458.416C481.056 458.416 480.185 458.198 479.411 457.761C478.637 457.331 478.073 456.752 477.721 456.024L475.869 456.898C476.889 459.183 478.94 460.325 482.022 460.325ZM482.263 452.447C481.466 452.447 480.757 452.263 480.136 451.895C479.515 451.52 479.028 451.006 478.675 450.354C478.322 449.703 478.146 448.959 478.146 448.123C478.146 447.28 478.322 446.533 478.675 445.881C479.035 445.222 479.526 444.708 480.147 444.34C480.768 443.964 481.477 443.776 482.275 443.776C483.072 443.776 483.781 443.964 484.402 444.34C485.023 444.708 485.51 445.222 485.863 445.881C486.223 446.533 486.403 447.28 486.403 448.123C486.403 448.959 486.227 449.703 485.874 450.354C485.521 451.006 485.031 451.52 484.402 451.895C483.781 452.263 483.068 452.447 482.263 452.447ZM494.659 457.14C495.342 456.595 495.894 455.947 496.315 455.196C496.745 454.445 496.959 453.732 496.959 453.057C496.959 452.513 496.818 452.091 496.534 451.792C496.25 451.493 495.875 451.343 495.407 451.343C494.955 451.343 494.587 451.481 494.303 451.757C494.019 452.033 493.877 452.39 493.877 452.827C493.877 453.187 493.985 453.498 494.199 453.758C494.422 454.019 494.713 454.188 495.073 454.265C495.035 454.686 494.912 455.127 494.705 455.587C494.498 456.047 494.28 456.4 494.05 456.645L494.659 457.14ZM508.515 454H518.371V451.941H510.85V445.513H518.095V443.466H510.85V437.083H518.371V435.025H508.515V454ZM520.845 454H523.501L527.239 449.377L530.965 454H533.621L528.63 447.905L532.943 442.224H530.367L527.239 446.352L524.099 442.224H521.523L525.836 447.905L520.845 454ZM536.454 459.98H538.685V451.792C539.191 452.605 539.851 453.237 540.663 453.689C541.476 454.142 542.365 454.368 543.331 454.368C544.451 454.368 545.451 454.096 546.333 453.551C547.214 453.007 547.908 452.263 548.414 451.32C548.928 450.37 549.185 449.3 549.185 448.112C549.185 446.908 548.928 445.839 548.414 444.903C547.901 443.96 547.199 443.217 546.31 442.672C545.428 442.128 544.42 441.856 543.285 441.856C542.312 441.856 541.418 442.078 540.606 442.523C539.801 442.96 539.161 443.573 538.685 444.363V442.224H536.454V459.98ZM542.745 452.447C541.947 452.447 541.234 452.263 540.606 451.895C539.985 451.52 539.494 451.006 539.134 450.354C538.781 449.703 538.605 448.955 538.605 448.112C538.605 447.269 538.781 446.521 539.134 445.869C539.494 445.218 539.985 444.708 540.606 444.34C541.234 443.964 541.947 443.776 542.745 443.776C543.542 443.776 544.247 443.964 544.861 444.34C545.482 444.708 545.969 445.222 546.321 445.881C546.682 446.533 546.862 447.28 546.862 448.123C546.862 448.959 546.685 449.703 546.333 450.354C545.98 451.006 545.493 451.52 544.872 451.895C544.251 452.263 543.542 452.447 542.745 452.447ZM553.03 454H555.261V434.22H553.03V454ZM565.663 454.368C566.913 454.368 568.036 454.104 569.033 453.574C570.037 453.045 570.831 452.309 571.413 451.366C572.004 450.423 572.299 449.339 572.299 448.112C572.299 446.878 572.004 445.793 571.413 444.857C570.831 443.914 570.037 443.178 569.033 442.649C568.036 442.12 566.913 441.856 565.663 441.856C564.414 441.856 563.287 442.12 562.282 442.649C561.286 443.178 560.492 443.914 559.902 444.857C559.319 445.793 559.028 446.878 559.028 448.112C559.028 449.339 559.319 450.423 559.902 451.366C560.492 452.309 561.286 453.045 562.282 453.574C563.287 454.104 564.414 454.368 565.663 454.368ZM565.663 452.424C564.843 452.424 564.107 452.24 563.455 451.872C562.804 451.504 562.29 450.995 561.914 450.343C561.539 449.691 561.351 448.948 561.351 448.112C561.351 447.269 561.539 446.525 561.914 445.881C562.29 445.229 562.804 444.719 563.455 444.351C564.107 443.983 564.843 443.799 565.663 443.799C566.491 443.799 567.231 443.983 567.883 444.351C568.534 444.719 569.048 445.229 569.424 445.881C569.799 446.525 569.987 447.269 569.987 448.112C569.987 448.948 569.799 449.691 569.424 450.343C569.048 450.995 568.534 451.504 567.883 451.872C567.231 452.24 566.491 452.424 565.663 452.424ZM576.03 454H578.261V446.582C578.261 446.099 578.403 445.647 578.687 445.225C578.978 444.804 579.354 444.463 579.814 444.202C580.282 443.934 580.772 443.799 581.286 443.799C581.562 443.799 581.857 443.838 582.171 443.914C582.486 443.991 582.762 444.095 582.999 444.225L583.919 442.339C583.643 442.193 583.314 442.078 582.93 441.994C582.555 441.902 582.183 441.856 581.815 441.856C580.243 441.856 579.059 442.554 578.261 443.949V442.224H576.03V454ZM587.781 439.843C588.164 439.843 588.49 439.705 588.758 439.429C589.034 439.153 589.172 438.824 589.172 438.44C589.172 438.057 589.034 437.731 588.758 437.463C588.49 437.187 588.164 437.049 587.781 437.049C587.398 437.049 587.068 437.187 586.792 437.463C586.524 437.731 586.389 438.057 586.389 438.44C586.389 438.824 586.524 439.153 586.792 439.429C587.068 439.705 587.398 439.843 587.781 439.843ZM586.665 454H588.896V442.224H586.665V454ZM593.617 454H595.848V446.536C595.848 445.754 596.128 445.076 596.688 444.501C597.247 443.926 598.022 443.638 599.011 443.638C599.969 443.638 600.713 443.934 601.242 444.524C601.771 445.114 602.035 445.961 602.035 447.065V454H604.266V446.617C604.266 445.13 603.864 443.964 603.059 443.121C602.254 442.278 601.169 441.856 599.804 441.856C598.877 441.856 598.075 442.036 597.401 442.396C596.726 442.757 596.209 443.205 595.848 443.742V442.224H593.617V454ZM614.092 460.325C616.177 460.325 617.787 459.796 618.922 458.738C620.057 457.68 620.624 456.208 620.624 454.322V442.224H618.393V444.374C617.925 443.585 617.285 442.968 616.472 442.523C615.66 442.078 614.763 441.856 613.781 441.856C612.654 441.856 611.646 442.128 610.757 442.672C609.875 443.217 609.178 443.96 608.664 444.903C608.15 445.839 607.893 446.908 607.893 448.112C607.893 449.323 608.154 450.4 608.675 451.343C609.197 452.286 609.898 453.026 610.78 453.563C611.662 454.1 612.647 454.368 613.735 454.368C614.717 454.368 615.614 454.142 616.426 453.689C617.239 453.229 617.895 452.597 618.393 451.792V454.311C618.393 455.162 618.205 455.894 617.829 456.507C617.461 457.12 616.952 457.592 616.3 457.922C615.656 458.251 614.92 458.416 614.092 458.416C613.126 458.416 612.256 458.198 611.481 457.761C610.707 457.331 610.144 456.752 609.791 456.024L607.939 456.898C608.959 459.183 611.01 460.325 614.092 460.325ZM614.333 452.447C613.536 452.447 612.827 452.263 612.206 451.895C611.585 451.52 611.098 451.006 610.745 450.354C610.393 449.703 610.216 448.959 610.216 448.123C610.216 447.28 610.393 446.533 610.745 445.881C611.106 445.222 611.596 444.708 612.217 444.34C612.838 443.964 613.548 443.776 614.345 443.776C615.142 443.776 615.851 443.964 616.472 444.34C617.093 444.708 617.58 445.222 617.933 445.881C618.293 446.533 618.473 447.28 618.473 448.123C618.473 448.959 618.297 449.703 617.944 450.354C617.592 451.006 617.101 451.52 616.472 451.895C615.851 452.263 615.138 452.447 614.333 452.447ZM636.32 454.368C637.294 454.368 638.183 454.142 638.988 453.689C639.793 453.237 640.453 452.605 640.966 451.792V454H643.197V442.224H640.966V444.374C640.514 443.585 639.874 442.968 639.046 442.523C638.225 442.078 637.317 441.856 636.32 441.856C635.193 441.856 634.189 442.128 633.307 442.672C632.426 443.217 631.732 443.96 631.226 444.903C630.72 445.839 630.467 446.904 630.467 448.1C630.467 449.312 630.724 450.389 631.237 451.332C631.759 452.275 632.46 453.019 633.342 453.563C634.231 454.1 635.224 454.368 636.32 454.368ZM636.918 452.447C636.121 452.447 635.412 452.263 634.791 451.895C634.17 451.52 633.679 451.006 633.319 450.354C632.966 449.695 632.79 448.948 632.79 448.112C632.79 447.269 632.966 446.521 633.319 445.869C633.679 445.218 634.17 444.708 634.791 444.34C635.412 443.964 636.121 443.776 636.918 443.776C637.723 443.776 638.432 443.964 639.046 444.34C639.667 444.708 640.154 445.218 640.506 445.869C640.859 446.521 641.035 447.269 641.035 448.112C641.035 448.955 640.859 449.703 640.506 450.354C640.154 451.006 639.667 451.52 639.046 451.895C638.432 452.263 637.723 452.447 636.918 452.447ZM647.905 454H650.136V446.536C650.136 445.754 650.416 445.076 650.976 444.501C651.536 443.926 652.31 443.638 653.299 443.638C654.257 443.638 655.001 443.934 655.53 444.524C656.059 445.114 656.323 445.961 656.323 447.065V454H658.554V446.617C658.554 445.13 658.152 443.964 657.347 443.121C656.542 442.278 655.457 441.856 654.092 441.856C653.165 441.856 652.364 442.036 651.689 442.396C651.014 442.757 650.497 443.205 650.136 443.742V442.224H647.905V454ZM668.024 454.368C668.997 454.368 669.89 454.142 670.703 453.689C671.516 453.229 672.175 452.597 672.681 451.792V454H674.912V434.208H672.681V444.374C672.206 443.585 671.562 442.968 670.749 442.523C669.944 442.078 669.051 441.856 668.07 441.856C666.935 441.856 665.923 442.128 665.034 442.672C664.152 443.217 663.454 443.96 662.941 444.903C662.435 445.839 662.182 446.908 662.182 448.112C662.182 449.323 662.438 450.4 662.952 451.343C663.473 452.286 664.175 453.026 665.057 453.563C665.946 454.1 666.935 454.368 668.024 454.368ZM668.622 452.447C667.824 452.447 667.115 452.263 666.494 451.895C665.873 451.52 665.386 451.006 665.034 450.354C664.681 449.703 664.505 448.959 664.505 448.123C664.505 447.28 664.681 446.533 665.034 445.881C665.394 445.222 665.885 444.708 666.506 444.34C667.127 443.964 667.836 443.776 668.633 443.776C669.43 443.776 670.14 443.964 670.761 444.34C671.382 444.708 671.868 445.222 672.221 445.881C672.574 446.533 672.75 447.28 672.75 448.123C672.75 448.959 672.574 449.703 672.221 450.354C671.868 451.006 671.382 451.52 670.761 451.895C670.14 452.263 669.427 452.447 668.622 452.447ZM690.55 454.368C691.769 454.368 692.854 454.153 693.805 453.724C694.755 453.295 695.503 452.674 696.047 451.861C696.599 451.041 696.875 450.052 696.875 448.894C696.875 448.035 696.722 447.303 696.415 446.697C696.116 446.092 695.702 445.574 695.173 445.145C694.644 444.708 694.031 444.328 693.333 444.006C692.635 443.677 691.896 443.359 691.114 443.052C690.531 442.83 689.975 442.6 689.446 442.362C688.917 442.117 688.484 441.802 688.147 441.419C687.809 441.036 687.641 440.526 687.641 439.889C687.641 439.36 687.771 438.862 688.032 438.394C688.292 437.927 688.668 437.547 689.159 437.256C689.657 436.957 690.263 436.807 690.976 436.807C691.85 436.807 692.632 437.007 693.322 437.405C694.012 437.796 694.544 438.241 694.92 438.739L696.013 437.026C695.706 436.635 695.296 436.263 694.782 435.91C694.268 435.55 693.682 435.255 693.023 435.025C692.371 434.795 691.677 434.68 690.941 434.68C689.845 434.68 688.879 434.921 688.043 435.404C687.207 435.887 686.556 436.528 686.088 437.325C685.62 438.122 685.387 438.989 685.387 439.924C685.387 440.852 685.601 441.622 686.031 442.235C686.468 442.849 687.008 443.347 687.652 443.73C688.304 444.114 688.944 444.432 689.573 444.685C690.47 445.038 691.282 445.386 692.011 445.731C692.739 446.076 693.314 446.498 693.736 446.996C694.165 447.487 694.38 448.139 694.38 448.951C694.38 449.664 694.207 450.262 693.862 450.745C693.525 451.228 693.072 451.593 692.505 451.838C691.938 452.083 691.305 452.206 690.608 452.206C689.872 452.206 689.212 452.091 688.63 451.861C688.047 451.631 687.537 451.347 687.1 451.01C686.663 450.673 686.295 450.335 685.996 449.998C685.697 449.661 685.459 449.385 685.283 449.17L684.007 450.987C684.168 451.202 684.421 451.497 684.766 451.872C685.111 452.24 685.551 452.616 686.088 452.999C686.625 453.383 687.265 453.709 688.009 453.977C688.752 454.238 689.599 454.368 690.55 454.368ZM700.868 454H703.099V446.536C703.099 445.754 703.379 445.076 703.939 444.501C704.498 443.918 705.273 443.627 706.262 443.627C707.22 443.627 707.964 443.926 708.493 444.524C709.022 445.114 709.286 445.961 709.286 447.065V454H711.517V446.617C711.517 445.13 711.115 443.964 710.31 443.121C709.505 442.278 708.42 441.856 707.055 441.856C706.128 441.856 705.326 442.036 704.652 442.396C703.977 442.757 703.46 443.205 703.099 443.742V434.208H700.868V454ZM720.998 454.368C721.972 454.368 722.861 454.142 723.666 453.689C724.471 453.237 725.13 452.605 725.644 451.792V454H727.875V442.224H725.644V444.374C725.192 443.585 724.551 442.968 723.723 442.523C722.903 442.078 721.995 441.856 720.998 441.856C719.871 441.856 718.867 442.128 717.985 442.672C717.103 443.217 716.409 443.96 715.903 444.903C715.397 445.839 715.144 446.904 715.144 448.1C715.144 449.312 715.401 450.389 715.915 451.332C716.436 452.275 717.138 453.019 718.019 453.563C718.909 454.1 719.902 454.368 720.998 454.368ZM721.596 452.447C720.799 452.447 720.089 452.263 719.468 451.895C718.847 451.52 718.357 451.006 717.996 450.354C717.644 449.695 717.467 448.948 717.467 448.112C717.467 447.269 717.644 446.521 717.996 445.869C718.357 445.218 718.847 444.708 719.468 444.34C720.089 443.964 720.799 443.776 721.596 443.776C722.401 443.776 723.11 443.964 723.723 444.34C724.344 444.708 724.831 445.218 725.184 445.869C725.537 446.521 725.713 447.269 725.713 448.112C725.713 448.955 725.537 449.703 725.184 450.354C724.831 451.006 724.344 451.52 723.723 451.895C723.11 452.263 722.401 452.447 721.596 452.447ZM732.583 454H734.814V446.582C734.814 446.099 734.956 445.647 735.24 445.225C735.531 444.804 735.907 444.463 736.367 444.202C736.834 443.934 737.325 443.799 737.839 443.799C738.115 443.799 738.41 443.838 738.724 443.914C739.038 443.991 739.314 444.095 739.552 444.225L740.472 442.339C740.196 442.193 739.866 442.078 739.483 441.994C739.107 441.902 738.736 441.856 738.368 441.856C736.796 441.856 735.611 442.554 734.814 443.949V442.224H732.583V454ZM744.334 439.843C744.717 439.843 745.043 439.705 745.311 439.429C745.587 439.153 745.725 438.824 745.725 438.44C745.725 438.057 745.587 437.731 745.311 437.463C745.043 437.187 744.717 437.049 744.334 437.049C743.95 437.049 743.621 437.187 743.345 437.463C743.076 437.731 742.942 438.057 742.942 438.44C742.942 438.824 743.076 439.153 743.345 439.429C743.621 439.705 743.95 439.843 744.334 439.843ZM743.218 454H745.449V442.224H743.218V454ZM750.17 454H752.401V446.536C752.401 445.754 752.681 445.076 753.241 444.501C753.8 443.926 754.575 443.638 755.564 443.638C756.522 443.638 757.266 443.934 757.795 444.524C758.324 445.114 758.588 445.961 758.588 447.065V454H760.819V446.617C760.819 445.13 760.417 443.964 759.612 443.121C758.807 442.278 757.722 441.856 756.357 441.856C755.429 441.856 754.628 442.036 753.954 442.396C753.279 442.757 752.761 443.205 752.401 443.742V442.224H750.17V454ZM770.645 460.325C772.73 460.325 774.34 459.796 775.475 458.738C776.609 457.68 777.177 456.208 777.177 454.322V442.224H774.946V444.374C774.478 443.585 773.838 442.968 773.025 442.523C772.213 442.078 771.316 441.856 770.334 441.856C769.207 441.856 768.199 442.128 767.31 442.672C766.428 443.217 765.73 443.96 765.217 444.903C764.703 445.839 764.446 446.908 764.446 448.112C764.446 449.323 764.707 450.4 765.228 451.343C765.75 452.286 766.451 453.026 767.333 453.563C768.214 454.1 769.2 454.368 770.288 454.368C771.27 454.368 772.167 454.142 772.979 453.689C773.792 453.229 774.447 452.597 774.946 451.792V454.311C774.946 455.162 774.758 455.894 774.382 456.507C774.014 457.12 773.504 457.592 772.853 457.922C772.209 458.251 771.473 458.416 770.645 458.416C769.679 458.416 768.809 458.198 768.034 457.761C767.26 457.331 766.696 456.752 766.344 456.024L764.492 456.898C765.512 459.183 767.563 460.325 770.645 460.325ZM770.886 452.447C770.089 452.447 769.38 452.263 768.759 451.895C768.138 451.52 767.651 451.006 767.298 450.354C766.946 449.703 766.769 448.959 766.769 448.123C766.769 447.28 766.946 446.533 767.298 445.881C767.659 445.222 768.149 444.708 768.77 444.34C769.391 443.964 770.1 443.776 770.898 443.776C771.695 443.776 772.404 443.964 773.025 444.34C773.646 444.708 774.133 445.222 774.486 445.881C774.846 446.533 775.026 447.28 775.026 448.123C775.026 448.959 774.85 449.703 774.497 450.354C774.145 451.006 773.654 451.52 773.025 451.895C772.404 452.263 771.691 452.447 770.886 452.447ZM787.882 454H790.113V446.26C790.113 445.823 790.251 445.406 790.527 445.007C790.811 444.608 791.19 444.286 791.665 444.041C792.148 443.788 792.685 443.661 793.275 443.661C794.119 443.661 794.793 443.937 795.299 444.489C795.805 445.041 796.058 445.781 796.058 446.709V454H798.289V446.341C798.289 445.889 798.424 445.459 798.692 445.053C798.968 444.639 799.34 444.305 799.807 444.052C800.283 443.792 800.816 443.661 801.406 443.661C802.257 443.661 802.939 443.949 803.453 444.524C803.967 445.099 804.223 445.877 804.223 446.858V454H806.454V446.237C806.454 444.85 806.044 443.773 805.224 443.006C804.404 442.239 803.365 441.856 802.107 441.856C801.18 441.856 800.371 442.071 799.681 442.5C798.991 442.929 798.401 443.52 797.91 444.271C797.626 443.527 797.124 442.941 796.403 442.511C795.683 442.074 794.847 441.856 793.896 441.856C792.378 441.856 791.117 442.485 790.113 443.742V442.224H787.882V454ZM815.963 454.368C816.936 454.368 817.826 454.142 818.631 453.689C819.436 453.237 820.095 452.605 820.609 451.792V454H822.84V442.224H820.609V444.374C820.156 443.585 819.516 442.968 818.688 442.523C817.868 442.078 816.959 441.856 815.963 441.856C814.836 441.856 813.831 442.128 812.95 442.672C812.068 443.217 811.374 443.96 810.868 444.903C810.362 445.839 810.109 446.904 810.109 448.1C810.109 449.312 810.366 450.389 810.88 451.332C811.401 452.275 812.103 453.019 812.984 453.563C813.874 454.1 814.866 454.368 815.963 454.368ZM816.561 452.447C815.763 452.447 815.054 452.263 814.433 451.895C813.812 451.52 813.322 451.006 812.961 450.354C812.609 449.695 812.432 448.948 812.432 448.112C812.432 447.269 812.609 446.521 812.961 445.869C813.322 445.218 813.812 444.708 814.433 444.34C815.054 443.964 815.763 443.776 816.561 443.776C817.366 443.776 818.075 443.964 818.688 444.34C819.309 444.708 819.796 445.218 820.149 445.869C820.501 446.521 820.678 447.269 820.678 448.112C820.678 448.955 820.501 449.703 820.149 450.354C819.796 451.006 819.309 451.52 818.688 451.895C818.075 452.263 817.366 452.447 816.561 452.447ZM827.548 454H829.779V448.687L834.689 454H837.553L831.791 447.836L837.277 442.224H834.379L829.779 446.893V434.22H827.548V454ZM845.86 454.368C847.056 454.368 848.141 454.111 849.115 453.597C850.096 453.084 850.867 452.363 851.426 451.435L849.793 450.584C848.85 451.895 847.578 452.551 845.975 452.551C845.124 452.551 844.369 452.375 843.71 452.022C843.058 451.662 842.544 451.167 842.169 450.538C841.801 449.91 841.617 449.185 841.617 448.365H851.737C851.775 448.204 851.794 448.043 851.794 447.882C851.794 446.686 851.534 445.636 851.012 444.731C850.499 443.826 849.778 443.121 848.85 442.615C847.93 442.109 846.857 441.856 845.63 441.856C844.764 441.856 843.951 442.017 843.192 442.339C842.433 442.661 841.766 443.113 841.191 443.696C840.616 444.271 840.168 444.938 839.846 445.697C839.524 446.456 839.363 447.272 839.363 448.146C839.363 449.327 839.646 450.389 840.214 451.332C840.781 452.267 841.555 453.007 842.537 453.551C843.518 454.096 844.626 454.368 845.86 454.368ZM841.732 446.72C841.885 445.793 842.318 445.053 843.031 444.501C843.744 443.949 844.622 443.673 845.665 443.673C846.654 443.673 847.505 443.957 848.218 444.524C848.938 445.084 849.383 445.816 849.552 446.72H841.732ZM858.561 454.368C859.941 454.368 861.049 454.023 861.885 453.333C862.728 452.643 863.15 451.692 863.15 450.481C863.15 449.791 863.012 449.243 862.736 448.836C862.46 448.422 862.073 448.085 861.574 447.824C861.084 447.564 860.509 447.311 859.849 447.065C859.412 446.897 858.991 446.724 858.584 446.548C858.178 446.372 857.845 446.165 857.584 445.927C857.323 445.682 857.193 445.379 857.193 445.018C857.193 444.551 857.373 444.171 857.733 443.88C858.094 443.581 858.565 443.431 859.148 443.431C860.114 443.431 860.996 443.853 861.793 444.696L862.69 443.339C861.578 442.358 860.394 441.867 859.136 441.867C858.354 441.867 857.657 442.009 857.043 442.293C856.43 442.577 855.947 442.968 855.594 443.466C855.249 443.964 855.077 444.535 855.077 445.179C855.077 445.777 855.223 446.272 855.514 446.663C855.813 447.046 856.192 447.364 856.652 447.617C857.112 447.87 857.588 448.097 858.078 448.296C858.692 448.534 859.202 448.744 859.608 448.928C860.022 449.112 860.332 449.327 860.539 449.572C860.754 449.81 860.861 450.14 860.861 450.561C860.861 451.221 860.635 451.738 860.183 452.114C859.738 452.49 859.194 452.677 858.55 452.677C857.891 452.677 857.273 452.49 856.698 452.114C856.123 451.738 855.633 451.209 855.226 450.527L854.157 451.907C854.602 452.697 855.2 453.306 855.951 453.735C856.71 454.157 857.58 454.368 858.561 454.368ZM877.932 454.368C878.906 454.368 879.795 454.142 880.6 453.689C881.405 453.237 882.065 452.605 882.578 451.792V454H884.809V442.224H882.578V444.374C882.126 443.585 881.486 442.968 880.658 442.523C879.838 442.078 878.929 441.856 877.932 441.856C876.805 441.856 875.801 442.128 874.919 442.672C874.038 443.217 873.344 443.96 872.838 444.903C872.332 445.839 872.079 446.904 872.079 448.1C872.079 449.312 872.336 450.389 872.849 451.332C873.371 452.275 874.072 453.019 874.954 453.563C875.843 454.1 876.836 454.368 877.932 454.368ZM878.53 452.447C877.733 452.447 877.024 452.263 876.403 451.895C875.782 451.52 875.291 451.006 874.931 450.354C874.578 449.695 874.402 448.948 874.402 448.112C874.402 447.269 874.578 446.521 874.931 445.869C875.291 445.218 875.782 444.708 876.403 444.34C877.024 443.964 877.733 443.776 878.53 443.776C879.335 443.776 880.045 443.964 880.658 444.34C881.279 444.708 881.766 445.218 882.118 445.869C882.471 446.521 882.647 447.269 882.647 448.112C882.647 448.955 882.471 449.703 882.118 450.354C881.766 451.006 881.279 451.52 880.658 451.895C880.045 452.263 879.335 452.447 878.53 452.447ZM900.494 454.368C901.468 454.368 902.361 454.142 903.174 453.689C903.986 453.229 904.646 452.597 905.152 451.792V454H907.383V434.208H905.152V444.374C904.676 443.585 904.032 442.968 903.22 442.523C902.415 442.078 901.522 441.856 900.54 441.856C899.406 441.856 898.394 442.128 897.504 442.672C896.623 443.217 895.925 443.96 895.411 444.903C894.905 445.839 894.652 446.908 894.652 448.112C894.652 449.323 894.909 450.4 895.423 451.343C895.944 452.286 896.646 453.026 897.527 453.563C898.417 454.1 899.406 454.368 900.494 454.368ZM901.092 452.447C900.295 452.447 899.586 452.263 898.965 451.895C898.344 451.52 897.857 451.006 897.504 450.354C897.152 449.703 896.975 448.959 896.975 448.123C896.975 447.28 897.152 446.533 897.504 445.881C897.865 445.222 898.355 444.708 898.976 444.34C899.597 443.964 900.306 443.776 901.104 443.776C901.901 443.776 902.61 443.964 903.231 444.34C903.852 444.708 904.339 445.222 904.692 445.881C905.044 446.533 905.221 447.28 905.221 448.123C905.221 448.959 905.044 449.703 904.692 450.354C904.339 451.006 903.852 451.52 903.231 451.895C902.61 452.263 901.897 452.447 901.092 452.447ZM917.082 454.368C918.056 454.368 918.945 454.142 919.75 453.689C920.555 453.237 921.214 452.605 921.728 451.792V454H923.959V442.224H921.728V444.374C921.276 443.585 920.635 442.968 919.807 442.523C918.987 442.078 918.079 441.856 917.082 441.856C915.955 441.856 914.951 442.128 914.069 442.672C913.187 443.217 912.493 443.96 911.987 444.903C911.481 445.839 911.228 446.904 911.228 448.1C911.228 449.312 911.485 450.389 911.999 451.332C912.52 452.275 913.222 453.019 914.103 453.563C914.993 454.1 915.986 454.368 917.082 454.368ZM917.68 452.447C916.883 452.447 916.173 452.263 915.552 451.895C914.931 451.52 914.441 451.006 914.08 450.354C913.728 449.695 913.551 448.948 913.551 448.112C913.551 447.269 913.728 446.521 914.08 445.869C914.441 445.218 914.931 444.708 915.552 444.34C916.173 443.964 916.883 443.776 917.68 443.776C918.485 443.776 919.194 443.964 919.807 444.34C920.428 444.708 920.915 445.218 921.268 445.869C921.621 446.521 921.797 447.269 921.797 448.112C921.797 448.955 921.621 449.703 921.268 450.354C920.915 451.006 920.428 451.52 919.807 451.895C919.194 452.263 918.485 452.447 917.68 452.447ZM929.106 459.98H931.636L939.997 442.224H937.455L933.557 451.136L929.21 442.224H926.668L932.269 453.356L929.106 459.98ZM433.159 493H434.643L438.104 484.536L441.566 493H443.061L448.914 481.224H446.361L442.371 489.906L438.863 481.224H437.357L433.838 489.906L429.859 481.224H427.306L433.159 493ZM457.368 493.368C458.618 493.368 459.741 493.104 460.737 492.574C461.742 492.045 462.535 491.309 463.118 490.366C463.708 489.423 464.003 488.339 464.003 487.112C464.003 485.878 463.708 484.793 463.118 483.857C462.535 482.914 461.742 482.178 460.737 481.649C459.741 481.12 458.618 480.856 457.368 480.856C456.118 480.856 454.991 481.12 453.987 481.649C452.99 482.178 452.197 482.914 451.606 483.857C451.024 484.793 450.732 485.878 450.732 487.112C450.732 488.339 451.024 489.423 451.606 490.366C452.197 491.309 452.99 492.045 453.987 492.574C454.991 493.104 456.118 493.368 457.368 493.368ZM457.368 491.424C456.548 491.424 455.812 491.24 455.16 490.872C454.508 490.504 453.995 489.995 453.619 489.343C453.243 488.691 453.055 487.948 453.055 487.112C453.055 486.269 453.243 485.525 453.619 484.881C453.995 484.229 454.508 483.719 455.16 483.351C455.812 482.983 456.548 482.799 457.368 482.799C458.196 482.799 458.936 482.983 459.587 483.351C460.239 483.719 460.753 484.229 461.128 484.881C461.504 485.525 461.692 486.269 461.692 487.112C461.692 487.948 461.504 488.691 461.128 489.343C460.753 489.995 460.239 490.504 459.587 490.872C458.936 491.24 458.196 491.424 457.368 491.424ZM467.735 493H469.966V485.582C469.966 485.099 470.108 484.647 470.391 484.225C470.683 483.804 471.058 483.463 471.518 483.202C471.986 482.934 472.477 482.799 472.99 482.799C473.266 482.799 473.562 482.838 473.876 482.914C474.19 482.991 474.466 483.095 474.704 483.225L475.624 481.339C475.348 481.193 475.018 481.078 474.635 480.994C474.259 480.902 473.887 480.856 473.519 480.856C471.948 480.856 470.763 481.554 469.966 482.949V481.224H467.735V493ZM481.647 493.368C482.483 493.368 483.223 493.176 483.867 492.793L483.303 491.01C482.966 491.263 482.583 491.39 482.153 491.39C481.264 491.39 480.819 490.784 480.819 489.573V482.914H483.648V481.224H480.819V476.819H478.588V481.224H477.277V482.914H478.588V489.711C478.588 490.869 478.857 491.769 479.393 492.413C479.93 493.05 480.681 493.368 481.647 493.368ZM487.343 493H489.574V485.536C489.574 484.754 489.854 484.076 490.414 483.501C490.974 482.918 491.748 482.627 492.737 482.627C493.695 482.627 494.439 482.926 494.968 483.524C495.497 484.114 495.761 484.961 495.761 486.065V493H497.992V485.617C497.992 484.13 497.59 482.964 496.785 482.121C495.98 481.278 494.895 480.856 493.53 480.856C492.603 480.856 491.802 481.036 491.127 481.396C490.452 481.757 489.935 482.205 489.574 482.742V473.208H487.343V493ZM503.011 498.98H505.541L513.902 481.224H511.36L507.462 490.136L503.115 481.224H500.573L506.174 492.356L503.011 498.98ZM516.885 496.14C517.567 495.595 518.119 494.947 518.541 494.196C518.97 493.445 519.185 492.732 519.185 492.057C519.185 491.513 519.043 491.091 518.759 490.792C518.475 490.493 518.1 490.343 517.632 490.343C517.18 490.343 516.812 490.481 516.528 490.757C516.244 491.033 516.103 491.39 516.103 491.827C516.103 492.187 516.21 492.498 516.425 492.758C516.647 493.019 516.938 493.188 517.299 493.265C517.26 493.686 517.138 494.127 516.931 494.587C516.724 495.047 516.505 495.4 516.275 495.645L516.885 496.14ZM530.154 493H532.385V485.26C532.385 484.823 532.523 484.406 532.799 484.007C533.083 483.608 533.462 483.286 533.937 483.041C534.42 482.788 534.957 482.661 535.547 482.661C536.391 482.661 537.065 482.937 537.571 483.489C538.077 484.041 538.33 484.781 538.33 485.709V493H540.561V485.341C540.561 484.889 540.696 484.459 540.964 484.053C541.24 483.639 541.612 483.305 542.079 483.052C542.555 482.792 543.088 482.661 543.678 482.661C544.529 482.661 545.211 482.949 545.725 483.524C546.239 484.099 546.495 484.877 546.495 485.858V493H548.726V485.237C548.726 483.85 548.316 482.773 547.496 482.006C546.676 481.239 545.637 480.856 544.379 480.856C543.452 480.856 542.643 481.071 541.953 481.5C541.263 481.929 540.673 482.52 540.182 483.271C539.898 482.527 539.396 481.941 538.675 481.511C537.955 481.074 537.119 480.856 536.168 480.856C534.65 480.856 533.389 481.485 532.385 482.742V481.224H530.154V493ZM558.235 493.368C559.208 493.368 560.098 493.142 560.903 492.689C561.708 492.237 562.367 491.605 562.881 490.792V493H565.112V481.224H562.881V483.374C562.428 482.585 561.788 481.968 560.96 481.523C560.14 481.078 559.231 480.856 558.235 480.856C557.108 480.856 556.103 481.128 555.222 481.672C554.34 482.217 553.646 482.96 553.14 483.903C552.634 484.839 552.381 485.904 552.381 487.1C552.381 488.312 552.638 489.389 553.152 490.332C553.673 491.275 554.375 492.019 555.256 492.563C556.146 493.1 557.138 493.368 558.235 493.368ZM558.833 491.447C558.035 491.447 557.326 491.263 556.705 490.895C556.084 490.52 555.594 490.006 555.233 489.354C554.881 488.695 554.704 487.948 554.704 487.112C554.704 486.269 554.881 485.521 555.233 484.869C555.594 484.218 556.084 483.708 556.705 483.34C557.326 482.964 558.035 482.776 558.833 482.776C559.638 482.776 560.347 482.964 560.96 483.34C561.581 483.708 562.068 484.218 562.421 484.869C562.773 485.521 562.95 486.269 562.95 487.112C562.95 487.955 562.773 488.703 562.421 489.354C562.068 490.006 561.581 490.52 560.96 490.895C560.347 491.263 559.638 491.447 558.833 491.447ZM569.82 493H572.051V487.687L576.961 493H579.825L574.063 486.836L579.549 481.224H576.651L572.051 485.893V473.22H569.82V493ZM588.132 493.368C589.328 493.368 590.413 493.111 591.387 492.597C592.368 492.084 593.139 491.363 593.698 490.435L592.065 489.584C591.122 490.895 589.85 491.551 588.247 491.551C587.396 491.551 586.641 491.375 585.982 491.022C585.33 490.662 584.816 490.167 584.441 489.538C584.073 488.91 583.889 488.185 583.889 487.365H594.009C594.047 487.204 594.066 487.043 594.066 486.882C594.066 485.686 593.806 484.636 593.284 483.731C592.771 482.826 592.05 482.121 591.122 481.615C590.202 481.109 589.129 480.856 587.902 480.856C587.036 480.856 586.223 481.017 585.464 481.339C584.705 481.661 584.038 482.113 583.463 482.696C582.888 483.271 582.44 483.938 582.118 484.697C581.796 485.456 581.635 486.272 581.635 487.146C581.635 488.327 581.918 489.389 582.486 490.332C583.053 491.267 583.827 492.007 584.809 492.551C585.79 493.096 586.898 493.368 588.132 493.368ZM584.004 485.72C584.157 484.793 584.59 484.053 585.303 483.501C586.016 482.949 586.894 482.673 587.937 482.673C588.926 482.673 589.777 482.957 590.49 483.524C591.21 484.084 591.655 484.816 591.824 485.72H584.004ZM604.885 478.843C605.268 478.843 605.594 478.705 605.862 478.429C606.138 478.153 606.276 477.824 606.276 477.44C606.276 477.057 606.138 476.731 605.862 476.463C605.594 476.187 605.268 476.049 604.885 476.049C604.502 476.049 604.172 476.187 603.896 476.463C603.628 476.731 603.493 477.057 603.493 477.44C603.493 477.824 603.628 478.153 603.896 478.429C604.172 478.705 604.502 478.843 604.885 478.843ZM603.769 493H606V481.224H603.769V493ZM613.987 493.368C614.823 493.368 615.563 493.176 616.207 492.793L615.643 491.01C615.306 491.263 614.923 491.39 614.493 491.39C613.604 491.39 613.159 490.784 613.159 489.573V482.914H615.988V481.224H613.159V476.819H610.928V481.224H609.617V482.914H610.928V489.711C610.928 490.869 611.197 491.769 611.733 492.413C612.27 493.05 613.021 493.368 613.987 493.368ZM631.235 493.368C632.431 493.368 633.516 493.111 634.489 492.597C635.471 492.084 636.241 491.363 636.801 490.435L635.168 489.584C634.225 490.895 632.952 491.551 631.35 491.551C630.499 491.551 629.744 491.375 629.084 491.022C628.433 490.662 627.919 490.167 627.543 489.538C627.175 488.91 626.991 488.185 626.991 487.365H637.111C637.15 487.204 637.169 487.043 637.169 486.882C637.169 485.686 636.908 484.636 636.387 483.731C635.873 482.826 635.152 482.121 634.225 481.615C633.305 481.109 632.231 480.856 631.005 480.856C630.138 480.856 629.326 481.017 628.567 481.339C627.808 481.661 627.141 482.113 626.566 482.696C625.991 483.271 625.542 483.938 625.22 484.697C624.898 485.456 624.737 486.272 624.737 487.146C624.737 488.327 625.021 489.389 625.588 490.332C626.156 491.267 626.93 492.007 627.911 492.551C628.893 493.096 630 493.368 631.235 493.368ZM627.106 485.72C627.26 484.793 627.693 484.053 628.406 483.501C629.119 482.949 629.997 482.673 631.039 482.673C632.028 482.673 632.879 482.957 633.592 483.524C634.313 484.084 634.758 484.816 634.926 485.72H627.106ZM645.765 493.368C646.739 493.368 647.628 493.142 648.433 492.689C649.238 492.237 649.897 491.605 650.411 490.792V493H652.642V481.224H650.411V483.374C649.959 482.585 649.319 481.968 648.491 481.523C647.67 481.078 646.762 480.856 645.765 480.856C644.638 480.856 643.634 481.128 642.752 481.672C641.87 482.217 641.177 482.96 640.671 483.903C640.165 484.839 639.912 485.904 639.912 487.1C639.912 488.312 640.168 489.389 640.682 490.332C641.203 491.275 641.905 492.019 642.787 492.563C643.676 493.1 644.669 493.368 645.765 493.368ZM646.363 491.447C645.566 491.447 644.857 491.263 644.236 490.895C643.615 490.52 643.124 490.006 642.764 489.354C642.411 488.695 642.235 487.948 642.235 487.112C642.235 486.269 642.411 485.521 642.764 484.869C643.124 484.218 643.615 483.708 644.236 483.34C644.857 482.964 645.566 482.776 646.363 482.776C647.168 482.776 647.877 482.964 648.491 483.34C649.112 483.708 649.598 484.218 649.951 484.869C650.304 485.521 650.48 486.269 650.48 487.112C650.48 487.955 650.304 488.703 649.951 489.354C649.598 490.006 649.112 490.52 648.491 490.895C647.877 491.263 647.168 491.447 646.363 491.447ZM660.4 493.368C661.78 493.368 662.888 493.023 663.723 492.333C664.567 491.643 664.988 490.692 664.988 489.481C664.988 488.791 664.85 488.243 664.574 487.836C664.298 487.422 663.911 487.085 663.413 486.824C662.922 486.564 662.347 486.311 661.688 486.065C661.251 485.897 660.829 485.724 660.423 485.548C660.016 485.372 659.683 485.165 659.422 484.927C659.162 484.682 659.031 484.379 659.031 484.018C659.031 483.551 659.211 483.171 659.572 482.88C659.932 482.581 660.404 482.431 660.986 482.431C661.952 482.431 662.834 482.853 663.631 483.696L664.528 482.339C663.417 481.358 662.232 480.867 660.975 480.867C660.193 480.867 659.495 481.009 658.882 481.293C658.268 481.577 657.785 481.968 657.433 482.466C657.088 482.964 656.915 483.535 656.915 484.179C656.915 484.777 657.061 485.272 657.352 485.663C657.651 486.046 658.031 486.364 658.491 486.617C658.951 486.87 659.426 487.097 659.917 487.296C660.53 487.534 661.04 487.744 661.446 487.928C661.86 488.112 662.171 488.327 662.378 488.572C662.592 488.81 662.7 489.14 662.7 489.561C662.7 490.221 662.474 490.738 662.021 491.114C661.577 491.49 661.032 491.677 660.388 491.677C659.729 491.677 659.112 491.49 658.537 491.114C657.962 490.738 657.471 490.209 657.065 489.527L655.995 490.907C656.44 491.697 657.038 492.306 657.789 492.735C658.548 493.157 659.418 493.368 660.4 493.368ZM669.887 478.843C670.27 478.843 670.596 478.705 670.864 478.429C671.14 478.153 671.278 477.824 671.278 477.44C671.278 477.057 671.14 476.731 670.864 476.463C670.596 476.187 670.27 476.049 669.887 476.049C669.503 476.049 669.174 476.187 668.898 476.463C668.629 476.731 668.495 477.057 668.495 477.44C668.495 477.824 668.629 478.153 668.898 478.429C669.174 478.705 669.503 478.843 669.887 478.843ZM668.771 493H671.002V481.224H668.771V493ZM681.278 493.368C682.474 493.368 683.559 493.111 684.532 492.597C685.514 492.084 686.284 491.363 686.844 490.435L685.211 489.584C684.268 490.895 682.995 491.551 681.393 491.551C680.542 491.551 679.787 491.375 679.127 491.022C678.476 490.662 677.962 490.167 677.586 489.538C677.218 488.91 677.034 488.185 677.034 487.365H687.154C687.193 487.204 687.212 487.043 687.212 486.882C687.212 485.686 686.951 484.636 686.43 483.731C685.916 482.826 685.195 482.121 684.268 481.615C683.348 481.109 682.274 480.856 681.048 480.856C680.181 480.856 679.369 481.017 678.61 481.339C677.851 481.661 677.184 482.113 676.609 482.696C676.034 483.271 675.585 483.938 675.263 484.697C674.941 485.456 674.78 486.272 674.78 487.146C674.78 488.327 675.064 489.389 675.631 490.332C676.199 491.267 676.973 492.007 677.954 492.551C678.936 493.096 680.043 493.368 681.278 493.368ZM677.149 485.72C677.303 484.793 677.736 484.053 678.449 483.501C679.162 482.949 680.04 482.673 681.082 482.673C682.071 482.673 682.922 482.957 683.635 483.524C684.356 484.084 684.801 484.816 684.969 485.72H677.149ZM690.884 493H693.115V485.582C693.115 485.099 693.257 484.647 693.541 484.225C693.832 483.804 694.208 483.463 694.668 483.202C695.136 482.934 695.626 482.799 696.14 482.799C696.416 482.799 696.711 482.838 697.025 482.914C697.34 482.991 697.616 483.095 697.853 483.225L698.773 481.339C698.497 481.193 698.168 481.078 697.784 480.994C697.409 480.902 697.037 480.856 696.669 480.856C695.097 480.856 693.913 481.554 693.115 482.949V481.224H690.884V493ZM711.361 493H712.844L716.306 484.536L719.767 493H721.262L727.116 481.224H724.563L720.572 489.906L717.065 481.224H715.558L712.039 489.906L708.06 481.224H705.507L711.361 493ZM731.048 478.843C731.431 478.843 731.757 478.705 732.025 478.429C732.301 478.153 732.439 477.824 732.439 477.44C732.439 477.057 732.301 476.731 732.025 476.463C731.757 476.187 731.431 476.049 731.048 476.049C730.665 476.049 730.335 476.187 730.059 476.463C729.791 476.731 729.656 477.057 729.656 477.44C729.656 477.824 729.791 478.153 730.059 478.429C730.335 478.705 730.665 478.843 731.048 478.843ZM729.932 493H732.163V481.224H729.932V493ZM740.15 493.368C740.986 493.368 741.726 493.176 742.37 492.793L741.806 491.01C741.469 491.263 741.086 491.39 740.656 491.39C739.767 491.39 739.322 490.784 739.322 489.573V482.914H742.151V481.224H739.322V476.819H737.091V481.224H735.78V482.914H737.091V489.711C737.091 490.869 737.36 491.769 737.896 492.413C738.433 493.05 739.184 493.368 740.15 493.368ZM745.846 493H748.077V485.536C748.077 484.754 748.357 484.076 748.917 483.501C749.476 482.918 750.251 482.627 751.24 482.627C752.198 482.627 752.942 482.926 753.471 483.524C754 484.114 754.264 484.961 754.264 486.065V493H756.495V485.617C756.495 484.13 756.093 482.964 755.288 482.121C754.483 481.278 753.398 480.856 752.033 480.856C751.106 480.856 750.304 481.036 749.63 481.396C748.955 481.757 748.438 482.205 748.077 482.742V473.208H745.846V493Z" fill="#484848"/>
<path d="M775.4 493.368C776.726 493.368 777.968 493.115 779.126 492.609C780.284 492.103 781.3 491.401 782.174 490.504C783.048 489.6 783.73 488.553 784.221 487.365C784.719 486.169 784.968 484.889 784.968 483.524C784.968 482.159 784.719 480.883 784.221 479.694C783.73 478.498 783.048 477.452 782.174 476.555C781.3 475.65 780.284 474.945 779.126 474.439C777.968 473.933 776.726 473.68 775.4 473.68C774.074 473.68 772.832 473.933 771.674 474.439C770.516 474.945 769.501 475.65 768.627 476.555C767.753 477.452 767.066 478.498 766.568 479.694C766.077 480.883 765.832 482.159 765.832 483.524C765.832 484.889 766.077 486.169 766.568 487.365C767.066 488.553 767.753 489.6 768.627 490.504C769.501 491.401 770.516 492.103 771.674 492.609C772.832 493.115 774.074 493.368 775.4 493.368ZM775.4 489.78C774.327 489.78 773.368 489.512 772.525 488.975C771.689 488.438 771.034 487.698 770.559 486.755C770.083 485.812 769.846 484.735 769.846 483.524C769.846 482.313 770.083 481.235 770.559 480.292C771.034 479.349 771.689 478.61 772.525 478.073C773.368 477.536 774.327 477.268 775.4 477.268C776.481 477.268 777.439 477.536 778.275 478.073C779.111 478.61 779.766 479.349 780.242 480.292C780.717 481.235 780.955 482.313 780.955 483.524C780.955 484.735 780.717 485.812 780.242 486.755C779.766 487.698 779.111 488.438 778.275 488.975C777.439 489.512 776.481 489.78 775.4 489.78ZM788.246 493H791.777V486.422C791.777 485.985 791.903 485.579 792.156 485.203C792.417 484.82 792.75 484.509 793.157 484.271C793.571 484.034 794.008 483.915 794.468 483.915C795.135 483.915 795.763 484.107 796.354 484.49L797.826 481.511C797.519 481.32 797.143 481.163 796.699 481.04C796.262 480.917 795.836 480.856 795.422 480.856C794.694 480.856 794.011 481.036 793.375 481.396C792.746 481.749 792.214 482.255 791.777 482.914V481.224H788.246V493ZM807.461 493.368C808.527 493.368 809.497 493.104 810.371 492.574C811.253 492.038 811.954 491.298 812.475 490.355C812.997 489.412 813.257 488.331 813.257 487.112C813.257 485.916 813.001 484.846 812.487 483.903C811.981 482.96 811.283 482.217 810.394 481.672C809.512 481.128 808.504 480.856 807.369 480.856C806.549 480.856 805.786 481.017 805.081 481.339C804.376 481.653 803.789 482.094 803.321 482.661V473.22H799.791V493H803.321V491.447C803.843 492.053 804.46 492.525 805.173 492.862C805.886 493.199 806.649 493.368 807.461 493.368ZM806.403 490.366C805.476 490.366 804.713 490.064 804.115 489.458C803.525 488.845 803.229 488.07 803.229 487.135C803.229 486.184 803.528 485.402 804.126 484.789C804.732 484.168 805.491 483.857 806.403 483.857C807.308 483.857 808.056 484.168 808.646 484.789C809.244 485.402 809.543 486.184 809.543 487.135C809.543 488.07 809.248 488.845 808.657 489.458C808.075 490.064 807.323 490.366 806.403 490.366ZM818.261 478.774C818.836 478.774 819.327 478.567 819.733 478.153C820.14 477.739 820.343 477.245 820.343 476.67C820.343 476.095 820.14 475.604 819.733 475.198C819.327 474.792 818.836 474.588 818.261 474.588C817.679 474.588 817.18 474.792 816.766 475.198C816.36 475.604 816.157 476.095 816.157 476.67C816.157 477.253 816.36 477.751 816.766 478.165C817.18 478.571 817.679 478.774 818.261 478.774ZM816.49 493H820.021V481.224H816.49V493ZM828.243 493.368C828.718 493.368 829.201 493.307 829.692 493.184C830.19 493.061 830.639 492.893 831.038 492.678L830.152 489.849C829.822 490.094 829.47 490.217 829.094 490.217C828.404 490.217 828.059 489.765 828.059 488.86V483.903H830.647V481.224H828.059V476.808H824.529V481.224H822.953V483.903H824.529V489.113C824.529 490.455 824.854 491.501 825.506 492.252C826.165 492.996 827.078 493.368 828.243 493.368ZM837.424 493.368C839.049 493.368 840.314 493.023 841.219 492.333C842.131 491.635 842.587 490.646 842.587 489.366C842.587 488.668 842.457 488.112 842.196 487.698C841.936 487.277 841.575 486.936 841.115 486.675C840.663 486.414 840.142 486.177 839.551 485.962C839.191 485.832 838.811 485.69 838.413 485.536C838.022 485.375 837.688 485.191 837.412 484.984C837.144 484.777 837.01 484.54 837.01 484.271C837.01 483.98 837.14 483.739 837.401 483.547C837.661 483.355 838.01 483.259 838.447 483.259C839.222 483.259 840.107 483.578 841.104 484.214L842.311 481.948C840.855 481.235 839.559 480.879 838.424 480.879C837.489 480.879 836.661 481.036 835.94 481.35C835.227 481.665 834.668 482.102 834.261 482.661C833.855 483.213 833.652 483.854 833.652 484.582C833.652 485.188 833.786 485.686 834.054 486.077C834.33 486.46 834.687 486.778 835.124 487.031C835.561 487.284 836.017 487.511 836.492 487.71C837.32 488.055 837.93 488.327 838.321 488.526C838.712 488.718 838.907 489.04 838.907 489.492C838.907 489.899 838.769 490.213 838.493 490.435C838.225 490.65 837.868 490.757 837.424 490.757C836.335 490.757 835.285 490.221 834.273 489.147L832.789 491.516C833.847 492.751 835.392 493.368 837.424 493.368ZM848.457 493.368C849.094 493.368 849.634 493.146 850.079 492.701C850.531 492.249 850.757 491.704 850.757 491.068C850.757 490.432 850.531 489.891 850.079 489.446C849.634 488.994 849.094 488.768 848.457 488.768C847.821 488.768 847.277 488.994 846.824 489.446C846.38 489.891 846.157 490.432 846.157 491.068C846.157 491.704 846.38 492.249 846.824 492.701C847.277 493.146 847.821 493.368 848.457 493.368Z" fill="#1A6EFC"/>
<circle cx="209" cy="153" r="17.5" fill="white" stroke="#1A6EFC" stroke-width="11"/>
</g>
<defs>
<linearGradient id="paint0_linear" x1="400.172" y1="349.882" x2="463.7" y2="284.934" gradientUnits="userSpaceOnUse">
<stop stop-color="#1A6EFC"/>
<stop offset="1" stop-color="#1A6EFC" stop-opacity="0"/>
</linearGradient>
<clipPath id="clip0">
<rect width="1280" height="720" fill="white"/>
</clipPath>
</defs>
</svg>
